<?xml version="1.0" encoding="utf-8" standalone="no"?>
<!DOCTYPE svg PUBLIC "-//W3C//DTD SVG 1.1//EN"
  "http://www.w3.org/Graphics/SVG/1.1/DTD/svg11.dtd">
<!-- Created with matplotlib (https://matplotlib.org/) -->
<svg height="571.768575pt" version="1.1" viewBox="0 0 1442.468437 571.768575" width="1442.468437pt" xmlns="http://www.w3.org/2000/svg" xmlns:xlink="http://www.w3.org/1999/xlink">
 <defs>
  <style type="text/css">
*{stroke-linecap:butt;stroke-linejoin:round;}
  </style>
 </defs>
 <g id="figure_1">
  <g id="patch_1">
   <path d="M 0 571.768575 
L 1442.468437 571.768575 
L 1442.468437 0 
L 0 0 
z
" style="fill:#ffffff;"/>
  </g>
  <g id="axes_1">
   <g id="patch_2">
    <path d="M 96.068438 496.44 
L 1435.268438 496.44 
L 1435.268438 7.2 
L 96.068438 7.2 
z
" style="fill:#eaeaf2;"/>
   </g>
   <g id="matplotlib.axis_1">
    <g id="xtick_1">
     <g id="line2d_1">
      <defs>
       <path d="M 0 0 
L 0 10 
" id="m285d778349" style="stroke:#808080;stroke-width:2;"/>
      </defs>
      <g>
       <use style="fill:#808080;stroke:#808080;stroke-width:2;" x="179.768438" xlink:href="#m285d778349" y="496.44"/>
      </g>
     </g>
     <g id="text_1">
      <!-- py.ES default -->
      <defs>
       <path d="M 18.109375 8.203125 
L 18.109375 -20.796875 
L 9.078125 -20.796875 
L 9.078125 54.6875 
L 18.109375 54.6875 
L 18.109375 46.390625 
Q 20.953125 51.265625 25.265625 53.625 
Q 29.59375 56 35.59375 56 
Q 45.5625 56 51.78125 48.09375 
Q 58.015625 40.1875 58.015625 27.296875 
Q 58.015625 14.40625 51.78125 6.484375 
Q 45.5625 -1.421875 35.59375 -1.421875 
Q 29.59375 -1.421875 25.265625 0.953125 
Q 20.953125 3.328125 18.109375 8.203125 
z
M 48.6875 27.296875 
Q 48.6875 37.203125 44.609375 42.84375 
Q 40.53125 48.484375 33.40625 48.484375 
Q 26.265625 48.484375 22.1875 42.84375 
Q 18.109375 37.203125 18.109375 27.296875 
Q 18.109375 17.390625 22.1875 11.75 
Q 26.265625 6.109375 33.40625 6.109375 
Q 40.53125 6.109375 44.609375 11.75 
Q 48.6875 17.390625 48.6875 27.296875 
z
" id="DejaVuSans-112"/>
       <path d="M 32.171875 -5.078125 
Q 28.375 -14.84375 24.75 -17.8125 
Q 21.140625 -20.796875 15.09375 -20.796875 
L 7.90625 -20.796875 
L 7.90625 -13.28125 
L 13.1875 -13.28125 
Q 16.890625 -13.28125 18.9375 -11.515625 
Q 21 -9.765625 23.484375 -3.21875 
L 25.09375 0.875 
L 2.984375 54.6875 
L 12.5 54.6875 
L 29.59375 11.921875 
L 46.6875 54.6875 
L 56.203125 54.6875 
z
" id="DejaVuSans-121"/>
       <path d="M 10.6875 12.40625 
L 21 12.40625 
L 21 0 
L 10.6875 0 
z
" id="DejaVuSans-46"/>
       <path d="M 9.8125 72.90625 
L 55.90625 72.90625 
L 55.90625 64.59375 
L 19.671875 64.59375 
L 19.671875 43.015625 
L 54.390625 43.015625 
L 54.390625 34.71875 
L 19.671875 34.71875 
L 19.671875 8.296875 
L 56.78125 8.296875 
L 56.78125 0 
L 9.8125 0 
z
" id="DejaVuSans-69"/>
       <path d="M 53.515625 70.515625 
L 53.515625 60.890625 
Q 47.90625 63.578125 42.921875 64.890625 
Q 37.9375 66.21875 33.296875 66.21875 
Q 25.25 66.21875 20.875 63.09375 
Q 16.5 59.96875 16.5 54.203125 
Q 16.5 49.359375 19.40625 46.890625 
Q 22.3125 44.4375 30.421875 42.921875 
L 36.375 41.703125 
Q 47.40625 39.59375 52.65625 34.296875 
Q 57.90625 29 57.90625 20.125 
Q 57.90625 9.515625 50.796875 4.046875 
Q 43.703125 -1.421875 29.984375 -1.421875 
Q 24.8125 -1.421875 18.96875 -0.25 
Q 13.140625 0.921875 6.890625 3.21875 
L 6.890625 13.375 
Q 12.890625 10.015625 18.65625 8.296875 
Q 24.421875 6.59375 29.984375 6.59375 
Q 38.421875 6.59375 43.015625 9.90625 
Q 47.609375 13.234375 47.609375 19.390625 
Q 47.609375 24.75 44.3125 27.78125 
Q 41.015625 30.8125 33.5 32.328125 
L 27.484375 33.5 
Q 16.453125 35.6875 11.515625 40.375 
Q 6.59375 45.0625 6.59375 53.421875 
Q 6.59375 63.09375 13.40625 68.65625 
Q 20.21875 74.21875 32.171875 74.21875 
Q 37.3125 74.21875 42.625 73.28125 
Q 47.953125 72.359375 53.515625 70.515625 
z
" id="DejaVuSans-83"/>
       <path id="DejaVuSans-32"/>
       <path d="M 45.40625 46.390625 
L 45.40625 75.984375 
L 54.390625 75.984375 
L 54.390625 0 
L 45.40625 0 
L 45.40625 8.203125 
Q 42.578125 3.328125 38.25 0.953125 
Q 33.9375 -1.421875 27.875 -1.421875 
Q 17.96875 -1.421875 11.734375 6.484375 
Q 5.515625 14.40625 5.515625 27.296875 
Q 5.515625 40.1875 11.734375 48.09375 
Q 17.96875 56 27.875 56 
Q 33.9375 56 38.25 53.625 
Q 42.578125 51.265625 45.40625 46.390625 
z
M 14.796875 27.296875 
Q 14.796875 17.390625 18.875 11.75 
Q 22.953125 6.109375 30.078125 6.109375 
Q 37.203125 6.109375 41.296875 11.75 
Q 45.40625 17.390625 45.40625 27.296875 
Q 45.40625 37.203125 41.296875 42.84375 
Q 37.203125 48.484375 30.078125 48.484375 
Q 22.953125 48.484375 18.875 42.84375 
Q 14.796875 37.203125 14.796875 27.296875 
z
" id="DejaVuSans-100"/>
       <path d="M 56.203125 29.59375 
L 56.203125 25.203125 
L 14.890625 25.203125 
Q 15.484375 15.921875 20.484375 11.0625 
Q 25.484375 6.203125 34.421875 6.203125 
Q 39.59375 6.203125 44.453125 7.46875 
Q 49.3125 8.734375 54.109375 11.28125 
L 54.109375 2.78125 
Q 49.265625 0.734375 44.1875 -0.34375 
Q 39.109375 -1.421875 33.890625 -1.421875 
Q 20.796875 -1.421875 13.15625 6.1875 
Q 5.515625 13.8125 5.515625 26.8125 
Q 5.515625 40.234375 12.765625 48.109375 
Q 20.015625 56 32.328125 56 
Q 43.359375 56 49.78125 48.890625 
Q 56.203125 41.796875 56.203125 29.59375 
z
M 47.21875 32.234375 
Q 47.125 39.59375 43.09375 43.984375 
Q 39.0625 48.390625 32.421875 48.390625 
Q 24.90625 48.390625 20.390625 44.140625 
Q 15.875 39.890625 15.1875 32.171875 
z
" id="DejaVuSans-101"/>
       <path d="M 37.109375 75.984375 
L 37.109375 68.5 
L 28.515625 68.5 
Q 23.6875 68.5 21.796875 66.546875 
Q 19.921875 64.59375 19.921875 59.515625 
L 19.921875 54.6875 
L 34.71875 54.6875 
L 34.71875 47.703125 
L 19.921875 47.703125 
L 19.921875 0 
L 10.890625 0 
L 10.890625 47.703125 
L 2.296875 47.703125 
L 2.296875 54.6875 
L 10.890625 54.6875 
L 10.890625 58.5 
Q 10.890625 67.625 15.140625 71.796875 
Q 19.390625 75.984375 28.609375 75.984375 
z
" id="DejaVuSans-102"/>
       <path d="M 34.28125 27.484375 
Q 23.390625 27.484375 19.1875 25 
Q 14.984375 22.515625 14.984375 16.5 
Q 14.984375 11.71875 18.140625 8.90625 
Q 21.296875 6.109375 26.703125 6.109375 
Q 34.1875 6.109375 38.703125 11.40625 
Q 43.21875 16.703125 43.21875 25.484375 
L 43.21875 27.484375 
z
M 52.203125 31.203125 
L 52.203125 0 
L 43.21875 0 
L 43.21875 8.296875 
Q 40.140625 3.328125 35.546875 0.953125 
Q 30.953125 -1.421875 24.3125 -1.421875 
Q 15.921875 -1.421875 10.953125 3.296875 
Q 6 8.015625 6 15.921875 
Q 6 25.140625 12.171875 29.828125 
Q 18.359375 34.515625 30.609375 34.515625 
L 43.21875 34.515625 
L 43.21875 35.40625 
Q 43.21875 41.609375 39.140625 45 
Q 35.0625 48.390625 27.6875 48.390625 
Q 23 48.390625 18.546875 47.265625 
Q 14.109375 46.140625 10.015625 43.890625 
L 10.015625 52.203125 
Q 14.9375 54.109375 19.578125 55.046875 
Q 24.21875 56 28.609375 56 
Q 40.484375 56 46.34375 49.84375 
Q 52.203125 43.703125 52.203125 31.203125 
z
" id="DejaVuSans-97"/>
       <path d="M 8.5 21.578125 
L 8.5 54.6875 
L 17.484375 54.6875 
L 17.484375 21.921875 
Q 17.484375 14.15625 20.5 10.265625 
Q 23.53125 6.390625 29.59375 6.390625 
Q 36.859375 6.390625 41.078125 11.03125 
Q 45.3125 15.671875 45.3125 23.6875 
L 45.3125 54.6875 
L 54.296875 54.6875 
L 54.296875 0 
L 45.3125 0 
L 45.3125 8.40625 
Q 42.046875 3.421875 37.71875 1 
Q 33.40625 -1.421875 27.6875 -1.421875 
Q 18.265625 -1.421875 13.375 4.4375 
Q 8.5 10.296875 8.5 21.578125 
z
M 31.109375 56 
z
" id="DejaVuSans-117"/>
       <path d="M 9.421875 75.984375 
L 18.40625 75.984375 
L 18.40625 0 
L 9.421875 0 
z
" id="DejaVuSans-108"/>
       <path d="M 18.3125 70.21875 
L 18.3125 54.6875 
L 36.8125 54.6875 
L 36.8125 47.703125 
L 18.3125 47.703125 
L 18.3125 18.015625 
Q 18.3125 11.328125 20.140625 9.421875 
Q 21.96875 7.515625 27.59375 7.515625 
L 36.8125 7.515625 
L 36.8125 0 
L 27.59375 0 
Q 17.1875 0 13.234375 3.875 
Q 9.28125 7.765625 9.28125 18.015625 
L 9.28125 47.703125 
L 2.6875 47.703125 
L 2.6875 54.6875 
L 9.28125 54.6875 
L 9.28125 70.21875 
z
" id="DejaVuSans-116"/>
      </defs>
      <g style="fill:#262626;" transform="translate(90.912495 552.492074)rotate(-25)scale(0.1485 -0.1485)">
       <use xlink:href="#DejaVuSans-112"/>
       <use x="63.476562" xlink:href="#DejaVuSans-121"/>
       <use x="108.40625" xlink:href="#DejaVuSans-46"/>
       <use x="140.193359" xlink:href="#DejaVuSans-69"/>
       <use x="203.376953" xlink:href="#DejaVuSans-83"/>
       <use x="266.853516" xlink:href="#DejaVuSans-32"/>
       <use x="298.640625" xlink:href="#DejaVuSans-100"/>
       <use x="362.117188" xlink:href="#DejaVuSans-101"/>
       <use x="423.640625" xlink:href="#DejaVuSans-102"/>
       <use x="458.845703" xlink:href="#DejaVuSans-97"/>
       <use x="520.125" xlink:href="#DejaVuSans-117"/>
       <use x="583.503906" xlink:href="#DejaVuSans-108"/>
       <use x="611.287109" xlink:href="#DejaVuSans-116"/>
      </g>
     </g>
    </g>
    <g id="xtick_2">
     <g id="line2d_2">
      <g>
       <use style="fill:#808080;stroke:#808080;stroke-width:2;" x="347.168437" xlink:href="#m285d778349" y="496.44"/>
      </g>
     </g>
     <g id="text_2">
      <!-- py.SA default -->
      <defs>
       <path d="M 34.1875 63.1875 
L 20.796875 26.90625 
L 47.609375 26.90625 
z
M 28.609375 72.90625 
L 39.796875 72.90625 
L 67.578125 0 
L 57.328125 0 
L 50.6875 18.703125 
L 17.828125 18.703125 
L 11.1875 0 
L 0.78125 0 
z
" id="DejaVuSans-65"/>
      </defs>
      <g style="fill:#262626;" transform="translate(257.35777 552.93727)rotate(-25)scale(0.1485 -0.1485)">
       <use xlink:href="#DejaVuSans-112"/>
       <use x="63.476562" xlink:href="#DejaVuSans-121"/>
       <use x="108.40625" xlink:href="#DejaVuSans-46"/>
       <use x="140.193359" xlink:href="#DejaVuSans-83"/>
       <use x="205.544922" xlink:href="#DejaVuSans-65"/>
       <use x="273.953125" xlink:href="#DejaVuSans-32"/>
       <use x="305.740234" xlink:href="#DejaVuSans-100"/>
       <use x="369.216797" xlink:href="#DejaVuSans-101"/>
       <use x="430.740234" xlink:href="#DejaVuSans-102"/>
       <use x="465.945312" xlink:href="#DejaVuSans-97"/>
       <use x="527.224609" xlink:href="#DejaVuSans-117"/>
       <use x="590.603516" xlink:href="#DejaVuSans-108"/>
       <use x="618.386719" xlink:href="#DejaVuSans-116"/>
      </g>
     </g>
    </g>
    <g id="xtick_3">
     <g id="line2d_3">
      <g>
       <use style="fill:#808080;stroke:#808080;stroke-width:2;" x="514.568438" xlink:href="#m285d778349" y="496.44"/>
      </g>
     </g>
     <g id="text_3">
      <!-- j.ES default -->
      <defs>
       <path d="M 9.421875 54.6875 
L 18.40625 54.6875 
L 18.40625 -0.984375 
Q 18.40625 -11.421875 14.421875 -16.109375 
Q 10.453125 -20.796875 1.609375 -20.796875 
L -1.8125 -20.796875 
L -1.8125 -13.1875 
L 0.59375 -13.1875 
Q 5.71875 -13.1875 7.5625 -10.8125 
Q 9.421875 -8.453125 9.421875 -0.984375 
z
M 9.421875 75.984375 
L 18.40625 75.984375 
L 18.40625 64.59375 
L 9.421875 64.59375 
z
" id="DejaVuSans-106"/>
      </defs>
      <g style="fill:#262626;" transform="translate(436.565651 547.431165)rotate(-25)scale(0.1485 -0.1485)">
       <use xlink:href="#DejaVuSans-106"/>
       <use x="27.783203" xlink:href="#DejaVuSans-46"/>
       <use x="59.570312" xlink:href="#DejaVuSans-69"/>
       <use x="122.753906" xlink:href="#DejaVuSans-83"/>
       <use x="186.230469" xlink:href="#DejaVuSans-32"/>
       <use x="218.017578" xlink:href="#DejaVuSans-100"/>
       <use x="281.494141" xlink:href="#DejaVuSans-101"/>
       <use x="343.017578" xlink:href="#DejaVuSans-102"/>
       <use x="378.222656" xlink:href="#DejaVuSans-97"/>
       <use x="439.501953" xlink:href="#DejaVuSans-117"/>
       <use x="502.880859" xlink:href="#DejaVuSans-108"/>
       <use x="530.664062" xlink:href="#DejaVuSans-116"/>
      </g>
     </g>
    </g>
    <g id="xtick_4">
     <g id="line2d_4">
      <g>
       <use style="fill:#808080;stroke:#808080;stroke-width:2;" x="681.968438" xlink:href="#m285d778349" y="496.44"/>
      </g>
     </g>
     <g id="text_4">
      <!-- py.ES tuned -->
      <defs>
       <path d="M 54.890625 33.015625 
L 54.890625 0 
L 45.90625 0 
L 45.90625 32.71875 
Q 45.90625 40.484375 42.875 44.328125 
Q 39.84375 48.1875 33.796875 48.1875 
Q 26.515625 48.1875 22.3125 43.546875 
Q 18.109375 38.921875 18.109375 30.90625 
L 18.109375 0 
L 9.078125 0 
L 9.078125 54.6875 
L 18.109375 54.6875 
L 18.109375 46.1875 
Q 21.34375 51.125 25.703125 53.5625 
Q 30.078125 56 35.796875 56 
Q 45.21875 56 50.046875 50.171875 
Q 54.890625 44.34375 54.890625 33.015625 
z
" id="DejaVuSans-110"/>
      </defs>
      <g style="fill:#262626;" transform="translate(601.307564 548.670651)rotate(-25)scale(0.1485 -0.1485)">
       <use xlink:href="#DejaVuSans-112"/>
       <use x="63.476562" xlink:href="#DejaVuSans-121"/>
       <use x="108.40625" xlink:href="#DejaVuSans-46"/>
       <use x="140.193359" xlink:href="#DejaVuSans-69"/>
       <use x="203.376953" xlink:href="#DejaVuSans-83"/>
       <use x="266.853516" xlink:href="#DejaVuSans-32"/>
       <use x="298.640625" xlink:href="#DejaVuSans-116"/>
       <use x="337.849609" xlink:href="#DejaVuSans-117"/>
       <use x="401.228516" xlink:href="#DejaVuSans-110"/>
       <use x="464.607422" xlink:href="#DejaVuSans-101"/>
       <use x="526.130859" xlink:href="#DejaVuSans-100"/>
      </g>
     </g>
    </g>
    <g id="xtick_5">
     <g id="line2d_5">
      <g>
       <use style="fill:#808080;stroke:#808080;stroke-width:2;" x="849.368438" xlink:href="#m285d778349" y="496.44"/>
      </g>
     </g>
     <g id="text_5">
      <!-- py.SA tuned -->
      <g style="fill:#262626;" transform="translate(767.752839 549.115847)rotate(-25)scale(0.1485 -0.1485)">
       <use xlink:href="#DejaVuSans-112"/>
       <use x="63.476562" xlink:href="#DejaVuSans-121"/>
       <use x="108.40625" xlink:href="#DejaVuSans-46"/>
       <use x="140.193359" xlink:href="#DejaVuSans-83"/>
       <use x="205.544922" xlink:href="#DejaVuSans-65"/>
       <use x="273.953125" xlink:href="#DejaVuSans-32"/>
       <use x="305.740234" xlink:href="#DejaVuSans-116"/>
       <use x="344.949219" xlink:href="#DejaVuSans-117"/>
       <use x="408.328125" xlink:href="#DejaVuSans-110"/>
       <use x="471.707031" xlink:href="#DejaVuSans-101"/>
       <use x="533.230469" xlink:href="#DejaVuSans-100"/>
      </g>
     </g>
    </g>
    <g id="xtick_6">
     <g id="line2d_6">
      <g>
       <use style="fill:#808080;stroke:#808080;stroke-width:2;" x="1016.768438" xlink:href="#m285d778349" y="496.44"/>
      </g>
     </g>
     <g id="text_6">
      <!-- j.ES tuned -->
      <g style="fill:#262626;" transform="translate(946.96072 543.609741)rotate(-25)scale(0.1485 -0.1485)">
       <use xlink:href="#DejaVuSans-106"/>
       <use x="27.783203" xlink:href="#DejaVuSans-46"/>
       <use x="59.570312" xlink:href="#DejaVuSans-69"/>
       <use x="122.753906" xlink:href="#DejaVuSans-83"/>
       <use x="186.230469" xlink:href="#DejaVuSans-32"/>
       <use x="218.017578" xlink:href="#DejaVuSans-116"/>
       <use x="257.226562" xlink:href="#DejaVuSans-117"/>
       <use x="320.605469" xlink:href="#DejaVuSans-110"/>
       <use x="383.984375" xlink:href="#DejaVuSans-101"/>
       <use x="445.507812" xlink:href="#DejaVuSans-100"/>
      </g>
     </g>
    </g>
    <g id="xtick_7">
     <g id="line2d_7">
      <g>
       <use style="fill:#808080;stroke:#808080;stroke-width:2;" x="1184.168437" xlink:href="#m285d778349" y="496.44"/>
      </g>
     </g>
     <g id="text_7">
      <!-- FRAMAB default -->
      <defs>
       <path d="M 9.8125 72.90625 
L 51.703125 72.90625 
L 51.703125 64.59375 
L 19.671875 64.59375 
L 19.671875 43.109375 
L 48.578125 43.109375 
L 48.578125 34.8125 
L 19.671875 34.8125 
L 19.671875 0 
L 9.8125 0 
z
" id="DejaVuSans-70"/>
       <path d="M 44.390625 34.1875 
Q 47.5625 33.109375 50.5625 29.59375 
Q 53.5625 26.078125 56.59375 19.921875 
L 66.609375 0 
L 56 0 
L 46.6875 18.703125 
Q 43.0625 26.03125 39.671875 28.421875 
Q 36.28125 30.8125 30.421875 30.8125 
L 19.671875 30.8125 
L 19.671875 0 
L 9.8125 0 
L 9.8125 72.90625 
L 32.078125 72.90625 
Q 44.578125 72.90625 50.734375 67.671875 
Q 56.890625 62.453125 56.890625 51.90625 
Q 56.890625 45.015625 53.6875 40.46875 
Q 50.484375 35.9375 44.390625 34.1875 
z
M 19.671875 64.796875 
L 19.671875 38.921875 
L 32.078125 38.921875 
Q 39.203125 38.921875 42.84375 42.21875 
Q 46.484375 45.515625 46.484375 51.90625 
Q 46.484375 58.296875 42.84375 61.546875 
Q 39.203125 64.796875 32.078125 64.796875 
z
" id="DejaVuSans-82"/>
       <path d="M 9.8125 72.90625 
L 24.515625 72.90625 
L 43.109375 23.296875 
L 61.8125 72.90625 
L 76.515625 72.90625 
L 76.515625 0 
L 66.890625 0 
L 66.890625 64.015625 
L 48.09375 14.015625 
L 38.1875 14.015625 
L 19.390625 64.015625 
L 19.390625 0 
L 9.8125 0 
z
" id="DejaVuSans-77"/>
       <path d="M 19.671875 34.8125 
L 19.671875 8.109375 
L 35.5 8.109375 
Q 43.453125 8.109375 47.28125 11.40625 
Q 51.125 14.703125 51.125 21.484375 
Q 51.125 28.328125 47.28125 31.5625 
Q 43.453125 34.8125 35.5 34.8125 
z
M 19.671875 64.796875 
L 19.671875 42.828125 
L 34.28125 42.828125 
Q 41.5 42.828125 45.03125 45.53125 
Q 48.578125 48.25 48.578125 53.8125 
Q 48.578125 59.328125 45.03125 62.0625 
Q 41.5 64.796875 34.28125 64.796875 
z
M 9.8125 72.90625 
L 35.015625 72.90625 
Q 46.296875 72.90625 52.390625 68.21875 
Q 58.5 63.53125 58.5 54.890625 
Q 58.5 48.1875 55.375 44.234375 
Q 52.25 40.28125 46.1875 39.3125 
Q 53.46875 37.75 57.5 32.78125 
Q 61.53125 27.828125 61.53125 20.40625 
Q 61.53125 10.640625 54.890625 5.3125 
Q 48.25 0 35.984375 0 
L 9.8125 0 
z
" id="DejaVuSans-66"/>
      </defs>
      <g style="fill:#262626;" transform="translate(1075.416794 561.769592)rotate(-25)scale(0.1485 -0.1485)">
       <use xlink:href="#DejaVuSans-70"/>
       <use x="57.519531" xlink:href="#DejaVuSans-82"/>
       <use x="123.001953" xlink:href="#DejaVuSans-65"/>
       <use x="191.410156" xlink:href="#DejaVuSans-77"/>
       <use x="277.689453" xlink:href="#DejaVuSans-65"/>
       <use x="346.097656" xlink:href="#DejaVuSans-66"/>
       <use x="414.701172" xlink:href="#DejaVuSans-32"/>
       <use x="446.488281" xlink:href="#DejaVuSans-100"/>
       <use x="509.964844" xlink:href="#DejaVuSans-101"/>
       <use x="571.488281" xlink:href="#DejaVuSans-102"/>
       <use x="606.693359" xlink:href="#DejaVuSans-97"/>
       <use x="667.972656" xlink:href="#DejaVuSans-117"/>
       <use x="731.351562" xlink:href="#DejaVuSans-108"/>
       <use x="759.134766" xlink:href="#DejaVuSans-116"/>
      </g>
     </g>
    </g>
    <g id="xtick_8">
     <g id="line2d_8">
      <g>
       <use style="fill:#808080;stroke:#808080;stroke-width:2;" x="1351.568438" xlink:href="#m285d778349" y="496.44"/>
      </g>
     </g>
     <g id="text_8">
      <!-- BRR default -->
      <g style="fill:#262626;" transform="translate(1270.693066 548.770673)rotate(-25)scale(0.1485 -0.1485)">
       <use xlink:href="#DejaVuSans-66"/>
       <use x="68.603516" xlink:href="#DejaVuSans-82"/>
       <use x="138.085938" xlink:href="#DejaVuSans-82"/>
       <use x="207.568359" xlink:href="#DejaVuSans-32"/>
       <use x="239.355469" xlink:href="#DejaVuSans-100"/>
       <use x="302.832031" xlink:href="#DejaVuSans-101"/>
       <use x="364.355469" xlink:href="#DejaVuSans-102"/>
       <use x="399.560547" xlink:href="#DejaVuSans-97"/>
       <use x="460.839844" xlink:href="#DejaVuSans-117"/>
       <use x="524.21875" xlink:href="#DejaVuSans-108"/>
       <use x="552.001953" xlink:href="#DejaVuSans-116"/>
      </g>
     </g>
    </g>
   </g>
   <g id="matplotlib.axis_2">
    <g id="ytick_1">
     <g id="line2d_9">
      <path clip-path="url(#p9d5064564f)" d="M 96.068438 442.594737 
L 1435.268438 442.594737 
" style="fill:none;stroke:#ffffff;stroke-linecap:round;stroke-width:1.5;"/>
     </g>
     <g id="text_9">
      <!-- 20000 -->
      <defs>
       <path d="M 19.1875 8.296875 
L 53.609375 8.296875 
L 53.609375 0 
L 7.328125 0 
L 7.328125 8.296875 
Q 12.9375 14.109375 22.625 23.890625 
Q 32.328125 33.6875 34.8125 36.53125 
Q 39.546875 41.84375 41.421875 45.53125 
Q 43.3125 49.21875 43.3125 52.78125 
Q 43.3125 58.59375 39.234375 62.25 
Q 35.15625 65.921875 28.609375 65.921875 
Q 23.96875 65.921875 18.8125 64.3125 
Q 13.671875 62.703125 7.8125 59.421875 
L 7.8125 69.390625 
Q 13.765625 71.78125 18.9375 73 
Q 24.125 74.21875 28.421875 74.21875 
Q 39.75 74.21875 46.484375 68.546875 
Q 53.21875 62.890625 53.21875 53.421875 
Q 53.21875 48.921875 51.53125 44.890625 
Q 49.859375 40.875 45.40625 35.40625 
Q 44.1875 33.984375 37.640625 27.21875 
Q 31.109375 20.453125 19.1875 8.296875 
z
" id="DejaVuSans-50"/>
       <path d="M 31.78125 66.40625 
Q 24.171875 66.40625 20.328125 58.90625 
Q 16.5 51.421875 16.5 36.375 
Q 16.5 21.390625 20.328125 13.890625 
Q 24.171875 6.390625 31.78125 6.390625 
Q 39.453125 6.390625 43.28125 13.890625 
Q 47.125 21.390625 47.125 36.375 
Q 47.125 51.421875 43.28125 58.90625 
Q 39.453125 66.40625 31.78125 66.40625 
z
M 31.78125 74.21875 
Q 44.046875 74.21875 50.515625 64.515625 
Q 56.984375 54.828125 56.984375 36.375 
Q 56.984375 17.96875 50.515625 8.265625 
Q 44.046875 -1.421875 31.78125 -1.421875 
Q 19.53125 -1.421875 13.0625 8.265625 
Q 6.59375 17.96875 6.59375 36.375 
Q 6.59375 54.828125 13.0625 64.515625 
Q 19.53125 74.21875 31.78125 74.21875 
z
" id="DejaVuSans-48"/>
      </defs>
      <g style="fill:#262626;" transform="translate(36.326875 448.236577)scale(0.1485 -0.1485)">
       <use xlink:href="#DejaVuSans-50"/>
       <use x="63.623047" xlink:href="#DejaVuSans-48"/>
       <use x="127.246094" xlink:href="#DejaVuSans-48"/>
       <use x="190.869141" xlink:href="#DejaVuSans-48"/>
       <use x="254.492188" xlink:href="#DejaVuSans-48"/>
      </g>
     </g>
    </g>
    <g id="ytick_2">
     <g id="line2d_10">
      <path clip-path="url(#p9d5064564f)" d="M 96.068438 386.123269 
L 1435.268438 386.123269 
" style="fill:none;stroke:#ffffff;stroke-linecap:round;stroke-width:1.5;"/>
     </g>
     <g id="text_10">
      <!-- 40000 -->
      <defs>
       <path d="M 37.796875 64.3125 
L 12.890625 25.390625 
L 37.796875 25.390625 
z
M 35.203125 72.90625 
L 47.609375 72.90625 
L 47.609375 25.390625 
L 58.015625 25.390625 
L 58.015625 17.1875 
L 47.609375 17.1875 
L 47.609375 0 
L 37.796875 0 
L 37.796875 17.1875 
L 4.890625 17.1875 
L 4.890625 26.703125 
z
" id="DejaVuSans-52"/>
      </defs>
      <g style="fill:#262626;" transform="translate(36.326875 391.765109)scale(0.1485 -0.1485)">
       <use xlink:href="#DejaVuSans-52"/>
       <use x="63.623047" xlink:href="#DejaVuSans-48"/>
       <use x="127.246094" xlink:href="#DejaVuSans-48"/>
       <use x="190.869141" xlink:href="#DejaVuSans-48"/>
       <use x="254.492188" xlink:href="#DejaVuSans-48"/>
      </g>
     </g>
    </g>
    <g id="ytick_3">
     <g id="line2d_11">
      <path clip-path="url(#p9d5064564f)" d="M 96.068438 329.651801 
L 1435.268438 329.651801 
" style="fill:none;stroke:#ffffff;stroke-linecap:round;stroke-width:1.5;"/>
     </g>
     <g id="text_11">
      <!-- 60000 -->
      <defs>
       <path d="M 33.015625 40.375 
Q 26.375 40.375 22.484375 35.828125 
Q 18.609375 31.296875 18.609375 23.390625 
Q 18.609375 15.53125 22.484375 10.953125 
Q 26.375 6.390625 33.015625 6.390625 
Q 39.65625 6.390625 43.53125 10.953125 
Q 47.40625 15.53125 47.40625 23.390625 
Q 47.40625 31.296875 43.53125 35.828125 
Q 39.65625 40.375 33.015625 40.375 
z
M 52.59375 71.296875 
L 52.59375 62.3125 
Q 48.875 64.0625 45.09375 64.984375 
Q 41.3125 65.921875 37.59375 65.921875 
Q 27.828125 65.921875 22.671875 59.328125 
Q 17.53125 52.734375 16.796875 39.40625 
Q 19.671875 43.65625 24.015625 45.921875 
Q 28.375 48.1875 33.59375 48.1875 
Q 44.578125 48.1875 50.953125 41.515625 
Q 57.328125 34.859375 57.328125 23.390625 
Q 57.328125 12.15625 50.6875 5.359375 
Q 44.046875 -1.421875 33.015625 -1.421875 
Q 20.359375 -1.421875 13.671875 8.265625 
Q 6.984375 17.96875 6.984375 36.375 
Q 6.984375 53.65625 15.1875 63.9375 
Q 23.390625 74.21875 37.203125 74.21875 
Q 40.921875 74.21875 44.703125 73.484375 
Q 48.484375 72.75 52.59375 71.296875 
z
" id="DejaVuSans-54"/>
      </defs>
      <g style="fill:#262626;" transform="translate(36.326875 335.293641)scale(0.1485 -0.1485)">
       <use xlink:href="#DejaVuSans-54"/>
       <use x="63.623047" xlink:href="#DejaVuSans-48"/>
       <use x="127.246094" xlink:href="#DejaVuSans-48"/>
       <use x="190.869141" xlink:href="#DejaVuSans-48"/>
       <use x="254.492188" xlink:href="#DejaVuSans-48"/>
      </g>
     </g>
    </g>
    <g id="ytick_4">
     <g id="line2d_12">
      <path clip-path="url(#p9d5064564f)" d="M 96.068438 273.180333 
L 1435.268438 273.180333 
" style="fill:none;stroke:#ffffff;stroke-linecap:round;stroke-width:1.5;"/>
     </g>
     <g id="text_12">
      <!-- 80000 -->
      <defs>
       <path d="M 31.78125 34.625 
Q 24.75 34.625 20.71875 30.859375 
Q 16.703125 27.09375 16.703125 20.515625 
Q 16.703125 13.921875 20.71875 10.15625 
Q 24.75 6.390625 31.78125 6.390625 
Q 38.8125 6.390625 42.859375 10.171875 
Q 46.921875 13.96875 46.921875 20.515625 
Q 46.921875 27.09375 42.890625 30.859375 
Q 38.875 34.625 31.78125 34.625 
z
M 21.921875 38.8125 
Q 15.578125 40.375 12.03125 44.71875 
Q 8.5 49.078125 8.5 55.328125 
Q 8.5 64.0625 14.71875 69.140625 
Q 20.953125 74.21875 31.78125 74.21875 
Q 42.671875 74.21875 48.875 69.140625 
Q 55.078125 64.0625 55.078125 55.328125 
Q 55.078125 49.078125 51.53125 44.71875 
Q 48 40.375 41.703125 38.8125 
Q 48.828125 37.15625 52.796875 32.3125 
Q 56.78125 27.484375 56.78125 20.515625 
Q 56.78125 9.90625 50.3125 4.234375 
Q 43.84375 -1.421875 31.78125 -1.421875 
Q 19.734375 -1.421875 13.25 4.234375 
Q 6.78125 9.90625 6.78125 20.515625 
Q 6.78125 27.484375 10.78125 32.3125 
Q 14.796875 37.15625 21.921875 38.8125 
z
M 18.3125 54.390625 
Q 18.3125 48.734375 21.84375 45.5625 
Q 25.390625 42.390625 31.78125 42.390625 
Q 38.140625 42.390625 41.71875 45.5625 
Q 45.3125 48.734375 45.3125 54.390625 
Q 45.3125 60.0625 41.71875 63.234375 
Q 38.140625 66.40625 31.78125 66.40625 
Q 25.390625 66.40625 21.84375 63.234375 
Q 18.3125 60.0625 18.3125 54.390625 
z
" id="DejaVuSans-56"/>
      </defs>
      <g style="fill:#262626;" transform="translate(36.326875 278.822173)scale(0.1485 -0.1485)">
       <use xlink:href="#DejaVuSans-56"/>
       <use x="63.623047" xlink:href="#DejaVuSans-48"/>
       <use x="127.246094" xlink:href="#DejaVuSans-48"/>
       <use x="190.869141" xlink:href="#DejaVuSans-48"/>
       <use x="254.492188" xlink:href="#DejaVuSans-48"/>
      </g>
     </g>
    </g>
    <g id="ytick_5">
     <g id="line2d_13">
      <path clip-path="url(#p9d5064564f)" d="M 96.068438 216.708865 
L 1435.268438 216.708865 
" style="fill:none;stroke:#ffffff;stroke-linecap:round;stroke-width:1.5;"/>
     </g>
     <g id="text_13">
      <!-- 100000 -->
      <defs>
       <path d="M 12.40625 8.296875 
L 28.515625 8.296875 
L 28.515625 63.921875 
L 10.984375 60.40625 
L 10.984375 69.390625 
L 28.421875 72.90625 
L 38.28125 72.90625 
L 38.28125 8.296875 
L 54.390625 8.296875 
L 54.390625 0 
L 12.40625 0 
z
" id="DejaVuSans-49"/>
      </defs>
      <g style="fill:#262626;" transform="translate(26.878563 222.350704)scale(0.1485 -0.1485)">
       <use xlink:href="#DejaVuSans-49"/>
       <use x="63.623047" xlink:href="#DejaVuSans-48"/>
       <use x="127.246094" xlink:href="#DejaVuSans-48"/>
       <use x="190.869141" xlink:href="#DejaVuSans-48"/>
       <use x="254.492188" xlink:href="#DejaVuSans-48"/>
       <use x="318.115234" xlink:href="#DejaVuSans-48"/>
      </g>
     </g>
    </g>
    <g id="ytick_6">
     <g id="line2d_14">
      <path clip-path="url(#p9d5064564f)" d="M 96.068438 160.237396 
L 1435.268438 160.237396 
" style="fill:none;stroke:#ffffff;stroke-linecap:round;stroke-width:1.5;"/>
     </g>
     <g id="text_14">
      <!-- 120000 -->
      <g style="fill:#262626;" transform="translate(26.878563 165.879236)scale(0.1485 -0.1485)">
       <use xlink:href="#DejaVuSans-49"/>
       <use x="63.623047" xlink:href="#DejaVuSans-50"/>
       <use x="127.246094" xlink:href="#DejaVuSans-48"/>
       <use x="190.869141" xlink:href="#DejaVuSans-48"/>
       <use x="254.492188" xlink:href="#DejaVuSans-48"/>
       <use x="318.115234" xlink:href="#DejaVuSans-48"/>
      </g>
     </g>
    </g>
    <g id="ytick_7">
     <g id="line2d_15">
      <path clip-path="url(#p9d5064564f)" d="M 96.068438 103.765928 
L 1435.268438 103.765928 
" style="fill:none;stroke:#ffffff;stroke-linecap:round;stroke-width:1.5;"/>
     </g>
     <g id="text_15">
      <!-- 140000 -->
      <g style="fill:#262626;" transform="translate(26.878563 109.407768)scale(0.1485 -0.1485)">
       <use xlink:href="#DejaVuSans-49"/>
       <use x="63.623047" xlink:href="#DejaVuSans-52"/>
       <use x="127.246094" xlink:href="#DejaVuSans-48"/>
       <use x="190.869141" xlink:href="#DejaVuSans-48"/>
       <use x="254.492188" xlink:href="#DejaVuSans-48"/>
       <use x="318.115234" xlink:href="#DejaVuSans-48"/>
      </g>
     </g>
    </g>
    <g id="ytick_8">
     <g id="line2d_16">
      <path clip-path="url(#p9d5064564f)" d="M 96.068438 47.29446 
L 1435.268438 47.29446 
" style="fill:none;stroke:#ffffff;stroke-linecap:round;stroke-width:1.5;"/>
     </g>
     <g id="text_16">
      <!-- 160000 -->
      <g style="fill:#262626;" transform="translate(26.878563 52.9363)scale(0.1485 -0.1485)">
       <use xlink:href="#DejaVuSans-49"/>
       <use x="63.623047" xlink:href="#DejaVuSans-54"/>
       <use x="127.246094" xlink:href="#DejaVuSans-48"/>
       <use x="190.869141" xlink:href="#DejaVuSans-48"/>
       <use x="254.492188" xlink:href="#DejaVuSans-48"/>
       <use x="318.115234" xlink:href="#DejaVuSans-48"/>
      </g>
     </g>
    </g>
    <g id="text_17">
     <!-- objective -->
     <defs>
      <path d="M 30.609375 48.390625 
Q 23.390625 48.390625 19.1875 42.75 
Q 14.984375 37.109375 14.984375 27.296875 
Q 14.984375 17.484375 19.15625 11.84375 
Q 23.34375 6.203125 30.609375 6.203125 
Q 37.796875 6.203125 41.984375 11.859375 
Q 46.1875 17.53125 46.1875 27.296875 
Q 46.1875 37.015625 41.984375 42.703125 
Q 37.796875 48.390625 30.609375 48.390625 
z
M 30.609375 56 
Q 42.328125 56 49.015625 48.375 
Q 55.71875 40.765625 55.71875 27.296875 
Q 55.71875 13.875 49.015625 6.21875 
Q 42.328125 -1.421875 30.609375 -1.421875 
Q 18.84375 -1.421875 12.171875 6.21875 
Q 5.515625 13.875 5.515625 27.296875 
Q 5.515625 40.765625 12.171875 48.375 
Q 18.84375 56 30.609375 56 
z
" id="DejaVuSans-111"/>
      <path d="M 48.6875 27.296875 
Q 48.6875 37.203125 44.609375 42.84375 
Q 40.53125 48.484375 33.40625 48.484375 
Q 26.265625 48.484375 22.1875 42.84375 
Q 18.109375 37.203125 18.109375 27.296875 
Q 18.109375 17.390625 22.1875 11.75 
Q 26.265625 6.109375 33.40625 6.109375 
Q 40.53125 6.109375 44.609375 11.75 
Q 48.6875 17.390625 48.6875 27.296875 
z
M 18.109375 46.390625 
Q 20.953125 51.265625 25.265625 53.625 
Q 29.59375 56 35.59375 56 
Q 45.5625 56 51.78125 48.09375 
Q 58.015625 40.1875 58.015625 27.296875 
Q 58.015625 14.40625 51.78125 6.484375 
Q 45.5625 -1.421875 35.59375 -1.421875 
Q 29.59375 -1.421875 25.265625 0.953125 
Q 20.953125 3.328125 18.109375 8.203125 
L 18.109375 0 
L 9.078125 0 
L 9.078125 75.984375 
L 18.109375 75.984375 
z
" id="DejaVuSans-98"/>
      <path d="M 48.78125 52.59375 
L 48.78125 44.1875 
Q 44.96875 46.296875 41.140625 47.34375 
Q 37.3125 48.390625 33.40625 48.390625 
Q 24.65625 48.390625 19.8125 42.84375 
Q 14.984375 37.3125 14.984375 27.296875 
Q 14.984375 17.28125 19.8125 11.734375 
Q 24.65625 6.203125 33.40625 6.203125 
Q 37.3125 6.203125 41.140625 7.25 
Q 44.96875 8.296875 48.78125 10.40625 
L 48.78125 2.09375 
Q 45.015625 0.34375 40.984375 -0.53125 
Q 36.96875 -1.421875 32.421875 -1.421875 
Q 20.0625 -1.421875 12.78125 6.34375 
Q 5.515625 14.109375 5.515625 27.296875 
Q 5.515625 40.671875 12.859375 48.328125 
Q 20.21875 56 33.015625 56 
Q 37.15625 56 41.109375 55.140625 
Q 45.0625 54.296875 48.78125 52.59375 
z
" id="DejaVuSans-99"/>
      <path d="M 9.421875 54.6875 
L 18.40625 54.6875 
L 18.40625 0 
L 9.421875 0 
z
M 9.421875 75.984375 
L 18.40625 75.984375 
L 18.40625 64.59375 
L 9.421875 64.59375 
z
" id="DejaVuSans-105"/>
      <path d="M 2.984375 54.6875 
L 12.5 54.6875 
L 29.59375 8.796875 
L 46.6875 54.6875 
L 56.203125 54.6875 
L 35.6875 0 
L 23.484375 0 
z
" id="DejaVuSans-118"/>
     </defs>
     <g style="fill:#262626;" transform="translate(19.509469 288.810422)rotate(-90)scale(0.162 -0.162)">
      <use xlink:href="#DejaVuSans-111"/>
      <use x="61.181641" xlink:href="#DejaVuSans-98"/>
      <use x="124.658203" xlink:href="#DejaVuSans-106"/>
      <use x="152.441406" xlink:href="#DejaVuSans-101"/>
      <use x="213.964844" xlink:href="#DejaVuSans-99"/>
      <use x="268.945312" xlink:href="#DejaVuSans-116"/>
      <use x="308.154297" xlink:href="#DejaVuSans-105"/>
      <use x="335.9375" xlink:href="#DejaVuSans-118"/>
      <use x="395.117188" xlink:href="#DejaVuSans-101"/>
     </g>
    </g>
   </g>
   <g id="patch_3">
    <path clip-path="url(#p9d5064564f)" d="M 112.808437 64.035427 
L 246.728438 64.035427 
L 246.728438 51.517114 
L 112.808437 51.517114 
L 112.808437 64.035427 
z
" style="fill:#5875a4;stroke:#4c4c4c;stroke-linejoin:miter;stroke-width:2.25;"/>
   </g>
   <g id="patch_4">
    <path clip-path="url(#p9d5064564f)" d="M 280.208438 402.963061 
L 414.128438 402.963061 
L 414.128438 398.651464 
L 280.208438 398.651464 
L 280.208438 402.963061 
z
" style="fill:#5875a4;stroke:#4c4c4c;stroke-linejoin:miter;stroke-width:2.25;"/>
   </g>
   <g id="patch_5">
    <path clip-path="url(#p9d5064564f)" d="M 447.608438 31.905279 
L 581.528437 31.905279 
L 581.528437 30.344549 
L 447.608438 30.344549 
L 447.608438 31.905279 
z
" style="fill:#5875a4;stroke:#4c4c4c;stroke-linejoin:miter;stroke-width:2.25;"/>
   </g>
   <g id="patch_6">
    <path clip-path="url(#p9d5064564f)" d="M 615.008438 410.981304 
L 748.928437 410.981304 
L 748.928437 359.064259 
L 615.008438 359.064259 
L 615.008438 410.981304 
z
" style="fill:#cc8963;stroke:#4c4c4c;stroke-linejoin:miter;stroke-width:2.25;"/>
   </g>
   <g id="patch_7">
    <path clip-path="url(#p9d5064564f)" d="M 782.408437 415.732672 
L 916.328438 415.732672 
L 916.328438 412.304148 
L 782.408437 412.304148 
L 782.408437 415.732672 
z
" style="fill:#cc8963;stroke:#4c4c4c;stroke-linejoin:miter;stroke-width:2.25;"/>
   </g>
   <g id="patch_8">
    <path clip-path="url(#p9d5064564f)" d="M 949.808437 433.268474 
L 1083.728437 433.268474 
L 1083.728437 430.618551 
L 949.808437 430.618551 
L 949.808437 433.268474 
z
" style="fill:#cc8963;stroke:#4c4c4c;stroke-linejoin:miter;stroke-width:2.25;"/>
   </g>
   <g id="patch_9">
    <path clip-path="url(#p9d5064564f)" d="M 1117.208437 403.34142 
L 1251.128438 403.34142 
L 1251.128438 399.281121 
L 1117.208437 399.281121 
L 1117.208437 403.34142 
z
" style="fill:#5875a4;stroke:#4c4c4c;stroke-linejoin:miter;stroke-width:2.25;"/>
   </g>
   <g id="patch_10">
    <path clip-path="url(#p9d5064564f)" d="M 1284.608438 401.909868 
L 1418.528438 401.909868 
L 1418.528438 398.823702 
L 1284.608438 398.823702 
L 1284.608438 401.909868 
z
" style="fill:#5875a4;stroke:#4c4c4c;stroke-linejoin:miter;stroke-width:2.25;"/>
   </g>
   <g id="patch_11">
    <path clip-path="url(#p9d5064564f)" d="M 179.768438 499.066206 
L 179.768438 499.066206 
L 179.768438 499.066206 
L 179.768438 499.066206 
z
" style="fill:#5875a4;stroke:#4c4c4c;stroke-linejoin:miter;stroke-width:1.125;"/>
   </g>
   <g id="patch_12">
    <path clip-path="url(#p9d5064564f)" d="M 179.768438 499.066206 
L 179.768438 499.066206 
L 179.768438 499.066206 
L 179.768438 499.066206 
z
" style="fill:#cc8963;stroke:#4c4c4c;stroke-linejoin:miter;stroke-width:1.125;"/>
   </g>
   <g id="line2d_17">
    <path clip-path="url(#p9d5064564f)" d="M 179.768438 64.035427 
L 179.768438 73.274159 
" style="fill:none;stroke:#4c4c4c;stroke-linecap:round;stroke-width:2.25;"/>
   </g>
   <g id="line2d_18">
    <path clip-path="url(#p9d5064564f)" d="M 179.768438 51.517114 
L 179.768438 39.125862 
" style="fill:none;stroke:#4c4c4c;stroke-linecap:round;stroke-width:2.25;"/>
   </g>
   <g id="line2d_19">
    <path clip-path="url(#p9d5064564f)" d="M 146.288437 73.274159 
L 213.248438 73.274159 
" style="fill:none;stroke:#4c4c4c;stroke-linecap:round;stroke-width:2.25;"/>
   </g>
   <g id="line2d_20">
    <path clip-path="url(#p9d5064564f)" d="M 146.288437 39.125862 
L 213.248438 39.125862 
" style="fill:none;stroke:#4c4c4c;stroke-linecap:round;stroke-width:2.25;"/>
   </g>
   <g id="line2d_21"/>
   <g id="line2d_22">
    <path clip-path="url(#p9d5064564f)" d="M 347.168437 402.963061 
L 347.168437 409.07045 
" style="fill:none;stroke:#4c4c4c;stroke-linecap:round;stroke-width:2.25;"/>
   </g>
   <g id="line2d_23">
    <path clip-path="url(#p9d5064564f)" d="M 347.168437 398.651464 
L 347.168437 398.338048 
" style="fill:none;stroke:#4c4c4c;stroke-linecap:round;stroke-width:2.25;"/>
   </g>
   <g id="line2d_24">
    <path clip-path="url(#p9d5064564f)" d="M 313.688438 409.07045 
L 380.648438 409.07045 
" style="fill:none;stroke:#4c4c4c;stroke-linecap:round;stroke-width:2.25;"/>
   </g>
   <g id="line2d_25">
    <path clip-path="url(#p9d5064564f)" d="M 313.688438 398.338048 
L 380.648438 398.338048 
" style="fill:none;stroke:#4c4c4c;stroke-linecap:round;stroke-width:2.25;"/>
   </g>
   <g id="line2d_26">
    <defs>
     <path d="M -0 3.535534 
L 2.12132 0 
L -0 -3.535534 
L -2.12132 -0 
z
" id="m672c88cc09" style="stroke:#4c4c4c;stroke-linejoin:miter;"/>
    </defs>
    <g clip-path="url(#p9d5064564f)">
     <use style="fill:#4c4c4c;stroke:#4c4c4c;stroke-linejoin:miter;" x="347.168437" xlink:href="#m672c88cc09" y="377.901023"/>
    </g>
   </g>
   <g id="line2d_27">
    <path clip-path="url(#p9d5064564f)" d="M 514.568438 31.905279 
L 514.568438 33.938958 
" style="fill:none;stroke:#4c4c4c;stroke-linecap:round;stroke-width:2.25;"/>
   </g>
   <g id="line2d_28">
    <path clip-path="url(#p9d5064564f)" d="M 514.568438 30.344549 
L 514.568438 29.438182 
" style="fill:none;stroke:#4c4c4c;stroke-linecap:round;stroke-width:2.25;"/>
   </g>
   <g id="line2d_29">
    <path clip-path="url(#p9d5064564f)" d="M 481.088437 33.938958 
L 548.048438 33.938958 
" style="fill:none;stroke:#4c4c4c;stroke-linecap:round;stroke-width:2.25;"/>
   </g>
   <g id="line2d_30">
    <path clip-path="url(#p9d5064564f)" d="M 481.088437 29.438182 
L 548.048438 29.438182 
" style="fill:none;stroke:#4c4c4c;stroke-linecap:round;stroke-width:2.25;"/>
   </g>
   <g id="line2d_31">
    <g clip-path="url(#p9d5064564f)">
     <use style="fill:#4c4c4c;stroke:#4c4c4c;stroke-linejoin:miter;" x="514.568438" xlink:href="#m672c88cc09" y="35.014739"/>
    </g>
   </g>
   <g id="line2d_32">
    <path clip-path="url(#p9d5064564f)" d="M 681.968438 410.981304 
L 681.968438 413.370753 
" style="fill:none;stroke:#4c4c4c;stroke-linecap:round;stroke-width:2.25;"/>
   </g>
   <g id="line2d_33">
    <path clip-path="url(#p9d5064564f)" d="M 681.968438 359.064259 
L 681.968438 333.666922 
" style="fill:none;stroke:#4c4c4c;stroke-linecap:round;stroke-width:2.25;"/>
   </g>
   <g id="line2d_34">
    <path clip-path="url(#p9d5064564f)" d="M 648.488437 413.370753 
L 715.448438 413.370753 
" style="fill:none;stroke:#4c4c4c;stroke-linecap:round;stroke-width:2.25;"/>
   </g>
   <g id="line2d_35">
    <path clip-path="url(#p9d5064564f)" d="M 648.488437 333.666922 
L 715.448438 333.666922 
" style="fill:none;stroke:#4c4c4c;stroke-linecap:round;stroke-width:2.25;"/>
   </g>
   <g id="line2d_36"/>
   <g id="line2d_37">
    <path clip-path="url(#p9d5064564f)" d="M 849.368438 415.732672 
L 849.368438 416.795747 
" style="fill:none;stroke:#4c4c4c;stroke-linecap:round;stroke-width:2.25;"/>
   </g>
   <g id="line2d_38">
    <path clip-path="url(#p9d5064564f)" d="M 849.368438 412.304148 
L 849.368438 411.795199 
" style="fill:none;stroke:#4c4c4c;stroke-linecap:round;stroke-width:2.25;"/>
   </g>
   <g id="line2d_39">
    <path clip-path="url(#p9d5064564f)" d="M 815.888438 416.795747 
L 882.848438 416.795747 
" style="fill:none;stroke:#4c4c4c;stroke-linecap:round;stroke-width:2.25;"/>
   </g>
   <g id="line2d_40">
    <path clip-path="url(#p9d5064564f)" d="M 815.888438 411.795199 
L 882.848438 411.795199 
" style="fill:none;stroke:#4c4c4c;stroke-linecap:round;stroke-width:2.25;"/>
   </g>
   <g id="line2d_41">
    <g clip-path="url(#p9d5064564f)">
     <use style="fill:#4c4c4c;stroke:#4c4c4c;stroke-linejoin:miter;" x="849.368438" xlink:href="#m672c88cc09" y="422.222655"/>
     <use style="fill:#4c4c4c;stroke:#4c4c4c;stroke-linejoin:miter;" x="849.368438" xlink:href="#m672c88cc09" y="407.009242"/>
    </g>
   </g>
   <g id="line2d_42">
    <path clip-path="url(#p9d5064564f)" d="M 1016.768438 433.268474 
L 1016.768438 434.081664 
" style="fill:none;stroke:#4c4c4c;stroke-linecap:round;stroke-width:2.25;"/>
   </g>
   <g id="line2d_43">
    <path clip-path="url(#p9d5064564f)" d="M 1016.768438 430.618551 
L 1016.768438 427.530973 
" style="fill:none;stroke:#4c4c4c;stroke-linecap:round;stroke-width:2.25;"/>
   </g>
   <g id="line2d_44">
    <path clip-path="url(#p9d5064564f)" d="M 983.288437 434.081664 
L 1050.248437 434.081664 
" style="fill:none;stroke:#4c4c4c;stroke-linecap:round;stroke-width:2.25;"/>
   </g>
   <g id="line2d_45">
    <path clip-path="url(#p9d5064564f)" d="M 983.288437 427.530973 
L 1050.248437 427.530973 
" style="fill:none;stroke:#4c4c4c;stroke-linecap:round;stroke-width:2.25;"/>
   </g>
   <g id="line2d_46"/>
   <g id="line2d_47">
    <path clip-path="url(#p9d5064564f)" d="M 1184.168437 403.34142 
L 1184.168437 405.806399 
" style="fill:none;stroke:#4c4c4c;stroke-linecap:round;stroke-width:2.25;"/>
   </g>
   <g id="line2d_48">
    <path clip-path="url(#p9d5064564f)" d="M 1184.168437 399.281121 
L 1184.168437 399.086295 
" style="fill:none;stroke:#4c4c4c;stroke-linecap:round;stroke-width:2.25;"/>
   </g>
   <g id="line2d_49">
    <path clip-path="url(#p9d5064564f)" d="M 1150.688437 405.806399 
L 1217.648438 405.806399 
" style="fill:none;stroke:#4c4c4c;stroke-linecap:round;stroke-width:2.25;"/>
   </g>
   <g id="line2d_50">
    <path clip-path="url(#p9d5064564f)" d="M 1150.688437 399.086295 
L 1217.648438 399.086295 
" style="fill:none;stroke:#4c4c4c;stroke-linecap:round;stroke-width:2.25;"/>
   </g>
   <g id="line2d_51">
    <g clip-path="url(#p9d5064564f)">
     <use style="fill:#4c4c4c;stroke:#4c4c4c;stroke-linejoin:miter;" x="1184.168437" xlink:href="#m672c88cc09" y="391.536059"/>
    </g>
   </g>
   <g id="line2d_52">
    <path clip-path="url(#p9d5064564f)" d="M 1351.568438 401.909868 
L 1351.568438 405.148507 
" style="fill:none;stroke:#4c4c4c;stroke-linecap:round;stroke-width:2.25;"/>
   </g>
   <g id="line2d_53">
    <path clip-path="url(#p9d5064564f)" d="M 1351.568438 398.823702 
L 1351.568438 395.410002 
" style="fill:none;stroke:#4c4c4c;stroke-linecap:round;stroke-width:2.25;"/>
   </g>
   <g id="line2d_54">
    <path clip-path="url(#p9d5064564f)" d="M 1318.088438 405.148507 
L 1385.048438 405.148507 
" style="fill:none;stroke:#4c4c4c;stroke-linecap:round;stroke-width:2.25;"/>
   </g>
   <g id="line2d_55">
    <path clip-path="url(#p9d5064564f)" d="M 1318.088438 395.410002 
L 1385.048438 395.410002 
" style="fill:none;stroke:#4c4c4c;stroke-linecap:round;stroke-width:2.25;"/>
   </g>
   <g id="line2d_56">
    <g clip-path="url(#p9d5064564f)">
     <use style="fill:#4c4c4c;stroke:#4c4c4c;stroke-linejoin:miter;" x="1351.568438" xlink:href="#m672c88cc09" y="408.694915"/>
    </g>
   </g>
   <g id="line2d_57">
    <path clip-path="url(#p9d5064564f)" d="M 96.068438 474.201818 
L 1435.268438 474.201818 
" style="fill:none;stroke:#008000;stroke-dasharray:2.25,3.7125;stroke-dashoffset:0;stroke-width:2.25;"/>
   </g>
   <g id="line2d_58">
    <path clip-path="url(#p9d5064564f)" d="M 112.808437 59.896068 
L 246.728438 59.896068 
" style="fill:none;stroke:#4c4c4c;stroke-linecap:round;stroke-width:2.25;"/>
   </g>
   <g id="line2d_59">
    <path clip-path="url(#p9d5064564f)" d="M 280.208438 400.966795 
L 414.128438 400.966795 
" style="fill:none;stroke:#4c4c4c;stroke-linecap:round;stroke-width:2.25;"/>
   </g>
   <g id="line2d_60">
    <path clip-path="url(#p9d5064564f)" d="M 447.608438 31.10409 
L 581.528437 31.10409 
" style="fill:none;stroke:#4c4c4c;stroke-linecap:round;stroke-width:2.25;"/>
   </g>
   <g id="line2d_61">
    <path clip-path="url(#p9d5064564f)" d="M 615.008438 410.08129 
L 748.928437 410.08129 
" style="fill:none;stroke:#4c4c4c;stroke-linecap:round;stroke-width:2.25;"/>
   </g>
   <g id="line2d_62">
    <path clip-path="url(#p9d5064564f)" d="M 782.408437 413.83523 
L 916.328438 413.83523 
" style="fill:none;stroke:#4c4c4c;stroke-linecap:round;stroke-width:2.25;"/>
   </g>
   <g id="line2d_63">
    <path clip-path="url(#p9d5064564f)" d="M 949.808437 431.032204 
L 1083.728437 431.032204 
" style="fill:none;stroke:#4c4c4c;stroke-linecap:round;stroke-width:2.25;"/>
   </g>
   <g id="line2d_64">
    <path clip-path="url(#p9d5064564f)" d="M 1117.208437 401.308447 
L 1251.128438 401.308447 
" style="fill:none;stroke:#4c4c4c;stroke-linecap:round;stroke-width:2.25;"/>
   </g>
   <g id="line2d_65">
    <path clip-path="url(#p9d5064564f)" d="M 1284.608438 401.754572 
L 1418.528438 401.754572 
" style="fill:none;stroke:#4c4c4c;stroke-linecap:round;stroke-width:2.25;"/>
   </g>
   <g id="patch_13">
    <path d="M 96.068438 496.44 
L 96.068438 7.2 
" style="fill:none;stroke:#ffffff;stroke-linecap:square;stroke-linejoin:miter;stroke-width:1.875;"/>
   </g>
   <g id="patch_14">
    <path d="M 1435.268438 496.44 
L 1435.268438 7.2 
" style="fill:none;stroke:#ffffff;stroke-linecap:square;stroke-linejoin:miter;stroke-width:1.875;"/>
   </g>
   <g id="patch_15">
    <path d="M 96.068438 496.44 
L 1435.268437 496.44 
" style="fill:none;stroke:#ffffff;stroke-linecap:square;stroke-linejoin:miter;stroke-width:1.875;"/>
   </g>
   <g id="patch_16">
    <path d="M 96.068438 7.2 
L 1435.268437 7.2 
" style="fill:none;stroke:#ffffff;stroke-linecap:square;stroke-linejoin:miter;stroke-width:1.875;"/>
   </g>
   <g id="legend_1">
    <g id="patch_17">
     <path d="M 1314.527813 87.519656 
L 1424.873438 87.519656 
Q 1427.843438 87.519656 1427.843438 84.549656 
L 1427.843438 17.595 
Q 1427.843438 14.625 1424.873438 14.625 
L 1314.527813 14.625 
Q 1311.557813 14.625 1311.557813 17.595 
L 1311.557813 84.549656 
Q 1311.557813 87.519656 1314.527813 87.519656 
z
" style="fill:#eaeaf2;opacity:0.8;stroke:#cccccc;stroke-linejoin:miter;stroke-width:1.5;"/>
    </g>
    <g id="text_18">
     <!-- parameters -->
     <defs>
      <path d="M 41.109375 46.296875 
Q 39.59375 47.171875 37.8125 47.578125 
Q 36.03125 48 33.890625 48 
Q 26.265625 48 22.1875 43.046875 
Q 18.109375 38.09375 18.109375 28.8125 
L 18.109375 0 
L 9.078125 0 
L 9.078125 54.6875 
L 18.109375 54.6875 
L 18.109375 46.1875 
Q 20.953125 51.171875 25.484375 53.578125 
Q 30.03125 56 36.53125 56 
Q 37.453125 56 38.578125 55.875 
Q 39.703125 55.765625 41.0625 55.515625 
z
" id="DejaVuSans-114"/>
      <path d="M 52 44.1875 
Q 55.375 50.25 60.0625 53.125 
Q 64.75 56 71.09375 56 
Q 79.640625 56 84.28125 50.015625 
Q 88.921875 44.046875 88.921875 33.015625 
L 88.921875 0 
L 79.890625 0 
L 79.890625 32.71875 
Q 79.890625 40.578125 77.09375 44.375 
Q 74.3125 48.1875 68.609375 48.1875 
Q 61.625 48.1875 57.5625 43.546875 
Q 53.515625 38.921875 53.515625 30.90625 
L 53.515625 0 
L 44.484375 0 
L 44.484375 32.71875 
Q 44.484375 40.625 41.703125 44.40625 
Q 38.921875 48.1875 33.109375 48.1875 
Q 26.21875 48.1875 22.15625 43.53125 
Q 18.109375 38.875 18.109375 30.90625 
L 18.109375 0 
L 9.078125 0 
L 9.078125 54.6875 
L 18.109375 54.6875 
L 18.109375 46.1875 
Q 21.1875 51.21875 25.484375 53.609375 
Q 29.78125 56 35.6875 56 
Q 41.65625 56 45.828125 52.96875 
Q 50 49.953125 52 44.1875 
z
" id="DejaVuSans-109"/>
      <path d="M 44.28125 53.078125 
L 44.28125 44.578125 
Q 40.484375 46.53125 36.375 47.5 
Q 32.28125 48.484375 27.875 48.484375 
Q 21.1875 48.484375 17.84375 46.4375 
Q 14.5 44.390625 14.5 40.28125 
Q 14.5 37.15625 16.890625 35.375 
Q 19.28125 33.59375 26.515625 31.984375 
L 29.59375 31.296875 
Q 39.15625 29.25 43.1875 25.515625 
Q 47.21875 21.78125 47.21875 15.09375 
Q 47.21875 7.46875 41.1875 3.015625 
Q 35.15625 -1.421875 24.609375 -1.421875 
Q 20.21875 -1.421875 15.453125 -0.5625 
Q 10.6875 0.296875 5.421875 2 
L 5.421875 11.28125 
Q 10.40625 8.6875 15.234375 7.390625 
Q 20.0625 6.109375 24.8125 6.109375 
Q 31.15625 6.109375 34.5625 8.28125 
Q 37.984375 10.453125 37.984375 14.40625 
Q 37.984375 18.0625 35.515625 20.015625 
Q 33.0625 21.96875 24.703125 23.78125 
L 21.578125 24.515625 
Q 13.234375 26.265625 9.515625 29.90625 
Q 5.8125 33.546875 5.8125 39.890625 
Q 5.8125 47.609375 11.28125 51.796875 
Q 16.75 56 26.8125 56 
Q 31.78125 56 36.171875 55.265625 
Q 40.578125 54.546875 44.28125 53.078125 
z
" id="DejaVuSans-115"/>
     </defs>
     <g style="fill:#262626;" transform="translate(1317.497813 34.242188)scale(0.18 -0.18)">
      <use xlink:href="#DejaVuSans-112"/>
      <use x="63.476562" xlink:href="#DejaVuSans-97"/>
      <use x="124.755859" xlink:href="#DejaVuSans-114"/>
      <use x="165.869141" xlink:href="#DejaVuSans-97"/>
      <use x="227.148438" xlink:href="#DejaVuSans-109"/>
      <use x="324.560547" xlink:href="#DejaVuSans-101"/>
      <use x="386.083984" xlink:href="#DejaVuSans-116"/>
      <use x="425.292969" xlink:href="#DejaVuSans-101"/>
      <use x="486.816406" xlink:href="#DejaVuSans-114"/>
      <use x="527.929688" xlink:href="#DejaVuSans-115"/>
     </g>
    </g>
    <g id="patch_18">
     <path d="M 1321.781531 56.694305 
L 1351.481531 56.694305 
L 1351.481531 46.299305 
L 1321.781531 46.299305 
z
" style="fill:#5875a4;stroke:#4c4c4c;stroke-linejoin:miter;stroke-width:1.125;"/>
    </g>
    <g id="text_19">
     <!-- Default -->
     <defs>
      <path d="M 19.671875 64.796875 
L 19.671875 8.109375 
L 31.59375 8.109375 
Q 46.6875 8.109375 53.6875 14.9375 
Q 60.6875 21.78125 60.6875 36.53125 
Q 60.6875 51.171875 53.6875 57.984375 
Q 46.6875 64.796875 31.59375 64.796875 
z
M 9.8125 72.90625 
L 30.078125 72.90625 
Q 51.265625 72.90625 61.171875 64.09375 
Q 71.09375 55.28125 71.09375 36.53125 
Q 71.09375 17.671875 61.125 8.828125 
Q 51.171875 0 30.078125 0 
L 9.8125 0 
z
" id="DejaVuSans-68"/>
     </defs>
     <g style="fill:#262626;" transform="translate(1363.361531 56.694305)scale(0.1485 -0.1485)">
      <use xlink:href="#DejaVuSans-68"/>
      <use x="77.001953" xlink:href="#DejaVuSans-101"/>
      <use x="138.525391" xlink:href="#DejaVuSans-102"/>
      <use x="173.730469" xlink:href="#DejaVuSans-97"/>
      <use x="235.009766" xlink:href="#DejaVuSans-117"/>
      <use x="298.388672" xlink:href="#DejaVuSans-108"/>
      <use x="326.171875" xlink:href="#DejaVuSans-116"/>
     </g>
    </g>
    <g id="patch_19">
     <path d="M 1321.781531 78.49132 
L 1351.481531 78.49132 
L 1351.481531 68.09632 
L 1321.781531 68.09632 
z
" style="fill:#cc8963;stroke:#4c4c4c;stroke-linejoin:miter;stroke-width:1.125;"/>
    </g>
    <g id="text_20">
     <!-- Tuned -->
     <defs>
      <path d="M -0.296875 72.90625 
L 61.375 72.90625 
L 61.375 64.59375 
L 35.5 64.59375 
L 35.5 0 
L 25.59375 0 
L 25.59375 64.59375 
L -0.296875 64.59375 
z
" id="DejaVuSans-84"/>
     </defs>
     <g style="fill:#262626;" transform="translate(1363.361531 78.49132)scale(0.1485 -0.1485)">
      <use xlink:href="#DejaVuSans-84"/>
      <use x="45.958984" xlink:href="#DejaVuSans-117"/>
      <use x="109.337891" xlink:href="#DejaVuSans-110"/>
      <use x="172.716797" xlink:href="#DejaVuSans-101"/>
      <use x="234.240234" xlink:href="#DejaVuSans-100"/>
     </g>
    </g>
   </g>
  </g>
 </g>
 <defs>
  <clipPath id="p9d5064564f">
   <rect height="489.24" width="1339.2" x="96.068438" y="7.2"/>
  </clipPath>
 </defs>
</svg>
