<?xml version="1.0" encoding="utf-8" standalone="no"?>
<!DOCTYPE svg PUBLIC "-//W3C//DTD SVG 1.1//EN"
  "http://www.w3.org/Graphics/SVG/1.1/DTD/svg11.dtd">
<!-- Created with matplotlib (https://matplotlib.org/) -->
<svg height="360.217528pt" version="1.1" viewBox="0 0 986.620125 360.217528" width="986.620125pt" xmlns="http://www.w3.org/2000/svg" xmlns:xlink="http://www.w3.org/1999/xlink">
 <defs>
  <style type="text/css">
*{stroke-linecap:butt;stroke-linejoin:round;}
  </style>
 </defs>
 <g id="figure_1">
  <g id="patch_1">
   <path d="M 0 360.217528 
L 986.620125 360.217528 
L 986.620125 -0 
L 0 -0 
z
" style="fill:#ffffff;"/>
  </g>
  <g id="axes_1">
   <g id="patch_2">
    <path d="M 86.620125 284.64184 
L 530.799229 284.64184 
L 530.799229 12.84184 
L 86.620125 12.84184 
z
" style="fill:#eaeaf2;"/>
   </g>
   <g id="matplotlib.axis_1">
    <g id="xtick_1">
     <g id="line2d_1">
      <defs>
       <path d="M 0 0 
L 0 10 
" id="m3ebb877a64" style="stroke:#808080;stroke-width:2;"/>
      </defs>
      <g>
       <use style="fill:#808080;stroke:#808080;stroke-width:2;" x="123.63505" xlink:href="#m3ebb877a64" y="284.64184"/>
      </g>
     </g>
     <g id="text_1">
      <!-- py.ES default -->
      <defs>
       <path d="M 18.109375 8.203125 
L 18.109375 -20.796875 
L 9.078125 -20.796875 
L 9.078125 54.6875 
L 18.109375 54.6875 
L 18.109375 46.390625 
Q 20.953125 51.265625 25.265625 53.625 
Q 29.59375 56 35.59375 56 
Q 45.5625 56 51.78125 48.09375 
Q 58.015625 40.1875 58.015625 27.296875 
Q 58.015625 14.40625 51.78125 6.484375 
Q 45.5625 -1.421875 35.59375 -1.421875 
Q 29.59375 -1.421875 25.265625 0.953125 
Q 20.953125 3.328125 18.109375 8.203125 
z
M 48.6875 27.296875 
Q 48.6875 37.203125 44.609375 42.84375 
Q 40.53125 48.484375 33.40625 48.484375 
Q 26.265625 48.484375 22.1875 42.84375 
Q 18.109375 37.203125 18.109375 27.296875 
Q 18.109375 17.390625 22.1875 11.75 
Q 26.265625 6.109375 33.40625 6.109375 
Q 40.53125 6.109375 44.609375 11.75 
Q 48.6875 17.390625 48.6875 27.296875 
z
" id="DejaVuSans-112"/>
       <path d="M 32.171875 -5.078125 
Q 28.375 -14.84375 24.75 -17.8125 
Q 21.140625 -20.796875 15.09375 -20.796875 
L 7.90625 -20.796875 
L 7.90625 -13.28125 
L 13.1875 -13.28125 
Q 16.890625 -13.28125 18.9375 -11.515625 
Q 21 -9.765625 23.484375 -3.21875 
L 25.09375 0.875 
L 2.984375 54.6875 
L 12.5 54.6875 
L 29.59375 11.921875 
L 46.6875 54.6875 
L 56.203125 54.6875 
z
" id="DejaVuSans-121"/>
       <path d="M 10.6875 12.40625 
L 21 12.40625 
L 21 0 
L 10.6875 0 
z
" id="DejaVuSans-46"/>
       <path d="M 9.8125 72.90625 
L 55.90625 72.90625 
L 55.90625 64.59375 
L 19.671875 64.59375 
L 19.671875 43.015625 
L 54.390625 43.015625 
L 54.390625 34.71875 
L 19.671875 34.71875 
L 19.671875 8.296875 
L 56.78125 8.296875 
L 56.78125 0 
L 9.8125 0 
z
" id="DejaVuSans-69"/>
       <path d="M 53.515625 70.515625 
L 53.515625 60.890625 
Q 47.90625 63.578125 42.921875 64.890625 
Q 37.9375 66.21875 33.296875 66.21875 
Q 25.25 66.21875 20.875 63.09375 
Q 16.5 59.96875 16.5 54.203125 
Q 16.5 49.359375 19.40625 46.890625 
Q 22.3125 44.4375 30.421875 42.921875 
L 36.375 41.703125 
Q 47.40625 39.59375 52.65625 34.296875 
Q 57.90625 29 57.90625 20.125 
Q 57.90625 9.515625 50.796875 4.046875 
Q 43.703125 -1.421875 29.984375 -1.421875 
Q 24.8125 -1.421875 18.96875 -0.25 
Q 13.140625 0.921875 6.890625 3.21875 
L 6.890625 13.375 
Q 12.890625 10.015625 18.65625 8.296875 
Q 24.421875 6.59375 29.984375 6.59375 
Q 38.421875 6.59375 43.015625 9.90625 
Q 47.609375 13.234375 47.609375 19.390625 
Q 47.609375 24.75 44.3125 27.78125 
Q 41.015625 30.8125 33.5 32.328125 
L 27.484375 33.5 
Q 16.453125 35.6875 11.515625 40.375 
Q 6.59375 45.0625 6.59375 53.421875 
Q 6.59375 63.09375 13.40625 68.65625 
Q 20.21875 74.21875 32.171875 74.21875 
Q 37.3125 74.21875 42.625 73.28125 
Q 47.953125 72.359375 53.515625 70.515625 
z
" id="DejaVuSans-83"/>
       <path id="DejaVuSans-32"/>
       <path d="M 45.40625 46.390625 
L 45.40625 75.984375 
L 54.390625 75.984375 
L 54.390625 0 
L 45.40625 0 
L 45.40625 8.203125 
Q 42.578125 3.328125 38.25 0.953125 
Q 33.9375 -1.421875 27.875 -1.421875 
Q 17.96875 -1.421875 11.734375 6.484375 
Q 5.515625 14.40625 5.515625 27.296875 
Q 5.515625 40.1875 11.734375 48.09375 
Q 17.96875 56 27.875 56 
Q 33.9375 56 38.25 53.625 
Q 42.578125 51.265625 45.40625 46.390625 
z
M 14.796875 27.296875 
Q 14.796875 17.390625 18.875 11.75 
Q 22.953125 6.109375 30.078125 6.109375 
Q 37.203125 6.109375 41.296875 11.75 
Q 45.40625 17.390625 45.40625 27.296875 
Q 45.40625 37.203125 41.296875 42.84375 
Q 37.203125 48.484375 30.078125 48.484375 
Q 22.953125 48.484375 18.875 42.84375 
Q 14.796875 37.203125 14.796875 27.296875 
z
" id="DejaVuSans-100"/>
       <path d="M 56.203125 29.59375 
L 56.203125 25.203125 
L 14.890625 25.203125 
Q 15.484375 15.921875 20.484375 11.0625 
Q 25.484375 6.203125 34.421875 6.203125 
Q 39.59375 6.203125 44.453125 7.46875 
Q 49.3125 8.734375 54.109375 11.28125 
L 54.109375 2.78125 
Q 49.265625 0.734375 44.1875 -0.34375 
Q 39.109375 -1.421875 33.890625 -1.421875 
Q 20.796875 -1.421875 13.15625 6.1875 
Q 5.515625 13.8125 5.515625 26.8125 
Q 5.515625 40.234375 12.765625 48.109375 
Q 20.015625 56 32.328125 56 
Q 43.359375 56 49.78125 48.890625 
Q 56.203125 41.796875 56.203125 29.59375 
z
M 47.21875 32.234375 
Q 47.125 39.59375 43.09375 43.984375 
Q 39.0625 48.390625 32.421875 48.390625 
Q 24.90625 48.390625 20.390625 44.140625 
Q 15.875 39.890625 15.1875 32.171875 
z
" id="DejaVuSans-101"/>
       <path d="M 37.109375 75.984375 
L 37.109375 68.5 
L 28.515625 68.5 
Q 23.6875 68.5 21.796875 66.546875 
Q 19.921875 64.59375 19.921875 59.515625 
L 19.921875 54.6875 
L 34.71875 54.6875 
L 34.71875 47.703125 
L 19.921875 47.703125 
L 19.921875 0 
L 10.890625 0 
L 10.890625 47.703125 
L 2.296875 47.703125 
L 2.296875 54.6875 
L 10.890625 54.6875 
L 10.890625 58.5 
Q 10.890625 67.625 15.140625 71.796875 
Q 19.390625 75.984375 28.609375 75.984375 
z
" id="DejaVuSans-102"/>
       <path d="M 34.28125 27.484375 
Q 23.390625 27.484375 19.1875 25 
Q 14.984375 22.515625 14.984375 16.5 
Q 14.984375 11.71875 18.140625 8.90625 
Q 21.296875 6.109375 26.703125 6.109375 
Q 34.1875 6.109375 38.703125 11.40625 
Q 43.21875 16.703125 43.21875 25.484375 
L 43.21875 27.484375 
z
M 52.203125 31.203125 
L 52.203125 0 
L 43.21875 0 
L 43.21875 8.296875 
Q 40.140625 3.328125 35.546875 0.953125 
Q 30.953125 -1.421875 24.3125 -1.421875 
Q 15.921875 -1.421875 10.953125 3.296875 
Q 6 8.015625 6 15.921875 
Q 6 25.140625 12.171875 29.828125 
Q 18.359375 34.515625 30.609375 34.515625 
L 43.21875 34.515625 
L 43.21875 35.40625 
Q 43.21875 41.609375 39.140625 45 
Q 35.0625 48.390625 27.6875 48.390625 
Q 23 48.390625 18.546875 47.265625 
Q 14.109375 46.140625 10.015625 43.890625 
L 10.015625 52.203125 
Q 14.9375 54.109375 19.578125 55.046875 
Q 24.21875 56 28.609375 56 
Q 40.484375 56 46.34375 49.84375 
Q 52.203125 43.703125 52.203125 31.203125 
z
" id="DejaVuSans-97"/>
       <path d="M 8.5 21.578125 
L 8.5 54.6875 
L 17.484375 54.6875 
L 17.484375 21.921875 
Q 17.484375 14.15625 20.5 10.265625 
Q 23.53125 6.390625 29.59375 6.390625 
Q 36.859375 6.390625 41.078125 11.03125 
Q 45.3125 15.671875 45.3125 23.6875 
L 45.3125 54.6875 
L 54.296875 54.6875 
L 54.296875 0 
L 45.3125 0 
L 45.3125 8.40625 
Q 42.046875 3.421875 37.71875 1 
Q 33.40625 -1.421875 27.6875 -1.421875 
Q 18.265625 -1.421875 13.375 4.4375 
Q 8.5 10.296875 8.5 21.578125 
z
M 31.109375 56 
z
" id="DejaVuSans-117"/>
       <path d="M 9.421875 75.984375 
L 18.40625 75.984375 
L 18.40625 0 
L 9.421875 0 
z
" id="DejaVuSans-108"/>
       <path d="M 18.3125 70.21875 
L 18.3125 54.6875 
L 36.8125 54.6875 
L 36.8125 47.703125 
L 18.3125 47.703125 
L 18.3125 18.015625 
Q 18.3125 11.328125 20.140625 9.421875 
Q 21.96875 7.515625 27.59375 7.515625 
L 36.8125 7.515625 
L 36.8125 0 
L 27.59375 0 
Q 17.1875 0 13.234375 3.875 
Q 9.28125 7.765625 9.28125 18.015625 
L 9.28125 47.703125 
L 2.6875 47.703125 
L 2.6875 54.6875 
L 9.28125 54.6875 
L 9.28125 70.21875 
z
" id="DejaVuSans-116"/>
      </defs>
      <g style="fill:#262626;" transform="translate(32.890688 341.574499)rotate(-25)scale(0.1485 -0.1485)">
       <use xlink:href="#DejaVuSans-112"/>
       <use x="63.476562" xlink:href="#DejaVuSans-121"/>
       <use x="122.4375" xlink:href="#DejaVuSans-46"/>
       <use x="154.224609" xlink:href="#DejaVuSans-69"/>
       <use x="217.408203" xlink:href="#DejaVuSans-83"/>
       <use x="280.884766" xlink:href="#DejaVuSans-32"/>
       <use x="312.671875" xlink:href="#DejaVuSans-100"/>
       <use x="376.148438" xlink:href="#DejaVuSans-101"/>
       <use x="437.671875" xlink:href="#DejaVuSans-102"/>
       <use x="472.876953" xlink:href="#DejaVuSans-97"/>
       <use x="534.15625" xlink:href="#DejaVuSans-117"/>
       <use x="597.535156" xlink:href="#DejaVuSans-108"/>
       <use x="625.318359" xlink:href="#DejaVuSans-116"/>
      </g>
     </g>
    </g>
    <g id="xtick_2">
     <g id="line2d_2">
      <g>
       <use style="fill:#808080;stroke:#808080;stroke-width:2;" x="197.664901" xlink:href="#m3ebb877a64" y="284.64184"/>
      </g>
     </g>
     <g id="text_2">
      <!-- py.SA default -->
      <defs>
       <path d="M 34.1875 63.1875 
L 20.796875 26.90625 
L 47.609375 26.90625 
z
M 28.609375 72.90625 
L 39.796875 72.90625 
L 67.578125 0 
L 57.328125 0 
L 50.6875 18.703125 
L 17.828125 18.703125 
L 11.1875 0 
L 0.78125 0 
z
" id="DejaVuSans-65"/>
      </defs>
      <g style="fill:#262626;" transform="translate(106.216062 341.903002)rotate(-25)scale(0.1485 -0.1485)">
       <use xlink:href="#DejaVuSans-112"/>
       <use x="63.476562" xlink:href="#DejaVuSans-121"/>
       <use x="122.4375" xlink:href="#DejaVuSans-46"/>
       <use x="154.224609" xlink:href="#DejaVuSans-83"/>
       <use x="217.716797" xlink:href="#DejaVuSans-65"/>
       <use x="286.125" xlink:href="#DejaVuSans-32"/>
       <use x="317.912109" xlink:href="#DejaVuSans-100"/>
       <use x="381.388672" xlink:href="#DejaVuSans-101"/>
       <use x="442.912109" xlink:href="#DejaVuSans-102"/>
       <use x="478.117188" xlink:href="#DejaVuSans-97"/>
       <use x="539.396484" xlink:href="#DejaVuSans-117"/>
       <use x="602.775391" xlink:href="#DejaVuSans-108"/>
       <use x="630.558594" xlink:href="#DejaVuSans-116"/>
      </g>
     </g>
    </g>
    <g id="xtick_3">
     <g id="line2d_3">
      <g>
       <use style="fill:#808080;stroke:#808080;stroke-width:2;" x="271.694752" xlink:href="#m3ebb877a64" y="284.64184"/>
      </g>
     </g>
     <g id="text_3">
      <!-- j.ES default -->
      <defs>
       <path d="M 9.421875 54.6875 
L 18.40625 54.6875 
L 18.40625 -0.984375 
Q 18.40625 -11.421875 14.421875 -16.109375 
Q 10.453125 -20.796875 1.609375 -20.796875 
L -1.8125 -20.796875 
L -1.8125 -13.1875 
L 0.59375 -13.1875 
Q 5.71875 -13.1875 7.5625 -10.8125 
Q 9.421875 -8.453125 9.421875 -0.984375 
z
M 9.421875 75.984375 
L 18.40625 75.984375 
L 18.40625 64.59375 
L 9.421875 64.59375 
z
" id="DejaVuSans-106"/>
      </defs>
      <g style="fill:#262626;" transform="translate(193.691965 335.633005)rotate(-25)scale(0.1485 -0.1485)">
       <use xlink:href="#DejaVuSans-106"/>
       <use x="27.783203" xlink:href="#DejaVuSans-46"/>
       <use x="59.570312" xlink:href="#DejaVuSans-69"/>
       <use x="122.753906" xlink:href="#DejaVuSans-83"/>
       <use x="186.230469" xlink:href="#DejaVuSans-32"/>
       <use x="218.017578" xlink:href="#DejaVuSans-100"/>
       <use x="281.494141" xlink:href="#DejaVuSans-101"/>
       <use x="343.017578" xlink:href="#DejaVuSans-102"/>
       <use x="378.222656" xlink:href="#DejaVuSans-97"/>
       <use x="439.501953" xlink:href="#DejaVuSans-117"/>
       <use x="502.880859" xlink:href="#DejaVuSans-108"/>
       <use x="530.664062" xlink:href="#DejaVuSans-116"/>
      </g>
     </g>
    </g>
    <g id="xtick_4">
     <g id="line2d_4">
      <g>
       <use style="fill:#808080;stroke:#808080;stroke-width:2;" x="345.724603" xlink:href="#m3ebb877a64" y="284.64184"/>
      </g>
     </g>
     <g id="text_4">
      <!-- random default -->
      <defs>
       <path d="M 41.109375 46.296875 
Q 39.59375 47.171875 37.8125 47.578125 
Q 36.03125 48 33.890625 48 
Q 26.265625 48 22.1875 43.046875 
Q 18.109375 38.09375 18.109375 28.8125 
L 18.109375 0 
L 9.078125 0 
L 9.078125 54.6875 
L 18.109375 54.6875 
L 18.109375 46.1875 
Q 20.953125 51.171875 25.484375 53.578125 
Q 30.03125 56 36.53125 56 
Q 37.453125 56 38.578125 55.875 
Q 39.703125 55.765625 41.0625 55.515625 
z
" id="DejaVuSans-114"/>
       <path d="M 54.890625 33.015625 
L 54.890625 0 
L 45.90625 0 
L 45.90625 32.71875 
Q 45.90625 40.484375 42.875 44.328125 
Q 39.84375 48.1875 33.796875 48.1875 
Q 26.515625 48.1875 22.3125 43.546875 
Q 18.109375 38.921875 18.109375 30.90625 
L 18.109375 0 
L 9.078125 0 
L 9.078125 54.6875 
L 18.109375 54.6875 
L 18.109375 46.1875 
Q 21.34375 51.125 25.703125 53.5625 
Q 30.078125 56 35.796875 56 
Q 45.21875 56 50.046875 50.171875 
Q 54.890625 44.34375 54.890625 33.015625 
z
" id="DejaVuSans-110"/>
       <path d="M 30.609375 48.390625 
Q 23.390625 48.390625 19.1875 42.75 
Q 14.984375 37.109375 14.984375 27.296875 
Q 14.984375 17.484375 19.15625 11.84375 
Q 23.34375 6.203125 30.609375 6.203125 
Q 37.796875 6.203125 41.984375 11.859375 
Q 46.1875 17.53125 46.1875 27.296875 
Q 46.1875 37.015625 41.984375 42.703125 
Q 37.796875 48.390625 30.609375 48.390625 
z
M 30.609375 56 
Q 42.328125 56 49.015625 48.375 
Q 55.71875 40.765625 55.71875 27.296875 
Q 55.71875 13.875 49.015625 6.21875 
Q 42.328125 -1.421875 30.609375 -1.421875 
Q 18.84375 -1.421875 12.171875 6.21875 
Q 5.515625 13.875 5.515625 27.296875 
Q 5.515625 40.765625 12.171875 48.375 
Q 18.84375 56 30.609375 56 
z
" id="DejaVuSans-111"/>
       <path d="M 52 44.1875 
Q 55.375 50.25 60.0625 53.125 
Q 64.75 56 71.09375 56 
Q 79.640625 56 84.28125 50.015625 
Q 88.921875 44.046875 88.921875 33.015625 
L 88.921875 0 
L 79.890625 0 
L 79.890625 32.71875 
Q 79.890625 40.578125 77.09375 44.375 
Q 74.3125 48.1875 68.609375 48.1875 
Q 61.625 48.1875 57.5625 43.546875 
Q 53.515625 38.921875 53.515625 30.90625 
L 53.515625 0 
L 44.484375 0 
L 44.484375 32.71875 
Q 44.484375 40.625 41.703125 44.40625 
Q 38.921875 48.1875 33.109375 48.1875 
Q 26.21875 48.1875 22.15625 43.53125 
Q 18.109375 38.875 18.109375 30.90625 
L 18.109375 0 
L 9.078125 0 
L 9.078125 54.6875 
L 18.109375 54.6875 
L 18.109375 46.1875 
Q 21.1875 51.21875 25.484375 53.609375 
Q 29.78125 56 35.6875 56 
Q 41.65625 56 45.828125 52.96875 
Q 50 49.953125 52 44.1875 
z
" id="DejaVuSans-109"/>
      </defs>
      <g style="fill:#262626;" transform="translate(240.587874 348.285769)rotate(-25)scale(0.1485 -0.1485)">
       <use xlink:href="#DejaVuSans-114"/>
       <use x="41.113281" xlink:href="#DejaVuSans-97"/>
       <use x="102.392578" xlink:href="#DejaVuSans-110"/>
       <use x="165.771484" xlink:href="#DejaVuSans-100"/>
       <use x="229.248047" xlink:href="#DejaVuSans-111"/>
       <use x="290.429688" xlink:href="#DejaVuSans-109"/>
       <use x="387.841797" xlink:href="#DejaVuSans-32"/>
       <use x="419.628906" xlink:href="#DejaVuSans-100"/>
       <use x="483.105469" xlink:href="#DejaVuSans-101"/>
       <use x="544.628906" xlink:href="#DejaVuSans-102"/>
       <use x="579.833984" xlink:href="#DejaVuSans-97"/>
       <use x="641.113281" xlink:href="#DejaVuSans-117"/>
       <use x="704.492188" xlink:href="#DejaVuSans-108"/>
       <use x="732.275391" xlink:href="#DejaVuSans-116"/>
      </g>
     </g>
    </g>
    <g id="xtick_5">
     <g id="line2d_5">
      <g>
       <use style="fill:#808080;stroke:#808080;stroke-width:2;" x="419.754453" xlink:href="#m3ebb877a64" y="284.64184"/>
      </g>
     </g>
     <g id="text_5">
      <!-- FRAMAB default -->
      <defs>
       <path d="M 9.8125 72.90625 
L 51.703125 72.90625 
L 51.703125 64.59375 
L 19.671875 64.59375 
L 19.671875 43.109375 
L 48.578125 43.109375 
L 48.578125 34.8125 
L 19.671875 34.8125 
L 19.671875 0 
L 9.8125 0 
z
" id="DejaVuSans-70"/>
       <path d="M 44.390625 34.1875 
Q 47.5625 33.109375 50.5625 29.59375 
Q 53.5625 26.078125 56.59375 19.921875 
L 66.609375 0 
L 56 0 
L 46.6875 18.703125 
Q 43.0625 26.03125 39.671875 28.421875 
Q 36.28125 30.8125 30.421875 30.8125 
L 19.671875 30.8125 
L 19.671875 0 
L 9.8125 0 
L 9.8125 72.90625 
L 32.078125 72.90625 
Q 44.578125 72.90625 50.734375 67.671875 
Q 56.890625 62.453125 56.890625 51.90625 
Q 56.890625 45.015625 53.6875 40.46875 
Q 50.484375 35.9375 44.390625 34.1875 
z
M 19.671875 64.796875 
L 19.671875 38.921875 
L 32.078125 38.921875 
Q 39.203125 38.921875 42.84375 42.21875 
Q 46.484375 45.515625 46.484375 51.90625 
Q 46.484375 58.296875 42.84375 61.546875 
Q 39.203125 64.796875 32.078125 64.796875 
z
" id="DejaVuSans-82"/>
       <path d="M 9.8125 72.90625 
L 24.515625 72.90625 
L 43.109375 23.296875 
L 61.8125 72.90625 
L 76.515625 72.90625 
L 76.515625 0 
L 66.890625 0 
L 66.890625 64.015625 
L 48.09375 14.015625 
L 38.1875 14.015625 
L 19.390625 64.015625 
L 19.390625 0 
L 9.8125 0 
z
" id="DejaVuSans-77"/>
       <path d="M 19.671875 34.8125 
L 19.671875 8.109375 
L 35.5 8.109375 
Q 43.453125 8.109375 47.28125 11.40625 
Q 51.125 14.703125 51.125 21.484375 
Q 51.125 28.328125 47.28125 31.5625 
Q 43.453125 34.8125 35.5 34.8125 
z
M 19.671875 64.796875 
L 19.671875 42.828125 
L 34.28125 42.828125 
Q 41.5 42.828125 45.03125 45.53125 
Q 48.578125 48.25 48.578125 53.8125 
Q 48.578125 59.328125 45.03125 62.0625 
Q 41.5 64.796875 34.28125 64.796875 
z
M 9.8125 72.90625 
L 35.015625 72.90625 
Q 46.296875 72.90625 52.390625 68.21875 
Q 58.5 63.53125 58.5 54.890625 
Q 58.5 48.1875 55.375 44.234375 
Q 52.25 40.28125 46.1875 39.3125 
Q 53.46875 37.75 57.5 32.78125 
Q 61.53125 27.828125 61.53125 20.40625 
Q 61.53125 10.640625 54.890625 5.3125 
Q 48.25 0 35.984375 0 
L 9.8125 0 
z
" id="DejaVuSans-66"/>
      </defs>
      <g style="fill:#262626;" transform="translate(310.472875 350.218545)rotate(-25)scale(0.1485 -0.1485)">
       <use xlink:href="#DejaVuSans-70"/>
       <use x="57.519531" xlink:href="#DejaVuSans-82"/>
       <use x="126.939453" xlink:href="#DejaVuSans-65"/>
       <use x="195.347656" xlink:href="#DejaVuSans-77"/>
       <use x="281.626953" xlink:href="#DejaVuSans-65"/>
       <use x="350.035156" xlink:href="#DejaVuSans-66"/>
       <use x="418.638672" xlink:href="#DejaVuSans-32"/>
       <use x="450.425781" xlink:href="#DejaVuSans-100"/>
       <use x="513.902344" xlink:href="#DejaVuSans-101"/>
       <use x="575.425781" xlink:href="#DejaVuSans-102"/>
       <use x="610.630859" xlink:href="#DejaVuSans-97"/>
       <use x="671.910156" xlink:href="#DejaVuSans-117"/>
       <use x="735.289062" xlink:href="#DejaVuSans-108"/>
       <use x="763.072266" xlink:href="#DejaVuSans-116"/>
      </g>
     </g>
    </g>
    <g id="xtick_6">
     <g id="line2d_6">
      <g>
       <use style="fill:#808080;stroke:#808080;stroke-width:2;" x="493.784304" xlink:href="#m3ebb877a64" y="284.64184"/>
      </g>
     </g>
     <g id="text_6">
      <!-- BRR default -->
      <g style="fill:#262626;" transform="translate(412.908933 336.972513)rotate(-25)scale(0.1485 -0.1485)">
       <use xlink:href="#DejaVuSans-66"/>
       <use x="68.603516" xlink:href="#DejaVuSans-82"/>
       <use x="138.085938" xlink:href="#DejaVuSans-82"/>
       <use x="207.568359" xlink:href="#DejaVuSans-32"/>
       <use x="239.355469" xlink:href="#DejaVuSans-100"/>
       <use x="302.832031" xlink:href="#DejaVuSans-101"/>
       <use x="364.355469" xlink:href="#DejaVuSans-102"/>
       <use x="399.560547" xlink:href="#DejaVuSans-97"/>
       <use x="460.839844" xlink:href="#DejaVuSans-117"/>
       <use x="524.21875" xlink:href="#DejaVuSans-108"/>
       <use x="552.001953" xlink:href="#DejaVuSans-116"/>
      </g>
     </g>
    </g>
   </g>
   <g id="matplotlib.axis_2">
    <g id="ytick_1">
     <g id="line2d_7">
      <path clip-path="url(#p25f6d1f1a7)" d="M 86.620125 239.387149 
L 530.799229 239.387149 
" style="fill:none;stroke:#ffffff;stroke-linecap:round;stroke-width:1.5;"/>
     </g>
     <g id="text_7">
      <!-- 25000 -->
      <defs>
       <path d="M 19.1875 8.296875 
L 53.609375 8.296875 
L 53.609375 0 
L 7.328125 0 
L 7.328125 8.296875 
Q 12.9375 14.109375 22.625 23.890625 
Q 32.328125 33.6875 34.8125 36.53125 
Q 39.546875 41.84375 41.421875 45.53125 
Q 43.3125 49.21875 43.3125 52.78125 
Q 43.3125 58.59375 39.234375 62.25 
Q 35.15625 65.921875 28.609375 65.921875 
Q 23.96875 65.921875 18.8125 64.3125 
Q 13.671875 62.703125 7.8125 59.421875 
L 7.8125 69.390625 
Q 13.765625 71.78125 18.9375 73 
Q 24.125 74.21875 28.421875 74.21875 
Q 39.75 74.21875 46.484375 68.546875 
Q 53.21875 62.890625 53.21875 53.421875 
Q 53.21875 48.921875 51.53125 44.890625 
Q 49.859375 40.875 45.40625 35.40625 
Q 44.1875 33.984375 37.640625 27.21875 
Q 31.109375 20.453125 19.1875 8.296875 
z
" id="DejaVuSans-50"/>
       <path d="M 10.796875 72.90625 
L 49.515625 72.90625 
L 49.515625 64.59375 
L 19.828125 64.59375 
L 19.828125 46.734375 
Q 21.96875 47.46875 24.109375 47.828125 
Q 26.265625 48.1875 28.421875 48.1875 
Q 40.625 48.1875 47.75 41.5 
Q 54.890625 34.8125 54.890625 23.390625 
Q 54.890625 11.625 47.5625 5.09375 
Q 40.234375 -1.421875 26.90625 -1.421875 
Q 22.3125 -1.421875 17.546875 -0.640625 
Q 12.796875 0.140625 7.71875 1.703125 
L 7.71875 11.625 
Q 12.109375 9.234375 16.796875 8.0625 
Q 21.484375 6.890625 26.703125 6.890625 
Q 35.15625 6.890625 40.078125 11.328125 
Q 45.015625 15.765625 45.015625 23.390625 
Q 45.015625 31 40.078125 35.4375 
Q 35.15625 39.890625 26.703125 39.890625 
Q 22.75 39.890625 18.8125 39.015625 
Q 14.890625 38.140625 10.796875 36.28125 
z
" id="DejaVuSans-53"/>
       <path d="M 31.78125 66.40625 
Q 24.171875 66.40625 20.328125 58.90625 
Q 16.5 51.421875 16.5 36.375 
Q 16.5 21.390625 20.328125 13.890625 
Q 24.171875 6.390625 31.78125 6.390625 
Q 39.453125 6.390625 43.28125 13.890625 
Q 47.125 21.390625 47.125 36.375 
Q 47.125 51.421875 43.28125 58.90625 
Q 39.453125 66.40625 31.78125 66.40625 
z
M 31.78125 74.21875 
Q 44.046875 74.21875 50.515625 64.515625 
Q 56.984375 54.828125 56.984375 36.375 
Q 56.984375 17.96875 50.515625 8.265625 
Q 44.046875 -1.421875 31.78125 -1.421875 
Q 19.53125 -1.421875 13.0625 8.265625 
Q 6.59375 17.96875 6.59375 36.375 
Q 6.59375 54.828125 13.0625 64.515625 
Q 19.53125 74.21875 31.78125 74.21875 
z
" id="DejaVuSans-48"/>
      </defs>
      <g style="fill:#262626;" transform="translate(26.878563 245.028989)scale(0.1485 -0.1485)">
       <use xlink:href="#DejaVuSans-50"/>
       <use x="63.623047" xlink:href="#DejaVuSans-53"/>
       <use x="127.246094" xlink:href="#DejaVuSans-48"/>
       <use x="190.869141" xlink:href="#DejaVuSans-48"/>
       <use x="254.492188" xlink:href="#DejaVuSans-48"/>
      </g>
     </g>
    </g>
    <g id="ytick_2">
     <g id="line2d_8">
      <path clip-path="url(#p25f6d1f1a7)" d="M 86.620125 194.078087 
L 530.799229 194.078087 
" style="fill:none;stroke:#ffffff;stroke-linecap:round;stroke-width:1.5;"/>
     </g>
     <g id="text_8">
      <!-- 30000 -->
      <defs>
       <path d="M 40.578125 39.3125 
Q 47.65625 37.796875 51.625 33 
Q 55.609375 28.21875 55.609375 21.1875 
Q 55.609375 10.40625 48.1875 4.484375 
Q 40.765625 -1.421875 27.09375 -1.421875 
Q 22.515625 -1.421875 17.65625 -0.515625 
Q 12.796875 0.390625 7.625 2.203125 
L 7.625 11.71875 
Q 11.71875 9.328125 16.59375 8.109375 
Q 21.484375 6.890625 26.8125 6.890625 
Q 36.078125 6.890625 40.9375 10.546875 
Q 45.796875 14.203125 45.796875 21.1875 
Q 45.796875 27.640625 41.28125 31.265625 
Q 36.765625 34.90625 28.71875 34.90625 
L 20.21875 34.90625 
L 20.21875 43.015625 
L 29.109375 43.015625 
Q 36.375 43.015625 40.234375 45.921875 
Q 44.09375 48.828125 44.09375 54.296875 
Q 44.09375 59.90625 40.109375 62.90625 
Q 36.140625 65.921875 28.71875 65.921875 
Q 24.65625 65.921875 20.015625 65.03125 
Q 15.375 64.15625 9.8125 62.3125 
L 9.8125 71.09375 
Q 15.4375 72.65625 20.34375 73.4375 
Q 25.25 74.21875 29.59375 74.21875 
Q 40.828125 74.21875 47.359375 69.109375 
Q 53.90625 64.015625 53.90625 55.328125 
Q 53.90625 49.265625 50.4375 45.09375 
Q 46.96875 40.921875 40.578125 39.3125 
z
" id="DejaVuSans-51"/>
      </defs>
      <g style="fill:#262626;" transform="translate(26.878563 199.719927)scale(0.1485 -0.1485)">
       <use xlink:href="#DejaVuSans-51"/>
       <use x="63.623047" xlink:href="#DejaVuSans-48"/>
       <use x="127.246094" xlink:href="#DejaVuSans-48"/>
       <use x="190.869141" xlink:href="#DejaVuSans-48"/>
       <use x="254.492188" xlink:href="#DejaVuSans-48"/>
      </g>
     </g>
    </g>
    <g id="ytick_3">
     <g id="line2d_9">
      <path clip-path="url(#p25f6d1f1a7)" d="M 86.620125 148.769025 
L 530.799229 148.769025 
" style="fill:none;stroke:#ffffff;stroke-linecap:round;stroke-width:1.5;"/>
     </g>
     <g id="text_9">
      <!-- 35000 -->
      <g style="fill:#262626;" transform="translate(26.878563 154.410865)scale(0.1485 -0.1485)">
       <use xlink:href="#DejaVuSans-51"/>
       <use x="63.623047" xlink:href="#DejaVuSans-53"/>
       <use x="127.246094" xlink:href="#DejaVuSans-48"/>
       <use x="190.869141" xlink:href="#DejaVuSans-48"/>
       <use x="254.492188" xlink:href="#DejaVuSans-48"/>
      </g>
     </g>
    </g>
    <g id="ytick_4">
     <g id="line2d_10">
      <path clip-path="url(#p25f6d1f1a7)" d="M 86.620125 103.459963 
L 530.799229 103.459963 
" style="fill:none;stroke:#ffffff;stroke-linecap:round;stroke-width:1.5;"/>
     </g>
     <g id="text_10">
      <!-- 40000 -->
      <defs>
       <path d="M 37.796875 64.3125 
L 12.890625 25.390625 
L 37.796875 25.390625 
z
M 35.203125 72.90625 
L 47.609375 72.90625 
L 47.609375 25.390625 
L 58.015625 25.390625 
L 58.015625 17.1875 
L 47.609375 17.1875 
L 47.609375 0 
L 37.796875 0 
L 37.796875 17.1875 
L 4.890625 17.1875 
L 4.890625 26.703125 
z
" id="DejaVuSans-52"/>
      </defs>
      <g style="fill:#262626;" transform="translate(26.878563 109.101803)scale(0.1485 -0.1485)">
       <use xlink:href="#DejaVuSans-52"/>
       <use x="63.623047" xlink:href="#DejaVuSans-48"/>
       <use x="127.246094" xlink:href="#DejaVuSans-48"/>
       <use x="190.869141" xlink:href="#DejaVuSans-48"/>
       <use x="254.492188" xlink:href="#DejaVuSans-48"/>
      </g>
     </g>
    </g>
    <g id="ytick_5">
     <g id="line2d_11">
      <path clip-path="url(#p25f6d1f1a7)" d="M 86.620125 58.150902 
L 530.799229 58.150902 
" style="fill:none;stroke:#ffffff;stroke-linecap:round;stroke-width:1.5;"/>
     </g>
     <g id="text_11">
      <!-- 45000 -->
      <g style="fill:#262626;" transform="translate(26.878563 63.792741)scale(0.1485 -0.1485)">
       <use xlink:href="#DejaVuSans-52"/>
       <use x="63.623047" xlink:href="#DejaVuSans-53"/>
       <use x="127.246094" xlink:href="#DejaVuSans-48"/>
       <use x="190.869141" xlink:href="#DejaVuSans-48"/>
       <use x="254.492188" xlink:href="#DejaVuSans-48"/>
      </g>
     </g>
    </g>
    <g id="ytick_6">
     <g id="line2d_12">
      <path clip-path="url(#p25f6d1f1a7)" d="M 86.620125 12.84184 
L 530.799229 12.84184 
" style="fill:none;stroke:#ffffff;stroke-linecap:round;stroke-width:1.5;"/>
     </g>
     <g id="text_12">
      <!-- 50000 -->
      <g style="fill:#262626;" transform="translate(26.878563 18.48368)scale(0.1485 -0.1485)">
       <use xlink:href="#DejaVuSans-53"/>
       <use x="63.623047" xlink:href="#DejaVuSans-48"/>
       <use x="127.246094" xlink:href="#DejaVuSans-48"/>
       <use x="190.869141" xlink:href="#DejaVuSans-48"/>
       <use x="254.492188" xlink:href="#DejaVuSans-48"/>
      </g>
     </g>
    </g>
    <g id="text_13">
     <!-- Distance (km) -->
     <defs>
      <path d="M 19.671875 64.796875 
L 19.671875 8.109375 
L 31.59375 8.109375 
Q 46.6875 8.109375 53.6875 14.9375 
Q 60.6875 21.78125 60.6875 36.53125 
Q 60.6875 51.171875 53.6875 57.984375 
Q 46.6875 64.796875 31.59375 64.796875 
z
M 9.8125 72.90625 
L 30.078125 72.90625 
Q 51.265625 72.90625 61.171875 64.09375 
Q 71.09375 55.28125 71.09375 36.53125 
Q 71.09375 17.671875 61.125 8.828125 
Q 51.171875 0 30.078125 0 
L 9.8125 0 
z
" id="DejaVuSans-68"/>
      <path d="M 9.421875 54.6875 
L 18.40625 54.6875 
L 18.40625 0 
L 9.421875 0 
z
M 9.421875 75.984375 
L 18.40625 75.984375 
L 18.40625 64.59375 
L 9.421875 64.59375 
z
" id="DejaVuSans-105"/>
      <path d="M 44.28125 53.078125 
L 44.28125 44.578125 
Q 40.484375 46.53125 36.375 47.5 
Q 32.28125 48.484375 27.875 48.484375 
Q 21.1875 48.484375 17.84375 46.4375 
Q 14.5 44.390625 14.5 40.28125 
Q 14.5 37.15625 16.890625 35.375 
Q 19.28125 33.59375 26.515625 31.984375 
L 29.59375 31.296875 
Q 39.15625 29.25 43.1875 25.515625 
Q 47.21875 21.78125 47.21875 15.09375 
Q 47.21875 7.46875 41.1875 3.015625 
Q 35.15625 -1.421875 24.609375 -1.421875 
Q 20.21875 -1.421875 15.453125 -0.5625 
Q 10.6875 0.296875 5.421875 2 
L 5.421875 11.28125 
Q 10.40625 8.6875 15.234375 7.390625 
Q 20.0625 6.109375 24.8125 6.109375 
Q 31.15625 6.109375 34.5625 8.28125 
Q 37.984375 10.453125 37.984375 14.40625 
Q 37.984375 18.0625 35.515625 20.015625 
Q 33.0625 21.96875 24.703125 23.78125 
L 21.578125 24.515625 
Q 13.234375 26.265625 9.515625 29.90625 
Q 5.8125 33.546875 5.8125 39.890625 
Q 5.8125 47.609375 11.28125 51.796875 
Q 16.75 56 26.8125 56 
Q 31.78125 56 36.171875 55.265625 
Q 40.578125 54.546875 44.28125 53.078125 
z
" id="DejaVuSans-115"/>
      <path d="M 48.78125 52.59375 
L 48.78125 44.1875 
Q 44.96875 46.296875 41.140625 47.34375 
Q 37.3125 48.390625 33.40625 48.390625 
Q 24.65625 48.390625 19.8125 42.84375 
Q 14.984375 37.3125 14.984375 27.296875 
Q 14.984375 17.28125 19.8125 11.734375 
Q 24.65625 6.203125 33.40625 6.203125 
Q 37.3125 6.203125 41.140625 7.25 
Q 44.96875 8.296875 48.78125 10.40625 
L 48.78125 2.09375 
Q 45.015625 0.34375 40.984375 -0.53125 
Q 36.96875 -1.421875 32.421875 -1.421875 
Q 20.0625 -1.421875 12.78125 6.34375 
Q 5.515625 14.109375 5.515625 27.296875 
Q 5.515625 40.671875 12.859375 48.328125 
Q 20.21875 56 33.015625 56 
Q 37.15625 56 41.109375 55.140625 
Q 45.0625 54.296875 48.78125 52.59375 
z
" id="DejaVuSans-99"/>
      <path d="M 31 75.875 
Q 24.46875 64.65625 21.28125 53.65625 
Q 18.109375 42.671875 18.109375 31.390625 
Q 18.109375 20.125 21.3125 9.0625 
Q 24.515625 -2 31 -13.1875 
L 23.1875 -13.1875 
Q 15.875 -1.703125 12.234375 9.375 
Q 8.59375 20.453125 8.59375 31.390625 
Q 8.59375 42.28125 12.203125 53.3125 
Q 15.828125 64.359375 23.1875 75.875 
z
" id="DejaVuSans-40"/>
      <path d="M 9.078125 75.984375 
L 18.109375 75.984375 
L 18.109375 31.109375 
L 44.921875 54.6875 
L 56.390625 54.6875 
L 27.390625 29.109375 
L 57.625 0 
L 45.90625 0 
L 18.109375 26.703125 
L 18.109375 0 
L 9.078125 0 
z
" id="DejaVuSans-107"/>
      <path d="M 8.015625 75.875 
L 15.828125 75.875 
Q 23.140625 64.359375 26.78125 53.3125 
Q 30.421875 42.28125 30.421875 31.390625 
Q 30.421875 20.453125 26.78125 9.375 
Q 23.140625 -1.703125 15.828125 -13.1875 
L 8.015625 -13.1875 
Q 14.5 -2 17.703125 9.0625 
Q 20.90625 20.125 20.90625 31.390625 
Q 20.90625 42.671875 17.703125 53.65625 
Q 14.5 64.65625 8.015625 75.875 
z
" id="DejaVuSans-41"/>
     </defs>
     <g style="fill:#262626;" transform="translate(19.509469 205.634215)rotate(-90)scale(0.162 -0.162)">
      <use xlink:href="#DejaVuSans-68"/>
      <use x="77.001953" xlink:href="#DejaVuSans-105"/>
      <use x="104.785156" xlink:href="#DejaVuSans-115"/>
      <use x="156.884766" xlink:href="#DejaVuSans-116"/>
      <use x="196.09375" xlink:href="#DejaVuSans-97"/>
      <use x="257.373047" xlink:href="#DejaVuSans-110"/>
      <use x="320.751953" xlink:href="#DejaVuSans-99"/>
      <use x="375.732422" xlink:href="#DejaVuSans-101"/>
      <use x="437.255859" xlink:href="#DejaVuSans-32"/>
      <use x="469.042969" xlink:href="#DejaVuSans-40"/>
      <use x="508.056641" xlink:href="#DejaVuSans-107"/>
      <use x="565.966797" xlink:href="#DejaVuSans-109"/>
      <use x="663.378906" xlink:href="#DejaVuSans-41"/>
     </g>
    </g>
   </g>
   <g id="patch_3">
    <path clip-path="url(#p25f6d1f1a7)" d="M 94.02311 -930.230035 
L 153.246991 -930.230035 
L 153.246991 -970.40558 
L 94.02311 -970.40558 
L 94.02311 -930.230035 
z
" style="fill:#5875a4;stroke:#4c4c4c;stroke-linejoin:miter;stroke-width:2.25;"/>
   </g>
   <g id="patch_4">
    <path clip-path="url(#p25f6d1f1a7)" d="M 168.052961 157.504612 
L 227.276841 157.504612 
L 227.276841 143.667225 
L 168.052961 143.667225 
L 168.052961 157.504612 
z
" style="fill:#5875a4;stroke:#4c4c4c;stroke-linejoin:miter;stroke-width:2.25;"/>
   </g>
   <g id="patch_5">
    <path clip-path="url(#p25f6d1f1a7)" d="M 242.082812 -1033.346663 
L 301.306692 -1033.346663 
L 301.306692 -1038.35558 
L 242.082812 -1038.35558 
L 242.082812 -1033.346663 
z
" style="fill:#5875a4;stroke:#4c4c4c;stroke-linejoin:miter;stroke-width:2.25;"/>
   </g>
   <g id="patch_6">
    <path clip-path="url(#p25f6d1f1a7)" d="M 316.112662 140.096871 
L 375.336543 140.096871 
L 375.336543 125.915135 
L 316.112662 125.915135 
L 316.112662 140.096871 
z
" style="fill:#cc8963;stroke:#4c4c4c;stroke-linejoin:miter;stroke-width:2.25;"/>
   </g>
   <g id="patch_7">
    <path clip-path="url(#p25f6d1f1a7)" d="M 390.142513 158.718895 
L 449.366394 158.718895 
L 449.366394 145.688009 
L 390.142513 145.688009 
L 390.142513 158.718895 
z
" style="fill:#cc8963;stroke:#4c4c4c;stroke-linejoin:miter;stroke-width:2.25;"/>
   </g>
   <g id="patch_8">
    <path clip-path="url(#p25f6d1f1a7)" d="M 464.172364 154.124556 
L 523.396244 154.124556 
L 523.396244 144.219995 
L 464.172364 144.219995 
L 464.172364 154.124556 
z
" style="fill:#cc8963;stroke:#4c4c4c;stroke-linejoin:miter;stroke-width:2.25;"/>
   </g>
   <g id="patch_9">
    <path clip-path="url(#p25f6d1f1a7)" d="M 123.63505 465.932458 
L 123.63505 465.932458 
L 123.63505 465.932458 
L 123.63505 465.932458 
z
" style="fill:#5875a4;stroke:#4c4c4c;stroke-linejoin:miter;stroke-width:1.125;"/>
   </g>
   <g id="patch_10">
    <path clip-path="url(#p25f6d1f1a7)" d="M 123.63505 465.932458 
L 123.63505 465.932458 
L 123.63505 465.932458 
L 123.63505 465.932458 
z
" style="fill:#cc8963;stroke:#4c4c4c;stroke-linejoin:miter;stroke-width:1.125;"/>
   </g>
   <g id="line2d_13">
    <path clip-path="url(#p25f6d1f1a7)" style="fill:none;stroke:#4c4c4c;stroke-linecap:round;stroke-width:2.25;"/>
   </g>
   <g id="line2d_14">
    <path clip-path="url(#p25f6d1f1a7)" style="fill:none;stroke:#4c4c4c;stroke-linecap:round;stroke-width:2.25;"/>
   </g>
   <g id="line2d_15">
    <path clip-path="url(#p25f6d1f1a7)" style="fill:none;stroke:#4c4c4c;stroke-linecap:round;stroke-width:2.25;"/>
   </g>
   <g id="line2d_16">
    <path clip-path="url(#p25f6d1f1a7)" style="fill:none;stroke:#4c4c4c;stroke-linecap:round;stroke-width:2.25;"/>
   </g>
   <g id="line2d_17"/>
   <g id="line2d_18">
    <path clip-path="url(#p25f6d1f1a7)" d="M 197.664901 157.504612 
L 197.664901 177.105313 
" style="fill:none;stroke:#4c4c4c;stroke-linecap:round;stroke-width:2.25;"/>
   </g>
   <g id="line2d_19">
    <path clip-path="url(#p25f6d1f1a7)" d="M 197.664901 143.667225 
L 197.664901 142.661364 
" style="fill:none;stroke:#4c4c4c;stroke-linecap:round;stroke-width:2.25;"/>
   </g>
   <g id="line2d_20">
    <path clip-path="url(#p25f6d1f1a7)" d="M 182.858931 177.105313 
L 212.470871 177.105313 
" style="fill:none;stroke:#4c4c4c;stroke-linecap:round;stroke-width:2.25;"/>
   </g>
   <g id="line2d_21">
    <path clip-path="url(#p25f6d1f1a7)" d="M 182.858931 142.661364 
L 212.470871 142.661364 
" style="fill:none;stroke:#4c4c4c;stroke-linecap:round;stroke-width:2.25;"/>
   </g>
   <g id="line2d_22">
    <defs>
     <path d="M -0 3.535534 
L 2.12132 0 
L -0 -3.535534 
L -2.12132 -0 
z
" id="m21df1560ca" style="stroke:#4c4c4c;stroke-linejoin:miter;"/>
    </defs>
    <g clip-path="url(#p25f6d1f1a7)">
     <use style="fill:#4c4c4c;stroke:#4c4c4c;stroke-linejoin:miter;" x="197.664901" xlink:href="#m21df1560ca" y="77.071966"/>
    </g>
   </g>
   <g id="line2d_23">
    <path clip-path="url(#p25f6d1f1a7)" style="fill:none;stroke:#4c4c4c;stroke-linecap:round;stroke-width:2.25;"/>
   </g>
   <g id="line2d_24">
    <path clip-path="url(#p25f6d1f1a7)" style="fill:none;stroke:#4c4c4c;stroke-linecap:round;stroke-width:2.25;"/>
   </g>
   <g id="line2d_25">
    <path clip-path="url(#p25f6d1f1a7)" style="fill:none;stroke:#4c4c4c;stroke-linecap:round;stroke-width:2.25;"/>
   </g>
   <g id="line2d_26">
    <path clip-path="url(#p25f6d1f1a7)" style="fill:none;stroke:#4c4c4c;stroke-linecap:round;stroke-width:2.25;"/>
   </g>
   <g id="line2d_27">
    <g clip-path="url(#p25f6d1f1a7)"/>
   </g>
   <g id="line2d_28">
    <path clip-path="url(#p25f6d1f1a7)" d="M 345.724603 140.096871 
L 345.724603 153.39055 
" style="fill:none;stroke:#4c4c4c;stroke-linecap:round;stroke-width:2.25;"/>
   </g>
   <g id="line2d_29">
    <path clip-path="url(#p25f6d1f1a7)" d="M 345.724603 125.915135 
L 345.724603 122.924736 
" style="fill:none;stroke:#4c4c4c;stroke-linecap:round;stroke-width:2.25;"/>
   </g>
   <g id="line2d_30">
    <path clip-path="url(#p25f6d1f1a7)" d="M 330.918632 153.39055 
L 360.530573 153.39055 
" style="fill:none;stroke:#4c4c4c;stroke-linecap:round;stroke-width:2.25;"/>
   </g>
   <g id="line2d_31">
    <path clip-path="url(#p25f6d1f1a7)" d="M 330.918632 122.924736 
L 360.530573 122.924736 
" style="fill:none;stroke:#4c4c4c;stroke-linecap:round;stroke-width:2.25;"/>
   </g>
   <g id="line2d_32"/>
   <g id="line2d_33">
    <path clip-path="url(#p25f6d1f1a7)" d="M 419.754453 158.718895 
L 419.754453 166.629857 
" style="fill:none;stroke:#4c4c4c;stroke-linecap:round;stroke-width:2.25;"/>
   </g>
   <g id="line2d_34">
    <path clip-path="url(#p25f6d1f1a7)" d="M 419.754453 145.688009 
L 419.754453 145.062744 
" style="fill:none;stroke:#4c4c4c;stroke-linecap:round;stroke-width:2.25;"/>
   </g>
   <g id="line2d_35">
    <path clip-path="url(#p25f6d1f1a7)" d="M 404.948483 166.629857 
L 434.560424 166.629857 
" style="fill:none;stroke:#4c4c4c;stroke-linecap:round;stroke-width:2.25;"/>
   </g>
   <g id="line2d_36">
    <path clip-path="url(#p25f6d1f1a7)" d="M 404.948483 145.062744 
L 434.560424 145.062744 
" style="fill:none;stroke:#4c4c4c;stroke-linecap:round;stroke-width:2.25;"/>
   </g>
   <g id="line2d_37">
    <g clip-path="url(#p25f6d1f1a7)">
     <use style="fill:#4c4c4c;stroke:#4c4c4c;stroke-linejoin:miter;" x="419.754453" xlink:href="#m21df1560ca" y="120.831458"/>
    </g>
   </g>
   <g id="line2d_38">
    <path clip-path="url(#p25f6d1f1a7)" d="M 493.784304 154.124556 
L 493.784304 164.518455 
" style="fill:none;stroke:#4c4c4c;stroke-linecap:round;stroke-width:2.25;"/>
   </g>
   <g id="line2d_39">
    <path clip-path="url(#p25f6d1f1a7)" d="M 493.784304 144.219995 
L 493.784304 133.264264 
" style="fill:none;stroke:#4c4c4c;stroke-linecap:round;stroke-width:2.25;"/>
   </g>
   <g id="line2d_40">
    <path clip-path="url(#p25f6d1f1a7)" d="M 478.978334 164.518455 
L 508.590274 164.518455 
" style="fill:none;stroke:#4c4c4c;stroke-linecap:round;stroke-width:2.25;"/>
   </g>
   <g id="line2d_41">
    <path clip-path="url(#p25f6d1f1a7)" d="M 478.978334 133.264264 
L 508.590274 133.264264 
" style="fill:none;stroke:#4c4c4c;stroke-linecap:round;stroke-width:2.25;"/>
   </g>
   <g id="line2d_42">
    <g clip-path="url(#p25f6d1f1a7)">
     <use style="fill:#4c4c4c;stroke:#4c4c4c;stroke-linejoin:miter;" x="493.784304" xlink:href="#m21df1560ca" y="175.900091"/>
    </g>
   </g>
   <g id="line2d_43">
    <path clip-path="url(#p25f6d1f1a7)" style="fill:none;stroke:#4c4c4c;stroke-linecap:round;stroke-width:2.25;"/>
   </g>
   <g id="line2d_44">
    <path clip-path="url(#p25f6d1f1a7)" d="M 168.052961 151.097911 
L 227.276841 151.097911 
" style="fill:none;stroke:#4c4c4c;stroke-linecap:round;stroke-width:2.25;"/>
   </g>
   <g id="line2d_45">
    <path clip-path="url(#p25f6d1f1a7)" style="fill:none;stroke:#4c4c4c;stroke-linecap:round;stroke-width:2.25;"/>
   </g>
   <g id="line2d_46">
    <path clip-path="url(#p25f6d1f1a7)" d="M 316.112662 131.769065 
L 375.336543 131.769065 
" style="fill:none;stroke:#4c4c4c;stroke-linecap:round;stroke-width:2.25;"/>
   </g>
   <g id="line2d_47">
    <path clip-path="url(#p25f6d1f1a7)" d="M 390.142513 152.19439 
L 449.366394 152.19439 
" style="fill:none;stroke:#4c4c4c;stroke-linecap:round;stroke-width:2.25;"/>
   </g>
   <g id="line2d_48">
    <path clip-path="url(#p25f6d1f1a7)" d="M 464.172364 153.626157 
L 523.396244 153.626157 
" style="fill:none;stroke:#4c4c4c;stroke-linecap:round;stroke-width:2.25;"/>
   </g>
   <g id="patch_11">
    <path d="M 86.620125 284.64184 
L 86.620125 12.84184 
" style="fill:none;stroke:#ffffff;stroke-linecap:square;stroke-linejoin:miter;stroke-width:1.875;"/>
   </g>
   <g id="patch_12">
    <path d="M 530.799229 284.64184 
L 530.799229 12.84184 
" style="fill:none;stroke:#ffffff;stroke-linecap:square;stroke-linejoin:miter;stroke-width:1.875;"/>
   </g>
   <g id="patch_13">
    <path d="M 86.620125 284.64184 
L 530.799229 284.64184 
" style="fill:none;stroke:#ffffff;stroke-linecap:square;stroke-linejoin:miter;stroke-width:1.875;"/>
   </g>
   <g id="patch_14">
    <path d="M 86.620125 12.84184 
L 530.799229 12.84184 
" style="fill:none;stroke:#ffffff;stroke-linecap:square;stroke-linejoin:miter;stroke-width:1.875;"/>
   </g>
   <g id="legend_1">
    <g id="patch_15">
     <path d="M 97.015125 277.21684 
L 190.60957 277.21684 
Q 193.57957 277.21684 193.57957 274.24684 
L 193.57957 232.137809 
Q 193.57957 229.167809 190.60957 229.167809 
L 97.015125 229.167809 
Q 94.045125 229.167809 94.045125 232.137809 
L 94.045125 274.24684 
Q 94.045125 277.21684 97.015125 277.21684 
z
" style="fill:#eaeaf2;opacity:0.8;stroke:#cccccc;stroke-linejoin:miter;stroke-width:1.5;"/>
    </g>
    <g id="patch_16">
     <path d="M 99.985125 246.391488 
L 129.685125 246.391488 
L 129.685125 235.996488 
L 99.985125 235.996488 
z
" style="fill:#5875a4;stroke:#4c4c4c;stroke-linejoin:miter;stroke-width:1.125;"/>
    </g>
    <g id="text_14">
     <!-- MH -->
     <defs>
      <path d="M 9.8125 72.90625 
L 19.671875 72.90625 
L 19.671875 43.015625 
L 55.515625 43.015625 
L 55.515625 72.90625 
L 65.375 72.90625 
L 65.375 0 
L 55.515625 0 
L 55.515625 34.71875 
L 19.671875 34.71875 
L 19.671875 0 
L 9.8125 0 
z
" id="DejaVuSans-72"/>
     </defs>
     <g style="fill:#262626;" transform="translate(141.565125 246.391488)scale(0.1485 -0.1485)">
      <use xlink:href="#DejaVuSans-77"/>
      <use x="86.279297" xlink:href="#DejaVuSans-72"/>
     </g>
    </g>
    <g id="patch_17">
     <path d="M 99.985125 268.188504 
L 129.685125 268.188504 
L 129.685125 257.793504 
L 99.985125 257.793504 
z
" style="fill:#cc8963;stroke:#4c4c4c;stroke-linejoin:miter;stroke-width:1.125;"/>
    </g>
    <g id="text_15">
     <!-- HH-SP -->
     <defs>
      <path d="M 4.890625 31.390625 
L 31.203125 31.390625 
L 31.203125 23.390625 
L 4.890625 23.390625 
z
" id="DejaVuSans-45"/>
      <path d="M 19.671875 64.796875 
L 19.671875 37.40625 
L 32.078125 37.40625 
Q 38.96875 37.40625 42.71875 40.96875 
Q 46.484375 44.53125 46.484375 51.125 
Q 46.484375 57.671875 42.71875 61.234375 
Q 38.96875 64.796875 32.078125 64.796875 
z
M 9.8125 72.90625 
L 32.078125 72.90625 
Q 44.34375 72.90625 50.609375 67.359375 
Q 56.890625 61.8125 56.890625 51.125 
Q 56.890625 40.328125 50.609375 34.8125 
Q 44.34375 29.296875 32.078125 29.296875 
L 19.671875 29.296875 
L 19.671875 0 
L 9.8125 0 
z
" id="DejaVuSans-80"/>
     </defs>
     <g style="fill:#262626;" transform="translate(141.565125 268.188504)scale(0.1485 -0.1485)">
      <use xlink:href="#DejaVuSans-72"/>
      <use x="75.195312" xlink:href="#DejaVuSans-72"/>
      <use x="150.390625" xlink:href="#DejaVuSans-45"/>
      <use x="186.474609" xlink:href="#DejaVuSans-83"/>
      <use x="249.951172" xlink:href="#DejaVuSans-80"/>
     </g>
    </g>
   </g>
  </g>
  <g id="axes_2">
   <g id="patch_18">
    <path d="M 535.241021 284.64184 
L 979.420125 284.64184 
L 979.420125 12.84184 
L 535.241021 12.84184 
z
" style="fill:#eaeaf2;"/>
   </g>
   <g id="matplotlib.axis_3">
    <g id="xtick_7">
     <g id="line2d_49">
      <g>
       <use style="fill:#808080;stroke:#808080;stroke-width:2;" x="572.255946" xlink:href="#m3ebb877a64" y="284.64184"/>
      </g>
     </g>
     <g id="text_16">
      <!-- py.ES tuned -->
      <g style="fill:#262626;" transform="translate(489.706652 337.753076)rotate(-25)scale(0.1485 -0.1485)">
       <use xlink:href="#DejaVuSans-112"/>
       <use x="63.476562" xlink:href="#DejaVuSans-121"/>
       <use x="122.4375" xlink:href="#DejaVuSans-46"/>
       <use x="154.224609" xlink:href="#DejaVuSans-69"/>
       <use x="217.408203" xlink:href="#DejaVuSans-83"/>
       <use x="280.884766" xlink:href="#DejaVuSans-32"/>
       <use x="312.671875" xlink:href="#DejaVuSans-116"/>
       <use x="351.880859" xlink:href="#DejaVuSans-117"/>
       <use x="415.259766" xlink:href="#DejaVuSans-110"/>
       <use x="478.638672" xlink:href="#DejaVuSans-101"/>
       <use x="540.162109" xlink:href="#DejaVuSans-100"/>
      </g>
     </g>
    </g>
    <g id="xtick_8">
     <g id="line2d_50">
      <g>
       <use style="fill:#808080;stroke:#808080;stroke-width:2;" x="646.285797" xlink:href="#m3ebb877a64" y="284.64184"/>
      </g>
     </g>
     <g id="text_17">
      <!-- py.SA tuned -->
      <g style="fill:#262626;" transform="translate(563.032026 338.081579)rotate(-25)scale(0.1485 -0.1485)">
       <use xlink:href="#DejaVuSans-112"/>
       <use x="63.476562" xlink:href="#DejaVuSans-121"/>
       <use x="122.4375" xlink:href="#DejaVuSans-46"/>
       <use x="154.224609" xlink:href="#DejaVuSans-83"/>
       <use x="217.716797" xlink:href="#DejaVuSans-65"/>
       <use x="286.125" xlink:href="#DejaVuSans-32"/>
       <use x="317.912109" xlink:href="#DejaVuSans-116"/>
       <use x="357.121094" xlink:href="#DejaVuSans-117"/>
       <use x="420.5" xlink:href="#DejaVuSans-110"/>
       <use x="483.878906" xlink:href="#DejaVuSans-101"/>
       <use x="545.402344" xlink:href="#DejaVuSans-100"/>
      </g>
     </g>
    </g>
    <g id="xtick_9">
     <g id="line2d_51">
      <g>
       <use style="fill:#808080;stroke:#808080;stroke-width:2;" x="720.315647" xlink:href="#m3ebb877a64" y="284.64184"/>
      </g>
     </g>
     <g id="text_18">
      <!-- j.ES tuned -->
      <g style="fill:#262626;" transform="translate(650.50793 331.811581)rotate(-25)scale(0.1485 -0.1485)">
       <use xlink:href="#DejaVuSans-106"/>
       <use x="27.783203" xlink:href="#DejaVuSans-46"/>
       <use x="59.570312" xlink:href="#DejaVuSans-69"/>
       <use x="122.753906" xlink:href="#DejaVuSans-83"/>
       <use x="186.230469" xlink:href="#DejaVuSans-32"/>
       <use x="218.017578" xlink:href="#DejaVuSans-116"/>
       <use x="257.226562" xlink:href="#DejaVuSans-117"/>
       <use x="320.605469" xlink:href="#DejaVuSans-110"/>
       <use x="383.984375" xlink:href="#DejaVuSans-101"/>
       <use x="445.507812" xlink:href="#DejaVuSans-100"/>
      </g>
     </g>
    </g>
    <g id="xtick_10">
     <g id="line2d_52">
      <g>
       <use style="fill:#808080;stroke:#808080;stroke-width:2;" x="794.345498" xlink:href="#m3ebb877a64" y="284.64184"/>
      </g>
     </g>
     <g id="text_19">
      <!-- random tuned -->
      <g style="fill:#262626;" transform="translate(697.403839 344.464346)rotate(-25)scale(0.1485 -0.1485)">
       <use xlink:href="#DejaVuSans-114"/>
       <use x="41.113281" xlink:href="#DejaVuSans-97"/>
       <use x="102.392578" xlink:href="#DejaVuSans-110"/>
       <use x="165.771484" xlink:href="#DejaVuSans-100"/>
       <use x="229.248047" xlink:href="#DejaVuSans-111"/>
       <use x="290.429688" xlink:href="#DejaVuSans-109"/>
       <use x="387.841797" xlink:href="#DejaVuSans-32"/>
       <use x="419.628906" xlink:href="#DejaVuSans-116"/>
       <use x="458.837891" xlink:href="#DejaVuSans-117"/>
       <use x="522.216797" xlink:href="#DejaVuSans-110"/>
       <use x="585.595703" xlink:href="#DejaVuSans-101"/>
       <use x="647.119141" xlink:href="#DejaVuSans-100"/>
      </g>
     </g>
    </g>
    <g id="xtick_11">
     <g id="line2d_53">
      <g>
       <use style="fill:#808080;stroke:#808080;stroke-width:2;" x="868.375349" xlink:href="#m3ebb877a64" y="284.64184"/>
      </g>
     </g>
     <g id="text_20">
      <!-- FRAMAB tuned -->
      <g style="fill:#262626;" transform="translate(767.288839 346.397121)rotate(-25)scale(0.1485 -0.1485)">
       <use xlink:href="#DejaVuSans-70"/>
       <use x="57.519531" xlink:href="#DejaVuSans-82"/>
       <use x="126.939453" xlink:href="#DejaVuSans-65"/>
       <use x="195.347656" xlink:href="#DejaVuSans-77"/>
       <use x="281.626953" xlink:href="#DejaVuSans-65"/>
       <use x="350.035156" xlink:href="#DejaVuSans-66"/>
       <use x="418.638672" xlink:href="#DejaVuSans-32"/>
       <use x="450.425781" xlink:href="#DejaVuSans-116"/>
       <use x="489.634766" xlink:href="#DejaVuSans-117"/>
       <use x="553.013672" xlink:href="#DejaVuSans-110"/>
       <use x="616.392578" xlink:href="#DejaVuSans-101"/>
       <use x="677.916016" xlink:href="#DejaVuSans-100"/>
      </g>
     </g>
    </g>
    <g id="xtick_12">
     <g id="line2d_54">
      <g>
       <use style="fill:#808080;stroke:#808080;stroke-width:2;" x="942.4052" xlink:href="#m3ebb877a64" y="284.64184"/>
      </g>
     </g>
     <g id="text_21">
      <!-- BRR tuned -->
      <g style="fill:#262626;" transform="translate(869.724897 333.15109)rotate(-25)scale(0.1485 -0.1485)">
       <use xlink:href="#DejaVuSans-66"/>
       <use x="68.603516" xlink:href="#DejaVuSans-82"/>
       <use x="138.085938" xlink:href="#DejaVuSans-82"/>
       <use x="207.568359" xlink:href="#DejaVuSans-32"/>
       <use x="239.355469" xlink:href="#DejaVuSans-116"/>
       <use x="278.564453" xlink:href="#DejaVuSans-117"/>
       <use x="341.943359" xlink:href="#DejaVuSans-110"/>
       <use x="405.322266" xlink:href="#DejaVuSans-101"/>
       <use x="466.845703" xlink:href="#DejaVuSans-100"/>
      </g>
     </g>
    </g>
   </g>
   <g id="matplotlib.axis_4">
    <g id="ytick_7">
     <g id="line2d_55">
      <path clip-path="url(#pff108ceb51)" d="M 535.241021 239.387149 
L 979.420125 239.387149 
" style="fill:none;stroke:#ffffff;stroke-linecap:round;stroke-width:1.5;"/>
     </g>
    </g>
    <g id="ytick_8">
     <g id="line2d_56">
      <path clip-path="url(#pff108ceb51)" d="M 535.241021 194.078087 
L 979.420125 194.078087 
" style="fill:none;stroke:#ffffff;stroke-linecap:round;stroke-width:1.5;"/>
     </g>
    </g>
    <g id="ytick_9">
     <g id="line2d_57">
      <path clip-path="url(#pff108ceb51)" d="M 535.241021 148.769025 
L 979.420125 148.769025 
" style="fill:none;stroke:#ffffff;stroke-linecap:round;stroke-width:1.5;"/>
     </g>
    </g>
    <g id="ytick_10">
     <g id="line2d_58">
      <path clip-path="url(#pff108ceb51)" d="M 535.241021 103.459963 
L 979.420125 103.459963 
" style="fill:none;stroke:#ffffff;stroke-linecap:round;stroke-width:1.5;"/>
     </g>
    </g>
    <g id="ytick_11">
     <g id="line2d_59">
      <path clip-path="url(#pff108ceb51)" d="M 535.241021 58.150902 
L 979.420125 58.150902 
" style="fill:none;stroke:#ffffff;stroke-linecap:round;stroke-width:1.5;"/>
     </g>
    </g>
    <g id="ytick_12">
     <g id="line2d_60">
      <path clip-path="url(#pff108ceb51)" d="M 535.241021 12.84184 
L 979.420125 12.84184 
" style="fill:none;stroke:#ffffff;stroke-linecap:round;stroke-width:1.5;"/>
     </g>
    </g>
   </g>
   <g id="patch_19">
    <path clip-path="url(#pff108ceb51)" d="M 542.644006 183.237894 
L 601.867886 183.237894 
L 601.867886 16.61835 
L 542.644006 16.61835 
L 542.644006 183.237894 
z
" style="fill:#5875a4;stroke:#4c4c4c;stroke-linejoin:miter;stroke-width:2.25;"/>
   </g>
   <g id="patch_20">
    <path clip-path="url(#pff108ceb51)" d="M 616.673856 198.486659 
L 675.897737 198.486659 
L 675.897737 187.483353 
L 616.673856 187.483353 
L 616.673856 198.486659 
z
" style="fill:#5875a4;stroke:#4c4c4c;stroke-linejoin:miter;stroke-width:2.25;"/>
   </g>
   <g id="patch_21">
    <path clip-path="url(#pff108ceb51)" d="M 690.703707 254.765044 
L 749.927588 254.765044 
L 749.927588 246.260534 
L 690.703707 246.260534 
L 690.703707 254.765044 
z
" style="fill:#5875a4;stroke:#4c4c4c;stroke-linejoin:miter;stroke-width:2.25;"/>
   </g>
   <g id="patch_22">
    <path clip-path="url(#pff108ceb51)" d="M 764.733558 251.19469 
L 823.957438 251.19469 
L 823.957438 243.446841 
L 764.733558 243.446841 
L 764.733558 251.19469 
z
" style="fill:#cc8963;stroke:#4c4c4c;stroke-linejoin:miter;stroke-width:2.25;"/>
   </g>
   <g id="patch_23">
    <path clip-path="url(#pff108ceb51)" d="M 838.763409 252.717075 
L 897.987289 252.717075 
L 897.987289 240.148341 
L 838.763409 240.148341 
L 838.763409 252.717075 
z
" style="fill:#cc8963;stroke:#4c4c4c;stroke-linejoin:miter;stroke-width:2.25;"/>
   </g>
   <g id="patch_24">
    <path clip-path="url(#pff108ceb51)" d="M 912.793259 249.989469 
L 972.01714 249.989469 
L 972.01714 242.486289 
L 912.793259 242.486289 
L 912.793259 249.989469 
z
" style="fill:#cc8963;stroke:#4c4c4c;stroke-linejoin:miter;stroke-width:2.25;"/>
   </g>
   <g id="patch_25">
    <path clip-path="url(#pff108ceb51)" d="M 572.255946 465.932458 
L 572.255946 465.932458 
L 572.255946 465.932458 
L 572.255946 465.932458 
z
" style="fill:#5875a4;stroke:#4c4c4c;stroke-linejoin:miter;stroke-width:1.125;"/>
   </g>
   <g id="patch_26">
    <path clip-path="url(#pff108ceb51)" d="M 572.255946 465.932458 
L 572.255946 465.932458 
L 572.255946 465.932458 
L 572.255946 465.932458 
z
" style="fill:#cc8963;stroke:#4c4c4c;stroke-linejoin:miter;stroke-width:1.125;"/>
   </g>
   <g id="line2d_61">
    <path clip-path="url(#pff108ceb51)" d="M 572.255946 183.237894 
L 572.255946 190.906453 
" style="fill:none;stroke:#4c4c4c;stroke-linecap:round;stroke-width:2.25;"/>
   </g>
   <g id="line2d_62">
    <path clip-path="url(#pff108ceb51)" d="M 572.255946 16.61835 
L 572.255946 -1 
" style="fill:none;stroke:#4c4c4c;stroke-linecap:round;stroke-width:2.25;"/>
   </g>
   <g id="line2d_63">
    <path clip-path="url(#pff108ceb51)" d="M 557.449976 190.906453 
L 587.061916 190.906453 
" style="fill:none;stroke:#4c4c4c;stroke-linecap:round;stroke-width:2.25;"/>
   </g>
   <g id="line2d_64">
    <path clip-path="url(#pff108ceb51)" style="fill:none;stroke:#4c4c4c;stroke-linecap:round;stroke-width:2.25;"/>
   </g>
   <g id="line2d_65"/>
   <g id="line2d_66">
    <path clip-path="url(#pff108ceb51)" d="M 646.285797 198.486659 
L 646.285797 201.898431 
" style="fill:none;stroke:#4c4c4c;stroke-linecap:round;stroke-width:2.25;"/>
   </g>
   <g id="line2d_67">
    <path clip-path="url(#pff108ceb51)" d="M 646.285797 187.483353 
L 646.285797 185.849961 
" style="fill:none;stroke:#4c4c4c;stroke-linecap:round;stroke-width:2.25;"/>
   </g>
   <g id="line2d_68">
    <path clip-path="url(#pff108ceb51)" d="M 631.479826 201.898431 
L 661.091767 201.898431 
" style="fill:none;stroke:#4c4c4c;stroke-linecap:round;stroke-width:2.25;"/>
   </g>
   <g id="line2d_69">
    <path clip-path="url(#pff108ceb51)" d="M 631.479826 185.849961 
L 661.091767 185.849961 
" style="fill:none;stroke:#4c4c4c;stroke-linecap:round;stroke-width:2.25;"/>
   </g>
   <g id="line2d_70">
    <g clip-path="url(#pff108ceb51)">
     <use style="fill:#4c4c4c;stroke:#4c4c4c;stroke-linejoin:miter;" x="646.285797" xlink:href="#m21df1560ca" y="219.315235"/>
     <use style="fill:#4c4c4c;stroke:#4c4c4c;stroke-linejoin:miter;" x="646.285797" xlink:href="#m21df1560ca" y="170.49019"/>
    </g>
   </g>
   <g id="line2d_71">
    <path clip-path="url(#pff108ceb51)" d="M 720.315647 254.765044 
L 720.315647 257.374846 
" style="fill:none;stroke:#4c4c4c;stroke-linecap:round;stroke-width:2.25;"/>
   </g>
   <g id="line2d_72">
    <path clip-path="url(#pff108ceb51)" d="M 720.315647 246.260534 
L 720.315647 236.351442 
" style="fill:none;stroke:#4c4c4c;stroke-linecap:round;stroke-width:2.25;"/>
   </g>
   <g id="line2d_73">
    <path clip-path="url(#pff108ceb51)" d="M 705.509677 257.374846 
L 735.121618 257.374846 
" style="fill:none;stroke:#4c4c4c;stroke-linecap:round;stroke-width:2.25;"/>
   </g>
   <g id="line2d_74">
    <path clip-path="url(#pff108ceb51)" d="M 705.509677 236.351442 
L 735.121618 236.351442 
" style="fill:none;stroke:#4c4c4c;stroke-linecap:round;stroke-width:2.25;"/>
   </g>
   <g id="line2d_75"/>
   <g id="line2d_76">
    <path clip-path="url(#pff108ceb51)" d="M 794.345498 251.19469 
L 794.345498 254.420696 
" style="fill:none;stroke:#4c4c4c;stroke-linecap:round;stroke-width:2.25;"/>
   </g>
   <g id="line2d_77">
    <path clip-path="url(#pff108ceb51)" d="M 794.345498 243.446841 
L 794.345498 232.772026 
" style="fill:none;stroke:#4c4c4c;stroke-linecap:round;stroke-width:2.25;"/>
   </g>
   <g id="line2d_78">
    <path clip-path="url(#pff108ceb51)" d="M 779.539528 254.420696 
L 809.151468 254.420696 
" style="fill:none;stroke:#4c4c4c;stroke-linecap:round;stroke-width:2.25;"/>
   </g>
   <g id="line2d_79">
    <path clip-path="url(#pff108ceb51)" d="M 779.539528 232.772026 
L 809.151468 232.772026 
" style="fill:none;stroke:#4c4c4c;stroke-linecap:round;stroke-width:2.25;"/>
   </g>
   <g id="line2d_80"/>
   <g id="line2d_81">
    <path clip-path="url(#pff108ceb51)" d="M 868.375349 252.717075 
L 868.375349 259.178147 
" style="fill:none;stroke:#4c4c4c;stroke-linecap:round;stroke-width:2.25;"/>
   </g>
   <g id="line2d_82">
    <path clip-path="url(#pff108ceb51)" d="M 868.375349 240.148341 
L 868.375349 233.424476 
" style="fill:none;stroke:#4c4c4c;stroke-linecap:round;stroke-width:2.25;"/>
   </g>
   <g id="line2d_83">
    <path clip-path="url(#pff108ceb51)" d="M 853.569379 259.178147 
L 883.181319 259.178147 
" style="fill:none;stroke:#4c4c4c;stroke-linecap:round;stroke-width:2.25;"/>
   </g>
   <g id="line2d_84">
    <path clip-path="url(#pff108ceb51)" d="M 853.569379 233.424476 
L 883.181319 233.424476 
" style="fill:none;stroke:#4c4c4c;stroke-linecap:round;stroke-width:2.25;"/>
   </g>
   <g id="line2d_85"/>
   <g id="line2d_86">
    <path clip-path="url(#pff108ceb51)" d="M 942.4052 249.989469 
L 942.4052 258.172286 
" style="fill:none;stroke:#4c4c4c;stroke-linecap:round;stroke-width:2.25;"/>
   </g>
   <g id="line2d_87">
    <path clip-path="url(#pff108ceb51)" d="M 942.4052 242.486289 
L 942.4052 236.034278 
" style="fill:none;stroke:#4c4c4c;stroke-linecap:round;stroke-width:2.25;"/>
   </g>
   <g id="line2d_88">
    <path clip-path="url(#pff108ceb51)" d="M 927.599229 258.172286 
L 957.21117 258.172286 
" style="fill:none;stroke:#4c4c4c;stroke-linecap:round;stroke-width:2.25;"/>
   </g>
   <g id="line2d_89">
    <path clip-path="url(#pff108ceb51)" d="M 927.599229 236.034278 
L 957.21117 236.034278 
" style="fill:none;stroke:#4c4c4c;stroke-linecap:round;stroke-width:2.25;"/>
   </g>
   <g id="line2d_90"/>
   <g id="line2d_91">
    <path clip-path="url(#pff108ceb51)" d="M 542.644006 180.349441 
L 601.867886 180.349441 
" style="fill:none;stroke:#4c4c4c;stroke-linecap:round;stroke-width:2.25;"/>
   </g>
   <g id="line2d_92">
    <path clip-path="url(#pff108ceb51)" d="M 616.673856 192.397121 
L 675.897737 192.397121 
" style="fill:none;stroke:#4c4c4c;stroke-linecap:round;stroke-width:2.25;"/>
   </g>
   <g id="line2d_93">
    <path clip-path="url(#pff108ceb51)" d="M 690.703707 247.588089 
L 749.927588 247.588089 
" style="fill:none;stroke:#4c4c4c;stroke-linecap:round;stroke-width:2.25;"/>
   </g>
   <g id="line2d_94">
    <path clip-path="url(#pff108ceb51)" d="M 764.733558 247.533718 
L 823.957438 247.533718 
" style="fill:none;stroke:#4c4c4c;stroke-linecap:round;stroke-width:2.25;"/>
   </g>
   <g id="line2d_95">
    <path clip-path="url(#pff108ceb51)" d="M 838.763409 240.374886 
L 897.987289 240.374886 
" style="fill:none;stroke:#4c4c4c;stroke-linecap:round;stroke-width:2.25;"/>
   </g>
   <g id="line2d_96">
    <path clip-path="url(#pff108ceb51)" d="M 912.793259 246.373806 
L 972.01714 246.373806 
" style="fill:none;stroke:#4c4c4c;stroke-linecap:round;stroke-width:2.25;"/>
   </g>
   <g id="patch_27">
    <path d="M 535.241021 284.64184 
L 535.241021 12.84184 
" style="fill:none;stroke:#ffffff;stroke-linecap:square;stroke-linejoin:miter;stroke-width:1.875;"/>
   </g>
   <g id="patch_28">
    <path d="M 979.420125 284.64184 
L 979.420125 12.84184 
" style="fill:none;stroke:#ffffff;stroke-linecap:square;stroke-linejoin:miter;stroke-width:1.875;"/>
   </g>
   <g id="patch_29">
    <path d="M 535.241021 284.64184 
L 979.420125 284.64184 
" style="fill:none;stroke:#ffffff;stroke-linecap:square;stroke-linejoin:miter;stroke-width:1.875;"/>
   </g>
   <g id="patch_30">
    <path d="M 535.241021 12.84184 
L 979.420125 12.84184 
" style="fill:none;stroke:#ffffff;stroke-linecap:square;stroke-linejoin:miter;stroke-width:1.875;"/>
   </g>
   <g id="legend_2">
    <g id="patch_31">
     <path d="M 545.636021 277.21684 
L 639.230466 277.21684 
Q 642.200466 277.21684 642.200466 274.24684 
L 642.200466 232.137809 
Q 642.200466 229.167809 639.230466 229.167809 
L 545.636021 229.167809 
Q 542.666021 229.167809 542.666021 232.137809 
L 542.666021 274.24684 
Q 542.666021 277.21684 545.636021 277.21684 
z
" style="fill:#eaeaf2;opacity:0.8;stroke:#cccccc;stroke-linejoin:miter;stroke-width:1.5;"/>
    </g>
    <g id="patch_32">
     <path d="M 548.606021 246.391488 
L 578.306021 246.391488 
L 578.306021 235.996488 
L 548.606021 235.996488 
z
" style="fill:#5875a4;stroke:#4c4c4c;stroke-linejoin:miter;stroke-width:1.125;"/>
    </g>
    <g id="text_22">
     <!-- MH -->
     <g style="fill:#262626;" transform="translate(590.186021 246.391488)scale(0.1485 -0.1485)">
      <use xlink:href="#DejaVuSans-77"/>
      <use x="86.279297" xlink:href="#DejaVuSans-72"/>
     </g>
    </g>
    <g id="patch_33">
     <path d="M 548.606021 268.188504 
L 578.306021 268.188504 
L 578.306021 257.793504 
L 548.606021 257.793504 
z
" style="fill:#cc8963;stroke:#4c4c4c;stroke-linejoin:miter;stroke-width:1.125;"/>
    </g>
    <g id="text_23">
     <!-- HH-SP -->
     <g style="fill:#262626;" transform="translate(590.186021 268.188504)scale(0.1485 -0.1485)">
      <use xlink:href="#DejaVuSans-72"/>
      <use x="75.195312" xlink:href="#DejaVuSans-72"/>
      <use x="150.390625" xlink:href="#DejaVuSans-45"/>
      <use x="186.474609" xlink:href="#DejaVuSans-83"/>
      <use x="249.951172" xlink:href="#DejaVuSans-80"/>
     </g>
    </g>
   </g>
  </g>
 </g>
 <defs>
  <clipPath id="p25f6d1f1a7">
   <rect height="271.8" width="444.179104" x="86.620125" y="12.84184"/>
  </clipPath>
  <clipPath id="pff108ceb51">
   <rect height="271.8" width="444.179104" x="535.241021" y="12.84184"/>
  </clipPath>
 </defs>
</svg>
