<?xml version="1.0" encoding="utf-8" standalone="no"?>
<!DOCTYPE svg PUBLIC "-//W3C//DTD SVG 1.1//EN"
  "http://www.w3.org/Graphics/SVG/1.1/DTD/svg11.dtd">
<!-- Created with matplotlib (https://matplotlib.org/) -->
<svg height="347.034258pt" version="1.1" viewBox="0 0 972.443016 347.034258" width="972.443016pt" xmlns="http://www.w3.org/2000/svg" xmlns:xlink="http://www.w3.org/1999/xlink">
 <defs>
  <style type="text/css">
*{stroke-linecap:butt;stroke-linejoin:round;}
  </style>
 </defs>
 <g id="figure_1">
  <g id="patch_1">
   <path d="M 0 347.034258 
L 972.443016 347.034258 
L 972.443016 0 
L 0 0 
z
" style="fill:#ffffff;"/>
  </g>
  <g id="axes_1">
   <g id="patch_2">
    <path d="M 72.443016 293.28368 
L 516.62212 293.28368 
L 516.62212 21.48368 
L 72.443016 21.48368 
z
" style="fill:#eaeaf2;"/>
   </g>
   <g id="matplotlib.axis_1">
    <g id="xtick_1">
     <g id="line2d_1">
      <path clip-path="url(#p4e2c38ad54)" d="M 92.632975 293.28368 
L 92.632975 21.48368 
" style="fill:none;stroke:#ffffff;stroke-linecap:round;stroke-width:1.5;"/>
     </g>
     <g id="text_1">
      <!-- 0 -->
      <defs>
       <path d="M 31.78125 66.40625 
Q 24.171875 66.40625 20.328125 58.90625 
Q 16.5 51.421875 16.5 36.375 
Q 16.5 21.390625 20.328125 13.890625 
Q 24.171875 6.390625 31.78125 6.390625 
Q 39.453125 6.390625 43.28125 13.890625 
Q 47.125 21.390625 47.125 36.375 
Q 47.125 51.421875 43.28125 58.90625 
Q 39.453125 66.40625 31.78125 66.40625 
z
M 31.78125 74.21875 
Q 44.046875 74.21875 50.515625 64.515625 
Q 56.984375 54.828125 56.984375 36.375 
Q 56.984375 17.96875 50.515625 8.265625 
Q 44.046875 -1.421875 31.78125 -1.421875 
Q 19.53125 -1.421875 13.0625 8.265625 
Q 6.59375 17.96875 6.59375 36.375 
Q 6.59375 54.828125 13.0625 64.515625 
Q 19.53125 74.21875 31.78125 74.21875 
z
" id="DejaVuSans-48"/>
      </defs>
      <g style="fill:#262626;" transform="translate(87.908819 317.067359)scale(0.1485 -0.1485)">
       <use xlink:href="#DejaVuSans-48"/>
      </g>
     </g>
    </g>
    <g id="xtick_2">
     <g id="line2d_2">
      <path clip-path="url(#p4e2c38ad54)" d="M 164.228575 293.28368 
L 164.228575 21.48368 
" style="fill:none;stroke:#ffffff;stroke-linecap:round;stroke-width:1.5;"/>
     </g>
     <g id="text_2">
      <!-- 50 -->
      <defs>
       <path d="M 10.796875 72.90625 
L 49.515625 72.90625 
L 49.515625 64.59375 
L 19.828125 64.59375 
L 19.828125 46.734375 
Q 21.96875 47.46875 24.109375 47.828125 
Q 26.265625 48.1875 28.421875 48.1875 
Q 40.625 48.1875 47.75 41.5 
Q 54.890625 34.8125 54.890625 23.390625 
Q 54.890625 11.625 47.5625 5.09375 
Q 40.234375 -1.421875 26.90625 -1.421875 
Q 22.3125 -1.421875 17.546875 -0.640625 
Q 12.796875 0.140625 7.71875 1.703125 
L 7.71875 11.625 
Q 12.109375 9.234375 16.796875 8.0625 
Q 21.484375 6.890625 26.703125 6.890625 
Q 35.15625 6.890625 40.078125 11.328125 
Q 45.015625 15.765625 45.015625 23.390625 
Q 45.015625 31 40.078125 35.4375 
Q 35.15625 39.890625 26.703125 39.890625 
Q 22.75 39.890625 18.8125 39.015625 
Q 14.890625 38.140625 10.796875 36.28125 
z
" id="DejaVuSans-53"/>
      </defs>
      <g style="fill:#262626;" transform="translate(154.780263 317.067359)scale(0.1485 -0.1485)">
       <use xlink:href="#DejaVuSans-53"/>
       <use x="63.623047" xlink:href="#DejaVuSans-48"/>
      </g>
     </g>
    </g>
    <g id="xtick_3">
     <g id="line2d_3">
      <path clip-path="url(#p4e2c38ad54)" d="M 235.824176 293.28368 
L 235.824176 21.48368 
" style="fill:none;stroke:#ffffff;stroke-linecap:round;stroke-width:1.5;"/>
     </g>
     <g id="text_3">
      <!-- 100 -->
      <defs>
       <path d="M 12.40625 8.296875 
L 28.515625 8.296875 
L 28.515625 63.921875 
L 10.984375 60.40625 
L 10.984375 69.390625 
L 28.421875 72.90625 
L 38.28125 72.90625 
L 38.28125 8.296875 
L 54.390625 8.296875 
L 54.390625 0 
L 12.40625 0 
z
" id="DejaVuSans-49"/>
      </defs>
      <g style="fill:#262626;" transform="translate(221.651707 317.067359)scale(0.1485 -0.1485)">
       <use xlink:href="#DejaVuSans-49"/>
       <use x="63.623047" xlink:href="#DejaVuSans-48"/>
       <use x="127.246094" xlink:href="#DejaVuSans-48"/>
      </g>
     </g>
    </g>
    <g id="xtick_4">
     <g id="line2d_4">
      <path clip-path="url(#p4e2c38ad54)" d="M 307.419776 293.28368 
L 307.419776 21.48368 
" style="fill:none;stroke:#ffffff;stroke-linecap:round;stroke-width:1.5;"/>
     </g>
     <g id="text_4">
      <!-- 150 -->
      <g style="fill:#262626;" transform="translate(293.247307 317.067359)scale(0.1485 -0.1485)">
       <use xlink:href="#DejaVuSans-49"/>
       <use x="63.623047" xlink:href="#DejaVuSans-53"/>
       <use x="127.246094" xlink:href="#DejaVuSans-48"/>
      </g>
     </g>
    </g>
    <g id="xtick_5">
     <g id="line2d_5">
      <path clip-path="url(#p4e2c38ad54)" d="M 379.015376 293.28368 
L 379.015376 21.48368 
" style="fill:none;stroke:#ffffff;stroke-linecap:round;stroke-width:1.5;"/>
     </g>
     <g id="text_5">
      <!-- 200 -->
      <defs>
       <path d="M 19.1875 8.296875 
L 53.609375 8.296875 
L 53.609375 0 
L 7.328125 0 
L 7.328125 8.296875 
Q 12.9375 14.109375 22.625 23.890625 
Q 32.328125 33.6875 34.8125 36.53125 
Q 39.546875 41.84375 41.421875 45.53125 
Q 43.3125 49.21875 43.3125 52.78125 
Q 43.3125 58.59375 39.234375 62.25 
Q 35.15625 65.921875 28.609375 65.921875 
Q 23.96875 65.921875 18.8125 64.3125 
Q 13.671875 62.703125 7.8125 59.421875 
L 7.8125 69.390625 
Q 13.765625 71.78125 18.9375 73 
Q 24.125 74.21875 28.421875 74.21875 
Q 39.75 74.21875 46.484375 68.546875 
Q 53.21875 62.890625 53.21875 53.421875 
Q 53.21875 48.921875 51.53125 44.890625 
Q 49.859375 40.875 45.40625 35.40625 
Q 44.1875 33.984375 37.640625 27.21875 
Q 31.109375 20.453125 19.1875 8.296875 
z
" id="DejaVuSans-50"/>
      </defs>
      <g style="fill:#262626;" transform="translate(364.842908 317.067359)scale(0.1485 -0.1485)">
       <use xlink:href="#DejaVuSans-50"/>
       <use x="63.623047" xlink:href="#DejaVuSans-48"/>
       <use x="127.246094" xlink:href="#DejaVuSans-48"/>
      </g>
     </g>
    </g>
    <g id="xtick_6">
     <g id="line2d_6">
      <path clip-path="url(#p4e2c38ad54)" d="M 450.610977 293.28368 
L 450.610977 21.48368 
" style="fill:none;stroke:#ffffff;stroke-linecap:round;stroke-width:1.5;"/>
     </g>
     <g id="text_6">
      <!-- 250 -->
      <g style="fill:#262626;" transform="translate(436.438508 317.067359)scale(0.1485 -0.1485)">
       <use xlink:href="#DejaVuSans-50"/>
       <use x="63.623047" xlink:href="#DejaVuSans-53"/>
       <use x="127.246094" xlink:href="#DejaVuSans-48"/>
      </g>
     </g>
    </g>
    <g id="text_7">
     <!-- iteration -->
     <defs>
      <path d="M 9.421875 54.6875 
L 18.40625 54.6875 
L 18.40625 0 
L 9.421875 0 
z
M 9.421875 75.984375 
L 18.40625 75.984375 
L 18.40625 64.59375 
L 9.421875 64.59375 
z
" id="DejaVuSans-105"/>
      <path d="M 18.3125 70.21875 
L 18.3125 54.6875 
L 36.8125 54.6875 
L 36.8125 47.703125 
L 18.3125 47.703125 
L 18.3125 18.015625 
Q 18.3125 11.328125 20.140625 9.421875 
Q 21.96875 7.515625 27.59375 7.515625 
L 36.8125 7.515625 
L 36.8125 0 
L 27.59375 0 
Q 17.1875 0 13.234375 3.875 
Q 9.28125 7.765625 9.28125 18.015625 
L 9.28125 47.703125 
L 2.6875 47.703125 
L 2.6875 54.6875 
L 9.28125 54.6875 
L 9.28125 70.21875 
z
" id="DejaVuSans-116"/>
      <path d="M 56.203125 29.59375 
L 56.203125 25.203125 
L 14.890625 25.203125 
Q 15.484375 15.921875 20.484375 11.0625 
Q 25.484375 6.203125 34.421875 6.203125 
Q 39.59375 6.203125 44.453125 7.46875 
Q 49.3125 8.734375 54.109375 11.28125 
L 54.109375 2.78125 
Q 49.265625 0.734375 44.1875 -0.34375 
Q 39.109375 -1.421875 33.890625 -1.421875 
Q 20.796875 -1.421875 13.15625 6.1875 
Q 5.515625 13.8125 5.515625 26.8125 
Q 5.515625 40.234375 12.765625 48.109375 
Q 20.015625 56 32.328125 56 
Q 43.359375 56 49.78125 48.890625 
Q 56.203125 41.796875 56.203125 29.59375 
z
M 47.21875 32.234375 
Q 47.125 39.59375 43.09375 43.984375 
Q 39.0625 48.390625 32.421875 48.390625 
Q 24.90625 48.390625 20.390625 44.140625 
Q 15.875 39.890625 15.1875 32.171875 
z
" id="DejaVuSans-101"/>
      <path d="M 41.109375 46.296875 
Q 39.59375 47.171875 37.8125 47.578125 
Q 36.03125 48 33.890625 48 
Q 26.265625 48 22.1875 43.046875 
Q 18.109375 38.09375 18.109375 28.8125 
L 18.109375 0 
L 9.078125 0 
L 9.078125 54.6875 
L 18.109375 54.6875 
L 18.109375 46.1875 
Q 20.953125 51.171875 25.484375 53.578125 
Q 30.03125 56 36.53125 56 
Q 37.453125 56 38.578125 55.875 
Q 39.703125 55.765625 41.0625 55.515625 
z
" id="DejaVuSans-114"/>
      <path d="M 34.28125 27.484375 
Q 23.390625 27.484375 19.1875 25 
Q 14.984375 22.515625 14.984375 16.5 
Q 14.984375 11.71875 18.140625 8.90625 
Q 21.296875 6.109375 26.703125 6.109375 
Q 34.1875 6.109375 38.703125 11.40625 
Q 43.21875 16.703125 43.21875 25.484375 
L 43.21875 27.484375 
z
M 52.203125 31.203125 
L 52.203125 0 
L 43.21875 0 
L 43.21875 8.296875 
Q 40.140625 3.328125 35.546875 0.953125 
Q 30.953125 -1.421875 24.3125 -1.421875 
Q 15.921875 -1.421875 10.953125 3.296875 
Q 6 8.015625 6 15.921875 
Q 6 25.140625 12.171875 29.828125 
Q 18.359375 34.515625 30.609375 34.515625 
L 43.21875 34.515625 
L 43.21875 35.40625 
Q 43.21875 41.609375 39.140625 45 
Q 35.0625 48.390625 27.6875 48.390625 
Q 23 48.390625 18.546875 47.265625 
Q 14.109375 46.140625 10.015625 43.890625 
L 10.015625 52.203125 
Q 14.9375 54.109375 19.578125 55.046875 
Q 24.21875 56 28.609375 56 
Q 40.484375 56 46.34375 49.84375 
Q 52.203125 43.703125 52.203125 31.203125 
z
" id="DejaVuSans-97"/>
      <path d="M 30.609375 48.390625 
Q 23.390625 48.390625 19.1875 42.75 
Q 14.984375 37.109375 14.984375 27.296875 
Q 14.984375 17.484375 19.15625 11.84375 
Q 23.34375 6.203125 30.609375 6.203125 
Q 37.796875 6.203125 41.984375 11.859375 
Q 46.1875 17.53125 46.1875 27.296875 
Q 46.1875 37.015625 41.984375 42.703125 
Q 37.796875 48.390625 30.609375 48.390625 
z
M 30.609375 56 
Q 42.328125 56 49.015625 48.375 
Q 55.71875 40.765625 55.71875 27.296875 
Q 55.71875 13.875 49.015625 6.21875 
Q 42.328125 -1.421875 30.609375 -1.421875 
Q 18.84375 -1.421875 12.171875 6.21875 
Q 5.515625 13.875 5.515625 27.296875 
Q 5.515625 40.765625 12.171875 48.375 
Q 18.84375 56 30.609375 56 
z
" id="DejaVuSans-111"/>
      <path d="M 54.890625 33.015625 
L 54.890625 0 
L 45.90625 0 
L 45.90625 32.71875 
Q 45.90625 40.484375 42.875 44.328125 
Q 39.84375 48.1875 33.796875 48.1875 
Q 26.515625 48.1875 22.3125 43.546875 
Q 18.109375 38.921875 18.109375 30.90625 
L 18.109375 0 
L 9.078125 0 
L 9.078125 54.6875 
L 18.109375 54.6875 
L 18.109375 46.1875 
Q 21.34375 51.125 25.703125 53.5625 
Q 30.078125 56 35.796875 56 
Q 45.21875 56 50.046875 50.171875 
Q 54.890625 44.34375 54.890625 33.015625 
z
" id="DejaVuSans-110"/>
     </defs>
     <g style="fill:#262626;" transform="translate(260.313865 336.465164)scale(0.162 -0.162)">
      <use xlink:href="#DejaVuSans-105"/>
      <use x="27.783203" xlink:href="#DejaVuSans-116"/>
      <use x="66.992188" xlink:href="#DejaVuSans-101"/>
      <use x="128.515625" xlink:href="#DejaVuSans-114"/>
      <use x="169.628906" xlink:href="#DejaVuSans-97"/>
      <use x="230.908203" xlink:href="#DejaVuSans-116"/>
      <use x="270.117188" xlink:href="#DejaVuSans-105"/>
      <use x="297.900391" xlink:href="#DejaVuSans-111"/>
      <use x="359.082031" xlink:href="#DejaVuSans-110"/>
     </g>
    </g>
   </g>
   <g id="matplotlib.axis_2">
    <g id="ytick_1">
     <g id="line2d_7">
      <path clip-path="url(#p4e2c38ad54)" d="M 72.443016 290.219333 
L 516.62212 290.219333 
" style="fill:none;stroke:#ffffff;stroke-linecap:round;stroke-width:1.5;"/>
     </g>
     <g id="text_8">
      <!-- 0.75 -->
      <defs>
       <path d="M 10.6875 12.40625 
L 21 12.40625 
L 21 0 
L 10.6875 0 
z
" id="DejaVuSans-46"/>
       <path d="M 8.203125 72.90625 
L 55.078125 72.90625 
L 55.078125 68.703125 
L 28.609375 0 
L 18.3125 0 
L 43.21875 64.59375 
L 8.203125 64.59375 
z
" id="DejaVuSans-55"/>
      </defs>
      <g style="fill:#262626;" transform="translate(26.878563 295.861173)scale(0.1485 -0.1485)">
       <use xlink:href="#DejaVuSans-48"/>
       <use x="63.623047" xlink:href="#DejaVuSans-46"/>
       <use x="95.410156" xlink:href="#DejaVuSans-55"/>
       <use x="159.033203" xlink:href="#DejaVuSans-53"/>
      </g>
     </g>
    </g>
    <g id="ytick_2">
     <g id="line2d_8">
      <path clip-path="url(#p4e2c38ad54)" d="M 72.443016 259.76856 
L 516.62212 259.76856 
" style="fill:none;stroke:#ffffff;stroke-linecap:round;stroke-width:1.5;"/>
     </g>
     <g id="text_9">
      <!-- 1.00 -->
      <g style="fill:#262626;" transform="translate(26.878563 265.4104)scale(0.1485 -0.1485)">
       <use xlink:href="#DejaVuSans-49"/>
       <use x="63.623047" xlink:href="#DejaVuSans-46"/>
       <use x="95.410156" xlink:href="#DejaVuSans-48"/>
       <use x="159.033203" xlink:href="#DejaVuSans-48"/>
      </g>
     </g>
    </g>
    <g id="ytick_3">
     <g id="line2d_9">
      <path clip-path="url(#p4e2c38ad54)" d="M 72.443016 229.317787 
L 516.62212 229.317787 
" style="fill:none;stroke:#ffffff;stroke-linecap:round;stroke-width:1.5;"/>
     </g>
     <g id="text_10">
      <!-- 1.25 -->
      <g style="fill:#262626;" transform="translate(26.878563 234.959627)scale(0.1485 -0.1485)">
       <use xlink:href="#DejaVuSans-49"/>
       <use x="63.623047" xlink:href="#DejaVuSans-46"/>
       <use x="95.410156" xlink:href="#DejaVuSans-50"/>
       <use x="159.033203" xlink:href="#DejaVuSans-53"/>
      </g>
     </g>
    </g>
    <g id="ytick_4">
     <g id="line2d_10">
      <path clip-path="url(#p4e2c38ad54)" d="M 72.443016 198.867014 
L 516.62212 198.867014 
" style="fill:none;stroke:#ffffff;stroke-linecap:round;stroke-width:1.5;"/>
     </g>
     <g id="text_11">
      <!-- 1.50 -->
      <g style="fill:#262626;" transform="translate(26.878563 204.508854)scale(0.1485 -0.1485)">
       <use xlink:href="#DejaVuSans-49"/>
       <use x="63.623047" xlink:href="#DejaVuSans-46"/>
       <use x="95.410156" xlink:href="#DejaVuSans-53"/>
       <use x="159.033203" xlink:href="#DejaVuSans-48"/>
      </g>
     </g>
    </g>
    <g id="ytick_5">
     <g id="line2d_11">
      <path clip-path="url(#p4e2c38ad54)" d="M 72.443016 168.416242 
L 516.62212 168.416242 
" style="fill:none;stroke:#ffffff;stroke-linecap:round;stroke-width:1.5;"/>
     </g>
     <g id="text_12">
      <!-- 1.75 -->
      <g style="fill:#262626;" transform="translate(26.878563 174.058081)scale(0.1485 -0.1485)">
       <use xlink:href="#DejaVuSans-49"/>
       <use x="63.623047" xlink:href="#DejaVuSans-46"/>
       <use x="95.410156" xlink:href="#DejaVuSans-55"/>
       <use x="159.033203" xlink:href="#DejaVuSans-53"/>
      </g>
     </g>
    </g>
    <g id="ytick_6">
     <g id="line2d_12">
      <path clip-path="url(#p4e2c38ad54)" d="M 72.443016 137.965469 
L 516.62212 137.965469 
" style="fill:none;stroke:#ffffff;stroke-linecap:round;stroke-width:1.5;"/>
     </g>
     <g id="text_13">
      <!-- 2.00 -->
      <g style="fill:#262626;" transform="translate(26.878563 143.607309)scale(0.1485 -0.1485)">
       <use xlink:href="#DejaVuSans-50"/>
       <use x="63.623047" xlink:href="#DejaVuSans-46"/>
       <use x="95.410156" xlink:href="#DejaVuSans-48"/>
       <use x="159.033203" xlink:href="#DejaVuSans-48"/>
      </g>
     </g>
    </g>
    <g id="ytick_7">
     <g id="line2d_13">
      <path clip-path="url(#p4e2c38ad54)" d="M 72.443016 107.514696 
L 516.62212 107.514696 
" style="fill:none;stroke:#ffffff;stroke-linecap:round;stroke-width:1.5;"/>
     </g>
     <g id="text_14">
      <!-- 2.25 -->
      <g style="fill:#262626;" transform="translate(26.878563 113.156536)scale(0.1485 -0.1485)">
       <use xlink:href="#DejaVuSans-50"/>
       <use x="63.623047" xlink:href="#DejaVuSans-46"/>
       <use x="95.410156" xlink:href="#DejaVuSans-50"/>
       <use x="159.033203" xlink:href="#DejaVuSans-53"/>
      </g>
     </g>
    </g>
    <g id="ytick_8">
     <g id="line2d_14">
      <path clip-path="url(#p4e2c38ad54)" d="M 72.443016 77.063923 
L 516.62212 77.063923 
" style="fill:none;stroke:#ffffff;stroke-linecap:round;stroke-width:1.5;"/>
     </g>
     <g id="text_15">
      <!-- 2.50 -->
      <g style="fill:#262626;" transform="translate(26.878563 82.705763)scale(0.1485 -0.1485)">
       <use xlink:href="#DejaVuSans-50"/>
       <use x="63.623047" xlink:href="#DejaVuSans-46"/>
       <use x="95.410156" xlink:href="#DejaVuSans-53"/>
       <use x="159.033203" xlink:href="#DejaVuSans-48"/>
      </g>
     </g>
    </g>
    <g id="ytick_9">
     <g id="line2d_15">
      <path clip-path="url(#p4e2c38ad54)" d="M 72.443016 46.61315 
L 516.62212 46.61315 
" style="fill:none;stroke:#ffffff;stroke-linecap:round;stroke-width:1.5;"/>
     </g>
     <g id="text_16">
      <!-- 2.75 -->
      <g style="fill:#262626;" transform="translate(26.878563 52.25499)scale(0.1485 -0.1485)">
       <use xlink:href="#DejaVuSans-50"/>
       <use x="63.623047" xlink:href="#DejaVuSans-46"/>
       <use x="95.410156" xlink:href="#DejaVuSans-55"/>
       <use x="159.033203" xlink:href="#DejaVuSans-53"/>
      </g>
     </g>
    </g>
    <g id="text_17">
     <!-- objective -->
     <defs>
      <path d="M 48.6875 27.296875 
Q 48.6875 37.203125 44.609375 42.84375 
Q 40.53125 48.484375 33.40625 48.484375 
Q 26.265625 48.484375 22.1875 42.84375 
Q 18.109375 37.203125 18.109375 27.296875 
Q 18.109375 17.390625 22.1875 11.75 
Q 26.265625 6.109375 33.40625 6.109375 
Q 40.53125 6.109375 44.609375 11.75 
Q 48.6875 17.390625 48.6875 27.296875 
z
M 18.109375 46.390625 
Q 20.953125 51.265625 25.265625 53.625 
Q 29.59375 56 35.59375 56 
Q 45.5625 56 51.78125 48.09375 
Q 58.015625 40.1875 58.015625 27.296875 
Q 58.015625 14.40625 51.78125 6.484375 
Q 45.5625 -1.421875 35.59375 -1.421875 
Q 29.59375 -1.421875 25.265625 0.953125 
Q 20.953125 3.328125 18.109375 8.203125 
L 18.109375 0 
L 9.078125 0 
L 9.078125 75.984375 
L 18.109375 75.984375 
z
" id="DejaVuSans-98"/>
      <path d="M 9.421875 54.6875 
L 18.40625 54.6875 
L 18.40625 -0.984375 
Q 18.40625 -11.421875 14.421875 -16.109375 
Q 10.453125 -20.796875 1.609375 -20.796875 
L -1.8125 -20.796875 
L -1.8125 -13.1875 
L 0.59375 -13.1875 
Q 5.71875 -13.1875 7.5625 -10.8125 
Q 9.421875 -8.453125 9.421875 -0.984375 
z
M 9.421875 75.984375 
L 18.40625 75.984375 
L 18.40625 64.59375 
L 9.421875 64.59375 
z
" id="DejaVuSans-106"/>
      <path d="M 48.78125 52.59375 
L 48.78125 44.1875 
Q 44.96875 46.296875 41.140625 47.34375 
Q 37.3125 48.390625 33.40625 48.390625 
Q 24.65625 48.390625 19.8125 42.84375 
Q 14.984375 37.3125 14.984375 27.296875 
Q 14.984375 17.28125 19.8125 11.734375 
Q 24.65625 6.203125 33.40625 6.203125 
Q 37.3125 6.203125 41.140625 7.25 
Q 44.96875 8.296875 48.78125 10.40625 
L 48.78125 2.09375 
Q 45.015625 0.34375 40.984375 -0.53125 
Q 36.96875 -1.421875 32.421875 -1.421875 
Q 20.0625 -1.421875 12.78125 6.34375 
Q 5.515625 14.109375 5.515625 27.296875 
Q 5.515625 40.671875 12.859375 48.328125 
Q 20.21875 56 33.015625 56 
Q 37.15625 56 41.109375 55.140625 
Q 45.0625 54.296875 48.78125 52.59375 
z
" id="DejaVuSans-99"/>
      <path d="M 2.984375 54.6875 
L 12.5 54.6875 
L 29.59375 8.796875 
L 46.6875 54.6875 
L 56.203125 54.6875 
L 35.6875 0 
L 23.484375 0 
z
" id="DejaVuSans-118"/>
     </defs>
     <g style="fill:#262626;" transform="translate(19.509469 194.374102)rotate(-90)scale(0.162 -0.162)">
      <use xlink:href="#DejaVuSans-111"/>
      <use x="61.181641" xlink:href="#DejaVuSans-98"/>
      <use x="124.658203" xlink:href="#DejaVuSans-106"/>
      <use x="152.441406" xlink:href="#DejaVuSans-101"/>
      <use x="213.964844" xlink:href="#DejaVuSans-99"/>
      <use x="268.945312" xlink:href="#DejaVuSans-116"/>
      <use x="308.154297" xlink:href="#DejaVuSans-105"/>
      <use x="335.9375" xlink:href="#DejaVuSans-118"/>
      <use x="395.117188" xlink:href="#DejaVuSans-101"/>
     </g>
    </g>
    <g id="text_18">
     <!-- 1e9 -->
     <defs>
      <path d="M 10.984375 1.515625 
L 10.984375 10.5 
Q 14.703125 8.734375 18.5 7.8125 
Q 22.3125 6.890625 25.984375 6.890625 
Q 35.75 6.890625 40.890625 13.453125 
Q 46.046875 20.015625 46.78125 33.40625 
Q 43.953125 29.203125 39.59375 26.953125 
Q 35.25 24.703125 29.984375 24.703125 
Q 19.046875 24.703125 12.671875 31.3125 
Q 6.296875 37.9375 6.296875 49.421875 
Q 6.296875 60.640625 12.9375 67.421875 
Q 19.578125 74.21875 30.609375 74.21875 
Q 43.265625 74.21875 49.921875 64.515625 
Q 56.59375 54.828125 56.59375 36.375 
Q 56.59375 19.140625 48.40625 8.859375 
Q 40.234375 -1.421875 26.421875 -1.421875 
Q 22.703125 -1.421875 18.890625 -0.6875 
Q 15.09375 0.046875 10.984375 1.515625 
z
M 30.609375 32.421875 
Q 37.25 32.421875 41.125 36.953125 
Q 45.015625 41.5 45.015625 49.421875 
Q 45.015625 57.28125 41.125 61.84375 
Q 37.25 66.40625 30.609375 66.40625 
Q 23.96875 66.40625 20.09375 61.84375 
Q 16.21875 57.28125 16.21875 49.421875 
Q 16.21875 41.5 20.09375 36.953125 
Q 23.96875 32.421875 30.609375 32.421875 
z
" id="DejaVuSans-57"/>
     </defs>
     <g style="fill:#262626;" transform="translate(72.443016 18.48368)scale(0.1485 -0.1485)">
      <use xlink:href="#DejaVuSans-49"/>
      <use x="63.623047" xlink:href="#DejaVuSans-101"/>
      <use x="125.146484" xlink:href="#DejaVuSans-57"/>
     </g>
    </g>
   </g>
   <g id="PolyCollection_1">
    <defs>
     <path d="M 92.632975 -306.682338 
L 92.632975 -302.650939 
L 94.064887 -292.655287 
L 95.496799 -278.414804 
L 96.928711 -272.301246 
L 98.360623 -269.143032 
L 99.792535 -269.143032 
L 101.224447 -267.233991 
L 102.656359 -265.315983 
L 104.088271 -265.033215 
L 105.520183 -265.030675 
L 106.952095 -255.581767 
L 108.384007 -255.588635 
L 109.815919 -247.68379 
L 111.247831 -246.7898 
L 112.679743 -245.913743 
L 114.111655 -243.430503 
L 115.543567 -243.556068 
L 116.975479 -242.999058 
L 118.407391 -242.56944 
L 119.839303 -241.535167 
L 121.271215 -239.904766 
L 122.703127 -238.841062 
L 124.135039 -235.721482 
L 125.566951 -234.651689 
L 126.998863 -234.651689 
L 128.430775 -233.296399 
L 129.862687 -233.164221 
L 131.294599 -233.164221 
L 132.726511 -229.506638 
L 134.158423 -228.552958 
L 135.590335 -228.601484 
L 137.022247 -219.783546 
L 138.454159 -219.658524 
L 139.886071 -218.81369 
L 141.317983 -218.534008 
L 142.749895 -217.277334 
L 144.181807 -216.819765 
L 145.613719 -216.584297 
L 147.045631 -216.465948 
L 148.477543 -215.883493 
L 149.909455 -215.229401 
L 151.341367 -209.738806 
L 152.773279 -209.379677 
L 154.205191 -209.282486 
L 155.637103 -206.947283 
L 157.069015 -200.521366 
L 158.500927 -197.937439 
L 159.932839 -197.183043 
L 161.364751 -195.952814 
L 162.796663 -191.442952 
L 164.228575 -189.878778 
L 165.660487 -189.732856 
L 167.092399 -184.951371 
L 168.524311 -182.995078 
L 169.956223 -180.375371 
L 171.388135 -180.020376 
L 172.820047 -175.987219 
L 174.251959 -175.836263 
L 175.683871 -175.880125 
L 177.115783 -174.624032 
L 178.547695 -167.507276 
L 179.979607 -164.432223 
L 181.411519 -163.963561 
L 182.843431 -158.832322 
L 184.275343 -158.699343 
L 185.707255 -155.091137 
L 187.139167 -154.06084 
L 188.571079 -153.972857 
L 190.002991 -151.17891 
L 191.434903 -151.086334 
L 192.866815 -151.008139 
L 194.298727 -148.18005 
L 195.730639 -146.593353 
L 197.162551 -144.540715 
L 198.594463 -143.455041 
L 200.026375 -143.338159 
L 201.458287 -141.990262 
L 202.890199 -141.795301 
L 204.322111 -141.830963 
L 205.754023 -138.331996 
L 207.185935 -137.856467 
L 208.617847 -137.682451 
L 210.049759 -136.844509 
L 211.481671 -136.768629 
L 212.913583 -135.868191 
L 214.345495 -131.012154 
L 215.777407 -129.753206 
L 217.20932 -129.441039 
L 218.641232 -128.86292 
L 220.073144 -128.699268 
L 221.505056 -127.762489 
L 222.936968 -126.566379 
L 224.36888 -126.130819 
L 225.800792 -124.075586 
L 227.232704 -123.248276 
L 228.664616 -122.571243 
L 230.096528 -118.455132 
L 231.52844 -118.420035 
L 232.960352 -118.139226 
L 234.392264 -117.685739 
L 235.824176 -117.174099 
L 237.256088 -116.780382 
L 238.688 -115.255901 
L 240.119912 -115.212807 
L 241.551824 -114.548002 
L 242.983736 -113.992192 
L 244.415648 -114.049372 
L 245.84756 -113.159275 
L 247.279472 -111.838479 
L 248.711384 -111.530639 
L 250.143296 -111.098882 
L 251.575208 -110.450244 
L 253.00712 -110.454092 
L 254.439032 -110.534389 
L 255.870944 -108.315593 
L 257.302856 -108.140785 
L 258.734768 -107.885608 
L 260.16668 -107.010564 
L 261.598592 -106.219158 
L 263.030504 -105.978612 
L 264.462416 -105.422974 
L 265.894328 -105.357712 
L 267.32624 -105.444583 
L 268.758152 -103.375139 
L 270.190064 -103.404944 
L 271.621976 -103.342695 
L 273.053888 -103.211139 
L 274.4858 -103.026221 
L 275.917712 -102.480451 
L 277.349624 -101.772667 
L 278.781536 -99.665251 
L 280.213448 -99.668085 
L 281.64536 -99.668085 
L 283.077272 -99.211983 
L 284.509184 -98.68085 
L 285.941096 -98.542261 
L 287.373008 -97.514423 
L 288.80492 -97.475796 
L 290.236832 -96.880339 
L 291.668744 -96.270393 
L 293.100656 -96.073102 
L 294.532568 -95.443461 
L 295.96448 -94.387888 
L 297.396392 -94.258495 
L 298.828304 -94.337711 
L 300.260216 -93.598181 
L 301.692128 -93.272076 
L 303.12404 -93.169186 
L 304.555952 -92.037629 
L 305.987864 -92.050848 
L 307.419776 -91.579766 
L 308.851688 -91.458774 
L 310.2836 -89.556863 
L 311.715512 -89.398452 
L 313.147424 -88.833216 
L 314.579336 -88.250862 
L 316.011248 -87.722692 
L 317.44316 -87.522736 
L 318.875072 -86.183618 
L 320.306984 -86.147539 
L 321.738896 -85.687134 
L 323.170808 -85.309738 
L 324.60272 -84.54416 
L 326.034632 -84.281945 
L 327.466544 -84.119573 
L 328.898456 -83.66713 
L 330.330368 -83.26404 
L 331.76228 -81.724123 
L 333.194192 -81.748162 
L 334.626104 -81.626443 
L 336.058016 -81.411296 
L 337.489928 -81.436845 
L 338.92184 -81.447722 
L 340.353752 -80.67324 
L 341.785664 -80.444199 
L 343.217576 -80.361057 
L 344.649488 -79.761708 
L 346.0814 -79.39755 
L 347.513312 -79.407778 
L 348.945224 -79.00869 
L 350.377136 -78.925904 
L 351.809048 -78.938065 
L 353.24096 -78.456384 
L 354.672872 -78.467878 
L 356.104784 -78.200958 
L 357.536696 -77.760748 
L 358.968608 -77.668198 
L 360.40052 -77.687011 
L 361.832432 -77.476419 
L 363.264344 -77.517247 
L 364.696256 -77.307173 
L 366.128168 -76.677781 
L 367.56008 -75.420776 
L 368.991992 -75.429765 
L 370.423904 -75.322099 
L 371.855816 -75.349611 
L 373.287728 -75.262849 
L 374.71964 -75.279681 
L 376.151552 -74.70073 
L 377.583464 -74.242992 
L 379.015376 -74.102902 
L 380.447288 -73.958296 
L 381.8792 -73.913175 
L 383.311112 -73.896383 
L 384.743024 -73.723448 
L 386.174936 -73.426262 
L 387.606848 -72.471045 
L 389.03876 -72.376815 
L 390.470672 -71.442668 
L 391.902584 -71.465695 
L 393.334496 -71.467925 
L 394.766408 -71.373124 
L 396.19832 -71.279175 
L 397.630232 -70.702538 
L 399.062144 -70.356105 
L 400.494056 -70.176032 
L 401.925968 -72.158063 
L 403.35788 -71.989964 
L 404.789792 -71.989964 
L 406.221704 -71.955126 
L 407.653616 -71.816047 
L 409.085528 -71.809879 
L 410.51744 -71.799807 
L 411.949352 -71.258495 
L 413.381264 -70.941141 
L 414.813176 -74.815385 
L 416.245088 -74.795214 
L 417.677 -74.656013 
L 419.108912 -74.510794 
L 420.540824 -74.109383 
L 421.972736 -74.03411 
L 423.404648 -73.930304 
L 424.83656 -73.721418 
L 426.268472 -82.394498 
L 427.700384 -95.265281 
L 429.132296 -89.803989 
L 430.564209 -89.787286 
L 431.996121 -89.756667 
L 433.428033 -89.167977 
L 434.859945 -89.127943 
L 436.291857 -89.015789 
L 437.723769 -88.796514 
L 439.155681 -88.781693 
L 440.587593 -88.246141 
L 442.019505 -88.21849 
L 443.451417 -88.17891 
L 444.883329 -88.063285 
L 446.315241 -87.812181 
L 447.747153 -87.778439 
L 449.179065 -87.433618 
L 450.610977 -87.331068 
L 452.042889 -122.949693 
L 453.474801 -124.182603 
L 454.906713 -123.999689 
L 456.338625 -124.069221 
L 457.770537 -123.488499 
L 459.202449 -123.115827 
L 460.634361 -123.059497 
L 462.066273 -123.059497 
L 463.498185 -123.059497 
L 464.930097 -122.533526 
L 466.362009 -122.533526 
L 467.793921 -121.784024 
L 469.225833 -121.980893 
L 470.657745 -121.980893 
L 472.089657 -121.984279 
L 473.521569 -121.984279 
L 474.953481 -121.823862 
L 476.385393 -121.504371 
L 477.817305 -120.971842 
L 477.817305 -124.865049 
L 477.817305 -124.865049 
L 476.385393 -125.981895 
L 474.953481 -125.927079 
L 473.521569 -125.899556 
L 472.089657 -125.899556 
L 470.657745 -125.919293 
L 469.225833 -125.919293 
L 467.793921 -127.066728 
L 466.362009 -127.026531 
L 464.930097 -127.026531 
L 463.498185 -126.936289 
L 462.066273 -126.936289 
L 460.634361 -126.936289 
L 459.202449 -127.724295 
L 457.770537 -127.889394 
L 456.338625 -127.789758 
L 454.906713 -128.195018 
L 453.474801 -128.163635 
L 452.042889 -127.482668 
L 450.610977 -138.171218 
L 449.179065 -138.582149 
L 447.747153 -138.519891 
L 446.315241 -138.683603 
L 444.883329 -138.742953 
L 443.451417 -139.175828 
L 442.019505 -139.523273 
L 440.587593 -139.755485 
L 439.155681 -139.854634 
L 437.723769 -139.926999 
L 436.291857 -139.854296 
L 434.859945 -140.25636 
L 433.428033 -140.569444 
L 431.996121 -140.918609 
L 430.564209 -141.067006 
L 429.132296 -141.145772 
L 427.700384 -140.209761 
L 426.268472 -137.765651 
L 424.83656 -134.262787 
L 423.404648 -134.526742 
L 421.972736 -134.600335 
L 420.540824 -134.956829 
L 419.108912 -135.088343 
L 417.677 -135.142833 
L 416.245088 -135.356084 
L 414.813176 -135.718207 
L 413.381264 -131.777185 
L 411.949352 -132.076185 
L 410.51744 -132.292929 
L 409.085528 -132.344599 
L 407.653616 -132.498523 
L 406.221704 -132.9561 
L 404.789792 -133.3568 
L 403.35788 -133.3568 
L 401.925968 -133.624821 
L 400.494056 -130.402723 
L 399.062144 -130.607974 
L 397.630232 -130.963005 
L 396.19832 -131.52534 
L 394.766408 -131.55084 
L 393.334496 -131.798841 
L 391.902584 -131.845353 
L 390.470672 -132.112758 
L 389.03876 -132.497953 
L 387.606848 -132.948378 
L 386.174936 -133.003411 
L 384.743024 -133.338248 
L 383.311112 -133.355403 
L 381.8792 -133.555985 
L 380.447288 -133.576158 
L 379.015376 -134.125618 
L 377.583464 -134.178132 
L 376.151552 -134.578853 
L 374.71964 -134.650095 
L 373.287728 -134.841005 
L 371.855816 -135.003117 
L 370.423904 -135.468908 
L 368.991992 -135.523808 
L 367.56008 -135.712651 
L 366.128168 -136.126838 
L 364.696256 -136.212107 
L 363.264344 -136.343644 
L 361.832432 -136.683136 
L 360.40052 -136.862576 
L 358.968608 -137.146801 
L 357.536696 -137.541504 
L 356.104784 -137.659765 
L 354.672872 -137.828297 
L 353.24096 -138.259217 
L 351.809048 -138.456185 
L 350.377136 -138.65937 
L 348.945224 -138.968699 
L 347.513312 -139.414225 
L 346.0814 -139.530132 
L 344.649488 -139.830803 
L 343.217576 -140.107702 
L 341.785664 -140.346186 
L 340.353752 -140.776488 
L 338.92184 -141.249584 
L 337.489928 -141.44808 
L 336.058016 -141.694925 
L 334.626104 -141.993025 
L 333.194192 -142.365464 
L 331.76228 -142.734434 
L 330.330368 -143.291381 
L 328.898456 -143.332903 
L 327.466544 -143.667395 
L 326.034632 -144.050843 
L 324.60272 -144.592607 
L 323.170808 -144.864336 
L 321.738896 -145.358273 
L 320.306984 -145.391868 
L 318.875072 -145.474133 
L 317.44316 -146.227 
L 316.011248 -146.796252 
L 314.579336 -147.368504 
L 313.147424 -147.690145 
L 311.715512 -147.862016 
L 310.2836 -148.120323 
L 308.851688 -148.555331 
L 307.419776 -148.955542 
L 305.987864 -149.578734 
L 304.555952 -149.839721 
L 303.12404 -150.066683 
L 301.692128 -150.421541 
L 300.260216 -151.017029 
L 298.828304 -151.120886 
L 297.396392 -151.878695 
L 295.96448 -152.276765 
L 294.532568 -152.752294 
L 293.100656 -153.185689 
L 291.668744 -153.423262 
L 290.236832 -153.600431 
L 288.80492 -154.293661 
L 287.373008 -154.635843 
L 285.941096 -155.371841 
L 284.509184 -155.869435 
L 283.077272 -155.833897 
L 281.64536 -155.93002 
L 280.213448 -155.93002 
L 278.781536 -156.431388 
L 277.349624 -157.742488 
L 275.917712 -158.527987 
L 274.4858 -158.753553 
L 273.053888 -158.939625 
L 271.621976 -158.9514 
L 270.190064 -160.169382 
L 268.758152 -160.399467 
L 267.32624 -161.453749 
L 265.894328 -162.457106 
L 264.462416 -162.466346 
L 263.030504 -162.822788 
L 261.598592 -163.990491 
L 260.16668 -164.277683 
L 258.734768 -164.650936 
L 257.302856 -165.217224 
L 255.870944 -165.279606 
L 254.439032 -165.839757 
L 253.00712 -168.067626 
L 251.575208 -168.108238 
L 250.143296 -168.140507 
L 248.711384 -169.015388 
L 247.279472 -169.042877 
L 245.84756 -170.360623 
L 244.415648 -170.855239 
L 242.983736 -171.653712 
L 241.551824 -172.113961 
L 240.119912 -172.134643 
L 238.688 -172.428953 
L 237.256088 -173.342491 
L 235.824176 -174.863906 
L 234.392264 -175.432763 
L 232.960352 -175.854255 
L 231.52844 -176.069513 
L 230.096528 -176.397783 
L 228.664616 -181.245781 
L 227.232704 -181.844427 
L 225.800792 -182.044901 
L 224.36888 -182.623025 
L 222.936968 -185.927479 
L 221.505056 -186.661655 
L 220.073144 -187.331955 
L 218.641232 -187.747839 
L 217.20932 -188.581654 
L 215.777407 -190.359132 
L 214.345495 -190.608188 
L 212.913583 -192.372496 
L 211.481671 -194.176593 
L 210.049759 -194.505226 
L 208.617847 -195.014602 
L 207.185935 -195.170868 
L 205.754023 -195.520136 
L 204.322111 -195.772607 
L 202.890199 -200.186949 
L 201.458287 -201.049709 
L 200.026375 -201.708047 
L 198.594463 -202.591604 
L 197.162551 -203.210166 
L 195.730639 -203.446137 
L 194.298727 -204.25447 
L 192.866815 -204.95992 
L 191.434903 -205.555555 
L 190.002991 -206.683408 
L 188.571079 -206.409768 
L 187.139167 -207.760421 
L 185.707255 -208.523382 
L 184.275343 -208.338868 
L 182.843431 -209.576448 
L 181.411519 -210.057108 
L 179.979607 -210.368361 
L 178.547695 -212.395971 
L 177.115783 -212.491101 
L 175.683871 -214.943741 
L 174.251959 -216.008689 
L 172.820047 -217.350192 
L 171.388135 -217.45812 
L 169.956223 -218.069816 
L 168.524311 -220.129381 
L 167.092399 -221.882385 
L 165.660487 -220.815557 
L 164.228575 -222.107312 
L 162.796663 -222.742123 
L 161.364751 -223.698168 
L 159.932839 -225.155176 
L 158.500927 -226.317602 
L 157.069015 -226.623373 
L 155.637103 -228.776821 
L 154.205191 -229.895417 
L 152.773279 -230.149441 
L 151.341367 -232.487726 
L 149.909455 -232.847215 
L 148.477543 -233.191084 
L 147.045631 -233.498353 
L 145.613719 -233.58212 
L 144.181807 -234.727022 
L 142.749895 -239.596244 
L 141.317983 -240.193105 
L 139.886071 -240.680783 
L 138.454159 -242.435982 
L 137.022247 -243.120905 
L 135.590335 -242.471296 
L 134.158423 -247.130151 
L 132.726511 -248.160112 
L 131.294599 -249.27194 
L 129.862687 -249.27194 
L 128.430775 -249.981247 
L 126.998863 -260.104683 
L 125.566951 -260.104683 
L 124.135039 -262.293418 
L 122.703127 -262.871015 
L 121.271215 -264.2517 
L 119.839303 -267.71532 
L 118.407391 -274.35118 
L 116.975479 -275.146167 
L 115.543567 -276.269061 
L 114.111655 -280.030472 
L 112.679743 -279.538317 
L 111.247831 -283.329812 
L 109.815919 -283.986785 
L 108.384007 -287.793397 
L 106.952095 -288.049605 
L 105.520183 -285.886153 
L 104.088271 -285.975639 
L 102.656359 -286.678686 
L 101.224447 -286.063847 
L 99.792535 -285.744297 
L 98.360623 -285.744297 
L 96.928711 -293.409931 
L 95.496799 -302.245093 
L 94.064887 -306.238898 
L 92.632975 -306.682338 
z
" id="mf50a7b0879" style="stroke:#4c72b0;stroke-opacity:0.2;stroke-width:1.5;"/>
    </defs>
    <g clip-path="url(#p4e2c38ad54)">
     <use style="fill:#4c72b0;fill-opacity:0.2;stroke:#4c72b0;stroke-opacity:0.2;stroke-width:1.5;" x="0" xlink:href="#mf50a7b0879" y="347.034258"/>
    </g>
   </g>
   <g id="PolyCollection_2">
    <defs>
     <path d="M 92.632975 -308.678715 
L 92.632975 -303.602964 
L 94.064887 -292.051472 
L 95.496799 -288.803529 
L 96.928711 -283.211569 
L 98.360623 -268.630416 
L 99.792535 -265.682818 
L 101.224447 -265.349726 
L 102.656359 -263.929982 
L 104.088271 -263.220502 
L 105.520183 -262.472735 
L 106.952095 -260.712819 
L 108.384007 -258.67846 
L 109.815919 -257.407912 
L 111.247831 -251.922387 
L 112.679743 -251.922387 
L 114.111655 -246.673247 
L 115.543567 -245.152512 
L 116.975479 -243.864357 
L 118.407391 -239.616985 
L 119.839303 -239.270858 
L 121.271215 -236.184012 
L 122.703127 -236.004193 
L 124.135039 -236.065852 
L 125.566951 -234.276657 
L 126.998863 -231.158073 
L 128.430775 -228.526382 
L 129.862687 -225.233793 
L 131.294599 -223.840163 
L 132.726511 -223.062607 
L 134.158423 -222.525192 
L 135.590335 -221.318046 
L 137.022247 -220.07473 
L 138.454159 -218.373617 
L 139.886071 -217.228708 
L 141.317983 -217.085184 
L 142.749895 -216.218776 
L 144.181807 -214.879373 
L 145.613719 -213.949165 
L 147.045631 -213.02325 
L 148.477543 -211.195401 
L 149.909455 -211.195971 
L 151.341367 -210.895944 
L 152.773279 -209.51548 
L 154.205191 -208.540369 
L 155.637103 -207.006826 
L 157.069015 -205.142001 
L 158.500927 -204.540134 
L 159.932839 -203.56347 
L 161.364751 -202.942961 
L 162.796663 -201.85048 
L 164.228575 -199.826163 
L 165.660487 -198.95287 
L 167.092399 -198.10425 
L 168.524311 -195.122697 
L 169.956223 -194.554303 
L 171.388135 -192.823176 
L 172.820047 -191.725582 
L 174.251959 -191.582085 
L 175.683871 -190.144881 
L 177.115783 -189.564911 
L 178.547695 -187.85228 
L 179.979607 -187.500795 
L 181.411519 -185.902742 
L 182.843431 -185.71832 
L 184.275343 -183.587353 
L 185.707255 -182.443581 
L 187.139167 -181.48732 
L 188.571079 -180.833233 
L 190.002991 -181.050446 
L 191.434903 -180.954971 
L 192.866815 -179.327066 
L 194.298727 -178.134423 
L 195.730639 -177.806177 
L 197.162551 -176.507578 
L 198.594463 -174.577597 
L 200.026375 -174.804008 
L 201.458287 -172.528709 
L 202.890199 -170.344475 
L 204.322111 -170.748914 
L 205.754023 -170.1501 
L 207.185935 -169.711917 
L 208.617847 -168.995012 
L 210.049759 -168.320409 
L 211.481671 -167.355544 
L 212.913583 -165.045405 
L 214.345495 -163.013908 
L 215.777407 -161.772631 
L 217.20932 -161.477963 
L 218.641232 -160.020466 
L 220.073144 -157.236645 
L 221.505056 -156.44583 
L 222.936968 -154.096402 
L 224.36888 -153.713928 
L 225.800792 -152.424176 
L 227.232704 -151.397169 
L 228.664616 -151.025723 
L 230.096528 -148.130809 
L 231.52844 -148.144723 
L 232.960352 -144.468888 
L 234.392264 -143.538746 
L 235.824176 -143.473312 
L 237.256088 -142.972078 
L 238.688 -141.919599 
L 240.119912 -139.869709 
L 241.551824 -138.934882 
L 242.983736 -138.343211 
L 244.415648 -131.388923 
L 245.84756 -131.409704 
L 247.279472 -130.526186 
L 248.711384 -130.104301 
L 250.143296 -129.710621 
L 251.575208 -127.972497 
L 253.00712 -127.906731 
L 254.439032 -126.116343 
L 255.870944 -125.667913 
L 257.302856 -125.538828 
L 258.734768 -124.788335 
L 260.16668 -123.726387 
L 261.598592 -123.718651 
L 263.030504 -123.046033 
L 264.462416 -121.62996 
L 265.894328 -121.173403 
L 267.32624 -120.430479 
L 268.758152 -120.007708 
L 270.190064 -119.976055 
L 271.621976 -119.032145 
L 273.053888 -118.194265 
L 274.4858 -117.810158 
L 275.917712 -117.847748 
L 277.349624 -116.95056 
L 278.781536 -114.758993 
L 280.213448 -114.243847 
L 281.64536 -113.230782 
L 283.077272 -113.04292 
L 284.509184 -112.841759 
L 285.941096 -112.77147 
L 287.373008 -111.581815 
L 288.80492 -109.906571 
L 290.236832 -109.551423 
L 291.668744 -109.310201 
L 293.100656 -109.312677 
L 294.532568 -109.367466 
L 295.96448 -107.803534 
L 297.396392 -106.690932 
L 298.828304 -106.047832 
L 300.260216 -105.996126 
L 301.692128 -105.665913 
L 303.12404 -101.642581 
L 304.555952 -101.023241 
L 305.987864 -101.062696 
L 307.419776 -100.415658 
L 308.851688 -99.59517 
L 310.2836 -99.30325 
L 311.715512 -99.307219 
L 313.147424 -99.326757 
L 314.579336 -99.220074 
L 316.011248 -98.989044 
L 317.44316 -97.087438 
L 318.875072 -96.66335 
L 320.306984 -96.296933 
L 321.738896 -96.269128 
L 323.170808 -94.881473 
L 324.60272 -94.529707 
L 326.034632 -93.436176 
L 327.466544 -92.796907 
L 328.898456 -92.430705 
L 330.330368 -92.154007 
L 331.76228 -90.774055 
L 333.194192 -90.722962 
L 334.626104 -90.456105 
L 336.058016 -90.182642 
L 337.489928 -89.759328 
L 338.92184 -89.516672 
L 340.353752 -88.99412 
L 341.785664 -88.72641 
L 343.217576 -88.393286 
L 344.649488 -88.342419 
L 346.0814 -84.652058 
L 347.513312 -84.202313 
L 348.945224 -85.048215 
L 350.377136 -84.734872 
L 351.809048 -84.527158 
L 353.24096 -84.378543 
L 354.672872 -84.25814 
L 356.104784 -82.11863 
L 357.536696 -81.832912 
L 358.968608 -81.686386 
L 360.40052 -80.764481 
L 361.832432 -90.253257 
L 363.264344 -128.209801 
L 364.696256 -127.305715 
L 366.128168 -127.305715 
L 367.56008 -127.305715 
L 368.991992 -126.459974 
L 370.423904 -126.459974 
L 370.423904 -130.727141 
L 370.423904 -130.727141 
L 368.991992 -130.727141 
L 367.56008 -132.294746 
L 366.128168 -132.294746 
L 364.696256 -132.294746 
L 363.264344 -134.14976 
L 361.832432 -145.759369 
L 360.40052 -140.0255 
L 358.968608 -135.905443 
L 357.536696 -136.336579 
L 356.104784 -136.382848 
L 354.672872 -136.669651 
L 353.24096 -136.694198 
L 351.809048 -137.351642 
L 350.377136 -137.727796 
L 348.945224 -138.686863 
L 347.513312 -135.205525 
L 346.0814 -135.15958 
L 344.649488 -141.68136 
L 343.217576 -142.013589 
L 341.785664 -142.414814 
L 340.353752 -142.975078 
L 338.92184 -143.46332 
L 337.489928 -143.526356 
L 336.058016 -143.826138 
L 334.626104 -144.21899 
L 333.194192 -144.409276 
L 331.76228 -145.037006 
L 330.330368 -145.376801 
L 328.898456 -145.863162 
L 327.466544 -146.110352 
L 326.034632 -146.239546 
L 324.60272 -146.577991 
L 323.170808 -147.451709 
L 321.738896 -147.909267 
L 320.306984 -147.958512 
L 318.875072 -148.263102 
L 317.44316 -148.709715 
L 316.011248 -146.717929 
L 314.579336 -147.446538 
L 313.147424 -148.083987 
L 311.715512 -148.18359 
L 310.2836 -148.657488 
L 308.851688 -148.687922 
L 307.419776 -149.34241 
L 305.987864 -149.909161 
L 304.555952 -150.729361 
L 303.12404 -150.733591 
L 301.692128 -153.557266 
L 300.260216 -153.859038 
L 298.828304 -153.966805 
L 297.396392 -154.518202 
L 295.96448 -156.059166 
L 294.532568 -156.03082 
L 293.100656 -156.419465 
L 291.668744 -156.723808 
L 290.236832 -157.066021 
L 288.80492 -157.441303 
L 287.373008 -158.011839 
L 285.941096 -158.164153 
L 284.509184 -158.617348 
L 283.077272 -158.889357 
L 281.64536 -159.081485 
L 280.213448 -159.599927 
L 278.781536 -160.231462 
L 277.349624 -160.373259 
L 275.917712 -160.723384 
L 274.4858 -161.139064 
L 273.053888 -161.472857 
L 271.621976 -163.660781 
L 270.190064 -163.649399 
L 268.758152 -163.787277 
L 267.32624 -163.979056 
L 265.894328 -164.193918 
L 264.462416 -164.394339 
L 263.030504 -166.089489 
L 261.598592 -166.483592 
L 260.16668 -166.553583 
L 258.734768 -167.093074 
L 257.302856 -167.475344 
L 255.870944 -167.905172 
L 254.439032 -168.794385 
L 253.00712 -168.995119 
L 251.575208 -169.230479 
L 250.143296 -170.137068 
L 248.711384 -170.37454 
L 247.279472 -170.888199 
L 245.84756 -171.552345 
L 244.415648 -171.999459 
L 242.983736 -172.171675 
L 241.551824 -172.49562 
L 240.119912 -172.65842 
L 238.688 -172.22781 
L 237.256088 -172.8519 
L 235.824176 -173.150376 
L 234.392264 -174.565636 
L 232.960352 -175.927921 
L 231.52844 -175.280486 
L 230.096528 -175.359494 
L 228.664616 -176.14918 
L 227.232704 -176.384932 
L 225.800792 -177.221505 
L 224.36888 -177.495926 
L 222.936968 -177.801433 
L 221.505056 -177.766735 
L 220.073144 -179.878865 
L 218.641232 -179.820537 
L 217.20932 -180.288692 
L 215.777407 -180.750061 
L 214.345495 -180.90193 
L 212.913583 -182.967425 
L 211.481671 -183.122996 
L 210.049759 -184.143018 
L 208.617847 -184.391741 
L 207.185935 -186.630553 
L 205.754023 -186.86621 
L 204.322111 -188.025853 
L 202.890199 -192.469603 
L 201.458287 -192.46539 
L 200.026375 -192.998851 
L 198.594463 -194.199696 
L 197.162551 -194.566064 
L 195.730639 -195.668058 
L 194.298727 -196.140248 
L 192.866815 -196.216547 
L 191.434903 -196.794723 
L 190.002991 -197.349445 
L 188.571079 -204.638414 
L 187.139167 -204.859704 
L 185.707255 -205.736054 
L 184.275343 -206.601631 
L 182.843431 -207.318423 
L 181.411519 -208.084894 
L 179.979607 -209.154877 
L 178.547695 -209.427394 
L 177.115783 -210.578038 
L 175.683871 -211.048709 
L 174.251959 -211.95249 
L 172.820047 -212.669722 
L 171.388135 -213.304198 
L 169.956223 -215.2268 
L 168.524311 -215.835366 
L 167.092399 -216.918041 
L 165.660487 -218.566033 
L 164.228575 -219.029495 
L 162.796663 -219.787315 
L 161.364751 -222.157207 
L 159.932839 -223.121645 
L 158.500927 -223.481974 
L 157.069015 -225.065209 
L 155.637103 -225.796613 
L 154.205191 -226.296341 
L 152.773279 -229.116222 
L 151.341367 -229.50632 
L 149.909455 -230.394073 
L 148.477543 -231.196873 
L 147.045631 -231.866965 
L 145.613719 -232.26878 
L 144.181807 -232.2979 
L 142.749895 -231.95344 
L 141.317983 -233.359112 
L 139.886071 -234.516568 
L 138.454159 -237.071664 
L 137.022247 -237.570437 
L 135.590335 -238.568384 
L 134.158423 -239.521652 
L 132.726511 -240.278289 
L 131.294599 -243.161238 
L 129.862687 -245.607897 
L 128.430775 -245.724517 
L 126.998863 -246.061829 
L 125.566951 -247.335385 
L 124.135039 -248.534355 
L 122.703127 -250.937588 
L 121.271215 -259.682354 
L 119.839303 -261.258301 
L 118.407391 -261.576464 
L 116.975479 -263.664473 
L 115.543567 -266.378833 
L 114.111655 -269.412844 
L 112.679743 -272.932017 
L 111.247831 -272.932017 
L 109.815919 -276.253406 
L 108.384007 -277.863143 
L 106.952095 -278.783882 
L 105.520183 -279.065636 
L 104.088271 -279.205971 
L 102.656359 -281.904901 
L 101.224447 -290.460668 
L 99.792535 -292.93326 
L 98.360623 -296.079563 
L 96.928711 -298.031853 
L 95.496799 -300.681818 
L 94.064887 -305.836501 
L 92.632975 -308.678715 
z
" id="mac38a80e43" style="stroke:#dd8452;stroke-opacity:0.2;stroke-width:1.5;"/>
    </defs>
    <g clip-path="url(#p4e2c38ad54)">
     <use style="fill:#dd8452;fill-opacity:0.2;stroke:#dd8452;stroke-opacity:0.2;stroke-width:1.5;" x="0" xlink:href="#mac38a80e43" y="347.034258"/>
    </g>
   </g>
   <g id="PolyCollection_3">
    <defs>
     <path d="M 92.632975 -307.971419 
L 92.632975 -304.244475 
L 94.064887 -286.824256 
L 95.496799 -253.450202 
L 96.928711 -252.739896 
L 98.360623 -249.156334 
L 99.792535 -247.619084 
L 101.224447 -245.153394 
L 102.656359 -243.554486 
L 104.088271 -243.317831 
L 105.520183 -242.423695 
L 106.952095 -242.371421 
L 108.384007 -241.409618 
L 109.815919 -241.30913 
L 111.247831 -239.798649 
L 112.679743 -238.313997 
L 114.111655 -236.784643 
L 115.543567 -235.39266 
L 116.975479 -229.151453 
L 118.407391 -228.602815 
L 119.839303 -228.288353 
L 121.271215 -225.726509 
L 122.703127 -225.688519 
L 124.135039 -224.699943 
L 125.566951 -223.087939 
L 126.998863 -221.075819 
L 128.430775 -220.502614 
L 129.862687 -217.823683 
L 131.294599 -216.894612 
L 132.726511 -215.613782 
L 134.158423 -215.534153 
L 135.590335 -215.28829 
L 137.022247 -213.587014 
L 138.454159 -211.669382 
L 139.886071 -210.553506 
L 141.317983 -210.050327 
L 142.749895 -209.94344 
L 144.181807 -208.817774 
L 145.613719 -207.338339 
L 147.045631 -205.982053 
L 148.477543 -203.749261 
L 149.909455 -202.126799 
L 151.341367 -202.272502 
L 152.773279 -201.19391 
L 154.205191 -200.22807 
L 155.637103 -198.686565 
L 157.069015 -198.072451 
L 158.500927 -197.790213 
L 159.932839 -197.129191 
L 161.364751 -197.118275 
L 162.796663 -195.903965 
L 164.228575 -194.876128 
L 165.660487 -194.075467 
L 167.092399 -191.471264 
L 168.524311 -190.788872 
L 169.956223 -190.782799 
L 171.388135 -189.577233 
L 172.820047 -188.2276 
L 174.251959 -187.247197 
L 175.683871 -186.18245 
L 177.115783 -184.364154 
L 178.547695 -182.990396 
L 179.979607 -181.886946 
L 181.411519 -181.412931 
L 182.843431 -180.63467 
L 184.275343 -180.562322 
L 185.707255 -179.906822 
L 187.139167 -177.91522 
L 188.571079 -176.143139 
L 190.002991 -175.797087 
L 191.434903 -175.403256 
L 192.866815 -175.047628 
L 194.298727 -174.310628 
L 195.730639 -173.318949 
L 197.162551 -171.667115 
L 198.594463 -170.099117 
L 200.026375 -169.388257 
L 201.458287 -168.983138 
L 202.890199 -168.363945 
L 204.322111 -168.193094 
L 205.754023 -167.495071 
L 207.185935 -166.539878 
L 208.617847 -163.886847 
L 210.049759 -163.017922 
L 211.481671 -162.732826 
L 212.913583 -162.467418 
L 214.345495 -161.399939 
L 215.777407 -161.008733 
L 217.20932 -160.010723 
L 218.641232 -158.333468 
L 220.073144 -158.315291 
L 221.505056 -158.25345 
L 222.936968 -157.516935 
L 224.36888 -156.159571 
L 225.800792 -155.67115 
L 227.232704 -154.330892 
L 228.664616 -152.71097 
L 230.096528 -152.374313 
L 231.52844 -152.172132 
L 232.960352 -152.03888 
L 234.392264 -151.513029 
L 235.824176 -149.700439 
L 237.256088 -148.560461 
L 238.688 -146.875032 
L 240.119912 -146.848815 
L 241.551824 -146.25847 
L 242.983736 -144.635984 
L 244.415648 -144.046888 
L 245.84756 -142.099646 
L 247.279472 -141.824375 
L 248.711384 -140.919022 
L 250.143296 -140.493659 
L 251.575208 -140.351816 
L 253.00712 -139.708907 
L 254.439032 -137.958253 
L 255.870944 -137.848973 
L 257.302856 -136.904845 
L 258.734768 -136.780214 
L 260.16668 -136.523634 
L 261.598592 -134.957341 
L 263.030504 -134.040401 
L 264.462416 -133.092207 
L 265.894328 -131.245855 
L 267.32624 -130.904456 
L 268.758152 -130.789249 
L 270.190064 -130.166537 
L 271.621976 -126.587438 
L 273.053888 -126.292221 
L 274.4858 -124.57467 
L 275.917712 -124.634344 
L 277.349624 -124.155601 
L 278.781536 -122.967852 
L 280.213448 -122.471925 
L 281.64536 -120.59338 
L 283.077272 -120.552534 
L 284.509184 -120.099794 
L 285.941096 -119.85673 
L 287.373008 -119.525125 
L 288.80492 -119.07757 
L 290.236832 -117.482289 
L 291.668744 -117.427367 
L 293.100656 -116.665819 
L 294.532568 -116.664599 
L 295.96448 -116.528314 
L 297.396392 -116.286877 
L 298.828304 -115.612121 
L 300.260216 -115.190141 
L 301.692128 -114.992481 
L 303.12404 -114.906342 
L 304.555952 -114.782799 
L 305.987864 -114.51666 
L 307.419776 -114.083021 
L 308.851688 -113.366496 
L 310.2836 -113.118643 
L 311.715512 -112.606168 
L 313.147424 -112.452569 
L 314.579336 -112.047831 
L 316.011248 -111.861958 
L 317.44316 -111.745772 
L 318.875072 -114.455515 
L 320.306984 -114.373005 
L 321.738896 -113.609729 
L 323.170808 -113.431821 
L 324.60272 -113.158638 
L 326.034632 -112.175448 
L 327.466544 -111.945151 
L 328.898456 -111.487894 
L 330.330368 -111.400855 
L 331.76228 -110.901439 
L 333.194192 -110.685174 
L 334.626104 -110.088227 
L 336.058016 -109.686863 
L 337.489928 -109.592797 
L 338.92184 -109.557971 
L 340.353752 -107.610699 
L 341.785664 -107.567281 
L 343.217576 -107.037525 
L 344.649488 -106.799256 
L 346.0814 -106.755488 
L 347.513312 -106.604594 
L 348.945224 -106.242026 
L 350.377136 -105.724384 
L 351.809048 -105.360008 
L 353.24096 -104.985976 
L 354.672872 -104.798502 
L 356.104784 -104.2752 
L 357.536696 -104.117088 
L 358.968608 -104.088279 
L 360.40052 -102.369797 
L 361.832432 -101.532254 
L 363.264344 -101.22907 
L 364.696256 -101.109267 
L 366.128168 -101.067319 
L 367.56008 -101.025871 
L 368.991992 -100.661404 
L 370.423904 -99.983289 
L 371.855816 -99.626042 
L 373.287728 -95.885012 
L 374.71964 -95.849568 
L 376.151552 -95.707603 
L 377.583464 -95.60302 
L 379.015376 -95.594117 
L 380.447288 -95.448908 
L 381.8792 -94.851957 
L 383.311112 -92.427864 
L 384.743024 -92.128616 
L 386.174936 -92.036681 
L 387.606848 -92.035522 
L 389.03876 -92.01819 
L 390.470672 -91.817818 
L 391.902584 -91.092887 
L 393.334496 -90.326695 
L 394.766408 -90.098118 
L 396.19832 -90.106905 
L 397.630232 -89.861019 
L 399.062144 -89.809228 
L 400.494056 -89.375204 
L 401.925968 -88.485211 
L 403.35788 -88.21851 
L 404.789792 -88.165257 
L 406.221704 -87.759312 
L 407.653616 -87.73384 
L 409.085528 -87.137233 
L 410.51744 -86.890368 
L 411.949352 -86.860049 
L 413.381264 -86.715233 
L 414.813176 -94.787923 
L 416.245088 -100.413937 
L 417.677 -100.386443 
L 419.108912 -100.312926 
L 420.540824 -100.269484 
L 421.972736 -99.449305 
L 423.404648 -98.994512 
L 424.83656 -98.465291 
L 426.268472 -98.383973 
L 427.700384 -97.913395 
L 429.132296 -97.847524 
L 430.564209 -96.798085 
L 431.996121 -96.445886 
L 433.428033 -96.407563 
L 434.859945 -96.010898 
L 436.291857 -95.956151 
L 437.723769 -95.784747 
L 439.155681 -95.625499 
L 440.587593 -95.454216 
L 442.019505 -94.457122 
L 443.451417 -105.127313 
L 444.883329 -105.001901 
L 446.315241 -105.01324 
L 447.747153 -105.002348 
L 449.179065 -104.966021 
L 450.610977 -100.997558 
L 452.042889 -100.789481 
L 453.474801 -100.736294 
L 454.906713 -100.739446 
L 456.338625 -100.668309 
L 457.770537 -100.646024 
L 459.202449 -97.789139 
L 460.634361 -97.709623 
L 462.066273 -93.470863 
L 463.498185 -119.947794 
L 464.930097 -119.899391 
L 466.362009 -119.924214 
L 467.793921 -119.704509 
L 469.225833 -119.781701 
L 470.657745 -119.511502 
L 472.089657 -119.375126 
L 473.521569 -118.753408 
L 474.953481 -118.753408 
L 476.385393 -118.753408 
L 477.817305 -118.753968 
L 479.249217 -118.539933 
L 480.681129 -118.580999 
L 480.681129 -121.2774 
L 480.681129 -121.2774 
L 479.249217 -121.80323 
L 477.817305 -121.767332 
L 476.385393 -121.865949 
L 474.953481 -121.865949 
L 473.521569 -121.865949 
L 472.089657 -121.998155 
L 470.657745 -122.087385 
L 469.225833 -122.041026 
L 467.793921 -122.490931 
L 466.362009 -122.453235 
L 464.930097 -122.054767 
L 463.498185 -122.070831 
L 462.066273 -130.359454 
L 460.634361 -134.94895 
L 459.202449 -135.127077 
L 457.770537 -134.307342 
L 456.338625 -134.359204 
L 454.906713 -134.516005 
L 453.474801 -134.988406 
L 452.042889 -135.221368 
L 450.610977 -135.650447 
L 449.179065 -133.400898 
L 447.747153 -133.449008 
L 446.315241 -133.468844 
L 444.883329 -133.774915 
L 443.451417 -134.075649 
L 442.019505 -134.237436 
L 440.587593 -134.386518 
L 439.155681 -134.403778 
L 437.723769 -134.541394 
L 436.291857 -134.719818 
L 434.859945 -135.10647 
L 433.428033 -135.290849 
L 431.996121 -135.405939 
L 430.564209 -135.544155 
L 429.132296 -135.685404 
L 427.700384 -135.989384 
L 426.268472 -136.422215 
L 424.83656 -136.693317 
L 423.404648 -136.789694 
L 421.972736 -136.791192 
L 420.540824 -137.041478 
L 419.108912 -137.422326 
L 417.677 -137.665056 
L 416.245088 -137.796718 
L 414.813176 -136.026002 
L 413.381264 -135.268298 
L 411.949352 -135.260269 
L 410.51744 -135.565267 
L 409.085528 -135.627023 
L 407.653616 -135.977675 
L 406.221704 -136.323126 
L 404.789792 -136.911015 
L 403.35788 -136.89553 
L 401.925968 -137.322353 
L 400.494056 -137.283218 
L 399.062144 -137.568812 
L 397.630232 -138.073362 
L 396.19832 -138.461524 
L 394.766408 -138.681991 
L 393.334496 -139.1129 
L 391.902584 -139.106575 
L 390.470672 -138.97571 
L 389.03876 -139.550295 
L 387.606848 -139.943123 
L 386.174936 -140.234215 
L 384.743024 -140.729853 
L 383.311112 -141.019579 
L 381.8792 -141.100772 
L 380.447288 -141.48319 
L 379.015376 -141.833611 
L 377.583464 -142.069647 
L 376.151552 -142.615268 
L 374.71964 -142.817947 
L 373.287728 -143.075526 
L 371.855816 -144.40868 
L 370.423904 -144.5569 
L 368.991992 -145.554626 
L 367.56008 -146.434137 
L 366.128168 -146.562245 
L 364.696256 -146.76811 
L 363.264344 -146.947188 
L 361.832432 -147.012792 
L 360.40052 -148.372408 
L 358.968608 -149.010655 
L 357.536696 -149.088081 
L 356.104784 -149.369109 
L 354.672872 -150.273909 
L 353.24096 -150.432664 
L 351.809048 -151.116501 
L 350.377136 -151.674664 
L 348.945224 -151.739127 
L 347.513312 -152.016551 
L 346.0814 -152.493247 
L 344.649488 -152.573674 
L 343.217576 -153.178414 
L 341.785664 -153.960439 
L 340.353752 -154.141918 
L 338.92184 -153.743644 
L 337.489928 -153.85697 
L 336.058016 -154.391513 
L 334.626104 -154.928356 
L 333.194192 -156.156778 
L 331.76228 -156.333224 
L 330.330368 -156.472166 
L 328.898456 -157.035069 
L 327.466544 -157.080455 
L 326.034632 -157.658522 
L 324.60272 -158.362273 
L 323.170808 -158.642576 
L 321.738896 -159.023716 
L 320.306984 -158.952925 
L 318.875072 -159.146808 
L 317.44316 -171.903295 
L 316.011248 -172.838632 
L 314.579336 -173.154847 
L 313.147424 -173.422881 
L 311.715512 -173.652412 
L 310.2836 -173.740066 
L 308.851688 -174.201139 
L 307.419776 -174.377234 
L 305.987864 -174.774853 
L 304.555952 -175.022878 
L 303.12404 -175.251988 
L 301.692128 -175.420498 
L 300.260216 -176.08007 
L 298.828304 -176.338074 
L 297.396392 -176.507041 
L 295.96448 -176.830732 
L 294.532568 -177.132452 
L 293.100656 -177.335519 
L 291.668744 -177.695943 
L 290.236832 -177.754614 
L 288.80492 -177.89289 
L 287.373008 -178.256966 
L 285.941096 -178.876648 
L 284.509184 -179.24596 
L 283.077272 -179.489706 
L 281.64536 -179.555184 
L 280.213448 -179.569833 
L 278.781536 -180.059185 
L 277.349624 -180.614146 
L 275.917712 -180.833762 
L 274.4858 -181.262642 
L 273.053888 -181.16227 
L 271.621976 -181.115904 
L 270.190064 -181.402017 
L 268.758152 -182.053655 
L 267.32624 -182.487601 
L 265.894328 -182.504363 
L 264.462416 -182.900515 
L 263.030504 -182.660505 
L 261.598592 -182.672568 
L 260.16668 -183.879904 
L 258.734768 -184.102557 
L 257.302856 -184.556343 
L 255.870944 -184.950573 
L 254.439032 -185.045559 
L 253.00712 -185.059517 
L 251.575208 -186.115524 
L 250.143296 -186.591175 
L 248.711384 -187.377297 
L 247.279472 -187.964103 
L 245.84756 -188.188498 
L 244.415648 -188.424368 
L 242.983736 -188.832202 
L 241.551824 -189.028042 
L 240.119912 -190.116371 
L 238.688 -190.135044 
L 237.256088 -191.496537 
L 235.824176 -193.506755 
L 234.392264 -193.657658 
L 232.960352 -194.605435 
L 231.52844 -195.124438 
L 230.096528 -195.277806 
L 228.664616 -195.515133 
L 227.232704 -195.425258 
L 225.800792 -197.590532 
L 224.36888 -197.915147 
L 222.936968 -198.708088 
L 221.505056 -199.152939 
L 220.073144 -199.195273 
L 218.641232 -199.311499 
L 217.20932 -198.950452 
L 215.777407 -199.928228 
L 214.345495 -200.349165 
L 212.913583 -201.106447 
L 211.481671 -201.255077 
L 210.049759 -201.564492 
L 208.617847 -201.844036 
L 207.185935 -201.550153 
L 205.754023 -202.262078 
L 204.322111 -202.588982 
L 202.890199 -202.665462 
L 201.458287 -204.548689 
L 200.026375 -204.863527 
L 198.594463 -206.059331 
L 197.162551 -206.16403 
L 195.730639 -206.215124 
L 194.298727 -205.846843 
L 192.866815 -207.178574 
L 191.434903 -208.249717 
L 190.002991 -208.5938 
L 188.571079 -209.558485 
L 187.139167 -209.977354 
L 185.707255 -209.401594 
L 184.275343 -210.993317 
L 182.843431 -211.02808 
L 181.411519 -211.637031 
L 179.979607 -212.902432 
L 178.547695 -214.093766 
L 177.115783 -215.448667 
L 175.683871 -216.171821 
L 174.251959 -216.045944 
L 172.820047 -216.622913 
L 171.388135 -217.943826 
L 169.956223 -218.978964 
L 168.524311 -219.963795 
L 167.092399 -221.259227 
L 165.660487 -220.531217 
L 164.228575 -221.795225 
L 162.796663 -222.025192 
L 161.364751 -223.897543 
L 159.932839 -225.096353 
L 158.500927 -226.19113 
L 157.069015 -226.402566 
L 155.637103 -227.890677 
L 154.205191 -228.775427 
L 152.773279 -230.571337 
L 151.341367 -232.505587 
L 149.909455 -233.934222 
L 148.477543 -233.784382 
L 147.045631 -236.914689 
L 145.613719 -238.072298 
L 144.181807 -239.46743 
L 142.749895 -242.480426 
L 141.317983 -244.486334 
L 139.886071 -244.762572 
L 138.454159 -247.769507 
L 137.022247 -248.842151 
L 135.590335 -251.132741 
L 134.158423 -253.197588 
L 132.726511 -253.677584 
L 131.294599 -255.131899 
L 129.862687 -257.443176 
L 128.430775 -266.695053 
L 126.998863 -267.306475 
L 125.566951 -271.976122 
L 124.135039 -273.899655 
L 122.703127 -275.307577 
L 121.271215 -275.387296 
L 119.839303 -278.22529 
L 118.407391 -279.059426 
L 116.975479 -283.078842 
L 115.543567 -284.225249 
L 114.111655 -284.380024 
L 112.679743 -287.33034 
L 111.247831 -289.462022 
L 109.815919 -291.699784 
L 108.384007 -291.945809 
L 106.952095 -294.148634 
L 105.520183 -294.507906 
L 104.088271 -295.623302 
L 102.656359 -296.348431 
L 101.224447 -302.15226 
L 99.792535 -302.811163 
L 98.360623 -305.293122 
L 96.928711 -310.470326 
L 95.496799 -313.196033 
L 94.064887 -306.225693 
L 92.632975 -307.971419 
z
" id="m6d9caf1200" style="stroke:#55a868;stroke-opacity:0.2;stroke-width:1.5;"/>
    </defs>
    <g clip-path="url(#p4e2c38ad54)">
     <use style="fill:#55a868;fill-opacity:0.2;stroke:#55a868;stroke-opacity:0.2;stroke-width:1.5;" x="0" xlink:href="#m6d9caf1200" y="347.034258"/>
    </g>
   </g>
   <g id="line2d_16">
    <path clip-path="url(#p4e2c38ad54)" d="M 92.632975 42.36762 
L 94.064887 47.587165 
L 95.496799 56.704309 
L 96.928711 64.178669 
L 98.360623 69.590593 
L 99.792535 69.590593 
L 101.224447 70.385339 
L 102.656359 71.036924 
L 104.088271 71.529831 
L 105.520183 71.575844 
L 106.952095 75.218572 
L 108.384007 75.343242 
L 109.815919 81.19897 
L 111.247831 81.974452 
L 112.679743 84.308228 
L 114.111655 85.30377 
L 115.543567 87.121693 
L 116.975479 87.961645 
L 118.407391 88.573948 
L 119.839303 92.409014 
L 121.271215 94.956025 
L 122.703127 96.17822 
L 124.135039 98.026808 
L 125.566951 99.656072 
L 126.998863 99.656072 
L 128.430775 105.395435 
L 129.862687 105.816178 
L 131.294599 105.816178 
L 132.726511 108.200883 
L 134.158423 109.192704 
L 135.590335 111.497868 
L 137.022247 115.582032 
L 138.454159 115.987004 
L 139.886071 117.287021 
L 141.317983 117.670701 
L 142.749895 118.597469 
L 144.181807 121.260864 
L 145.613719 121.95105 
L 147.045631 122.052108 
L 149.909455 122.99595 
L 151.341367 125.920992 
L 152.773279 127.269698 
L 154.205191 127.445306 
L 155.637103 129.172206 
L 157.069015 133.461888 
L 158.500927 134.906737 
L 159.932839 135.865148 
L 161.364751 137.208767 
L 162.796663 139.94172 
L 164.228575 141.041213 
L 165.660487 141.760052 
L 168.524311 145.472028 
L 169.956223 147.811664 
L 171.388135 148.29501 
L 172.820047 150.365553 
L 174.251959 151.111782 
L 175.683871 151.622325 
L 177.115783 153.476691 
L 178.547695 157.082635 
L 179.979607 159.633966 
L 181.411519 160.023923 
L 182.843431 162.829873 
L 184.275343 163.515152 
L 185.707255 165.226998 
L 187.139167 166.123627 
L 188.571079 166.842945 
L 190.002991 168.103099 
L 191.434903 168.713313 
L 192.866815 169.050228 
L 194.298727 170.816998 
L 197.162551 173.158817 
L 198.594463 174.010935 
L 200.026375 174.511155 
L 201.458287 175.514272 
L 202.890199 176.043133 
L 204.322111 178.232473 
L 205.754023 180.108192 
L 207.185935 180.52059 
L 208.617847 180.685731 
L 210.049759 181.35939 
L 211.481671 181.561647 
L 212.913583 182.913914 
L 214.345495 186.224087 
L 215.777407 186.978089 
L 217.20932 188.022911 
L 218.641232 188.728878 
L 220.073144 189.018646 
L 221.505056 189.822186 
L 222.936968 190.787329 
L 224.36888 192.657336 
L 225.800792 193.974014 
L 227.232704 194.487906 
L 228.664616 195.125746 
L 230.096528 199.6078 
L 232.960352 200.037517 
L 235.824176 201.015255 
L 237.256088 201.972821 
L 238.688 203.191831 
L 240.119912 203.360533 
L 241.551824 203.703276 
L 242.983736 204.211306 
L 244.415648 204.581952 
L 245.84756 205.274309 
L 247.279472 206.59358 
L 248.711384 206.761244 
L 250.143296 207.414563 
L 251.575208 207.755017 
L 253.00712 207.773399 
L 254.439032 208.847185 
L 255.870944 210.236658 
L 257.302856 210.355254 
L 258.734768 210.765986 
L 263.030504 212.633558 
L 264.462416 213.089598 
L 265.894328 213.126849 
L 267.32624 213.585092 
L 268.758152 215.146955 
L 270.190064 215.247094 
L 271.621976 215.88721 
L 273.053888 215.958876 
L 274.4858 216.144371 
L 275.917712 216.530039 
L 277.349624 217.27668 
L 278.781536 218.985938 
L 280.213448 219.235205 
L 281.64536 219.235205 
L 285.941096 220.077206 
L 287.373008 220.959125 
L 288.80492 221.14953 
L 290.236832 221.793873 
L 291.668744 222.187431 
L 293.100656 222.404862 
L 294.532568 222.93638 
L 295.96448 223.701931 
L 298.828304 224.30496 
L 301.692128 225.187449 
L 303.12404 225.416323 
L 304.555952 226.095582 
L 305.987864 226.219467 
L 307.419776 226.766603 
L 308.851688 227.027205 
L 310.2836 228.195665 
L 311.715512 228.404024 
L 314.579336 229.224575 
L 316.011248 229.774786 
L 317.44316 230.15939 
L 318.875072 231.205382 
L 320.306984 231.264554 
L 321.738896 231.511554 
L 327.466544 233.140774 
L 328.898456 233.534241 
L 330.330368 233.756547 
L 331.76228 234.804979 
L 334.626104 235.224524 
L 336.058016 235.481147 
L 338.92184 235.685605 
L 340.353752 236.309394 
L 341.785664 236.639065 
L 343.217576 236.799878 
L 346.0814 237.570417 
L 347.513312 237.623256 
L 348.945224 238.045564 
L 356.104784 239.103896 
L 358.968608 239.626758 
L 363.264344 240.103812 
L 364.696256 240.274618 
L 366.128168 240.631948 
L 367.56008 241.467544 
L 370.423904 241.638754 
L 373.287728 241.982331 
L 374.71964 242.06937 
L 377.583464 242.823696 
L 379.015376 242.919998 
L 380.447288 243.267031 
L 383.311112 243.408365 
L 384.743024 243.503409 
L 386.174936 243.819421 
L 387.606848 244.324546 
L 389.03876 244.596874 
L 390.470672 245.256545 
L 394.766408 245.572276 
L 396.19832 245.632 
L 397.630232 246.201486 
L 399.062144 246.552218 
L 400.494056 246.744881 
L 401.925968 244.142816 
L 403.35788 244.360876 
L 404.789792 244.360876 
L 409.085528 244.957019 
L 410.51744 244.987889 
L 413.381264 245.675095 
L 414.813176 241.767462 
L 424.83656 243.042155 
L 426.268472 236.954183 
L 427.700384 229.296737 
L 429.132296 231.559377 
L 431.996121 231.69662 
L 433.428033 232.165547 
L 437.723769 232.672502 
L 439.155681 232.716094 
L 440.587593 233.033445 
L 443.451417 233.356889 
L 444.883329 233.631139 
L 450.610977 234.283115 
L 452.042889 221.818077 
L 453.474801 220.861139 
L 456.338625 221.104769 
L 459.202449 221.614197 
L 460.634361 222.036365 
L 463.498185 222.036365 
L 464.930097 222.254229 
L 466.362009 222.254229 
L 467.793921 222.608882 
L 469.225833 223.084165 
L 474.953481 223.158787 
L 476.385393 223.291125 
L 477.817305 224.115813 
L 479.249217 222.739356 
L 484.976865 222.809823 
L 486.408777 223.636709 
L 489.272601 223.636709 
L 489.272601 223.636709 
" style="fill:none;stroke:#4c72b0;stroke-linecap:round;stroke-width:2.25;"/>
   </g>
   <g id="line2d_17">
    <path clip-path="url(#p4e2c38ad54)" d="M 92.632975 40.893418 
L 94.064887 48.090271 
L 96.928711 56.412547 
L 98.360623 64.679268 
L 99.792535 67.726219 
L 101.224447 69.129061 
L 102.656359 74.116816 
L 104.088271 75.821021 
L 105.520183 76.265072 
L 106.952095 77.285907 
L 109.815919 80.203599 
L 111.247831 84.607056 
L 112.679743 84.607056 
L 114.111655 88.991213 
L 115.543567 91.268585 
L 116.975479 93.269843 
L 118.407391 96.437534 
L 119.839303 96.769678 
L 121.271215 99.101075 
L 122.703127 103.563367 
L 124.135039 104.734154 
L 125.566951 106.228237 
L 126.998863 108.424307 
L 128.430775 109.908808 
L 129.862687 111.613413 
L 132.726511 115.36381 
L 134.158423 116.010836 
L 138.454159 119.311617 
L 139.886071 121.16162 
L 141.317983 121.81211 
L 142.749895 122.94815 
L 145.613719 123.925286 
L 147.045631 124.58915 
L 148.477543 125.838121 
L 149.909455 126.239236 
L 151.341367 126.833126 
L 152.773279 127.718407 
L 154.205191 129.615903 
L 155.637103 130.632538 
L 157.069015 131.930653 
L 158.500927 133.023204 
L 159.932839 133.6917 
L 161.364751 134.484174 
L 162.796663 136.21536 
L 164.228575 137.606429 
L 165.660487 138.274806 
L 167.092399 139.523112 
L 168.524311 141.555226 
L 169.956223 142.143706 
L 171.388135 143.970571 
L 172.820047 144.836606 
L 174.251959 145.266971 
L 175.683871 146.437463 
L 177.115783 146.962783 
L 178.547695 148.394421 
L 179.979607 148.706422 
L 181.411519 150.04044 
L 182.843431 150.515886 
L 184.275343 151.939766 
L 187.139167 153.860746 
L 188.571079 154.298434 
L 190.002991 157.834312 
L 191.434903 158.159411 
L 192.866815 159.262451 
L 194.298727 159.896922 
L 195.730639 160.29714 
L 198.594463 162.645611 
L 200.026375 163.132828 
L 201.458287 164.537208 
L 202.890199 165.627219 
L 204.322111 167.646874 
L 205.754023 168.526103 
L 207.185935 168.863022 
L 208.617847 170.340881 
L 210.049759 170.802544 
L 211.481671 171.794988 
L 212.913583 173.027842 
L 214.345495 175.076338 
L 215.777407 175.772912 
L 217.20932 176.15093 
L 218.641232 177.113756 
L 222.936968 181.085341 
L 224.36888 181.429331 
L 225.800792 182.211417 
L 227.232704 183.143207 
L 228.664616 183.446806 
L 230.096528 185.289106 
L 231.52844 185.321653 
L 232.960352 186.835853 
L 234.392264 187.982067 
L 235.824176 188.722414 
L 237.256088 189.122269 
L 240.119912 190.770193 
L 242.983736 191.776815 
L 244.415648 195.340067 
L 245.84756 195.553233 
L 247.279472 196.327065 
L 248.711384 196.794837 
L 250.143296 197.110414 
L 251.575208 198.43277 
L 253.00712 198.583333 
L 254.439032 199.578894 
L 255.870944 200.247715 
L 257.302856 200.527172 
L 258.734768 201.093554 
L 260.16668 201.894273 
L 261.598592 201.933136 
L 263.030504 202.466497 
L 264.462416 204.022109 
L 265.894328 204.350597 
L 267.32624 204.82949 
L 268.758152 205.136766 
L 270.190064 205.221531 
L 271.621976 205.687795 
L 273.053888 207.200697 
L 274.4858 207.559646 
L 275.917712 207.748692 
L 277.349624 208.372348 
L 278.781536 209.539031 
L 280.213448 210.11237 
L 281.64536 210.878125 
L 284.509184 211.304704 
L 285.941096 211.566446 
L 287.373008 212.237431 
L 288.80492 213.360321 
L 291.668744 214.017253 
L 294.532568 214.335115 
L 295.96448 215.102908 
L 297.396392 216.429691 
L 298.828304 217.026939 
L 300.260216 217.106676 
L 301.692128 217.422668 
L 303.12404 220.846171 
L 305.987864 221.548329 
L 307.419776 222.155224 
L 308.851688 222.892712 
L 313.147424 223.328886 
L 316.011248 224.180771 
L 317.44316 224.135681 
L 320.306984 224.906535 
L 321.738896 224.94506 
L 323.170808 225.867667 
L 326.034632 227.196397 
L 330.330368 228.268854 
L 331.76228 229.128728 
L 334.626104 229.69671 
L 337.489928 230.391415 
L 338.92184 230.544262 
L 341.785664 231.463646 
L 343.217576 231.83082 
L 344.649488 232.022368 
L 346.0814 237.128439 
L 347.513312 237.330339 
L 348.945224 235.166719 
L 350.377136 235.802924 
L 354.672872 236.570362 
L 356.104784 237.783518 
L 357.536696 237.949512 
L 358.968608 238.238344 
L 360.40052 236.639267 
L 361.832432 229.027945 
L 363.264344 215.854477 
L 364.696256 217.234028 
L 367.56008 217.234028 
L 368.991992 218.4407 
L 370.423904 218.4407 
L 371.855816 216.946433 
L 374.71964 217.040539 
L 376.151552 217.040539 
L 377.583464 218.274953 
L 383.311112 218.34697 
L 384.743024 218.481169 
L 386.174936 219.736172 
L 389.03876 219.736172 
L 390.470672 219.962918 
L 393.334496 219.962918 
L 394.766408 220.754739 
L 396.19832 221.078251 
L 397.630232 221.078251 
L 397.630232 221.078251 
" style="fill:none;stroke:#dd8452;stroke-linecap:round;stroke-width:2.25;"/>
   </g>
   <g id="line2d_18">
    <path clip-path="url(#p4e2c38ad54)" d="M 92.632975 40.926311 
L 94.064887 50.509283 
L 95.496799 63.71114 
L 96.928711 65.429147 
L 98.360623 69.80953 
L 99.792535 71.819134 
L 101.224447 73.381431 
L 102.656359 77.082799 
L 104.088271 77.563691 
L 105.520183 78.568458 
L 106.952095 78.77423 
L 108.384007 80.356544 
L 109.815919 80.529801 
L 112.679743 84.212089 
L 114.111655 86.451924 
L 115.543567 87.225303 
L 116.975479 90.91911 
L 118.407391 93.203137 
L 119.839303 93.777437 
L 121.271215 96.477355 
L 122.703127 96.53621 
L 124.135039 97.734459 
L 125.566951 99.502227 
L 126.998863 102.843111 
L 128.430775 103.435425 
L 129.862687 109.400828 
L 131.294599 111.021002 
L 132.726511 112.388575 
L 134.158423 112.668387 
L 135.590335 113.823742 
L 137.022247 115.819675 
L 138.454159 117.314813 
L 139.886071 119.376219 
L 141.317983 119.765927 
L 142.749895 120.822325 
L 144.181807 122.891656 
L 145.613719 124.328939 
L 147.045631 125.585887 
L 148.477543 128.267436 
L 151.341367 129.645213 
L 154.205191 132.532509 
L 155.637103 133.745637 
L 157.069015 134.796749 
L 158.500927 135.043586 
L 159.932839 135.921486 
L 161.364751 136.526349 
L 162.796663 138.069679 
L 164.228575 138.698582 
L 167.092399 140.669012 
L 168.524311 141.657924 
L 169.956223 142.153376 
L 171.388135 143.273728 
L 172.820047 144.609001 
L 174.251959 145.387687 
L 175.683871 145.857122 
L 179.979607 149.639569 
L 181.411519 150.509277 
L 182.843431 151.202883 
L 184.275343 151.256438 
L 185.707255 152.38005 
L 187.139167 153.087971 
L 188.571079 154.183446 
L 190.002991 154.838814 
L 191.434903 155.207771 
L 192.866815 155.921157 
L 194.298727 156.955522 
L 195.730639 157.267221 
L 200.026375 159.908366 
L 201.458287 160.268344 
L 202.890199 161.519554 
L 204.322111 161.64322 
L 205.754023 162.155684 
L 207.185935 162.989242 
L 208.617847 164.168816 
L 210.049759 164.743051 
L 212.913583 165.247325 
L 214.345495 166.159706 
L 215.777407 166.565777 
L 217.20932 167.553671 
L 218.641232 168.211774 
L 221.505056 168.331063 
L 222.936968 168.921747 
L 224.36888 169.996899 
L 225.800792 170.403417 
L 227.232704 172.156183 
L 228.664616 172.921206 
L 232.960352 173.712101 
L 234.392264 174.448914 
L 235.824176 175.430661 
L 238.688 178.52922 
L 240.119912 178.551665 
L 242.983736 180.300165 
L 244.415648 180.79863 
L 245.84756 181.890186 
L 247.279472 182.140019 
L 248.711384 182.886098 
L 250.143296 183.491841 
L 251.575208 183.800588 
L 254.439032 185.532352 
L 255.870944 185.634485 
L 257.302856 186.303664 
L 260.16668 186.832489 
L 261.598592 188.219303 
L 264.462416 189.037897 
L 265.894328 190.159149 
L 268.758152 190.612806 
L 270.190064 191.24998 
L 271.621976 193.182587 
L 273.053888 193.307012 
L 274.4858 194.115602 
L 275.917712 194.300204 
L 277.349624 194.649384 
L 278.781536 195.520739 
L 280.213448 196.013379 
L 281.64536 196.959976 
L 283.077272 197.013138 
L 287.373008 198.143212 
L 288.80492 198.549028 
L 290.236832 199.415806 
L 291.668744 199.472602 
L 293.100656 200.033589 
L 294.532568 200.135732 
L 297.396392 200.637299 
L 301.692128 201.827769 
L 304.555952 202.13142 
L 305.987864 202.388501 
L 310.2836 203.604903 
L 314.579336 204.432919 
L 316.011248 204.683963 
L 317.44316 205.209724 
L 318.875072 210.233096 
L 320.306984 210.371293 
L 323.170808 210.997059 
L 324.60272 211.273803 
L 326.034632 212.117273 
L 327.466544 212.521455 
L 330.330368 213.097747 
L 331.76228 213.416926 
L 333.194192 213.613281 
L 334.626104 214.525966 
L 336.058016 214.99507 
L 337.489928 215.309374 
L 338.92184 215.38345 
L 340.353752 216.157949 
L 341.785664 216.270398 
L 343.217576 216.926289 
L 344.649488 217.347793 
L 346.0814 217.40989 
L 350.377136 218.334734 
L 353.24096 219.324938 
L 354.672872 219.498052 
L 356.104784 220.212103 
L 357.536696 220.431673 
L 358.968608 220.484791 
L 361.832432 222.761735 
L 366.128168 223.219476 
L 367.56008 223.304254 
L 368.991992 223.926243 
L 370.423904 224.764163 
L 371.855816 225.016897 
L 373.287728 227.553989 
L 376.151552 227.872822 
L 377.583464 228.197924 
L 379.015376 228.320394 
L 380.447288 228.568209 
L 381.8792 229.057893 
L 383.311112 230.310536 
L 386.174936 230.898809 
L 389.03876 231.250015 
L 393.334496 232.31446 
L 394.766408 232.644203 
L 396.19832 232.750043 
L 401.925968 234.130476 
L 403.35788 234.477238 
L 404.789792 234.496122 
L 406.221704 234.993039 
L 407.653616 235.1785 
L 409.085528 235.652129 
L 413.381264 236.042493 
L 414.813176 231.627296 
L 416.245088 227.92893 
L 419.108912 228.166632 
L 420.540824 228.378777 
L 421.972736 228.914009 
L 426.268472 229.631164 
L 427.700384 230.082868 
L 429.132296 230.267794 
L 430.564209 230.863138 
L 431.996121 231.108345 
L 433.428033 231.185052 
L 436.291857 231.696273 
L 440.587593 232.113891 
L 442.019505 232.686979 
L 443.451417 227.432776 
L 446.315241 227.793216 
L 449.179065 227.850799 
L 450.610977 228.710255 
L 452.042889 229.028833 
L 457.770537 229.557575 
L 459.202449 230.57615 
L 460.634361 230.704971 
L 462.066273 235.119099 
L 463.498185 226.024945 
L 464.930097 226.057179 
L 466.362009 225.845533 
L 469.225833 226.122895 
L 472.089657 226.347617 
L 473.521569 226.72458 
L 477.817305 226.773608 
L 479.249217 226.862676 
L 480.681129 227.105058 
L 482.113041 226.682373 
L 487.840689 226.940166 
L 492.136425 227.714041 
L 493.568337 227.714041 
L 495.000249 227.88838 
L 496.432161 227.88838 
L 496.432161 227.88838 
" style="fill:none;stroke:#55a868;stroke-linecap:round;stroke-width:2.25;"/>
   </g>
   <g id="line2d_19"/>
   <g id="line2d_20"/>
   <g id="line2d_21"/>
   <g id="line2d_22"/>
   <g id="patch_3">
    <path d="M 72.443016 293.28368 
L 72.443016 21.48368 
" style="fill:none;stroke:#ffffff;stroke-linecap:square;stroke-linejoin:miter;stroke-width:1.875;"/>
   </g>
   <g id="patch_4">
    <path d="M 516.62212 293.28368 
L 516.62212 21.48368 
" style="fill:none;stroke:#ffffff;stroke-linecap:square;stroke-linejoin:miter;stroke-width:1.875;"/>
   </g>
   <g id="patch_5">
    <path d="M 72.443016 293.28368 
L 516.62212 293.28368 
" style="fill:none;stroke:#ffffff;stroke-linecap:square;stroke-linejoin:miter;stroke-width:1.875;"/>
   </g>
   <g id="patch_6">
    <path d="M 72.443016 21.48368 
L 516.62212 21.48368 
" style="fill:none;stroke:#ffffff;stroke-linecap:square;stroke-linejoin:miter;stroke-width:1.875;"/>
   </g>
   <g id="legend_1">
    <g id="patch_7">
     <path d="M 309.02144 120.551742 
L 506.22712 120.551742 
Q 509.19712 120.551742 509.19712 117.581742 
L 509.19712 31.87868 
Q 509.19712 28.90868 506.22712 28.90868 
L 309.02144 28.90868 
Q 306.05144 28.90868 306.05144 31.87868 
L 306.05144 117.581742 
Q 306.05144 120.551742 309.02144 120.551742 
z
" style="fill:#eaeaf2;opacity:0.8;stroke:#cccccc;stroke-linejoin:miter;stroke-width:1.5;"/>
    </g>
    <g id="line2d_23">
     <path d="M 311.99144 40.934859 
L 341.69144 40.934859 
" style="fill:none;"/>
    </g>
    <g id="line2d_24"/>
    <g id="text_19">
     <!-- Random search size -->
     <defs>
      <path d="M 44.390625 34.1875 
Q 47.5625 33.109375 50.5625 29.59375 
Q 53.5625 26.078125 56.59375 19.921875 
L 66.609375 0 
L 56 0 
L 46.6875 18.703125 
Q 43.0625 26.03125 39.671875 28.421875 
Q 36.28125 30.8125 30.421875 30.8125 
L 19.671875 30.8125 
L 19.671875 0 
L 9.8125 0 
L 9.8125 72.90625 
L 32.078125 72.90625 
Q 44.578125 72.90625 50.734375 67.671875 
Q 56.890625 62.453125 56.890625 51.90625 
Q 56.890625 45.015625 53.6875 40.46875 
Q 50.484375 35.9375 44.390625 34.1875 
z
M 19.671875 64.796875 
L 19.671875 38.921875 
L 32.078125 38.921875 
Q 39.203125 38.921875 42.84375 42.21875 
Q 46.484375 45.515625 46.484375 51.90625 
Q 46.484375 58.296875 42.84375 61.546875 
Q 39.203125 64.796875 32.078125 64.796875 
z
" id="DejaVuSans-82"/>
      <path d="M 45.40625 46.390625 
L 45.40625 75.984375 
L 54.390625 75.984375 
L 54.390625 0 
L 45.40625 0 
L 45.40625 8.203125 
Q 42.578125 3.328125 38.25 0.953125 
Q 33.9375 -1.421875 27.875 -1.421875 
Q 17.96875 -1.421875 11.734375 6.484375 
Q 5.515625 14.40625 5.515625 27.296875 
Q 5.515625 40.1875 11.734375 48.09375 
Q 17.96875 56 27.875 56 
Q 33.9375 56 38.25 53.625 
Q 42.578125 51.265625 45.40625 46.390625 
z
M 14.796875 27.296875 
Q 14.796875 17.390625 18.875 11.75 
Q 22.953125 6.109375 30.078125 6.109375 
Q 37.203125 6.109375 41.296875 11.75 
Q 45.40625 17.390625 45.40625 27.296875 
Q 45.40625 37.203125 41.296875 42.84375 
Q 37.203125 48.484375 30.078125 48.484375 
Q 22.953125 48.484375 18.875 42.84375 
Q 14.796875 37.203125 14.796875 27.296875 
z
" id="DejaVuSans-100"/>
      <path d="M 52 44.1875 
Q 55.375 50.25 60.0625 53.125 
Q 64.75 56 71.09375 56 
Q 79.640625 56 84.28125 50.015625 
Q 88.921875 44.046875 88.921875 33.015625 
L 88.921875 0 
L 79.890625 0 
L 79.890625 32.71875 
Q 79.890625 40.578125 77.09375 44.375 
Q 74.3125 48.1875 68.609375 48.1875 
Q 61.625 48.1875 57.5625 43.546875 
Q 53.515625 38.921875 53.515625 30.90625 
L 53.515625 0 
L 44.484375 0 
L 44.484375 32.71875 
Q 44.484375 40.625 41.703125 44.40625 
Q 38.921875 48.1875 33.109375 48.1875 
Q 26.21875 48.1875 22.15625 43.53125 
Q 18.109375 38.875 18.109375 30.90625 
L 18.109375 0 
L 9.078125 0 
L 9.078125 54.6875 
L 18.109375 54.6875 
L 18.109375 46.1875 
Q 21.1875 51.21875 25.484375 53.609375 
Q 29.78125 56 35.6875 56 
Q 41.65625 56 45.828125 52.96875 
Q 50 49.953125 52 44.1875 
z
" id="DejaVuSans-109"/>
      <path id="DejaVuSans-32"/>
      <path d="M 44.28125 53.078125 
L 44.28125 44.578125 
Q 40.484375 46.53125 36.375 47.5 
Q 32.28125 48.484375 27.875 48.484375 
Q 21.1875 48.484375 17.84375 46.4375 
Q 14.5 44.390625 14.5 40.28125 
Q 14.5 37.15625 16.890625 35.375 
Q 19.28125 33.59375 26.515625 31.984375 
L 29.59375 31.296875 
Q 39.15625 29.25 43.1875 25.515625 
Q 47.21875 21.78125 47.21875 15.09375 
Q 47.21875 7.46875 41.1875 3.015625 
Q 35.15625 -1.421875 24.609375 -1.421875 
Q 20.21875 -1.421875 15.453125 -0.5625 
Q 10.6875 0.296875 5.421875 2 
L 5.421875 11.28125 
Q 10.40625 8.6875 15.234375 7.390625 
Q 20.0625 6.109375 24.8125 6.109375 
Q 31.15625 6.109375 34.5625 8.28125 
Q 37.984375 10.453125 37.984375 14.40625 
Q 37.984375 18.0625 35.515625 20.015625 
Q 33.0625 21.96875 24.703125 23.78125 
L 21.578125 24.515625 
Q 13.234375 26.265625 9.515625 29.90625 
Q 5.8125 33.546875 5.8125 39.890625 
Q 5.8125 47.609375 11.28125 51.796875 
Q 16.75 56 26.8125 56 
Q 31.78125 56 36.171875 55.265625 
Q 40.578125 54.546875 44.28125 53.078125 
z
" id="DejaVuSans-115"/>
      <path d="M 54.890625 33.015625 
L 54.890625 0 
L 45.90625 0 
L 45.90625 32.71875 
Q 45.90625 40.484375 42.875 44.328125 
Q 39.84375 48.1875 33.796875 48.1875 
Q 26.515625 48.1875 22.3125 43.546875 
Q 18.109375 38.921875 18.109375 30.90625 
L 18.109375 0 
L 9.078125 0 
L 9.078125 75.984375 
L 18.109375 75.984375 
L 18.109375 46.1875 
Q 21.34375 51.125 25.703125 53.5625 
Q 30.078125 56 35.796875 56 
Q 45.21875 56 50.046875 50.171875 
Q 54.890625 44.34375 54.890625 33.015625 
z
" id="DejaVuSans-104"/>
      <path d="M 5.515625 54.6875 
L 48.1875 54.6875 
L 48.1875 46.484375 
L 14.40625 7.171875 
L 48.1875 7.171875 
L 48.1875 0 
L 4.296875 0 
L 4.296875 8.203125 
L 38.09375 47.515625 
L 5.515625 47.515625 
z
" id="DejaVuSans-122"/>
     </defs>
     <g style="fill:#262626;" transform="translate(353.57144 46.132359)scale(0.1485 -0.1485)">
      <use xlink:href="#DejaVuSans-82"/>
      <use x="69.451172" xlink:href="#DejaVuSans-97"/>
      <use x="130.730469" xlink:href="#DejaVuSans-110"/>
      <use x="194.109375" xlink:href="#DejaVuSans-100"/>
      <use x="257.585938" xlink:href="#DejaVuSans-111"/>
      <use x="318.767578" xlink:href="#DejaVuSans-109"/>
      <use x="416.179688" xlink:href="#DejaVuSans-32"/>
      <use x="447.966797" xlink:href="#DejaVuSans-115"/>
      <use x="500.066406" xlink:href="#DejaVuSans-101"/>
      <use x="561.589844" xlink:href="#DejaVuSans-97"/>
      <use x="622.869141" xlink:href="#DejaVuSans-114"/>
      <use x="663.951172" xlink:href="#DejaVuSans-99"/>
      <use x="718.931641" xlink:href="#DejaVuSans-104"/>
      <use x="782.310547" xlink:href="#DejaVuSans-32"/>
      <use x="814.097656" xlink:href="#DejaVuSans-115"/>
      <use x="866.197266" xlink:href="#DejaVuSans-105"/>
      <use x="893.980469" xlink:href="#DejaVuSans-122"/>
      <use x="946.470703" xlink:href="#DejaVuSans-101"/>
     </g>
    </g>
    <g id="line2d_25">
     <path d="M 311.99144 62.731875 
L 341.69144 62.731875 
" style="fill:none;stroke:#4c72b0;stroke-linecap:round;stroke-width:2.25;"/>
    </g>
    <g id="line2d_26"/>
    <g id="text_20">
     <!-- 50 -->
     <g style="fill:#262626;" transform="translate(353.57144 67.929375)scale(0.1485 -0.1485)">
      <use xlink:href="#DejaVuSans-53"/>
      <use x="63.623047" xlink:href="#DejaVuSans-48"/>
     </g>
    </g>
    <g id="line2d_27">
     <path d="M 311.99144 84.528891 
L 341.69144 84.528891 
" style="fill:none;stroke:#dd8452;stroke-linecap:round;stroke-width:2.25;"/>
    </g>
    <g id="line2d_28"/>
    <g id="text_21">
     <!-- 96 -->
     <defs>
      <path d="M 33.015625 40.375 
Q 26.375 40.375 22.484375 35.828125 
Q 18.609375 31.296875 18.609375 23.390625 
Q 18.609375 15.53125 22.484375 10.953125 
Q 26.375 6.390625 33.015625 6.390625 
Q 39.65625 6.390625 43.53125 10.953125 
Q 47.40625 15.53125 47.40625 23.390625 
Q 47.40625 31.296875 43.53125 35.828125 
Q 39.65625 40.375 33.015625 40.375 
z
M 52.59375 71.296875 
L 52.59375 62.3125 
Q 48.875 64.0625 45.09375 64.984375 
Q 41.3125 65.921875 37.59375 65.921875 
Q 27.828125 65.921875 22.671875 59.328125 
Q 17.53125 52.734375 16.796875 39.40625 
Q 19.671875 43.65625 24.015625 45.921875 
Q 28.375 48.1875 33.59375 48.1875 
Q 44.578125 48.1875 50.953125 41.515625 
Q 57.328125 34.859375 57.328125 23.390625 
Q 57.328125 12.15625 50.6875 5.359375 
Q 44.046875 -1.421875 33.015625 -1.421875 
Q 20.359375 -1.421875 13.671875 8.265625 
Q 6.984375 17.96875 6.984375 36.375 
Q 6.984375 53.65625 15.1875 63.9375 
Q 23.390625 74.21875 37.203125 74.21875 
Q 40.921875 74.21875 44.703125 73.484375 
Q 48.484375 72.75 52.59375 71.296875 
z
" id="DejaVuSans-54"/>
     </defs>
     <g style="fill:#262626;" transform="translate(353.57144 89.726391)scale(0.1485 -0.1485)">
      <use xlink:href="#DejaVuSans-57"/>
      <use x="63.623047" xlink:href="#DejaVuSans-54"/>
     </g>
    </g>
    <g id="line2d_29">
     <path d="M 311.99144 106.325906 
L 341.69144 106.325906 
" style="fill:none;stroke:#55a868;stroke-linecap:round;stroke-width:2.25;"/>
    </g>
    <g id="line2d_30"/>
    <g id="text_22">
     <!-- 200 -->
     <g style="fill:#262626;" transform="translate(353.57144 111.523406)scale(0.1485 -0.1485)">
      <use xlink:href="#DejaVuSans-50"/>
      <use x="63.623047" xlink:href="#DejaVuSans-48"/>
      <use x="127.246094" xlink:href="#DejaVuSans-48"/>
     </g>
    </g>
   </g>
  </g>
  <g id="axes_2">
   <g id="patch_8">
    <path d="M 521.063911 293.28368 
L 965.243016 293.28368 
L 965.243016 21.48368 
L 521.063911 21.48368 
z
" style="fill:#eaeaf2;"/>
   </g>
   <g id="matplotlib.axis_3">
    <g id="xtick_7">
     <g id="text_23">
      <!-- 50.0 -->
      <g style="fill:#262626;" transform="translate(578.561535 317.067359)scale(0.1485 -0.1485)">
       <use xlink:href="#DejaVuSans-53"/>
       <use x="63.623047" xlink:href="#DejaVuSans-48"/>
       <use x="127.246094" xlink:href="#DejaVuSans-46"/>
       <use x="159.033203" xlink:href="#DejaVuSans-48"/>
      </g>
     </g>
    </g>
    <g id="xtick_8">
     <g id="text_24">
      <!-- 96.0 -->
      <g style="fill:#262626;" transform="translate(726.621237 317.067359)scale(0.1485 -0.1485)">
       <use xlink:href="#DejaVuSans-57"/>
       <use x="63.623047" xlink:href="#DejaVuSans-54"/>
       <use x="127.246094" xlink:href="#DejaVuSans-46"/>
       <use x="159.033203" xlink:href="#DejaVuSans-48"/>
      </g>
     </g>
    </g>
    <g id="xtick_9">
     <g id="text_25">
      <!-- 200.0 -->
      <g style="fill:#262626;" transform="translate(869.956782 317.067359)scale(0.1485 -0.1485)">
       <use xlink:href="#DejaVuSans-50"/>
       <use x="63.623047" xlink:href="#DejaVuSans-48"/>
       <use x="127.246094" xlink:href="#DejaVuSans-48"/>
       <use x="190.869141" xlink:href="#DejaVuSans-46"/>
       <use x="222.65625" xlink:href="#DejaVuSans-48"/>
      </g>
     </g>
    </g>
    <g id="text_26">
     <!-- Random search size -->
     <g style="fill:#262626;" transform="translate(661.506729 336.465164)scale(0.162 -0.162)">
      <use xlink:href="#DejaVuSans-82"/>
      <use x="69.451172" xlink:href="#DejaVuSans-97"/>
      <use x="130.730469" xlink:href="#DejaVuSans-110"/>
      <use x="194.109375" xlink:href="#DejaVuSans-100"/>
      <use x="257.585938" xlink:href="#DejaVuSans-111"/>
      <use x="318.767578" xlink:href="#DejaVuSans-109"/>
      <use x="416.179688" xlink:href="#DejaVuSans-32"/>
      <use x="447.966797" xlink:href="#DejaVuSans-115"/>
      <use x="500.066406" xlink:href="#DejaVuSans-101"/>
      <use x="561.589844" xlink:href="#DejaVuSans-97"/>
      <use x="622.869141" xlink:href="#DejaVuSans-114"/>
      <use x="663.951172" xlink:href="#DejaVuSans-99"/>
      <use x="718.931641" xlink:href="#DejaVuSans-104"/>
      <use x="782.310547" xlink:href="#DejaVuSans-32"/>
      <use x="814.097656" xlink:href="#DejaVuSans-115"/>
      <use x="866.197266" xlink:href="#DejaVuSans-105"/>
      <use x="893.980469" xlink:href="#DejaVuSans-122"/>
      <use x="946.470703" xlink:href="#DejaVuSans-101"/>
     </g>
    </g>
   </g>
   <g id="matplotlib.axis_4">
    <g id="ytick_10">
     <g id="line2d_31">
      <path clip-path="url(#pa579fc6043)" d="M 521.063911 290.219333 
L 965.243016 290.219333 
" style="fill:none;stroke:#ffffff;stroke-linecap:round;stroke-width:1.5;"/>
     </g>
    </g>
    <g id="ytick_11">
     <g id="line2d_32">
      <path clip-path="url(#pa579fc6043)" d="M 521.063911 259.76856 
L 965.243016 259.76856 
" style="fill:none;stroke:#ffffff;stroke-linecap:round;stroke-width:1.5;"/>
     </g>
    </g>
    <g id="ytick_12">
     <g id="line2d_33">
      <path clip-path="url(#pa579fc6043)" d="M 521.063911 229.317787 
L 965.243016 229.317787 
" style="fill:none;stroke:#ffffff;stroke-linecap:round;stroke-width:1.5;"/>
     </g>
    </g>
    <g id="ytick_13">
     <g id="line2d_34">
      <path clip-path="url(#pa579fc6043)" d="M 521.063911 198.867014 
L 965.243016 198.867014 
" style="fill:none;stroke:#ffffff;stroke-linecap:round;stroke-width:1.5;"/>
     </g>
    </g>
    <g id="ytick_14">
     <g id="line2d_35">
      <path clip-path="url(#pa579fc6043)" d="M 521.063911 168.416242 
L 965.243016 168.416242 
" style="fill:none;stroke:#ffffff;stroke-linecap:round;stroke-width:1.5;"/>
     </g>
    </g>
    <g id="ytick_15">
     <g id="line2d_36">
      <path clip-path="url(#pa579fc6043)" d="M 521.063911 137.965469 
L 965.243016 137.965469 
" style="fill:none;stroke:#ffffff;stroke-linecap:round;stroke-width:1.5;"/>
     </g>
    </g>
    <g id="ytick_16">
     <g id="line2d_37">
      <path clip-path="url(#pa579fc6043)" d="M 521.063911 107.514696 
L 965.243016 107.514696 
" style="fill:none;stroke:#ffffff;stroke-linecap:round;stroke-width:1.5;"/>
     </g>
    </g>
    <g id="ytick_17">
     <g id="line2d_38">
      <path clip-path="url(#pa579fc6043)" d="M 521.063911 77.063923 
L 965.243016 77.063923 
" style="fill:none;stroke:#ffffff;stroke-linecap:round;stroke-width:1.5;"/>
     </g>
    </g>
    <g id="ytick_18">
     <g id="line2d_39">
      <path clip-path="url(#pa579fc6043)" d="M 521.063911 46.61315 
L 965.243016 46.61315 
" style="fill:none;stroke:#ffffff;stroke-linecap:round;stroke-width:1.5;"/>
     </g>
    </g>
   </g>
   <g id="patch_9">
    <path clip-path="url(#pa579fc6043)" d="M 535.869881 274.015178 
L 654.317642 274.015178 
L 654.317642 223.825438 
L 535.869881 223.825438 
L 535.869881 274.015178 
z
" style="fill:#5875a4;stroke:#4c4c4c;stroke-linejoin:miter;stroke-width:2.25;"/>
   </g>
   <g id="patch_10">
    <path clip-path="url(#pa579fc6043)" d="M 683.929583 251.692803 
L 802.377344 251.692803 
L 802.377344 219.949371 
L 683.929583 219.949371 
L 683.929583 251.692803 
z
" style="fill:#cc8963;stroke:#4c4c4c;stroke-linejoin:miter;stroke-width:2.25;"/>
   </g>
   <g id="patch_11">
    <path clip-path="url(#pa579fc6043)" d="M 831.989284 262.755464 
L 950.437045 262.755464 
L 950.437045 227.576207 
L 831.989284 227.576207 
L 831.989284 262.755464 
z
" style="fill:#5f9e6e;stroke:#4c4c4c;stroke-linejoin:miter;stroke-width:2.25;"/>
   </g>
   <g id="line2d_40">
    <path clip-path="url(#pa579fc6043)" d="M 595.093762 274.015178 
L 595.093762 280.929134 
" style="fill:none;stroke:#4c4c4c;stroke-linecap:round;stroke-width:2.25;"/>
   </g>
   <g id="line2d_41">
    <path clip-path="url(#pa579fc6043)" d="M 595.093762 223.825438 
L 595.093762 221.046608 
" style="fill:none;stroke:#4c4c4c;stroke-linecap:round;stroke-width:2.25;"/>
   </g>
   <g id="line2d_42">
    <path clip-path="url(#pa579fc6043)" d="M 565.481822 280.929134 
L 624.705702 280.929134 
" style="fill:none;stroke:#4c4c4c;stroke-linecap:round;stroke-width:2.25;"/>
   </g>
   <g id="line2d_43">
    <path clip-path="url(#pa579fc6043)" d="M 565.481822 221.046608 
L 624.705702 221.046608 
" style="fill:none;stroke:#4c4c4c;stroke-linecap:round;stroke-width:2.25;"/>
   </g>
   <g id="line2d_44"/>
   <g id="line2d_45">
    <path clip-path="url(#pa579fc6043)" d="M 743.153463 251.692803 
L 743.153463 270.45507 
" style="fill:none;stroke:#4c4c4c;stroke-linecap:round;stroke-width:2.25;"/>
   </g>
   <g id="line2d_46">
    <path clip-path="url(#pa579fc6043)" d="M 743.153463 219.949371 
L 743.153463 198.566934 
" style="fill:none;stroke:#4c4c4c;stroke-linecap:round;stroke-width:2.25;"/>
   </g>
   <g id="line2d_47">
    <path clip-path="url(#pa579fc6043)" d="M 713.541523 270.45507 
L 772.765404 270.45507 
" style="fill:none;stroke:#4c4c4c;stroke-linecap:round;stroke-width:2.25;"/>
   </g>
   <g id="line2d_48">
    <path clip-path="url(#pa579fc6043)" d="M 713.541523 198.566934 
L 772.765404 198.566934 
" style="fill:none;stroke:#4c4c4c;stroke-linecap:round;stroke-width:2.25;"/>
   </g>
   <g id="line2d_49"/>
   <g id="line2d_50">
    <path clip-path="url(#pa579fc6043)" d="M 891.213165 262.755464 
L 891.213165 276.137658 
" style="fill:none;stroke:#4c4c4c;stroke-linecap:round;stroke-width:2.25;"/>
   </g>
   <g id="line2d_51">
    <path clip-path="url(#pa579fc6043)" d="M 891.213165 227.576207 
L 891.213165 213.970412 
" style="fill:none;stroke:#4c4c4c;stroke-linecap:round;stroke-width:2.25;"/>
   </g>
   <g id="line2d_52">
    <path clip-path="url(#pa579fc6043)" d="M 861.601225 276.137658 
L 920.825105 276.137658 
" style="fill:none;stroke:#4c4c4c;stroke-linecap:round;stroke-width:2.25;"/>
   </g>
   <g id="line2d_53">
    <path clip-path="url(#pa579fc6043)" d="M 861.601225 213.970412 
L 920.825105 213.970412 
" style="fill:none;stroke:#4c4c4c;stroke-linecap:round;stroke-width:2.25;"/>
   </g>
   <g id="line2d_54"/>
   <g id="line2d_55">
    <path clip-path="url(#pa579fc6043)" d="M 535.869881 270.556857 
L 654.317642 270.556857 
" style="fill:none;stroke:#4c4c4c;stroke-linecap:round;stroke-width:2.25;"/>
   </g>
   <g id="line2d_56">
    <path clip-path="url(#pa579fc6043)" d="M 683.929583 228.947648 
L 802.377344 228.947648 
" style="fill:none;stroke:#4c4c4c;stroke-linecap:round;stroke-width:2.25;"/>
   </g>
   <g id="line2d_57">
    <path clip-path="url(#pa579fc6043)" d="M 831.989284 228.05838 
L 950.437045 228.05838 
" style="fill:none;stroke:#4c4c4c;stroke-linecap:round;stroke-width:2.25;"/>
   </g>
   <g id="patch_12">
    <path d="M 521.063911 293.28368 
L 521.063911 21.48368 
" style="fill:none;stroke:#ffffff;stroke-linecap:square;stroke-linejoin:miter;stroke-width:1.875;"/>
   </g>
   <g id="patch_13">
    <path d="M 965.243016 293.28368 
L 965.243016 21.48368 
" style="fill:none;stroke:#ffffff;stroke-linecap:square;stroke-linejoin:miter;stroke-width:1.875;"/>
   </g>
   <g id="patch_14">
    <path d="M 521.063911 293.28368 
L 965.243016 293.28368 
" style="fill:none;stroke:#ffffff;stroke-linecap:square;stroke-linejoin:miter;stroke-width:1.875;"/>
   </g>
   <g id="patch_15">
    <path d="M 521.063911 21.48368 
L 965.243016 21.48368 
" style="fill:none;stroke:#ffffff;stroke-linecap:square;stroke-linejoin:miter;stroke-width:1.875;"/>
   </g>
  </g>
 </g>
 <defs>
  <clipPath id="p4e2c38ad54">
   <rect height="271.8" width="444.179104" x="72.443016" y="21.48368"/>
  </clipPath>
  <clipPath id="pa579fc6043">
   <rect height="271.8" width="444.179104" x="521.063911" y="21.48368"/>
  </clipPath>
 </defs>
</svg>
