<?xml version="1.0" encoding="utf-8" standalone="no"?>
<!DOCTYPE svg PUBLIC "-//W3C//DTD SVG 1.1//EN"
  "http://www.w3.org/Graphics/SVG/1.1/DTD/svg11.dtd">
<!-- Created with matplotlib (https://matplotlib.org/) -->
<svg height="360pt" version="1.1" viewBox="0 0 1152 360" width="1152pt" xmlns="http://www.w3.org/2000/svg" xmlns:xlink="http://www.w3.org/1999/xlink">
 <defs>
  <style type="text/css">
*{stroke-linecap:butt;stroke-linejoin:round;}
  </style>
 </defs>
 <g id="figure_1">
  <g id="patch_1">
   <path d="M 0 360 
L 1152 360 
L 1152 0 
L 0 0 
z
" style="fill:#ffffff;"/>
  </g>
  <g id="axes_1">
   <g id="patch_2">
    <path d="M 144 315 
L 588.179104 315 
L 588.179104 43.2 
L 144 43.2 
z
" style="fill:#eaeaf2;"/>
   </g>
   <g id="matplotlib.axis_1">
    <g id="xtick_1">
     <g id="line2d_1">
      <path clip-path="url(#p8211fe5418)" d="M 164.189959 315 
L 164.189959 43.2 
" style="fill:none;stroke:#ffffff;stroke-linecap:round;stroke-width:1.5;"/>
     </g>
     <g id="text_1">
      <!-- 0 -->
      <defs>
       <path d="M 31.78125 66.40625 
Q 24.171875 66.40625 20.328125 58.90625 
Q 16.5 51.421875 16.5 36.375 
Q 16.5 21.390625 20.328125 13.890625 
Q 24.171875 6.390625 31.78125 6.390625 
Q 39.453125 6.390625 43.28125 13.890625 
Q 47.125 21.390625 47.125 36.375 
Q 47.125 51.421875 43.28125 58.90625 
Q 39.453125 66.40625 31.78125 66.40625 
z
M 31.78125 74.21875 
Q 44.046875 74.21875 50.515625 64.515625 
Q 56.984375 54.828125 56.984375 36.375 
Q 56.984375 17.96875 50.515625 8.265625 
Q 44.046875 -1.421875 31.78125 -1.421875 
Q 19.53125 -1.421875 13.0625 8.265625 
Q 6.59375 17.96875 6.59375 36.375 
Q 6.59375 54.828125 13.0625 64.515625 
Q 19.53125 74.21875 31.78125 74.21875 
z
" id="DejaVuSans-48"/>
      </defs>
      <g style="fill:#262626;" transform="translate(159.465803 338.78368)scale(0.1485 -0.1485)">
       <use xlink:href="#DejaVuSans-48"/>
      </g>
     </g>
    </g>
    <g id="xtick_2">
     <g id="line2d_2">
      <path clip-path="url(#p8211fe5418)" d="M 230.823488 315 
L 230.823488 43.2 
" style="fill:none;stroke:#ffffff;stroke-linecap:round;stroke-width:1.5;"/>
     </g>
     <g id="text_2">
      <!-- 50 -->
      <defs>
       <path d="M 10.796875 72.90625 
L 49.515625 72.90625 
L 49.515625 64.59375 
L 19.828125 64.59375 
L 19.828125 46.734375 
Q 21.96875 47.46875 24.109375 47.828125 
Q 26.265625 48.1875 28.421875 48.1875 
Q 40.625 48.1875 47.75 41.5 
Q 54.890625 34.8125 54.890625 23.390625 
Q 54.890625 11.625 47.5625 5.09375 
Q 40.234375 -1.421875 26.90625 -1.421875 
Q 22.3125 -1.421875 17.546875 -0.640625 
Q 12.796875 0.140625 7.71875 1.703125 
L 7.71875 11.625 
Q 12.109375 9.234375 16.796875 8.0625 
Q 21.484375 6.890625 26.703125 6.890625 
Q 35.15625 6.890625 40.078125 11.328125 
Q 45.015625 15.765625 45.015625 23.390625 
Q 45.015625 31 40.078125 35.4375 
Q 35.15625 39.890625 26.703125 39.890625 
Q 22.75 39.890625 18.8125 39.015625 
Q 14.890625 38.140625 10.796875 36.28125 
z
" id="DejaVuSans-53"/>
      </defs>
      <g style="fill:#262626;" transform="translate(221.375176 338.78368)scale(0.1485 -0.1485)">
       <use xlink:href="#DejaVuSans-53"/>
       <use x="63.623047" xlink:href="#DejaVuSans-48"/>
      </g>
     </g>
    </g>
    <g id="xtick_3">
     <g id="line2d_3">
      <path clip-path="url(#p8211fe5418)" d="M 297.457017 315 
L 297.457017 43.2 
" style="fill:none;stroke:#ffffff;stroke-linecap:round;stroke-width:1.5;"/>
     </g>
     <g id="text_3">
      <!-- 100 -->
      <defs>
       <path d="M 12.40625 8.296875 
L 28.515625 8.296875 
L 28.515625 63.921875 
L 10.984375 60.40625 
L 10.984375 69.390625 
L 28.421875 72.90625 
L 38.28125 72.90625 
L 38.28125 8.296875 
L 54.390625 8.296875 
L 54.390625 0 
L 12.40625 0 
z
" id="DejaVuSans-49"/>
      </defs>
      <g style="fill:#262626;" transform="translate(283.284549 338.78368)scale(0.1485 -0.1485)">
       <use xlink:href="#DejaVuSans-49"/>
       <use x="63.623047" xlink:href="#DejaVuSans-48"/>
       <use x="127.246094" xlink:href="#DejaVuSans-48"/>
      </g>
     </g>
    </g>
    <g id="xtick_4">
     <g id="line2d_4">
      <path clip-path="url(#p8211fe5418)" d="M 364.090546 315 
L 364.090546 43.2 
" style="fill:none;stroke:#ffffff;stroke-linecap:round;stroke-width:1.5;"/>
     </g>
     <g id="text_4">
      <!-- 150 -->
      <g style="fill:#262626;" transform="translate(349.918078 338.78368)scale(0.1485 -0.1485)">
       <use xlink:href="#DejaVuSans-49"/>
       <use x="63.623047" xlink:href="#DejaVuSans-53"/>
       <use x="127.246094" xlink:href="#DejaVuSans-48"/>
      </g>
     </g>
    </g>
    <g id="xtick_5">
     <g id="line2d_5">
      <path clip-path="url(#p8211fe5418)" d="M 430.724075 315 
L 430.724075 43.2 
" style="fill:none;stroke:#ffffff;stroke-linecap:round;stroke-width:1.5;"/>
     </g>
     <g id="text_5">
      <!-- 200 -->
      <defs>
       <path d="M 19.1875 8.296875 
L 53.609375 8.296875 
L 53.609375 0 
L 7.328125 0 
L 7.328125 8.296875 
Q 12.9375 14.109375 22.625 23.890625 
Q 32.328125 33.6875 34.8125 36.53125 
Q 39.546875 41.84375 41.421875 45.53125 
Q 43.3125 49.21875 43.3125 52.78125 
Q 43.3125 58.59375 39.234375 62.25 
Q 35.15625 65.921875 28.609375 65.921875 
Q 23.96875 65.921875 18.8125 64.3125 
Q 13.671875 62.703125 7.8125 59.421875 
L 7.8125 69.390625 
Q 13.765625 71.78125 18.9375 73 
Q 24.125 74.21875 28.421875 74.21875 
Q 39.75 74.21875 46.484375 68.546875 
Q 53.21875 62.890625 53.21875 53.421875 
Q 53.21875 48.921875 51.53125 44.890625 
Q 49.859375 40.875 45.40625 35.40625 
Q 44.1875 33.984375 37.640625 27.21875 
Q 31.109375 20.453125 19.1875 8.296875 
z
" id="DejaVuSans-50"/>
      </defs>
      <g style="fill:#262626;" transform="translate(416.551607 338.78368)scale(0.1485 -0.1485)">
       <use xlink:href="#DejaVuSans-50"/>
       <use x="63.623047" xlink:href="#DejaVuSans-48"/>
       <use x="127.246094" xlink:href="#DejaVuSans-48"/>
      </g>
     </g>
    </g>
    <g id="xtick_6">
     <g id="line2d_6">
      <path clip-path="url(#p8211fe5418)" d="M 497.357604 315 
L 497.357604 43.2 
" style="fill:none;stroke:#ffffff;stroke-linecap:round;stroke-width:1.5;"/>
     </g>
     <g id="text_6">
      <!-- 250 -->
      <g style="fill:#262626;" transform="translate(483.185136 338.78368)scale(0.1485 -0.1485)">
       <use xlink:href="#DejaVuSans-50"/>
       <use x="63.623047" xlink:href="#DejaVuSans-53"/>
       <use x="127.246094" xlink:href="#DejaVuSans-48"/>
      </g>
     </g>
    </g>
    <g id="xtick_7">
     <g id="line2d_7">
      <path clip-path="url(#p8211fe5418)" d="M 563.991133 315 
L 563.991133 43.2 
" style="fill:none;stroke:#ffffff;stroke-linecap:round;stroke-width:1.5;"/>
     </g>
     <g id="text_7">
      <!-- 300 -->
      <defs>
       <path d="M 40.578125 39.3125 
Q 47.65625 37.796875 51.625 33 
Q 55.609375 28.21875 55.609375 21.1875 
Q 55.609375 10.40625 48.1875 4.484375 
Q 40.765625 -1.421875 27.09375 -1.421875 
Q 22.515625 -1.421875 17.65625 -0.515625 
Q 12.796875 0.390625 7.625 2.203125 
L 7.625 11.71875 
Q 11.71875 9.328125 16.59375 8.109375 
Q 21.484375 6.890625 26.8125 6.890625 
Q 36.078125 6.890625 40.9375 10.546875 
Q 45.796875 14.203125 45.796875 21.1875 
Q 45.796875 27.640625 41.28125 31.265625 
Q 36.765625 34.90625 28.71875 34.90625 
L 20.21875 34.90625 
L 20.21875 43.015625 
L 29.109375 43.015625 
Q 36.375 43.015625 40.234375 45.921875 
Q 44.09375 48.828125 44.09375 54.296875 
Q 44.09375 59.90625 40.109375 62.90625 
Q 36.140625 65.921875 28.71875 65.921875 
Q 24.65625 65.921875 20.015625 65.03125 
Q 15.375 64.15625 9.8125 62.3125 
L 9.8125 71.09375 
Q 15.4375 72.65625 20.34375 73.4375 
Q 25.25 74.21875 29.59375 74.21875 
Q 40.828125 74.21875 47.359375 69.109375 
Q 53.90625 64.015625 53.90625 55.328125 
Q 53.90625 49.265625 50.4375 45.09375 
Q 46.96875 40.921875 40.578125 39.3125 
z
" id="DejaVuSans-51"/>
      </defs>
      <g style="fill:#262626;" transform="translate(549.818665 338.78368)scale(0.1485 -0.1485)">
       <use xlink:href="#DejaVuSans-51"/>
       <use x="63.623047" xlink:href="#DejaVuSans-48"/>
       <use x="127.246094" xlink:href="#DejaVuSans-48"/>
      </g>
     </g>
    </g>
    <g id="text_8">
     <!-- iteration -->
     <defs>
      <path d="M 9.421875 54.6875 
L 18.40625 54.6875 
L 18.40625 0 
L 9.421875 0 
z
M 9.421875 75.984375 
L 18.40625 75.984375 
L 18.40625 64.59375 
L 9.421875 64.59375 
z
" id="DejaVuSans-105"/>
      <path d="M 18.3125 70.21875 
L 18.3125 54.6875 
L 36.8125 54.6875 
L 36.8125 47.703125 
L 18.3125 47.703125 
L 18.3125 18.015625 
Q 18.3125 11.328125 20.140625 9.421875 
Q 21.96875 7.515625 27.59375 7.515625 
L 36.8125 7.515625 
L 36.8125 0 
L 27.59375 0 
Q 17.1875 0 13.234375 3.875 
Q 9.28125 7.765625 9.28125 18.015625 
L 9.28125 47.703125 
L 2.6875 47.703125 
L 2.6875 54.6875 
L 9.28125 54.6875 
L 9.28125 70.21875 
z
" id="DejaVuSans-116"/>
      <path d="M 56.203125 29.59375 
L 56.203125 25.203125 
L 14.890625 25.203125 
Q 15.484375 15.921875 20.484375 11.0625 
Q 25.484375 6.203125 34.421875 6.203125 
Q 39.59375 6.203125 44.453125 7.46875 
Q 49.3125 8.734375 54.109375 11.28125 
L 54.109375 2.78125 
Q 49.265625 0.734375 44.1875 -0.34375 
Q 39.109375 -1.421875 33.890625 -1.421875 
Q 20.796875 -1.421875 13.15625 6.1875 
Q 5.515625 13.8125 5.515625 26.8125 
Q 5.515625 40.234375 12.765625 48.109375 
Q 20.015625 56 32.328125 56 
Q 43.359375 56 49.78125 48.890625 
Q 56.203125 41.796875 56.203125 29.59375 
z
M 47.21875 32.234375 
Q 47.125 39.59375 43.09375 43.984375 
Q 39.0625 48.390625 32.421875 48.390625 
Q 24.90625 48.390625 20.390625 44.140625 
Q 15.875 39.890625 15.1875 32.171875 
z
" id="DejaVuSans-101"/>
      <path d="M 41.109375 46.296875 
Q 39.59375 47.171875 37.8125 47.578125 
Q 36.03125 48 33.890625 48 
Q 26.265625 48 22.1875 43.046875 
Q 18.109375 38.09375 18.109375 28.8125 
L 18.109375 0 
L 9.078125 0 
L 9.078125 54.6875 
L 18.109375 54.6875 
L 18.109375 46.1875 
Q 20.953125 51.171875 25.484375 53.578125 
Q 30.03125 56 36.53125 56 
Q 37.453125 56 38.578125 55.875 
Q 39.703125 55.765625 41.0625 55.515625 
z
" id="DejaVuSans-114"/>
      <path d="M 34.28125 27.484375 
Q 23.390625 27.484375 19.1875 25 
Q 14.984375 22.515625 14.984375 16.5 
Q 14.984375 11.71875 18.140625 8.90625 
Q 21.296875 6.109375 26.703125 6.109375 
Q 34.1875 6.109375 38.703125 11.40625 
Q 43.21875 16.703125 43.21875 25.484375 
L 43.21875 27.484375 
z
M 52.203125 31.203125 
L 52.203125 0 
L 43.21875 0 
L 43.21875 8.296875 
Q 40.140625 3.328125 35.546875 0.953125 
Q 30.953125 -1.421875 24.3125 -1.421875 
Q 15.921875 -1.421875 10.953125 3.296875 
Q 6 8.015625 6 15.921875 
Q 6 25.140625 12.171875 29.828125 
Q 18.359375 34.515625 30.609375 34.515625 
L 43.21875 34.515625 
L 43.21875 35.40625 
Q 43.21875 41.609375 39.140625 45 
Q 35.0625 48.390625 27.6875 48.390625 
Q 23 48.390625 18.546875 47.265625 
Q 14.109375 46.140625 10.015625 43.890625 
L 10.015625 52.203125 
Q 14.9375 54.109375 19.578125 55.046875 
Q 24.21875 56 28.609375 56 
Q 40.484375 56 46.34375 49.84375 
Q 52.203125 43.703125 52.203125 31.203125 
z
" id="DejaVuSans-97"/>
      <path d="M 30.609375 48.390625 
Q 23.390625 48.390625 19.1875 42.75 
Q 14.984375 37.109375 14.984375 27.296875 
Q 14.984375 17.484375 19.15625 11.84375 
Q 23.34375 6.203125 30.609375 6.203125 
Q 37.796875 6.203125 41.984375 11.859375 
Q 46.1875 17.53125 46.1875 27.296875 
Q 46.1875 37.015625 41.984375 42.703125 
Q 37.796875 48.390625 30.609375 48.390625 
z
M 30.609375 56 
Q 42.328125 56 49.015625 48.375 
Q 55.71875 40.765625 55.71875 27.296875 
Q 55.71875 13.875 49.015625 6.21875 
Q 42.328125 -1.421875 30.609375 -1.421875 
Q 18.84375 -1.421875 12.171875 6.21875 
Q 5.515625 13.875 5.515625 27.296875 
Q 5.515625 40.765625 12.171875 48.375 
Q 18.84375 56 30.609375 56 
z
" id="DejaVuSans-111"/>
      <path d="M 54.890625 33.015625 
L 54.890625 0 
L 45.90625 0 
L 45.90625 32.71875 
Q 45.90625 40.484375 42.875 44.328125 
Q 39.84375 48.1875 33.796875 48.1875 
Q 26.515625 48.1875 22.3125 43.546875 
Q 18.109375 38.921875 18.109375 30.90625 
L 18.109375 0 
L 9.078125 0 
L 9.078125 54.6875 
L 18.109375 54.6875 
L 18.109375 46.1875 
Q 21.34375 51.125 25.703125 53.5625 
Q 30.078125 56 35.796875 56 
Q 45.21875 56 50.046875 50.171875 
Q 54.890625 44.34375 54.890625 33.015625 
z
" id="DejaVuSans-110"/>
     </defs>
     <g style="fill:#262626;" transform="translate(331.870849 358.181484)scale(0.162 -0.162)">
      <use xlink:href="#DejaVuSans-105"/>
      <use x="27.783203" xlink:href="#DejaVuSans-116"/>
      <use x="66.992188" xlink:href="#DejaVuSans-101"/>
      <use x="128.515625" xlink:href="#DejaVuSans-114"/>
      <use x="169.628906" xlink:href="#DejaVuSans-97"/>
      <use x="230.908203" xlink:href="#DejaVuSans-116"/>
      <use x="270.117188" xlink:href="#DejaVuSans-105"/>
      <use x="297.900391" xlink:href="#DejaVuSans-111"/>
      <use x="359.082031" xlink:href="#DejaVuSans-110"/>
     </g>
    </g>
   </g>
   <g id="matplotlib.axis_2">
    <g id="ytick_1">
     <g id="line2d_8">
      <path clip-path="url(#p8211fe5418)" d="M 144 275.31098 
L 588.179104 275.31098 
" style="fill:none;stroke:#ffffff;stroke-linecap:round;stroke-width:1.5;"/>
     </g>
     <g id="text_9">
      <!-- 1.0 -->
      <defs>
       <path d="M 10.6875 12.40625 
L 21 12.40625 
L 21 0 
L 10.6875 0 
z
" id="DejaVuSans-46"/>
      </defs>
      <g style="fill:#262626;" transform="translate(107.883859 280.95282)scale(0.1485 -0.1485)">
       <use xlink:href="#DejaVuSans-49"/>
       <use x="63.623047" xlink:href="#DejaVuSans-46"/>
       <use x="95.410156" xlink:href="#DejaVuSans-48"/>
      </g>
     </g>
    </g>
    <g id="ytick_2">
     <g id="line2d_9">
      <path clip-path="url(#p8211fe5418)" d="M 144 215.334837 
L 588.179104 215.334837 
" style="fill:none;stroke:#ffffff;stroke-linecap:round;stroke-width:1.5;"/>
     </g>
     <g id="text_10">
      <!-- 1.5 -->
      <g style="fill:#262626;" transform="translate(107.883859 220.976677)scale(0.1485 -0.1485)">
       <use xlink:href="#DejaVuSans-49"/>
       <use x="63.623047" xlink:href="#DejaVuSans-46"/>
       <use x="95.410156" xlink:href="#DejaVuSans-53"/>
      </g>
     </g>
    </g>
    <g id="ytick_3">
     <g id="line2d_10">
      <path clip-path="url(#p8211fe5418)" d="M 144 155.358695 
L 588.179104 155.358695 
" style="fill:none;stroke:#ffffff;stroke-linecap:round;stroke-width:1.5;"/>
     </g>
     <g id="text_11">
      <!-- 2.0 -->
      <g style="fill:#262626;" transform="translate(107.883859 161.000535)scale(0.1485 -0.1485)">
       <use xlink:href="#DejaVuSans-50"/>
       <use x="63.623047" xlink:href="#DejaVuSans-46"/>
       <use x="95.410156" xlink:href="#DejaVuSans-48"/>
      </g>
     </g>
    </g>
    <g id="ytick_4">
     <g id="line2d_11">
      <path clip-path="url(#p8211fe5418)" d="M 144 95.382552 
L 588.179104 95.382552 
" style="fill:none;stroke:#ffffff;stroke-linecap:round;stroke-width:1.5;"/>
     </g>
     <g id="text_12">
      <!-- 2.5 -->
      <g style="fill:#262626;" transform="translate(107.883859 101.024392)scale(0.1485 -0.1485)">
       <use xlink:href="#DejaVuSans-50"/>
       <use x="63.623047" xlink:href="#DejaVuSans-46"/>
       <use x="95.410156" xlink:href="#DejaVuSans-53"/>
      </g>
     </g>
    </g>
    <g id="text_13">
     <!-- objective -->
     <defs>
      <path d="M 48.6875 27.296875 
Q 48.6875 37.203125 44.609375 42.84375 
Q 40.53125 48.484375 33.40625 48.484375 
Q 26.265625 48.484375 22.1875 42.84375 
Q 18.109375 37.203125 18.109375 27.296875 
Q 18.109375 17.390625 22.1875 11.75 
Q 26.265625 6.109375 33.40625 6.109375 
Q 40.53125 6.109375 44.609375 11.75 
Q 48.6875 17.390625 48.6875 27.296875 
z
M 18.109375 46.390625 
Q 20.953125 51.265625 25.265625 53.625 
Q 29.59375 56 35.59375 56 
Q 45.5625 56 51.78125 48.09375 
Q 58.015625 40.1875 58.015625 27.296875 
Q 58.015625 14.40625 51.78125 6.484375 
Q 45.5625 -1.421875 35.59375 -1.421875 
Q 29.59375 -1.421875 25.265625 0.953125 
Q 20.953125 3.328125 18.109375 8.203125 
L 18.109375 0 
L 9.078125 0 
L 9.078125 75.984375 
L 18.109375 75.984375 
z
" id="DejaVuSans-98"/>
      <path d="M 9.421875 54.6875 
L 18.40625 54.6875 
L 18.40625 -0.984375 
Q 18.40625 -11.421875 14.421875 -16.109375 
Q 10.453125 -20.796875 1.609375 -20.796875 
L -1.8125 -20.796875 
L -1.8125 -13.1875 
L 0.59375 -13.1875 
Q 5.71875 -13.1875 7.5625 -10.8125 
Q 9.421875 -8.453125 9.421875 -0.984375 
z
M 9.421875 75.984375 
L 18.40625 75.984375 
L 18.40625 64.59375 
L 9.421875 64.59375 
z
" id="DejaVuSans-106"/>
      <path d="M 48.78125 52.59375 
L 48.78125 44.1875 
Q 44.96875 46.296875 41.140625 47.34375 
Q 37.3125 48.390625 33.40625 48.390625 
Q 24.65625 48.390625 19.8125 42.84375 
Q 14.984375 37.3125 14.984375 27.296875 
Q 14.984375 17.28125 19.8125 11.734375 
Q 24.65625 6.203125 33.40625 6.203125 
Q 37.3125 6.203125 41.140625 7.25 
Q 44.96875 8.296875 48.78125 10.40625 
L 48.78125 2.09375 
Q 45.015625 0.34375 40.984375 -0.53125 
Q 36.96875 -1.421875 32.421875 -1.421875 
Q 20.0625 -1.421875 12.78125 6.34375 
Q 5.515625 14.109375 5.515625 27.296875 
Q 5.515625 40.671875 12.859375 48.328125 
Q 20.21875 56 33.015625 56 
Q 37.15625 56 41.109375 55.140625 
Q 45.0625 54.296875 48.78125 52.59375 
z
" id="DejaVuSans-99"/>
      <path d="M 2.984375 54.6875 
L 12.5 54.6875 
L 29.59375 8.796875 
L 46.6875 54.6875 
L 56.203125 54.6875 
L 35.6875 0 
L 23.484375 0 
z
" id="DejaVuSans-118"/>
     </defs>
     <g style="fill:#262626;" transform="translate(100.514766 216.090422)rotate(-90)scale(0.162 -0.162)">
      <use xlink:href="#DejaVuSans-111"/>
      <use x="61.181641" xlink:href="#DejaVuSans-98"/>
      <use x="124.658203" xlink:href="#DejaVuSans-106"/>
      <use x="152.441406" xlink:href="#DejaVuSans-101"/>
      <use x="213.964844" xlink:href="#DejaVuSans-99"/>
      <use x="268.945312" xlink:href="#DejaVuSans-116"/>
      <use x="308.154297" xlink:href="#DejaVuSans-105"/>
      <use x="335.9375" xlink:href="#DejaVuSans-118"/>
      <use x="395.117188" xlink:href="#DejaVuSans-101"/>
     </g>
    </g>
    <g id="text_14">
     <!-- 1e9 -->
     <defs>
      <path d="M 10.984375 1.515625 
L 10.984375 10.5 
Q 14.703125 8.734375 18.5 7.8125 
Q 22.3125 6.890625 25.984375 6.890625 
Q 35.75 6.890625 40.890625 13.453125 
Q 46.046875 20.015625 46.78125 33.40625 
Q 43.953125 29.203125 39.59375 26.953125 
Q 35.25 24.703125 29.984375 24.703125 
Q 19.046875 24.703125 12.671875 31.3125 
Q 6.296875 37.9375 6.296875 49.421875 
Q 6.296875 60.640625 12.9375 67.421875 
Q 19.578125 74.21875 30.609375 74.21875 
Q 43.265625 74.21875 49.921875 64.515625 
Q 56.59375 54.828125 56.59375 36.375 
Q 56.59375 19.140625 48.40625 8.859375 
Q 40.234375 -1.421875 26.421875 -1.421875 
Q 22.703125 -1.421875 18.890625 -0.6875 
Q 15.09375 0.046875 10.984375 1.515625 
z
M 30.609375 32.421875 
Q 37.25 32.421875 41.125 36.953125 
Q 45.015625 41.5 45.015625 49.421875 
Q 45.015625 57.28125 41.125 61.84375 
Q 37.25 66.40625 30.609375 66.40625 
Q 23.96875 66.40625 20.09375 61.84375 
Q 16.21875 57.28125 16.21875 49.421875 
Q 16.21875 41.5 20.09375 36.953125 
Q 23.96875 32.421875 30.609375 32.421875 
z
" id="DejaVuSans-57"/>
     </defs>
     <g style="fill:#262626;" transform="translate(144 40.2)scale(0.1485 -0.1485)">
      <use xlink:href="#DejaVuSans-49"/>
      <use x="63.623047" xlink:href="#DejaVuSans-101"/>
      <use x="125.146484" xlink:href="#DejaVuSans-57"/>
     </g>
    </g>
   </g>
   <g id="PolyCollection_1">
    <defs>
     <path d="M 164.189959 -302.737652 
L 164.189959 -297.739027 
L 165.52263 -286.363061 
L 166.8553 -283.164471 
L 168.187971 -277.657481 
L 169.520642 -263.297889 
L 170.853312 -260.395081 
L 172.185983 -260.06705 
L 173.518653 -258.668879 
L 174.851324 -257.97018 
L 176.183995 -257.233775 
L 177.516665 -255.500601 
L 178.849336 -253.497154 
L 180.182006 -252.245912 
L 181.514677 -246.84374 
L 182.847347 -246.84374 
L 184.180018 -241.674361 
L 185.512689 -240.176734 
L 186.845359 -238.908152 
L 188.17803 -234.725319 
L 189.5107 -234.384452 
L 190.843371 -231.344511 
L 192.176041 -231.167424 
L 193.508712 -231.228146 
L 194.841383 -229.466138 
L 196.174053 -226.394941 
L 197.506724 -223.803239 
L 198.839394 -220.560681 
L 200.172065 -219.188227 
L 201.504736 -218.422486 
L 202.837406 -217.893238 
L 204.170077 -216.704434 
L 205.502747 -215.48001 
L 206.835418 -213.804746 
L 208.168088 -212.677234 
L 209.500759 -212.535891 
L 210.83343 -211.682647 
L 212.1661 -210.363597 
L 213.498771 -209.447523 
L 214.831441 -208.535678 
L 216.164112 -206.735603 
L 217.496783 -206.736164 
L 218.829453 -206.440697 
L 220.162124 -205.081209 
L 221.494794 -204.120915 
L 222.827465 -202.610674 
L 224.160135 -200.774185 
L 225.492806 -200.181464 
L 226.825477 -199.21964 
L 228.158147 -198.60856 
L 229.490818 -197.532679 
L 230.823488 -195.539121 
L 232.156159 -194.679099 
L 233.488829 -193.843373 
L 234.8215 -190.907125 
L 236.154171 -190.347368 
L 237.486841 -188.642545 
L 238.819512 -187.561629 
L 240.152182 -187.420313 
L 241.484853 -186.004947 
L 242.817524 -185.43379 
L 244.150194 -183.747182 
L 245.482865 -183.401039 
L 246.815535 -181.827268 
L 248.148206 -181.645648 
L 249.480876 -179.547061 
L 250.813547 -178.420669 
L 252.146218 -177.478939 
L 253.478888 -176.834791 
L 254.811559 -177.048703 
L 256.144229 -176.954679 
L 257.4769 -175.35151 
L 258.809571 -174.176989 
L 260.142241 -173.85373 
L 261.474912 -172.574864 
L 262.807582 -170.674209 
L 264.140253 -170.89718 
L 265.472923 -168.656454 
L 266.805594 -166.50541 
L 268.138265 -166.903703 
L 269.470935 -166.313988 
L 270.803606 -165.882464 
L 272.136276 -165.176452 
L 273.468947 -164.5121 
L 274.801617 -163.561895 
L 276.134288 -161.28686 
L 277.466959 -159.286231 
L 278.799629 -158.063815 
L 280.1323 -157.773625 
L 281.46497 -156.338275 
L 282.797641 -153.596754 
L 284.130312 -152.817956 
L 285.462982 -150.504227 
L 286.795653 -150.127565 
L 288.128323 -148.857411 
L 289.460994 -147.84601 
L 290.793664 -147.480208 
L 292.126335 -144.629282 
L 293.459006 -144.642984 
L 294.791676 -141.023004 
L 296.124347 -140.106996 
L 297.457017 -140.042555 
L 298.789688 -139.548938 
L 300.122359 -138.512452 
L 301.455029 -136.49371 
L 302.7877 -135.573087 
L 304.12037 -134.990407 
L 305.453041 -128.14179 
L 306.785711 -128.162255 
L 308.118382 -127.292162 
L 309.451053 -126.876688 
L 310.783723 -126.488989 
L 312.116394 -124.777276 
L 313.449064 -124.71251 
L 314.781735 -122.949327 
L 316.114405 -122.507711 
L 317.447076 -122.380588 
L 318.779747 -121.641498 
L 320.112417 -120.595687 
L 321.445088 -120.588068 
L 322.777758 -119.925671 
L 324.110429 -118.531115 
L 325.4431 -118.081496 
L 326.77577 -117.34986 
L 328.108441 -116.933513 
L 329.441111 -116.902341 
L 330.773782 -115.972774 
L 332.106452 -115.147625 
L 333.439123 -114.769356 
L 334.771794 -114.806374 
L 336.104464 -113.922819 
L 337.437135 -111.764552 
L 338.769805 -111.257235 
L 340.102476 -110.259563 
L 341.435146 -110.074556 
L 342.767817 -109.876451 
L 344.100488 -109.80723 
L 345.433158 -108.635652 
L 346.765829 -106.985864 
L 348.098499 -106.636112 
L 349.43117 -106.398556 
L 350.763841 -106.400994 
L 352.096511 -106.45495 
L 353.429182 -104.914783 
L 354.761852 -103.819087 
L 356.094523 -103.185758 
L 357.427193 -103.134838 
L 358.759864 -102.809643 
L 360.092535 -98.847446 
L 361.425205 -98.237516 
L 362.757876 -98.276372 
L 364.090546 -97.639165 
L 365.423217 -96.831145 
L 366.755888 -96.543661 
L 368.088558 -96.547569 
L 369.421229 -96.56681 
L 370.753899 -96.461748 
L 372.08657 -96.234229 
L 373.41924 -94.361519 
L 374.751911 -93.943875 
L 376.084582 -93.583025 
L 377.417252 -93.555642 
L 378.749923 -92.189073 
L 380.082593 -91.842652 
L 381.415264 -90.765737 
L 382.747934 -90.136182 
L 384.080605 -89.775544 
L 385.413276 -89.503051 
L 386.745946 -88.144067 
L 388.078617 -88.093751 
L 389.411287 -87.830949 
L 390.743958 -87.561641 
L 392.076629 -87.14476 
L 393.409299 -86.90579 
L 394.74197 -86.391179 
L 396.07464 -86.127536 
L 397.407311 -85.799474 
L 398.739981 -85.749381 
L 400.072652 -82.115095 
L 401.405323 -81.672183 
L 402.737993 -82.505232 
L 404.070664 -82.19665 
L 405.403334 -81.992092 
L 406.736005 -81.845736 
L 408.068676 -81.727162 
L 409.401346 -79.620163 
L 410.734017 -79.338786 
L 412.066687 -79.194486 
L 413.399358 -78.28659 
L 414.732028 -87.631183 
L 416.064699 -125.010975 
L 417.39737 -124.120626 
L 418.73004 -124.120626 
L 420.062711 -124.120626 
L 421.395381 -123.287737 
L 422.728052 -123.287737 
L 422.728052 -127.490064 
L 422.728052 -127.490064 
L 421.395381 -127.490064 
L 420.062711 -129.033849 
L 418.73004 -129.033849 
L 417.39737 -129.033849 
L 416.064699 -130.860676 
L 414.732028 -142.293876 
L 413.399358 -136.647133 
L 412.066687 -132.589681 
L 410.734017 -133.014266 
L 409.401346 -133.059832 
L 408.068676 -133.342277 
L 406.736005 -133.366451 
L 405.403334 -134.013905 
L 404.070664 -134.384343 
L 402.737993 -135.328837 
L 401.405323 -131.900399 
L 400.072652 -131.855152 
L 398.739981 -138.277832 
L 397.407311 -138.605014 
L 396.07464 -139.000142 
L 394.74197 -139.551892 
L 393.409299 -140.032715 
L 392.076629 -140.094794 
L 390.743958 -140.390021 
L 389.411287 -140.776903 
L 388.078617 -140.964297 
L 386.745946 -141.582489 
L 385.413276 -141.917121 
L 384.080605 -142.396091 
L 382.747934 -142.639526 
L 381.415264 -142.766756 
L 380.082593 -143.100059 
L 378.749923 -143.9605 
L 377.417252 -144.411106 
L 376.084582 -144.459603 
L 374.751911 -144.759564 
L 373.41924 -145.199391 
L 372.08657 -143.237871 
L 370.753899 -143.955409 
L 369.421229 -144.583171 
L 368.088558 -144.681261 
L 366.755888 -145.147958 
L 365.423217 -145.17793 
L 364.090546 -145.822473 
L 362.757876 -146.380612 
L 361.425205 -147.188349 
L 360.092535 -147.192515 
L 358.759864 -149.973283 
L 357.427193 -150.27047 
L 356.094523 -150.376599 
L 354.761852 -150.919618 
L 353.429182 -152.437167 
L 352.096511 -152.409251 
L 350.763841 -152.791991 
L 349.43117 -153.09171 
L 348.098499 -153.428722 
L 346.765829 -153.798302 
L 345.433158 -154.360169 
L 344.100488 -154.510169 
L 342.767817 -154.956477 
L 341.435146 -155.224353 
L 340.102476 -155.413561 
L 338.769805 -155.924126 
L 337.437135 -156.546064 
L 336.104464 -156.685707 
L 334.771794 -157.030512 
L 333.439123 -157.439876 
L 332.106452 -157.768597 
L 330.773782 -159.923274 
L 329.441111 -159.912065 
L 328.108441 -160.047849 
L 326.77577 -160.236714 
L 325.4431 -160.448311 
L 324.110429 -160.645686 
L 322.777758 -162.315078 
L 321.445088 -162.703193 
L 320.112417 -162.772121 
L 318.779747 -163.303414 
L 317.447076 -163.679875 
L 316.114405 -164.103172 
L 314.781735 -164.978874 
L 313.449064 -165.176557 
L 312.116394 -165.408341 
L 310.783723 -166.301154 
L 309.451053 -166.535018 
L 308.118382 -167.040872 
L 306.785711 -167.694926 
L 305.453041 -168.135247 
L 304.12037 -168.304846 
L 302.7877 -168.623868 
L 301.455029 -168.784194 
L 300.122359 -168.360127 
L 298.789688 -168.974734 
L 297.457017 -169.268675 
L 296.124347 -170.66243 
L 294.791676 -172.004015 
L 293.459006 -171.366418 
L 292.126335 -171.444225 
L 290.793664 -172.221912 
L 289.460994 -172.454081 
L 288.128323 -173.277943 
L 286.795653 -173.548194 
L 285.462982 -173.849059 
L 284.130312 -173.814888 
L 282.797641 -175.894924 
L 281.46497 -175.837483 
L 280.1323 -176.298524 
L 278.799629 -176.752882 
L 277.466959 -176.902444 
L 276.134288 -178.936554 
L 274.801617 -179.08976 
L 273.468947 -180.094283 
L 272.136276 -180.339226 
L 270.803606 -182.54402 
L 269.470935 -182.776096 
L 268.138265 -183.918118 
L 266.805594 -188.294345 
L 265.472923 -188.290196 
L 264.140253 -188.815551 
L 262.807582 -189.99815 
L 261.474912 -190.35895 
L 260.142241 -191.444199 
L 258.809571 -191.909214 
L 257.4769 -191.984354 
L 256.144229 -192.553745 
L 254.811559 -193.100037 
L 253.478888 -200.27825 
L 252.146218 -200.496177 
L 250.813547 -201.359211 
L 249.480876 -202.211636 
L 248.148206 -202.917536 
L 246.815535 -203.67236 
L 245.482865 -204.726085 
L 244.150194 -204.994461 
L 242.817524 -206.127621 
L 241.484853 -206.59114 
L 240.152182 -207.481188 
L 238.819512 -208.187521 
L 237.486841 -208.812357 
L 236.154171 -210.705745 
L 234.8215 -211.305064 
L 233.488829 -212.371287 
L 232.156159 -213.994238 
L 230.823488 -214.450658 
L 229.490818 -215.196962 
L 228.158147 -217.530844 
L 226.825477 -218.480627 
L 225.492806 -218.835481 
L 224.160135 -220.394659 
L 222.827465 -221.114949 
L 221.494794 -221.607083 
L 220.162124 -224.384116 
L 218.829453 -224.768286 
L 217.496783 -225.64255 
L 216.164112 -226.433151 
L 214.831441 -227.093061 
L 213.498771 -227.48877 
L 212.1661 -227.517449 
L 210.83343 -227.178222 
L 209.500759 -228.562535 
L 208.168088 -229.702404 
L 206.835418 -232.218675 
L 205.502747 -232.709869 
L 204.170077 -233.692652 
L 202.837406 -234.631435 
L 201.504736 -235.376575 
L 200.172065 -238.215717 
L 198.839394 -240.625199 
L 197.506724 -240.740047 
L 196.174053 -241.072233 
L 194.841383 -242.326437 
L 193.508712 -243.50719 
L 192.176041 -245.873905 
L 190.843371 -254.485794 
L 189.5107 -256.037794 
L 188.17803 -256.351122 
L 186.845359 -258.407404 
L 185.512689 -261.08052 
L 184.180018 -264.068428 
L 182.847347 -267.534127 
L 181.514677 -267.534127 
L 180.182006 -270.805047 
L 178.849336 -272.390324 
L 177.516665 -273.297073 
L 176.183995 -273.574546 
L 174.851324 -273.712748 
L 173.518653 -276.370668 
L 172.185983 -284.796429 
L 170.853312 -287.23145 
L 169.520642 -290.329945 
L 168.187971 -292.25257 
L 166.8553 -294.862268 
L 165.52263 -299.938625 
L 164.189959 -302.737652 
z
" id="m740c20ed6f" style="stroke:#4c72b0;stroke-opacity:0.2;stroke-width:1.5;"/>
    </defs>
    <g clip-path="url(#p8211fe5418)">
     <use style="fill:#4c72b0;fill-opacity:0.2;stroke:#4c72b0;stroke-opacity:0.2;stroke-width:1.5;" x="0" xlink:href="#m740c20ed6f" y="360"/>
    </g>
   </g>
   <g id="PolyCollection_2">
    <defs>
     <path d="M 164.189959 -301.312201 
L 164.189959 -297.620535 
L 165.52263 -271.734448 
L 166.8553 -269.031115 
L 168.187971 -267.564231 
L 169.520642 -267.193667 
L 170.853312 -247.192169 
L 172.185983 -247.192169 
L 173.518653 -246.154813 
L 174.851324 -246.141068 
L 176.183995 -246.10082 
L 177.516665 -243.985074 
L 178.849336 -242.030744 
L 180.182006 -241.124368 
L 181.514677 -240.813082 
L 182.847347 -238.427896 
L 184.180018 -236.336198 
L 185.512689 -234.884136 
L 186.845359 -233.664389 
L 188.17803 -231.565795 
L 189.5107 -230.767512 
L 190.843371 -229.290402 
L 192.176041 -228.545681 
L 193.508712 -228.324448 
L 194.841383 -225.78191 
L 196.174053 -223.317173 
L 197.506724 -221.268636 
L 198.839394 -217.862437 
L 200.172065 -217.130765 
L 201.504736 -215.797185 
L 202.837406 -214.899304 
L 204.170077 -213.791832 
L 205.502747 -213.216629 
L 206.835418 -211.976799 
L 208.168088 -211.440058 
L 209.500759 -209.531336 
L 210.83343 -208.895114 
L 212.1661 -207.785423 
L 213.498771 -206.904134 
L 214.831441 -205.966997 
L 216.164112 -205.360255 
L 217.496783 -203.737309 
L 218.829453 -202.963963 
L 220.162124 -200.121894 
L 221.494794 -199.282905 
L 222.827465 -196.784768 
L 224.160135 -196.140503 
L 225.492806 -195.41741 
L 226.825477 -194.534311 
L 228.158147 -191.186454 
L 229.490818 -189.506724 
L 230.823488 -188.36295 
L 232.156159 -187.419145 
L 233.488829 -186.745852 
L 234.8215 -185.400045 
L 236.154171 -185.217339 
L 237.486841 -183.111383 
L 238.819512 -176.15365 
L 240.152182 -175.800517 
L 241.484853 -174.537301 
L 242.817524 -174.072439 
L 244.150194 -173.593315 
L 245.482865 -173.248 
L 246.815535 -171.059906 
L 248.148206 -167.569837 
L 249.480876 -166.984836 
L 250.813547 -166.650894 
L 252.146218 -166.33886 
L 253.478888 -163.463334 
L 254.811559 -162.084714 
L 256.144229 -161.04802 
L 257.4769 -160.791012 
L 258.809571 -159.255949 
L 260.142241 -159.179318 
L 261.474912 -159.13925 
L 262.807582 -157.285282 
L 264.140253 -154.618976 
L 265.472923 -154.388164 
L 266.805594 -153.526554 
L 268.138265 -153.143813 
L 269.470935 -152.750561 
L 270.803606 -149.750435 
L 272.136276 -149.40009 
L 273.468947 -149.09695 
L 274.801617 -148.368102 
L 276.134288 -144.350859 
L 277.466959 -143.189163 
L 278.799629 -142.455366 
L 280.1323 -142.288589 
L 281.46497 -141.892461 
L 282.797641 -141.545038 
L 284.130312 -140.965698 
L 285.462982 -140.600221 
L 286.795653 -138.769841 
L 288.128323 -138.370456 
L 289.460994 -136.845209 
L 290.793664 -136.583523 
L 292.126335 -136.298324 
L 293.459006 -135.497523 
L 294.791676 -135.459583 
L 296.124347 -135.434022 
L 297.457017 -134.213942 
L 298.789688 -132.66609 
L 300.122359 -131.626498 
L 301.455029 -128.485466 
L 302.7877 -128.461257 
L 304.12037 -128.358865 
L 305.453041 -127.919782 
L 306.785711 -127.304963 
L 308.118382 -127.253292 
L 309.451053 -126.18291 
L 310.783723 -125.30332 
L 312.116394 -124.921145 
L 313.449064 -124.916631 
L 314.781735 -121.229553 
L 316.114405 -121.262224 
L 317.447076 -120.878289 
L 318.779747 -120.458649 
L 320.112417 -120.217569 
L 321.445088 -118.819108 
L 322.777758 -117.80383 
L 324.110429 -116.42959 
L 325.4431 -116.002245 
L 326.77577 -115.106125 
L 328.108441 -115.03426 
L 329.441111 -114.62719 
L 330.773782 -113.608386 
L 332.106452 -112.873671 
L 333.439123 -112.628741 
L 334.771794 -112.376125 
L 336.104464 -111.796991 
L 337.437135 -111.597836 
L 338.769805 -110.238986 
L 340.102476 -110.213214 
L 341.435146 -108.326835 
L 342.767817 -108.200156 
L 344.100488 -107.657299 
L 345.433158 -107.569882 
L 346.765829 -106.693768 
L 348.098499 -105.494343 
L 349.43117 -104.785922 
L 350.763841 -104.365388 
L 352.096511 -104.252917 
L 353.429182 -103.807647 
L 354.761852 -103.851618 
L 356.094523 -102.535539 
L 357.427193 -102.036786 
L 358.759864 -101.925012 
L 360.092535 -101.658456 
L 361.425205 -98.436164 
L 362.757876 -98.140608 
L 364.090546 -97.423132 
L 365.423217 -97.351129 
L 366.755888 -96.608361 
L 368.088558 -96.767476 
L 369.421229 -95.99631 
L 370.753899 -95.318754 
L 372.08657 -95.00835 
L 373.41924 -94.663783 
L 374.751911 -93.709851 
L 376.084582 -93.52269 
L 377.417252 -93.085934 
L 378.749923 -92.139469 
L 380.082593 -91.936854 
L 381.415264 -91.365756 
L 382.747934 -91.18158 
L 384.080605 -91.320511 
L 385.413276 -91.14718 
L 386.745946 -90.883476 
L 388.078617 -90.8575 
L 389.411287 -90.243086 
L 390.743958 -89.603683 
L 392.076629 -88.875046 
L 393.409299 -86.418102 
L 394.74197 -86.150441 
L 396.07464 -85.707455 
L 397.407311 -85.682931 
L 398.739981 -85.183767 
L 400.072652 -84.648001 
L 401.405323 -83.962156 
L 402.737993 -83.675458 
L 404.070664 -83.362603 
L 405.403334 -83.206822 
L 406.736005 -82.625835 
L 408.068676 -82.088132 
L 409.401346 -81.844867 
L 410.734017 -81.30722 
L 412.066687 -80.342912 
L 413.399358 -80.30525 
L 414.732028 -79.29412 
L 416.064699 -78.655468 
L 417.39737 -77.912599 
L 418.73004 -77.764146 
L 420.062711 -77.748163 
L 421.395381 -77.573875 
L 422.728052 -77.298371 
L 424.060722 -76.658129 
L 425.393393 -76.321087 
L 426.726064 -75.957856 
L 428.058734 -75.585861 
L 429.391405 -75.469937 
L 430.724075 -75.492226 
L 432.056746 -75.201354 
L 433.389417 -74.851154 
L 434.722087 -74.226999 
L 436.054758 -73.846835 
L 437.387428 -73.88856 
L 438.720099 -73.478467 
L 440.052769 -73.150744 
L 441.38544 -72.733651 
L 442.718111 -72.423768 
L 444.050781 -72.074679 
L 445.383452 -71.742637 
L 446.716122 -71.786454 
L 448.048793 -71.644069 
L 449.381464 -71.307933 
L 450.714134 -71.096169 
L 452.046805 -70.878738 
L 453.379475 -70.769289 
L 454.712146 -70.670228 
L 456.044816 -70.631216 
L 457.377487 -70.141332 
L 458.710158 -70.140074 
L 460.042828 -69.54235 
L 461.375499 -68.681651 
L 462.708169 -68.696708 
L 464.04084 -68.820343 
L 465.37351 -68.358981 
L 466.706181 -67.824332 
L 468.038852 -67.57272 
L 469.371522 -67.185136 
L 470.704193 -66.92981 
L 472.036863 -67.051722 
L 473.369534 -66.956856 
L 474.702205 -66.830152 
L 476.034875 -66.781946 
L 477.367546 -66.05963 
L 478.700216 -65.790605 
L 480.032887 -65.872448 
L 481.365557 -65.676526 
L 482.698228 -65.527305 
L 484.030899 -65.386997 
L 485.363569 -65.052168 
L 486.69624 -64.354193 
L 488.02891 -64.360277 
L 489.361581 -64.182628 
L 490.694252 -63.83067 
L 492.026922 -63.815674 
L 493.359593 -63.652515 
L 494.692263 -63.348194 
L 496.024934 -63.191639 
L 497.357604 -63.101706 
L 498.690275 -63.013695 
L 500.022946 -62.905035 
L 501.355616 -62.850679 
L 502.688287 -62.878344 
L 504.020957 -62.006418 
L 505.353628 -61.602637 
L 506.686298 -61.608863 
L 508.018969 -61.604564 
L 509.35164 -61.604564 
L 510.68431 -61.34567 
L 512.016981 -61.295194 
L 513.349651 -60.817624 
L 514.682322 -60.458782 
L 516.014993 -60.14407 
L 517.347663 -60.066254 
L 518.680334 -60.021232 
L 520.013004 -62.650167 
L 521.345675 -68.546034 
L 522.678345 -68.550401 
L 524.011016 -68.520787 
L 525.343687 -68.496993 
L 526.676357 -67.793966 
L 528.009028 -67.825523 
L 529.341698 -67.549709 
L 530.674369 -67.486655 
L 532.00704 -67.28129 
L 533.33971 -67.247472 
L 534.672381 -66.770749 
L 536.005051 -66.761646 
L 537.337722 -66.588562 
L 538.670392 -66.191473 
L 540.003063 -66.136338 
L 541.335734 -73.156599 
L 542.668404 -73.063958 
L 544.001075 -72.987289 
L 545.333745 -72.713963 
L 546.666416 -72.544738 
L 547.999086 -72.397146 
L 549.331757 -72.356574 
L 550.664428 -72.332408 
L 551.997098 -72.141896 
L 553.329769 -82.711722 
L 554.662439 -82.627188 
L 555.99511 -82.571197 
L 557.327781 -82.533403 
L 558.660451 -77.606405 
L 559.993122 -77.336125 
L 561.325792 -77.260214 
L 562.658463 -76.978883 
L 563.991133 -69.816855 
L 565.323804 -69.816855 
L 565.323804 -134.549872 
L 565.323804 -134.549872 
L 563.991133 -134.549872 
L 562.658463 -130.120607 
L 561.325792 -130.161405 
L 559.993122 -130.384691 
L 558.660451 -130.353923 
L 557.327781 -129.021748 
L 555.99511 -129.247613 
L 554.662439 -129.260887 
L 553.329769 -129.414555 
L 551.997098 -126.428514 
L 550.664428 -126.490105 
L 549.331757 -126.691635 
L 547.999086 -126.774639 
L 546.666416 -126.8545 
L 545.333745 -127.124803 
L 544.001075 -127.335753 
L 542.668404 -127.423198 
L 541.335734 -127.679612 
L 540.003063 -123.762627 
L 538.670392 -123.82438 
L 537.337722 -124.031569 
L 536.005051 -124.814494 
L 534.672381 -124.877069 
L 533.33971 -125.13288 
L 532.00704 -125.30164 
L 530.674369 -125.302402 
L 529.341698 -125.521277 
L 528.009028 -125.580842 
L 526.676357 -125.891825 
L 525.343687 -126.030878 
L 524.011016 -126.152052 
L 522.678345 -126.201383 
L 521.345675 -126.333042 
L 520.013004 -122.78313 
L 518.680334 -119.54454 
L 517.347663 -119.85151 
L 516.014993 -119.941704 
L 514.682322 -120.047434 
L 513.349651 -120.131151 
L 512.016981 -120.241327 
L 510.68431 -120.551589 
L 509.35164 -120.912589 
L 508.018969 -120.912589 
L 506.686298 -121.060024 
L 505.353628 -121.286513 
L 504.020957 -121.42092 
L 502.688287 -121.64151 
L 501.355616 -122.011492 
L 500.022946 -122.072171 
L 498.690275 -122.174973 
L 497.357604 -122.258938 
L 496.024934 -122.325956 
L 494.692263 -122.758523 
L 493.359593 -122.842267 
L 492.026922 -123.047939 
L 490.694252 -123.16483 
L 489.361581 -123.288519 
L 488.02891 -123.457449 
L 486.69624 -123.812262 
L 485.363569 -124.034234 
L 484.030899 -124.310522 
L 482.698228 -124.438721 
L 481.365557 -124.448501 
L 480.032887 -124.550903 
L 478.700216 -125.078513 
L 477.367546 -125.231845 
L 476.034875 -125.340736 
L 474.702205 -125.717931 
L 473.369534 -125.773495 
L 472.036863 -125.862712 
L 470.704193 -126.35844 
L 469.371522 -126.609036 
L 468.038852 -126.711095 
L 466.706181 -127.094724 
L 465.37351 -127.121156 
L 464.04084 -127.181368 
L 462.708169 -127.621206 
L 461.375499 -127.974483 
L 460.042828 -128.176777 
L 458.710158 -128.776661 
L 457.377487 -128.809289 
L 456.044816 -128.853169 
L 454.712146 -129.089941 
L 453.379475 -129.348344 
L 452.046805 -129.642718 
L 450.714134 -130.20042 
L 449.381464 -130.200234 
L 448.048793 -130.311971 
L 446.716122 -130.453068 
L 445.383452 -130.924685 
L 444.050781 -131.171276 
L 442.718111 -132.199554 
L 441.38544 -132.319469 
L 440.052769 -132.3746 
L 438.720099 -132.464694 
L 437.387428 -132.898648 
L 436.054758 -133.133433 
L 434.722087 -133.550906 
L 433.389417 -133.674774 
L 432.056746 -133.786198 
L 430.724075 -134.025695 
L 429.391405 -134.314514 
L 428.058734 -134.652234 
L 426.726064 -134.966619 
L 425.393393 -135.197654 
L 424.060722 -135.243191 
L 422.728052 -135.597002 
L 421.395381 -135.749228 
L 420.062711 -136.423667 
L 418.73004 -136.642332 
L 417.39737 -136.939787 
L 416.064699 -137.118938 
L 414.732028 -137.366123 
L 413.399358 -137.403183 
L 412.066687 -138.103689 
L 410.734017 -138.491466 
L 409.401346 -138.78008 
L 408.068676 -138.976303 
L 406.736005 -139.351303 
L 405.403334 -139.776398 
L 404.070664 -140.24055 
L 402.737993 -140.6601 
L 401.405323 -140.848556 
L 400.072652 -141.096778 
L 398.739981 -141.565114 
L 397.407311 -141.629929 
L 396.07464 -141.949521 
L 394.74197 -142.355958 
L 393.409299 -142.485428 
L 392.076629 -143.654193 
L 390.743958 -144.38577 
L 389.411287 -144.554908 
L 388.078617 -145.260434 
L 386.745946 -145.709891 
L 385.413276 -145.781289 
L 384.080605 -146.1607 
L 382.747934 -146.72339 
L 381.415264 -146.8201 
L 380.082593 -147.092005 
L 378.749923 -147.356026 
L 377.417252 -148.377624 
L 376.084582 -148.617319 
L 374.751911 -150.032145 
L 373.41924 -150.471931 
L 372.08657 -150.695814 
L 370.753899 -151.185513 
L 369.421229 -151.42658 
L 368.088558 -151.537211 
L 366.755888 -152.335786 
L 365.423217 -152.520557 
L 364.090546 -152.860797 
L 362.757876 -155.153895 
L 361.425205 -155.358265 
L 360.092535 -155.221575 
L 358.759864 -155.521584 
L 357.427193 -155.635951 
L 356.094523 -155.919573 
L 354.761852 -157.955922 
L 353.429182 -158.171536 
L 352.096511 -158.959217 
L 350.763841 -159.144094 
L 349.43117 -159.275749 
L 348.098499 -159.501847 
L 346.765829 -159.277519 
L 345.433158 -160.229053 
L 344.100488 -160.584622 
L 342.767817 -161.24157 
L 341.435146 -161.365835 
L 340.102476 -161.999688 
L 338.769805 -162.111855 
L 337.437135 -162.964766 
L 336.104464 -163.349564 
L 334.771794 -163.94193 
L 333.439123 -164.569057 
L 332.106452 -164.542929 
L 330.773782 -164.788373 
L 329.441111 -166.380844 
L 328.108441 -166.562784 
L 326.77577 -167.193394 
L 325.4431 -167.655626 
L 324.110429 -167.942096 
L 322.777758 -168.592321 
L 321.445088 -169.971866 
L 320.112417 -170.727614 
L 318.779747 -171.393479 
L 317.447076 -172.009597 
L 316.114405 -172.468051 
L 314.781735 -172.718375 
L 313.449064 -174.28243 
L 312.116394 -174.29247 
L 310.783723 -175.11056 
L 309.451053 -175.183428 
L 308.118382 -175.552351 
L 306.785711 -176.094878 
L 305.453041 -177.410618 
L 304.12037 -177.583752 
L 302.7877 -178.391046 
L 301.455029 -178.451587 
L 300.122359 -179.808941 
L 298.789688 -180.561511 
L 297.457017 -181.97589 
L 296.124347 -181.830011 
L 294.791676 -181.874611 
L 293.459006 -181.94451 
L 292.126335 -183.384996 
L 290.793664 -184.11048 
L 289.460994 -184.545542 
L 288.128323 -186.274556 
L 286.795653 -187.170514 
L 285.462982 -186.640007 
L 284.130312 -188.186343 
L 282.797641 -188.521178 
L 281.46497 -189.310515 
L 280.1323 -189.724406 
L 278.799629 -190.202388 
L 277.466959 -191.798743 
L 276.134288 -192.577934 
L 274.801617 -191.529118 
L 273.468947 -192.330725 
L 272.136276 -192.787112 
L 270.803606 -194.981152 
L 269.470935 -195.111039 
L 268.138265 -195.370275 
L 266.805594 -195.367484 
L 265.472923 -196.421041 
L 264.140253 -196.828852 
L 262.807582 -197.705886 
L 261.474912 -198.357405 
L 260.142241 -199.280484 
L 258.809571 -199.612716 
L 257.4769 -199.899269 
L 256.144229 -200.357494 
L 254.811559 -201.359027 
L 253.478888 -202.543489 
L 252.146218 -202.17628 
L 250.813547 -202.963655 
L 249.480876 -203.404059 
L 248.148206 -203.940791 
L 246.815535 -204.769384 
L 245.482865 -206.454614 
L 244.150194 -208.226465 
L 242.817524 -209.319766 
L 241.484853 -210.288146 
L 240.152182 -211.132481 
L 238.819512 -211.72971 
L 237.486841 -211.122546 
L 236.154171 -212.127634 
L 234.8215 -213.367121 
L 233.488829 -214.741318 
L 232.156159 -215.677892 
L 230.823488 -216.651572 
L 229.490818 -217.942624 
L 228.158147 -219.21337 
L 226.825477 -219.504805 
L 225.492806 -221.172772 
L 224.160135 -221.66994 
L 222.827465 -222.594194 
L 221.494794 -224.5924 
L 220.162124 -225.31636 
L 218.829453 -225.697335 
L 217.496783 -228.010795 
L 216.164112 -230.009685 
L 214.831441 -230.74811 
L 213.498771 -232.835474 
L 212.1661 -233.657425 
L 210.83343 -234.115426 
L 209.500759 -235.901734 
L 208.168088 -237.800405 
L 206.835418 -238.442021 
L 205.502747 -242.000873 
L 204.170077 -243.085911 
L 202.837406 -243.11634 
L 201.504736 -245.40885 
L 200.172065 -247.624596 
L 198.839394 -249.785411 
L 197.506724 -253.785333 
L 196.174053 -254.551537 
L 194.841383 -255.475914 
L 193.508712 -258.16253 
L 192.176041 -259.385366 
L 190.843371 -260.709085 
L 189.5107 -261.902266 
L 188.17803 -266.915056 
L 186.845359 -271.062643 
L 185.512689 -271.835066 
L 184.180018 -272.89844 
L 182.847347 -276.560323 
L 181.514677 -284.595653 
L 180.182006 -284.716291 
L 178.849336 -286.036311 
L 177.516665 -288.245915 
L 176.183995 -288.640845 
L 174.851324 -288.809988 
L 173.518653 -288.850544 
L 172.185983 -289.348433 
L 170.853312 -289.348433 
L 169.520642 -291.397072 
L 168.187971 -292.170752 
L 166.8553 -294.350685 
L 165.52263 -304.445455 
L 164.189959 -301.312201 
z
" id="m3804ac293a" style="stroke:#dd8452;stroke-opacity:0.2;stroke-width:1.5;"/>
    </defs>
    <g clip-path="url(#p8211fe5418)">
     <use style="fill:#dd8452;fill-opacity:0.2;stroke:#dd8452;stroke-opacity:0.2;stroke-width:1.5;" x="0" xlink:href="#m3804ac293a" y="360"/>
    </g>
   </g>
   <g id="line2d_12">
    <path clip-path="url(#p8211fe5418)" d="M 164.189959 59.76166 
L 165.52263 66.849157 
L 168.187971 75.044974 
L 169.520642 83.186083 
L 170.853312 86.186734 
L 172.185983 87.56826 
L 173.518653 92.480227 
L 174.851324 94.158536 
L 176.183995 94.59584 
L 177.516665 95.601163 
L 180.182006 98.47452 
L 181.514677 102.811066 
L 182.847347 102.811066 
L 184.180018 107.128606 
L 185.512689 109.371373 
L 186.845359 111.342222 
L 188.17803 114.461779 
L 189.5107 114.788877 
L 190.843371 117.084848 
L 192.176041 121.479335 
L 193.508712 122.632332 
L 194.841383 124.103712 
L 196.174053 126.266413 
L 197.506724 127.728357 
L 198.839394 129.40706 
L 201.504736 133.100469 
L 202.837406 133.737664 
L 206.835418 136.98829 
L 208.168088 138.810181 
L 209.500759 139.450787 
L 210.83343 140.569565 
L 213.498771 141.531853 
L 214.831441 142.18563 
L 216.164112 143.415623 
L 217.496783 143.810643 
L 218.829453 144.395509 
L 220.162124 145.267338 
L 221.494794 147.136001 
L 222.827465 148.137188 
L 224.160135 149.415578 
L 225.492806 150.491528 
L 228.158147 151.930298 
L 229.490818 153.635179 
L 230.823488 155.00511 
L 232.156159 155.663332 
L 233.488829 156.89267 
L 234.8215 158.893906 
L 236.154171 159.473444 
L 237.486841 161.272549 
L 238.819512 162.125425 
L 240.152182 162.54925 
L 241.484853 163.701956 
L 242.817524 164.219294 
L 244.150194 165.629178 
L 245.482865 165.936438 
L 246.815535 167.250186 
L 248.148206 167.718408 
L 249.480876 169.120651 
L 252.146218 171.012442 
L 253.478888 171.44348 
L 254.811559 174.92563 
L 256.144229 175.245788 
L 257.4769 176.332068 
L 258.809571 176.956899 
L 260.142241 177.351035 
L 262.807582 179.663821 
L 264.140253 180.143635 
L 265.472923 181.526675 
L 266.805594 182.600123 
L 268.138265 184.589089 
L 269.470935 185.454958 
L 270.803606 185.786758 
L 272.136276 187.242161 
L 273.468947 187.696809 
L 274.801617 188.674172 
L 276.134288 189.888293 
L 277.466959 191.905662 
L 278.799629 192.591651 
L 280.1323 192.963926 
L 281.46497 193.912121 
L 285.462982 197.823357 
L 286.795653 198.16212 
L 288.128323 198.932323 
L 289.460994 199.849955 
L 290.793664 200.14894 
L 292.126335 201.963247 
L 293.459006 201.995299 
L 294.791676 203.48649 
L 296.124347 204.615287 
L 297.457017 205.344385 
L 298.789688 205.738164 
L 301.455029 207.361048 
L 304.12037 208.352374 
L 305.453041 211.861482 
L 306.785711 212.071409 
L 308.118382 212.833483 
L 309.451053 213.294147 
L 310.783723 213.604928 
L 312.116394 214.907192 
L 313.449064 215.055466 
L 314.781735 216.0359 
L 316.114405 216.694558 
L 317.447076 216.969769 
L 318.779747 217.527544 
L 320.112417 218.316096 
L 321.445088 218.354369 
L 322.777758 218.879625 
L 324.110429 220.411599 
L 325.4431 220.735097 
L 326.77577 221.206713 
L 328.108441 221.509319 
L 329.441111 221.592797 
L 330.773782 222.051976 
L 332.106452 223.541889 
L 333.439123 223.895384 
L 334.771794 224.081557 
L 336.104464 224.695737 
L 337.437135 225.844692 
L 338.769805 226.40932 
L 340.102476 227.163438 
L 342.767817 227.583536 
L 344.100488 227.841301 
L 345.433158 228.502089 
L 346.765829 229.607917 
L 349.43117 230.254867 
L 352.096511 230.567899 
L 353.429182 231.324025 
L 354.761852 232.630648 
L 356.094523 233.218821 
L 357.427193 233.297346 
L 358.759864 233.608537 
L 360.092535 236.98002 
L 362.757876 237.671508 
L 364.090546 238.269181 
L 365.423217 238.995463 
L 369.421229 239.425009 
L 372.08657 240.26395 
L 373.41924 240.219545 
L 376.084582 240.978686 
L 377.417252 241.016626 
L 378.749923 241.925213 
L 381.415264 243.233753 
L 385.413276 244.289914 
L 386.745946 245.136722 
L 389.411287 245.696074 
L 392.076629 246.380223 
L 393.409299 246.530747 
L 396.07464 247.436161 
L 397.407311 247.797756 
L 398.739981 247.986393 
L 400.072652 253.014877 
L 401.405323 253.213709 
L 402.737993 251.082965 
L 404.070664 251.709503 
L 408.068676 252.465281 
L 409.401346 253.660003 
L 410.734017 253.823474 
L 412.066687 254.107917 
L 413.399358 252.533138 
L 414.732028 245.03747 
L 416.064699 232.064175 
L 417.39737 233.422762 
L 420.062711 233.422762 
L 421.395381 234.611099 
L 422.728052 234.611099 
L 424.060722 233.139538 
L 426.726064 233.232214 
L 428.058734 233.232214 
L 429.391405 234.447871 
L 434.722087 234.518794 
L 436.054758 234.650953 
L 437.387428 235.886887 
L 440.052769 235.886887 
L 441.38544 236.110188 
L 444.050781 236.110188 
L 445.383452 236.889977 
L 446.716122 237.208573 
L 448.048793 237.208573 
L 448.048793 237.208573 
" style="fill:none;stroke:#4c72b0;stroke-linecap:round;stroke-width:2.25;"/>
   </g>
   <g id="line2d_13">
    <path clip-path="url(#p8211fe5418)" d="M 164.189959 60.533632 
L 165.52263 71.910049 
L 166.8553 78.3091 
L 168.187971 80.132509 
L 169.520642 80.704631 
L 170.853312 91.729699 
L 172.185983 91.729699 
L 173.518653 92.497321 
L 176.183995 92.629167 
L 177.516665 93.884505 
L 178.849336 95.966472 
L 180.182006 97.079671 
L 181.514677 97.295632 
L 182.847347 102.505891 
L 184.180018 105.382681 
L 185.512689 106.640399 
L 186.845359 107.636484 
L 189.5107 113.665111 
L 190.843371 115.000256 
L 192.176041 116.034477 
L 193.508712 116.756511 
L 194.841383 119.371088 
L 196.174053 121.065645 
L 197.506724 122.473015 
L 198.839394 126.176076 
L 200.172065 127.62232 
L 202.837406 130.992178 
L 204.170077 131.561129 
L 205.502747 132.391249 
L 206.835418 134.79059 
L 208.168088 135.379769 
L 209.500759 137.283465 
L 210.83343 138.49473 
L 213.498771 140.130196 
L 214.831441 141.642446 
L 216.164112 142.31503 
L 217.496783 144.125948 
L 220.162124 147.280873 
L 221.494794 148.062348 
L 222.827465 150.310519 
L 224.160135 151.094778 
L 225.492806 151.704909 
L 226.825477 152.980442 
L 228.158147 154.800088 
L 229.490818 156.275326 
L 230.823488 157.492739 
L 232.156159 158.451481 
L 233.488829 159.256415 
L 234.8215 160.616417 
L 236.154171 161.327513 
L 237.486841 162.883036 
L 238.819512 166.05832 
L 240.152182 166.533501 
L 241.484853 167.587277 
L 244.150194 169.09011 
L 245.482865 170.148693 
L 246.815535 172.085355 
L 248.148206 174.244686 
L 249.480876 174.805553 
L 250.813547 175.192725 
L 252.146218 175.74243 
L 254.811559 178.27813 
L 256.144229 179.297243 
L 257.4769 179.65486 
L 258.809571 180.565668 
L 260.142241 180.770099 
L 261.474912 181.251673 
L 262.807582 182.504416 
L 264.140253 184.276086 
L 265.472923 184.595398 
L 266.805594 185.552981 
L 268.138265 185.742956 
L 269.470935 186.0692 
L 270.803606 187.634207 
L 272.136276 188.906399 
L 273.468947 189.286162 
L 274.801617 190.05139 
L 276.134288 191.535604 
L 277.466959 192.506047 
L 278.799629 193.671123 
L 281.46497 194.398512 
L 284.130312 195.42398 
L 285.462982 196.379886 
L 288.128323 197.677494 
L 289.460994 199.304624 
L 290.793664 199.652999 
L 292.126335 200.15834 
L 293.459006 201.278983 
L 296.124347 201.367983 
L 297.457017 201.905084 
L 298.789688 203.386199 
L 300.122359 204.28228 
L 301.455029 206.531473 
L 302.7877 206.573848 
L 304.12037 207.028692 
L 305.453041 207.3348 
L 306.785711 208.300079 
L 308.118382 208.597179 
L 309.451053 209.316831 
L 310.783723 209.79306 
L 312.116394 210.393193 
L 313.449064 210.40047 
L 314.781735 213.026036 
L 316.114405 213.134862 
L 318.779747 214.073936 
L 320.112417 214.527408 
L 324.110429 217.814157 
L 325.4431 218.171065 
L 326.77577 218.85024 
L 329.441111 219.495983 
L 330.773782 220.80162 
L 332.106452 221.2917 
L 333.439123 221.401101 
L 334.771794 221.840972 
L 336.104464 222.426722 
L 337.437135 222.718699 
L 338.769805 223.824579 
L 340.102476 223.893549 
L 341.435146 225.153665 
L 342.767817 225.279137 
L 344.100488 225.87904 
L 345.433158 226.100532 
L 346.765829 227.014357 
L 349.43117 227.969164 
L 350.763841 228.245259 
L 352.096511 228.393933 
L 353.429182 229.010408 
L 354.761852 229.09623 
L 356.094523 230.772444 
L 357.427193 231.163631 
L 358.759864 231.276702 
L 360.092535 231.559985 
L 361.425205 233.102786 
L 362.757876 233.352749 
L 364.090546 234.858036 
L 365.423217 235.064157 
L 366.755888 235.527926 
L 368.088558 235.847657 
L 372.08657 237.147918 
L 373.41924 237.432143 
L 376.084582 238.929995 
L 377.417252 239.268221 
L 378.749923 240.252253 
L 380.082593 240.485571 
L 381.415264 240.907072 
L 384.080605 241.259395 
L 386.745946 241.703317 
L 388.078617 241.941033 
L 389.411287 242.601003 
L 390.743958 243.005273 
L 392.076629 243.73538 
L 393.409299 245.548235 
L 394.74197 245.746801 
L 396.07464 246.171512 
L 398.739981 246.625559 
L 401.405323 247.594644 
L 402.737993 247.832221 
L 406.736005 249.011431 
L 408.068676 249.467783 
L 409.401346 249.687527 
L 410.734017 250.100657 
L 412.066687 250.7767 
L 413.399358 251.145783 
L 416.064699 252.112797 
L 417.39737 252.573807 
L 422.728052 253.552314 
L 424.060722 254.04934 
L 426.726064 254.537763 
L 428.058734 254.880952 
L 434.722087 256.111048 
L 436.054758 256.509866 
L 437.387428 256.606396 
L 438.720099 257.028419 
L 442.718111 257.688339 
L 444.050781 258.377022 
L 446.716122 258.880239 
L 450.714134 259.351705 
L 452.046805 259.739272 
L 457.377487 260.524689 
L 458.710158 260.541633 
L 461.375499 261.671933 
L 465.37351 262.259932 
L 470.704193 263.355875 
L 473.369534 263.634825 
L 474.702205 263.725959 
L 476.034875 263.938659 
L 477.367546 264.354263 
L 481.365557 264.937486 
L 484.030899 265.151241 
L 485.363569 265.456799 
L 486.69624 265.916772 
L 498.690275 267.405666 
L 502.688287 267.740073 
L 504.020957 268.286331 
L 505.353628 268.555425 
L 508.018969 268.741424 
L 509.35164 268.741424 
L 510.68431 269.051371 
L 512.016981 269.23174 
L 514.682322 269.746892 
L 516.014993 269.957113 
L 518.680334 270.217114 
L 520.013004 267.283351 
L 521.345675 262.560462 
L 525.343687 262.736064 
L 526.676357 263.157105 
L 533.33971 263.809824 
L 534.672381 264.176091 
L 536.005051 264.21193 
L 537.337722 264.689934 
L 538.670392 264.992074 
L 540.003063 265.050518 
L 541.335734 259.581895 
L 547.999086 260.414108 
L 550.664428 260.588744 
L 551.997098 260.714795 
L 553.329769 253.936861 
L 557.327781 254.222425 
L 558.660451 256.019836 
L 562.658463 256.450255 
L 563.991133 257.816636 
L 565.323804 257.816636 
L 566.656475 230.865209 
L 567.989145 230.865209 
L 567.989145 230.865209 
" style="fill:none;stroke:#dd8452;stroke-linecap:round;stroke-width:2.25;"/>
   </g>
   <g id="line2d_14"/>
   <g id="line2d_15"/>
   <g id="line2d_16"/>
   <g id="patch_3">
    <path d="M 144 315 
L 144 43.2 
" style="fill:none;stroke:#ffffff;stroke-linecap:square;stroke-linejoin:miter;stroke-width:1.875;"/>
   </g>
   <g id="patch_4">
    <path d="M 588.179104 315 
L 588.179104 43.2 
" style="fill:none;stroke:#ffffff;stroke-linecap:square;stroke-linejoin:miter;stroke-width:1.875;"/>
   </g>
   <g id="patch_5">
    <path d="M 144 315 
L 588.179104 315 
" style="fill:none;stroke:#ffffff;stroke-linecap:square;stroke-linejoin:miter;stroke-width:1.875;"/>
   </g>
   <g id="patch_6">
    <path d="M 144 43.2 
L 588.179104 43.2 
" style="fill:none;stroke:#ffffff;stroke-linecap:square;stroke-linejoin:miter;stroke-width:1.875;"/>
   </g>
   <g id="legend_1">
    <g id="patch_7">
     <path d="M 367.508104 120.471047 
L 577.784104 120.471047 
Q 580.754104 120.471047 580.754104 117.501047 
L 580.754104 53.595 
Q 580.754104 50.625 577.784104 50.625 
L 367.508104 50.625 
Q 364.538104 50.625 364.538104 53.595 
L 364.538104 117.501047 
Q 364.538104 120.471047 367.508104 120.471047 
z
" style="fill:#eaeaf2;opacity:0.8;stroke:#cccccc;stroke-linejoin:miter;stroke-width:1.5;"/>
    </g>
    <g id="line2d_17">
     <path d="M 370.478104 62.65118 
L 400.178104 62.65118 
" style="fill:none;"/>
    </g>
    <g id="line2d_18"/>
    <g id="text_15">
     <!-- Warming-up solutions -->
     <defs>
      <path d="M 3.328125 72.90625 
L 13.28125 72.90625 
L 28.609375 11.28125 
L 43.890625 72.90625 
L 54.984375 72.90625 
L 70.3125 11.28125 
L 85.59375 72.90625 
L 95.609375 72.90625 
L 77.296875 0 
L 64.890625 0 
L 49.515625 63.28125 
L 33.984375 0 
L 21.578125 0 
z
" id="DejaVuSans-87"/>
      <path d="M 52 44.1875 
Q 55.375 50.25 60.0625 53.125 
Q 64.75 56 71.09375 56 
Q 79.640625 56 84.28125 50.015625 
Q 88.921875 44.046875 88.921875 33.015625 
L 88.921875 0 
L 79.890625 0 
L 79.890625 32.71875 
Q 79.890625 40.578125 77.09375 44.375 
Q 74.3125 48.1875 68.609375 48.1875 
Q 61.625 48.1875 57.5625 43.546875 
Q 53.515625 38.921875 53.515625 30.90625 
L 53.515625 0 
L 44.484375 0 
L 44.484375 32.71875 
Q 44.484375 40.625 41.703125 44.40625 
Q 38.921875 48.1875 33.109375 48.1875 
Q 26.21875 48.1875 22.15625 43.53125 
Q 18.109375 38.875 18.109375 30.90625 
L 18.109375 0 
L 9.078125 0 
L 9.078125 54.6875 
L 18.109375 54.6875 
L 18.109375 46.1875 
Q 21.1875 51.21875 25.484375 53.609375 
Q 29.78125 56 35.6875 56 
Q 41.65625 56 45.828125 52.96875 
Q 50 49.953125 52 44.1875 
z
" id="DejaVuSans-109"/>
      <path d="M 45.40625 27.984375 
Q 45.40625 37.75 41.375 43.109375 
Q 37.359375 48.484375 30.078125 48.484375 
Q 22.859375 48.484375 18.828125 43.109375 
Q 14.796875 37.75 14.796875 27.984375 
Q 14.796875 18.265625 18.828125 12.890625 
Q 22.859375 7.515625 30.078125 7.515625 
Q 37.359375 7.515625 41.375 12.890625 
Q 45.40625 18.265625 45.40625 27.984375 
z
M 54.390625 6.78125 
Q 54.390625 -7.171875 48.1875 -13.984375 
Q 42 -20.796875 29.203125 -20.796875 
Q 24.46875 -20.796875 20.265625 -20.09375 
Q 16.0625 -19.390625 12.109375 -17.921875 
L 12.109375 -9.1875 
Q 16.0625 -11.328125 19.921875 -12.34375 
Q 23.78125 -13.375 27.78125 -13.375 
Q 36.625 -13.375 41.015625 -8.765625 
Q 45.40625 -4.15625 45.40625 5.171875 
L 45.40625 9.625 
Q 42.625 4.78125 38.28125 2.390625 
Q 33.9375 0 27.875 0 
Q 17.828125 0 11.671875 7.65625 
Q 5.515625 15.328125 5.515625 27.984375 
Q 5.515625 40.671875 11.671875 48.328125 
Q 17.828125 56 27.875 56 
Q 33.9375 56 38.28125 53.609375 
Q 42.625 51.21875 45.40625 46.390625 
L 45.40625 54.6875 
L 54.390625 54.6875 
z
" id="DejaVuSans-103"/>
      <path d="M 4.890625 31.390625 
L 31.203125 31.390625 
L 31.203125 23.390625 
L 4.890625 23.390625 
z
" id="DejaVuSans-45"/>
      <path d="M 8.5 21.578125 
L 8.5 54.6875 
L 17.484375 54.6875 
L 17.484375 21.921875 
Q 17.484375 14.15625 20.5 10.265625 
Q 23.53125 6.390625 29.59375 6.390625 
Q 36.859375 6.390625 41.078125 11.03125 
Q 45.3125 15.671875 45.3125 23.6875 
L 45.3125 54.6875 
L 54.296875 54.6875 
L 54.296875 0 
L 45.3125 0 
L 45.3125 8.40625 
Q 42.046875 3.421875 37.71875 1 
Q 33.40625 -1.421875 27.6875 -1.421875 
Q 18.265625 -1.421875 13.375 4.4375 
Q 8.5 10.296875 8.5 21.578125 
z
M 31.109375 56 
z
" id="DejaVuSans-117"/>
      <path d="M 18.109375 8.203125 
L 18.109375 -20.796875 
L 9.078125 -20.796875 
L 9.078125 54.6875 
L 18.109375 54.6875 
L 18.109375 46.390625 
Q 20.953125 51.265625 25.265625 53.625 
Q 29.59375 56 35.59375 56 
Q 45.5625 56 51.78125 48.09375 
Q 58.015625 40.1875 58.015625 27.296875 
Q 58.015625 14.40625 51.78125 6.484375 
Q 45.5625 -1.421875 35.59375 -1.421875 
Q 29.59375 -1.421875 25.265625 0.953125 
Q 20.953125 3.328125 18.109375 8.203125 
z
M 48.6875 27.296875 
Q 48.6875 37.203125 44.609375 42.84375 
Q 40.53125 48.484375 33.40625 48.484375 
Q 26.265625 48.484375 22.1875 42.84375 
Q 18.109375 37.203125 18.109375 27.296875 
Q 18.109375 17.390625 22.1875 11.75 
Q 26.265625 6.109375 33.40625 6.109375 
Q 40.53125 6.109375 44.609375 11.75 
Q 48.6875 17.390625 48.6875 27.296875 
z
" id="DejaVuSans-112"/>
      <path id="DejaVuSans-32"/>
      <path d="M 44.28125 53.078125 
L 44.28125 44.578125 
Q 40.484375 46.53125 36.375 47.5 
Q 32.28125 48.484375 27.875 48.484375 
Q 21.1875 48.484375 17.84375 46.4375 
Q 14.5 44.390625 14.5 40.28125 
Q 14.5 37.15625 16.890625 35.375 
Q 19.28125 33.59375 26.515625 31.984375 
L 29.59375 31.296875 
Q 39.15625 29.25 43.1875 25.515625 
Q 47.21875 21.78125 47.21875 15.09375 
Q 47.21875 7.46875 41.1875 3.015625 
Q 35.15625 -1.421875 24.609375 -1.421875 
Q 20.21875 -1.421875 15.453125 -0.5625 
Q 10.6875 0.296875 5.421875 2 
L 5.421875 11.28125 
Q 10.40625 8.6875 15.234375 7.390625 
Q 20.0625 6.109375 24.8125 6.109375 
Q 31.15625 6.109375 34.5625 8.28125 
Q 37.984375 10.453125 37.984375 14.40625 
Q 37.984375 18.0625 35.515625 20.015625 
Q 33.0625 21.96875 24.703125 23.78125 
L 21.578125 24.515625 
Q 13.234375 26.265625 9.515625 29.90625 
Q 5.8125 33.546875 5.8125 39.890625 
Q 5.8125 47.609375 11.28125 51.796875 
Q 16.75 56 26.8125 56 
Q 31.78125 56 36.171875 55.265625 
Q 40.578125 54.546875 44.28125 53.078125 
z
" id="DejaVuSans-115"/>
      <path d="M 9.421875 75.984375 
L 18.40625 75.984375 
L 18.40625 0 
L 9.421875 0 
z
" id="DejaVuSans-108"/>
     </defs>
     <g style="fill:#262626;" transform="translate(412.058104 67.84868)scale(0.1485 -0.1485)">
      <use xlink:href="#DejaVuSans-87"/>
      <use x="98.783203" xlink:href="#DejaVuSans-97"/>
      <use x="160.0625" xlink:href="#DejaVuSans-114"/>
      <use x="201.160156" xlink:href="#DejaVuSans-109"/>
      <use x="298.572266" xlink:href="#DejaVuSans-105"/>
      <use x="326.355469" xlink:href="#DejaVuSans-110"/>
      <use x="389.734375" xlink:href="#DejaVuSans-103"/>
      <use x="453.210938" xlink:href="#DejaVuSans-45"/>
      <use x="489.294922" xlink:href="#DejaVuSans-117"/>
      <use x="552.673828" xlink:href="#DejaVuSans-112"/>
      <use x="616.150391" xlink:href="#DejaVuSans-32"/>
      <use x="647.9375" xlink:href="#DejaVuSans-115"/>
      <use x="700.037109" xlink:href="#DejaVuSans-111"/>
      <use x="761.21875" xlink:href="#DejaVuSans-108"/>
      <use x="789.001953" xlink:href="#DejaVuSans-117"/>
      <use x="852.380859" xlink:href="#DejaVuSans-116"/>
      <use x="891.589844" xlink:href="#DejaVuSans-105"/>
      <use x="919.373047" xlink:href="#DejaVuSans-111"/>
      <use x="980.554688" xlink:href="#DejaVuSans-110"/>
      <use x="1043.933594" xlink:href="#DejaVuSans-115"/>
     </g>
    </g>
    <g id="line2d_19">
     <path d="M 370.478104 84.448195 
L 400.178104 84.448195 
" style="fill:none;stroke:#4c72b0;stroke-linecap:round;stroke-width:2.25;"/>
    </g>
    <g id="line2d_20"/>
    <g id="text_16">
     <!-- all -->
     <g style="fill:#262626;" transform="translate(412.058104 89.645695)scale(0.1485 -0.1485)">
      <use xlink:href="#DejaVuSans-97"/>
      <use x="61.279297" xlink:href="#DejaVuSans-108"/>
      <use x="89.0625" xlink:href="#DejaVuSans-108"/>
     </g>
    </g>
    <g id="line2d_21">
     <path d="M 370.478104 106.245211 
L 400.178104 106.245211 
" style="fill:none;stroke:#dd8452;stroke-linecap:round;stroke-width:2.25;"/>
    </g>
    <g id="line2d_22"/>
    <g id="text_17">
     <!-- one -->
     <g style="fill:#262626;" transform="translate(412.058104 111.442711)scale(0.1485 -0.1485)">
      <use xlink:href="#DejaVuSans-111"/>
      <use x="61.181641" xlink:href="#DejaVuSans-110"/>
      <use x="124.560547" xlink:href="#DejaVuSans-101"/>
     </g>
    </g>
   </g>
  </g>
  <g id="axes_2">
   <g id="patch_8">
    <path d="M 592.620896 315 
L 1036.8 315 
L 1036.8 43.2 
L 592.620896 43.2 
z
" style="fill:#eaeaf2;"/>
   </g>
   <g id="matplotlib.axis_3">
    <g id="xtick_8">
     <g id="text_18">
      <!-- all -->
      <g style="fill:#262626;" transform="translate(694.990023 338.78368)scale(0.1485 -0.1485)">
       <use xlink:href="#DejaVuSans-97"/>
       <use x="61.279297" xlink:href="#DejaVuSans-108"/>
       <use x="89.0625" xlink:href="#DejaVuSans-108"/>
      </g>
     </g>
    </g>
    <g id="xtick_9">
     <g id="text_19">
      <!-- one -->
      <g style="fill:#262626;" transform="translate(911.937763 338.78368)scale(0.1485 -0.1485)">
       <use xlink:href="#DejaVuSans-111"/>
       <use x="61.181641" xlink:href="#DejaVuSans-110"/>
       <use x="124.560547" xlink:href="#DejaVuSans-101"/>
      </g>
     </g>
    </g>
    <g id="text_20">
     <!-- Warming-up solutions -->
     <g style="fill:#262626;" transform="translate(725.934448 358.181484)scale(0.162 -0.162)">
      <use xlink:href="#DejaVuSans-87"/>
      <use x="98.783203" xlink:href="#DejaVuSans-97"/>
      <use x="160.0625" xlink:href="#DejaVuSans-114"/>
      <use x="201.160156" xlink:href="#DejaVuSans-109"/>
      <use x="298.572266" xlink:href="#DejaVuSans-105"/>
      <use x="326.355469" xlink:href="#DejaVuSans-110"/>
      <use x="389.734375" xlink:href="#DejaVuSans-103"/>
      <use x="453.210938" xlink:href="#DejaVuSans-45"/>
      <use x="489.294922" xlink:href="#DejaVuSans-117"/>
      <use x="552.673828" xlink:href="#DejaVuSans-112"/>
      <use x="616.150391" xlink:href="#DejaVuSans-32"/>
      <use x="647.9375" xlink:href="#DejaVuSans-115"/>
      <use x="700.037109" xlink:href="#DejaVuSans-111"/>
      <use x="761.21875" xlink:href="#DejaVuSans-108"/>
      <use x="789.001953" xlink:href="#DejaVuSans-117"/>
      <use x="852.380859" xlink:href="#DejaVuSans-116"/>
      <use x="891.589844" xlink:href="#DejaVuSans-105"/>
      <use x="919.373047" xlink:href="#DejaVuSans-111"/>
      <use x="980.554688" xlink:href="#DejaVuSans-110"/>
      <use x="1043.933594" xlink:href="#DejaVuSans-115"/>
     </g>
    </g>
   </g>
   <g id="matplotlib.axis_4">
    <g id="ytick_5">
     <g id="line2d_23">
      <path clip-path="url(#p11b2b4b2a6)" d="M 592.620896 275.31098 
L 1036.8 275.31098 
" style="fill:none;stroke:#ffffff;stroke-linecap:round;stroke-width:1.5;"/>
     </g>
    </g>
    <g id="ytick_6">
     <g id="line2d_24">
      <path clip-path="url(#p11b2b4b2a6)" d="M 592.620896 215.334837 
L 1036.8 215.334837 
" style="fill:none;stroke:#ffffff;stroke-linecap:round;stroke-width:1.5;"/>
     </g>
    </g>
    <g id="ytick_7">
     <g id="line2d_25">
      <path clip-path="url(#p11b2b4b2a6)" d="M 592.620896 155.358695 
L 1036.8 155.358695 
" style="fill:none;stroke:#ffffff;stroke-linecap:round;stroke-width:1.5;"/>
     </g>
    </g>
    <g id="ytick_8">
     <g id="line2d_26">
      <path clip-path="url(#p11b2b4b2a6)" d="M 592.620896 95.382552 
L 1036.8 95.382552 
" style="fill:none;stroke:#ffffff;stroke-linecap:round;stroke-width:1.5;"/>
     </g>
    </g>
   </g>
   <g id="patch_9">
    <path clip-path="url(#p11b2b4b2a6)" d="M 614.829851 267.357935 
L 792.501493 267.357935 
L 792.501493 236.096846 
L 614.829851 236.096846 
L 614.829851 267.357935 
z
" style="fill:#5875a4;stroke:#4c4c4c;stroke-linejoin:miter;stroke-width:2.25;"/>
   </g>
   <g id="patch_10">
    <path clip-path="url(#p11b2b4b2a6)" d="M 836.919403 296.12724 
L 1014.591045 296.12724 
L 1014.591045 249.421647 
L 836.919403 249.421647 
L 836.919403 296.12724 
z
" style="fill:#cc8963;stroke:#4c4c4c;stroke-linejoin:miter;stroke-width:2.25;"/>
   </g>
   <g id="line2d_27">
    <path clip-path="url(#p11b2b4b2a6)" d="M 703.665672 267.357935 
L 703.665672 285.835108 
" style="fill:none;stroke:#4c4c4c;stroke-linecap:round;stroke-width:2.25;"/>
   </g>
   <g id="line2d_28">
    <path clip-path="url(#p11b2b4b2a6)" d="M 703.665672 236.096846 
L 703.665672 215.039316 
" style="fill:none;stroke:#4c4c4c;stroke-linecap:round;stroke-width:2.25;"/>
   </g>
   <g id="line2d_29">
    <path clip-path="url(#p11b2b4b2a6)" d="M 659.247761 285.835108 
L 748.083582 285.835108 
" style="fill:none;stroke:#4c4c4c;stroke-linecap:round;stroke-width:2.25;"/>
   </g>
   <g id="line2d_30">
    <path clip-path="url(#p11b2b4b2a6)" d="M 659.247761 215.039316 
L 748.083582 215.039316 
" style="fill:none;stroke:#4c4c4c;stroke-linecap:round;stroke-width:2.25;"/>
   </g>
   <g id="line2d_31"/>
   <g id="line2d_32">
    <path clip-path="url(#p11b2b4b2a6)" d="M 925.755224 296.12724 
L 925.755224 302.645455 
" style="fill:none;stroke:#4c4c4c;stroke-linecap:round;stroke-width:2.25;"/>
   </g>
   <g id="line2d_33">
    <path clip-path="url(#p11b2b4b2a6)" d="M 925.755224 249.421647 
L 925.755224 230.865209 
" style="fill:none;stroke:#4c4c4c;stroke-linecap:round;stroke-width:2.25;"/>
   </g>
   <g id="line2d_34">
    <path clip-path="url(#p11b2b4b2a6)" d="M 881.337313 302.645455 
L 970.173134 302.645455 
" style="fill:none;stroke:#4c4c4c;stroke-linecap:round;stroke-width:2.25;"/>
   </g>
   <g id="line2d_35">
    <path clip-path="url(#p11b2b4b2a6)" d="M 881.337313 230.865209 
L 970.173134 230.865209 
" style="fill:none;stroke:#4c4c4c;stroke-linecap:round;stroke-width:2.25;"/>
   </g>
   <g id="line2d_36"/>
   <g id="line2d_37">
    <path clip-path="url(#p11b2b4b2a6)" d="M 614.829851 244.958394 
L 792.501493 244.958394 
" style="fill:none;stroke:#4c4c4c;stroke-linecap:round;stroke-width:2.25;"/>
   </g>
   <g id="line2d_38">
    <path clip-path="url(#p11b2b4b2a6)" d="M 836.919403 293.553534 
L 1014.591045 293.553534 
" style="fill:none;stroke:#4c4c4c;stroke-linecap:round;stroke-width:2.25;"/>
   </g>
   <g id="patch_11">
    <path d="M 592.620896 315 
L 592.620896 43.2 
" style="fill:none;stroke:#ffffff;stroke-linecap:square;stroke-linejoin:miter;stroke-width:1.875;"/>
   </g>
   <g id="patch_12">
    <path d="M 1036.8 315 
L 1036.8 43.2 
" style="fill:none;stroke:#ffffff;stroke-linecap:square;stroke-linejoin:miter;stroke-width:1.875;"/>
   </g>
   <g id="patch_13">
    <path d="M 592.620896 315 
L 1036.8 315 
" style="fill:none;stroke:#ffffff;stroke-linecap:square;stroke-linejoin:miter;stroke-width:1.875;"/>
   </g>
   <g id="patch_14">
    <path d="M 592.620896 43.2 
L 1036.8 43.2 
" style="fill:none;stroke:#ffffff;stroke-linecap:square;stroke-linejoin:miter;stroke-width:1.875;"/>
   </g>
  </g>
 </g>
 <defs>
  <clipPath id="p8211fe5418">
   <rect height="271.8" width="444.179104" x="144" y="43.2"/>
  </clipPath>
  <clipPath id="p11b2b4b2a6">
   <rect height="271.8" width="444.179104" x="592.620896" y="43.2"/>
  </clipPath>
 </defs>
</svg>
