<?xml version="1.0" encoding="utf-8" standalone="no"?>
<!DOCTYPE svg PUBLIC "-//W3C//DTD SVG 1.1//EN"
  "http://www.w3.org/Graphics/SVG/1.1/DTD/svg11.dtd">
<!-- Created with matplotlib (https://matplotlib.org/) -->
<svg height="286.2pt" version="1.1" viewBox="0 0 474.009375 286.2" width="474.009375pt" xmlns="http://www.w3.org/2000/svg" xmlns:xlink="http://www.w3.org/1999/xlink">
 <defs>
  <style type="text/css">
*{stroke-linecap:butt;stroke-linejoin:round;}
  </style>
 </defs>
 <g id="figure_1">
  <g id="patch_1">
   <path d="M 0 286.2 
L 474.009375 286.2 
L 474.009375 0 
L 0 0 
z
" style="fill:#ffffff;"/>
  </g>
  <g id="axes_1">
   <g id="patch_2">
    <path d="M 104.109375 279 
L 466.809375 279 
L 466.809375 7.2 
L 104.109375 7.2 
z
" style="fill:#eaeaf2;"/>
   </g>
   <g id="matplotlib.axis_1">
    <g id="xtick_1"/>
   </g>
   <g id="matplotlib.axis_2">
    <g id="ytick_1">
     <g id="line2d_1">
      <path clip-path="url(#ped11168168)" d="M 104.109375 256.997898 
L 466.809375 256.997898 
" style="fill:none;stroke:#ffffff;stroke-linecap:round;stroke-width:1.5;"/>
     </g>
     <g id="text_1">
      <!-- 0 -->
      <defs>
       <path d="M 31.78125 66.40625 
Q 24.171875 66.40625 20.328125 58.90625 
Q 16.5 51.421875 16.5 36.375 
Q 16.5 21.390625 20.328125 13.890625 
Q 24.171875 6.390625 31.78125 6.390625 
Q 39.453125 6.390625 43.28125 13.890625 
Q 47.125 21.390625 47.125 36.375 
Q 47.125 51.421875 43.28125 58.90625 
Q 39.453125 66.40625 31.78125 66.40625 
z
M 31.78125 74.21875 
Q 44.046875 74.21875 50.515625 64.515625 
Q 56.984375 54.828125 56.984375 36.375 
Q 56.984375 17.96875 50.515625 8.265625 
Q 44.046875 -1.421875 31.78125 -1.421875 
Q 19.53125 -1.421875 13.0625 8.265625 
Q 6.59375 17.96875 6.59375 36.375 
Q 6.59375 54.828125 13.0625 64.515625 
Q 19.53125 74.21875 31.78125 74.21875 
z
" id="DejaVuSans-48"/>
      </defs>
      <g style="fill:#262626;" transform="translate(81.11125 263.266609)scale(0.165 -0.165)">
       <use xlink:href="#DejaVuSans-48"/>
      </g>
     </g>
    </g>
    <g id="ytick_2">
     <g id="line2d_2">
      <path clip-path="url(#ped11168168)" d="M 104.109375 203.388039 
L 466.809375 203.388039 
" style="fill:none;stroke:#ffffff;stroke-linecap:round;stroke-width:1.5;"/>
     </g>
     <g id="text_2">
      <!-- 50000 -->
      <defs>
       <path d="M 10.796875 72.90625 
L 49.515625 72.90625 
L 49.515625 64.59375 
L 19.828125 64.59375 
L 19.828125 46.734375 
Q 21.96875 47.46875 24.109375 47.828125 
Q 26.265625 48.1875 28.421875 48.1875 
Q 40.625 48.1875 47.75 41.5 
Q 54.890625 34.8125 54.890625 23.390625 
Q 54.890625 11.625 47.5625 5.09375 
Q 40.234375 -1.421875 26.90625 -1.421875 
Q 22.3125 -1.421875 17.546875 -0.640625 
Q 12.796875 0.140625 7.71875 1.703125 
L 7.71875 11.625 
Q 12.109375 9.234375 16.796875 8.0625 
Q 21.484375 6.890625 26.703125 6.890625 
Q 35.15625 6.890625 40.078125 11.328125 
Q 45.015625 15.765625 45.015625 23.390625 
Q 45.015625 31 40.078125 35.4375 
Q 35.15625 39.890625 26.703125 39.890625 
Q 22.75 39.890625 18.8125 39.015625 
Q 14.890625 38.140625 10.796875 36.28125 
z
" id="DejaVuSans-53"/>
      </defs>
      <g style="fill:#262626;" transform="translate(39.11875 209.65675)scale(0.165 -0.165)">
       <use xlink:href="#DejaVuSans-53"/>
       <use x="63.623047" xlink:href="#DejaVuSans-48"/>
       <use x="127.246094" xlink:href="#DejaVuSans-48"/>
       <use x="190.869141" xlink:href="#DejaVuSans-48"/>
       <use x="254.492188" xlink:href="#DejaVuSans-48"/>
      </g>
     </g>
    </g>
    <g id="ytick_3">
     <g id="line2d_3">
      <path clip-path="url(#ped11168168)" d="M 104.109375 149.77818 
L 466.809375 149.77818 
" style="fill:none;stroke:#ffffff;stroke-linecap:round;stroke-width:1.5;"/>
     </g>
     <g id="text_3">
      <!-- 100000 -->
      <defs>
       <path d="M 12.40625 8.296875 
L 28.515625 8.296875 
L 28.515625 63.921875 
L 10.984375 60.40625 
L 10.984375 69.390625 
L 28.421875 72.90625 
L 38.28125 72.90625 
L 38.28125 8.296875 
L 54.390625 8.296875 
L 54.390625 0 
L 12.40625 0 
z
" id="DejaVuSans-49"/>
      </defs>
      <g style="fill:#262626;" transform="translate(28.620625 156.046891)scale(0.165 -0.165)">
       <use xlink:href="#DejaVuSans-49"/>
       <use x="63.623047" xlink:href="#DejaVuSans-48"/>
       <use x="127.246094" xlink:href="#DejaVuSans-48"/>
       <use x="190.869141" xlink:href="#DejaVuSans-48"/>
       <use x="254.492188" xlink:href="#DejaVuSans-48"/>
       <use x="318.115234" xlink:href="#DejaVuSans-48"/>
      </g>
     </g>
    </g>
    <g id="ytick_4">
     <g id="line2d_4">
      <path clip-path="url(#ped11168168)" d="M 104.109375 96.168321 
L 466.809375 96.168321 
" style="fill:none;stroke:#ffffff;stroke-linecap:round;stroke-width:1.5;"/>
     </g>
     <g id="text_4">
      <!-- 150000 -->
      <g style="fill:#262626;" transform="translate(28.620625 102.437032)scale(0.165 -0.165)">
       <use xlink:href="#DejaVuSans-49"/>
       <use x="63.623047" xlink:href="#DejaVuSans-53"/>
       <use x="127.246094" xlink:href="#DejaVuSans-48"/>
       <use x="190.869141" xlink:href="#DejaVuSans-48"/>
       <use x="254.492188" xlink:href="#DejaVuSans-48"/>
       <use x="318.115234" xlink:href="#DejaVuSans-48"/>
      </g>
     </g>
    </g>
    <g id="ytick_5">
     <g id="line2d_5">
      <path clip-path="url(#ped11168168)" d="M 104.109375 42.558462 
L 466.809375 42.558462 
" style="fill:none;stroke:#ffffff;stroke-linecap:round;stroke-width:1.5;"/>
     </g>
     <g id="text_5">
      <!-- 200000 -->
      <defs>
       <path d="M 19.1875 8.296875 
L 53.609375 8.296875 
L 53.609375 0 
L 7.328125 0 
L 7.328125 8.296875 
Q 12.9375 14.109375 22.625 23.890625 
Q 32.328125 33.6875 34.8125 36.53125 
Q 39.546875 41.84375 41.421875 45.53125 
Q 43.3125 49.21875 43.3125 52.78125 
Q 43.3125 58.59375 39.234375 62.25 
Q 35.15625 65.921875 28.609375 65.921875 
Q 23.96875 65.921875 18.8125 64.3125 
Q 13.671875 62.703125 7.8125 59.421875 
L 7.8125 69.390625 
Q 13.765625 71.78125 18.9375 73 
Q 24.125 74.21875 28.421875 74.21875 
Q 39.75 74.21875 46.484375 68.546875 
Q 53.21875 62.890625 53.21875 53.421875 
Q 53.21875 48.921875 51.53125 44.890625 
Q 49.859375 40.875 45.40625 35.40625 
Q 44.1875 33.984375 37.640625 27.21875 
Q 31.109375 20.453125 19.1875 8.296875 
z
" id="DejaVuSans-50"/>
      </defs>
      <g style="fill:#262626;" transform="translate(28.620625 48.827173)scale(0.165 -0.165)">
       <use xlink:href="#DejaVuSans-50"/>
       <use x="63.623047" xlink:href="#DejaVuSans-48"/>
       <use x="127.246094" xlink:href="#DejaVuSans-48"/>
       <use x="190.869141" xlink:href="#DejaVuSans-48"/>
       <use x="254.492188" xlink:href="#DejaVuSans-48"/>
       <use x="318.115234" xlink:href="#DejaVuSans-48"/>
      </g>
     </g>
    </g>
    <g id="text_6">
     <!-- objective -->
     <defs>
      <path d="M 30.609375 48.390625 
Q 23.390625 48.390625 19.1875 42.75 
Q 14.984375 37.109375 14.984375 27.296875 
Q 14.984375 17.484375 19.15625 11.84375 
Q 23.34375 6.203125 30.609375 6.203125 
Q 37.796875 6.203125 41.984375 11.859375 
Q 46.1875 17.53125 46.1875 27.296875 
Q 46.1875 37.015625 41.984375 42.703125 
Q 37.796875 48.390625 30.609375 48.390625 
z
M 30.609375 56 
Q 42.328125 56 49.015625 48.375 
Q 55.71875 40.765625 55.71875 27.296875 
Q 55.71875 13.875 49.015625 6.21875 
Q 42.328125 -1.421875 30.609375 -1.421875 
Q 18.84375 -1.421875 12.171875 6.21875 
Q 5.515625 13.875 5.515625 27.296875 
Q 5.515625 40.765625 12.171875 48.375 
Q 18.84375 56 30.609375 56 
z
" id="DejaVuSans-111"/>
      <path d="M 48.6875 27.296875 
Q 48.6875 37.203125 44.609375 42.84375 
Q 40.53125 48.484375 33.40625 48.484375 
Q 26.265625 48.484375 22.1875 42.84375 
Q 18.109375 37.203125 18.109375 27.296875 
Q 18.109375 17.390625 22.1875 11.75 
Q 26.265625 6.109375 33.40625 6.109375 
Q 40.53125 6.109375 44.609375 11.75 
Q 48.6875 17.390625 48.6875 27.296875 
z
M 18.109375 46.390625 
Q 20.953125 51.265625 25.265625 53.625 
Q 29.59375 56 35.59375 56 
Q 45.5625 56 51.78125 48.09375 
Q 58.015625 40.1875 58.015625 27.296875 
Q 58.015625 14.40625 51.78125 6.484375 
Q 45.5625 -1.421875 35.59375 -1.421875 
Q 29.59375 -1.421875 25.265625 0.953125 
Q 20.953125 3.328125 18.109375 8.203125 
L 18.109375 0 
L 9.078125 0 
L 9.078125 75.984375 
L 18.109375 75.984375 
z
" id="DejaVuSans-98"/>
      <path d="M 9.421875 54.6875 
L 18.40625 54.6875 
L 18.40625 -0.984375 
Q 18.40625 -11.421875 14.421875 -16.109375 
Q 10.453125 -20.796875 1.609375 -20.796875 
L -1.8125 -20.796875 
L -1.8125 -13.1875 
L 0.59375 -13.1875 
Q 5.71875 -13.1875 7.5625 -10.8125 
Q 9.421875 -8.453125 9.421875 -0.984375 
z
M 9.421875 75.984375 
L 18.40625 75.984375 
L 18.40625 64.59375 
L 9.421875 64.59375 
z
" id="DejaVuSans-106"/>
      <path d="M 56.203125 29.59375 
L 56.203125 25.203125 
L 14.890625 25.203125 
Q 15.484375 15.921875 20.484375 11.0625 
Q 25.484375 6.203125 34.421875 6.203125 
Q 39.59375 6.203125 44.453125 7.46875 
Q 49.3125 8.734375 54.109375 11.28125 
L 54.109375 2.78125 
Q 49.265625 0.734375 44.1875 -0.34375 
Q 39.109375 -1.421875 33.890625 -1.421875 
Q 20.796875 -1.421875 13.15625 6.1875 
Q 5.515625 13.8125 5.515625 26.8125 
Q 5.515625 40.234375 12.765625 48.109375 
Q 20.015625 56 32.328125 56 
Q 43.359375 56 49.78125 48.890625 
Q 56.203125 41.796875 56.203125 29.59375 
z
M 47.21875 32.234375 
Q 47.125 39.59375 43.09375 43.984375 
Q 39.0625 48.390625 32.421875 48.390625 
Q 24.90625 48.390625 20.390625 44.140625 
Q 15.875 39.890625 15.1875 32.171875 
z
" id="DejaVuSans-101"/>
      <path d="M 48.78125 52.59375 
L 48.78125 44.1875 
Q 44.96875 46.296875 41.140625 47.34375 
Q 37.3125 48.390625 33.40625 48.390625 
Q 24.65625 48.390625 19.8125 42.84375 
Q 14.984375 37.3125 14.984375 27.296875 
Q 14.984375 17.28125 19.8125 11.734375 
Q 24.65625 6.203125 33.40625 6.203125 
Q 37.3125 6.203125 41.140625 7.25 
Q 44.96875 8.296875 48.78125 10.40625 
L 48.78125 2.09375 
Q 45.015625 0.34375 40.984375 -0.53125 
Q 36.96875 -1.421875 32.421875 -1.421875 
Q 20.0625 -1.421875 12.78125 6.34375 
Q 5.515625 14.109375 5.515625 27.296875 
Q 5.515625 40.671875 12.859375 48.328125 
Q 20.21875 56 33.015625 56 
Q 37.15625 56 41.109375 55.140625 
Q 45.0625 54.296875 48.78125 52.59375 
z
" id="DejaVuSans-99"/>
      <path d="M 18.3125 70.21875 
L 18.3125 54.6875 
L 36.8125 54.6875 
L 36.8125 47.703125 
L 18.3125 47.703125 
L 18.3125 18.015625 
Q 18.3125 11.328125 20.140625 9.421875 
Q 21.96875 7.515625 27.59375 7.515625 
L 36.8125 7.515625 
L 36.8125 0 
L 27.59375 0 
Q 17.1875 0 13.234375 3.875 
Q 9.28125 7.765625 9.28125 18.015625 
L 9.28125 47.703125 
L 2.6875 47.703125 
L 2.6875 54.6875 
L 9.28125 54.6875 
L 9.28125 70.21875 
z
" id="DejaVuSans-116"/>
      <path d="M 9.421875 54.6875 
L 18.40625 54.6875 
L 18.40625 0 
L 9.421875 0 
z
M 9.421875 75.984375 
L 18.40625 75.984375 
L 18.40625 64.59375 
L 9.421875 64.59375 
z
" id="DejaVuSans-105"/>
      <path d="M 2.984375 54.6875 
L 12.5 54.6875 
L 29.59375 8.796875 
L 46.6875 54.6875 
L 56.203125 54.6875 
L 35.6875 0 
L 23.484375 0 
z
" id="DejaVuSans-118"/>
     </defs>
     <g style="fill:#262626;" transform="translate(20.877187 184.200469)rotate(-90)scale(0.18 -0.18)">
      <use xlink:href="#DejaVuSans-111"/>
      <use x="61.181641" xlink:href="#DejaVuSans-98"/>
      <use x="124.658203" xlink:href="#DejaVuSans-106"/>
      <use x="152.441406" xlink:href="#DejaVuSans-101"/>
      <use x="213.964844" xlink:href="#DejaVuSans-99"/>
      <use x="268.945312" xlink:href="#DejaVuSans-116"/>
      <use x="308.154297" xlink:href="#DejaVuSans-105"/>
      <use x="335.9375" xlink:href="#DejaVuSans-118"/>
      <use x="395.117188" xlink:href="#DejaVuSans-101"/>
     </g>
    </g>
   </g>
   <g id="PolyCollection_1">
    <defs>
     <path d="M 285.459375 -19.554545 
L 283.347286 -19.554545 
L 282.561084 -22.050413 
L 281.557046 -24.546281 
L 280.303796 -27.042149 
L 278.775551 -29.538017 
L 276.955998 -32.033884 
L 274.842313 -34.529752 
L 272.448843 -37.02562 
L 269.809933 -39.521488 
L 266.981335 -42.017355 
L 264.039749 -44.513223 
L 261.080186 -47.009091 
L 258.211137 -49.504959 
L 255.547801 -52.000826 
L 253.203922 -54.496694 
L 251.283057 -56.992562 
L 249.870223 -59.48843 
L 249.024873 -61.984298 
L 248.776041 -64.480165 
L 249.120225 -66.976033 
L 250.022194 -69.471901 
L 251.418589 -71.967769 
L 253.223777 -74.463636 
L 255.337205 -76.959504 
L 257.651343 -79.455372 
L 260.059343 -81.95124 
L 262.461641 -84.447107 
L 264.771003 -86.942975 
L 266.915742 -89.438843 
L 268.841151 -91.934711 
L 270.509379 -94.430579 
L 271.898168 -96.926446 
L 272.998903 -99.422314 
L 273.814414 -101.918182 
L 274.356907 -104.41405 
L 274.646247 -106.909917 
L 274.708677 -109.405785 
L 274.575944 -111.901653 
L 274.284668 -114.397521 
L 273.875752 -116.893388 
L 273.393607 -119.389256 
L 272.885016 -121.885124 
L 272.397511 -124.380992 
L 271.977281 -126.87686 
L 271.666708 -129.372727 
L 271.501727 -131.868595 
L 271.509309 -134.364463 
L 271.705324 -136.860331 
L 272.09305 -139.356198 
L 272.662494 -141.852066 
L 273.390547 -144.347934 
L 274.241887 -146.843802 
L 275.170381 -149.339669 
L 276.120674 -151.835537 
L 277.029607 -154.331405 
L 277.827145 -156.827273 
L 278.436637 -159.32314 
L 278.774376 -161.819008 
L 278.748682 -164.314876 
L 278.258918 -166.810744 
L 277.195086 -169.306612 
L 275.438737 -171.802479 
L 272.865955 -174.298347 
L 269.353035 -176.794215 
L 264.785212 -179.290083 
L 259.068347 -181.78595 
L 252.142963 -184.281818 
L 243.99946 -186.777686 
L 234.692795 -189.273554 
L 224.354574 -191.769421 
L 213.200357 -194.265289 
L 201.530221 -196.761157 
L 189.721131 -199.257025 
L 178.210612 -201.752893 
L 167.472237 -204.24876 
L 157.984678 -206.744628 
L 150.197063 -209.240496 
L 144.494146 -211.736364 
L 141.165082 -214.232231 
L 140.379375 -216.728099 
L 142.172784 -219.223967 
L 146.444843 -221.719835 
L 152.968213 -224.215702 
L 161.408673 -226.71157 
L 171.35332 -229.207438 
L 182.343698 -231.703306 
L 193.910207 -234.199174 
L 205.604272 -236.695041 
L 217.025356 -239.190909 
L 227.840766 -241.686777 
L 237.797316 -244.182645 
L 246.724881 -246.678512 
L 254.53281 -249.17438 
L 261.20077 -251.670248 
L 266.765899 -254.166116 
L 271.308199 -256.661983 
L 274.935887 -259.157851 
L 277.772023 -261.653719 
L 279.943331 -264.149587 
L 281.57165 -266.645455 
L 285.459375 -266.645455 
L 285.459375 -266.645455 
L 285.459375 -264.149587 
L 285.459375 -261.653719 
L 285.459375 -259.157851 
L 285.459375 -256.661983 
L 285.459375 -254.166116 
L 285.459375 -251.670248 
L 285.459375 -249.17438 
L 285.459375 -246.678512 
L 285.459375 -244.182645 
L 285.459375 -241.686777 
L 285.459375 -239.190909 
L 285.459375 -236.695041 
L 285.459375 -234.199174 
L 285.459375 -231.703306 
L 285.459375 -229.207438 
L 285.459375 -226.71157 
L 285.459375 -224.215702 
L 285.459375 -221.719835 
L 285.459375 -219.223967 
L 285.459375 -216.728099 
L 285.459375 -214.232231 
L 285.459375 -211.736364 
L 285.459375 -209.240496 
L 285.459375 -206.744628 
L 285.459375 -204.24876 
L 285.459375 -201.752893 
L 285.459375 -199.257025 
L 285.459375 -196.761157 
L 285.459375 -194.265289 
L 285.459375 -191.769421 
L 285.459375 -189.273554 
L 285.459375 -186.777686 
L 285.459375 -184.281818 
L 285.459375 -181.78595 
L 285.459375 -179.290083 
L 285.459375 -176.794215 
L 285.459375 -174.298347 
L 285.459375 -171.802479 
L 285.459375 -169.306612 
L 285.459375 -166.810744 
L 285.459375 -164.314876 
L 285.459375 -161.819008 
L 285.459375 -159.32314 
L 285.459375 -156.827273 
L 285.459375 -154.331405 
L 285.459375 -151.835537 
L 285.459375 -149.339669 
L 285.459375 -146.843802 
L 285.459375 -144.347934 
L 285.459375 -141.852066 
L 285.459375 -139.356198 
L 285.459375 -136.860331 
L 285.459375 -134.364463 
L 285.459375 -131.868595 
L 285.459375 -129.372727 
L 285.459375 -126.87686 
L 285.459375 -124.380992 
L 285.459375 -121.885124 
L 285.459375 -119.389256 
L 285.459375 -116.893388 
L 285.459375 -114.397521 
L 285.459375 -111.901653 
L 285.459375 -109.405785 
L 285.459375 -106.909917 
L 285.459375 -104.41405 
L 285.459375 -101.918182 
L 285.459375 -99.422314 
L 285.459375 -96.926446 
L 285.459375 -94.430579 
L 285.459375 -91.934711 
L 285.459375 -89.438843 
L 285.459375 -86.942975 
L 285.459375 -84.447107 
L 285.459375 -81.95124 
L 285.459375 -79.455372 
L 285.459375 -76.959504 
L 285.459375 -74.463636 
L 285.459375 -71.967769 
L 285.459375 -69.471901 
L 285.459375 -66.976033 
L 285.459375 -64.480165 
L 285.459375 -61.984298 
L 285.459375 -59.48843 
L 285.459375 -56.992562 
L 285.459375 -54.496694 
L 285.459375 -52.000826 
L 285.459375 -49.504959 
L 285.459375 -47.009091 
L 285.459375 -44.513223 
L 285.459375 -42.017355 
L 285.459375 -39.521488 
L 285.459375 -37.02562 
L 285.459375 -34.529752 
L 285.459375 -32.033884 
L 285.459375 -29.538017 
L 285.459375 -27.042149 
L 285.459375 -24.546281 
L 285.459375 -22.050413 
L 285.459375 -19.554545 
z
" id="m6e18e30ff2" style="stroke:#4c4c4c;stroke-width:2.25;"/>
    </defs>
    <g clip-path="url(#ped11168168)">
     <use style="fill:#5875a4;stroke:#4c4c4c;stroke-width:2.25;" x="0" xlink:href="#m6e18e30ff2" y="286.2"/>
    </g>
   </g>
   <g id="PolyCollection_2">
    <defs>
     <path d="M 290.187849 -20.902492 
L 285.459375 -20.902492 
L 285.459375 -23.220523 
L 285.459375 -25.538554 
L 285.459375 -27.856585 
L 285.459375 -30.174615 
L 285.459375 -32.492646 
L 285.459375 -34.810677 
L 285.459375 -37.128707 
L 285.459375 -39.446738 
L 285.459375 -41.764769 
L 285.459375 -44.0828 
L 285.459375 -46.40083 
L 285.459375 -48.718861 
L 285.459375 -51.036892 
L 285.459375 -53.354922 
L 285.459375 -55.672953 
L 285.459375 -57.990984 
L 285.459375 -60.309015 
L 285.459375 -62.627045 
L 285.459375 -64.945076 
L 285.459375 -67.263107 
L 285.459375 -69.581137 
L 285.459375 -71.899168 
L 285.459375 -74.217199 
L 285.459375 -76.53523 
L 285.459375 -78.85326 
L 285.459375 -81.171291 
L 285.459375 -83.489322 
L 285.459375 -85.807353 
L 285.459375 -88.125383 
L 285.459375 -90.443414 
L 285.459375 -92.761445 
L 285.459375 -95.079475 
L 285.459375 -97.397506 
L 285.459375 -99.715537 
L 285.459375 -102.033568 
L 285.459375 -104.351598 
L 285.459375 -106.669629 
L 285.459375 -108.98766 
L 285.459375 -111.30569 
L 285.459375 -113.623721 
L 285.459375 -115.941752 
L 285.459375 -118.259783 
L 285.459375 -120.577813 
L 285.459375 -122.895844 
L 285.459375 -125.213875 
L 285.459375 -127.531906 
L 285.459375 -129.849936 
L 285.459375 -132.167967 
L 285.459375 -134.485998 
L 285.459375 -136.804028 
L 285.459375 -139.122059 
L 285.459375 -141.44009 
L 285.459375 -143.758121 
L 285.459375 -146.076151 
L 285.459375 -148.394182 
L 285.459375 -150.712213 
L 285.459375 -153.030243 
L 285.459375 -155.348274 
L 285.459375 -157.666305 
L 285.459375 -159.984336 
L 285.459375 -162.302366 
L 285.459375 -164.620397 
L 285.459375 -166.938428 
L 285.459375 -169.256458 
L 285.459375 -171.574489 
L 285.459375 -173.89252 
L 285.459375 -176.210551 
L 285.459375 -178.528581 
L 285.459375 -180.846612 
L 285.459375 -183.164643 
L 285.459375 -185.482674 
L 285.459375 -187.800704 
L 285.459375 -190.118735 
L 285.459375 -192.436766 
L 285.459375 -194.754796 
L 285.459375 -197.072827 
L 285.459375 -199.390858 
L 285.459375 -201.708889 
L 285.459375 -204.026919 
L 285.459375 -206.34495 
L 285.459375 -208.662981 
L 285.459375 -210.981011 
L 285.459375 -213.299042 
L 285.459375 -215.617073 
L 285.459375 -217.935104 
L 285.459375 -220.253134 
L 285.459375 -222.571165 
L 285.459375 -224.889196 
L 285.459375 -227.207226 
L 285.459375 -229.525257 
L 285.459375 -231.843288 
L 285.459375 -234.161319 
L 285.459375 -236.479349 
L 285.459375 -238.79738 
L 285.459375 -241.115411 
L 285.459375 -243.433442 
L 285.459375 -245.751472 
L 285.459375 -248.069503 
L 285.459375 -250.387534 
L 295.798157 -250.387534 
L 295.798157 -250.387534 
L 299.443138 -248.069503 
L 304.028182 -245.751472 
L 309.66684 -243.433442 
L 316.44213 -241.115411 
L 324.390436 -238.79738 
L 333.485554 -236.479349 
L 343.624878 -234.161319 
L 354.619967 -231.843288 
L 366.193614 -229.525257 
L 377.985157 -227.207226 
L 389.564911 -224.889196 
L 400.457576 -222.571165 
L 410.173183 -220.253134 
L 418.24297 -217.935104 
L 424.256611 -215.617073 
L 427.896713 -213.299042 
L 428.966559 -210.981011 
L 427.407721 -208.662981 
L 423.305341 -206.34495 
L 416.880434 -204.026919 
L 408.470158 -201.708889 
L 398.498522 -199.390858 
L 387.441058 -197.072827 
L 375.787554 -194.754796 
L 364.006857 -192.436766 
L 352.517187 -190.118735 
L 341.664348 -187.800704 
L 331.709035 -185.482674 
L 322.823167 -183.164643 
L 315.094184 -180.846612 
L 308.535468 -178.528581 
L 303.100714 -176.210551 
L 298.700051 -173.89252 
L 295.21597 -171.574489 
L 292.517611 -169.256458 
L 290.472447 -166.938428 
L 288.954978 -164.620397 
L 287.852421 -162.302366 
L 287.067769 -159.984336 
L 286.520705 -157.666305 
L 286.146977 -155.348274 
L 285.896787 -153.030243 
L 285.732668 -150.712213 
L 285.627223 -148.394182 
L 285.560971 -146.076151 
L 285.520463 -143.758121 
L 285.496724 -141.44009 
L 285.484048 -139.122059 
L 285.479125 -136.804028 
L 285.480467 -134.485998 
L 285.488096 -132.167967 
L 285.50346 -129.849936 
L 285.529571 -127.531906 
L 285.571317 -125.213875 
L 285.635973 -122.895844 
L 285.733871 -120.577813 
L 285.879212 -118.259783 
L 286.090967 -115.941752 
L 286.393802 -113.623721 
L 286.818897 -111.30569 
L 287.404499 -108.98766 
L 288.196034 -106.669629 
L 289.245529 -104.351598 
L 290.610128 -102.033568 
L 292.349513 -99.715537 
L 294.522095 -97.397506 
L 297.179989 -95.079475 
L 300.362943 -92.761445 
L 304.091576 -90.443414 
L 308.360529 -88.125383 
L 313.132264 -85.807353 
L 318.332399 -83.489322 
L 323.847461 -81.171291 
L 329.52584 -78.85326 
L 335.182449 -76.53523 
L 340.607227 -74.217199 
L 345.57715 -71.899168 
L 349.87091 -69.581137 
L 353.284985 -67.263107 
L 355.649508 -64.945076 
L 356.842227 -62.627045 
L 356.798966 -60.309015 
L 355.519346 -57.990984 
L 353.06704 -55.672953 
L 349.564536 -53.354922 
L 345.182967 -51.036892 
L 340.128228 -48.718861 
L 334.62491 -46.40083 
L 328.89984 -44.0828 
L 323.166867 -41.764769 
L 317.614289 -39.446738 
L 312.395872 -37.128707 
L 307.625865 -34.810677 
L 303.377941 -32.492646 
L 299.687544 -30.174615 
L 296.556836 -27.856585 
L 293.961293 -25.538554 
L 291.857006 -23.220523 
L 290.187849 -20.902492 
z
" id="m5432212158" style="stroke:#4c4c4c;stroke-width:2.25;"/>
    </defs>
    <g clip-path="url(#ped11168168)">
     <use style="fill:#cc8963;stroke:#4c4c4c;stroke-width:2.25;" x="0" xlink:href="#m5432212158" y="286.2"/>
    </g>
   </g>
   <g id="patch_3">
    <path clip-path="url(#ped11168168)" d="M 285.459375 256.997898 
L 285.459375 256.997898 
L 285.459375 256.997898 
L 285.459375 256.997898 
z
" style="fill:#5875a4;stroke:#4c4c4c;stroke-linejoin:miter;stroke-width:1.125;"/>
   </g>
   <g id="patch_4">
    <path clip-path="url(#ped11168168)" d="M 285.459375 256.997898 
L 285.459375 256.997898 
L 285.459375 256.997898 
L 285.459375 256.997898 
z
" style="fill:#cc8963;stroke:#4c4c4c;stroke-linejoin:miter;stroke-width:1.125;"/>
   </g>
   <g id="line2d_6">
    <path clip-path="url(#ped11168168)" d="M 272.226714 147.327137 
L 285.459375 147.327137 
" style="fill:none;stroke:#4c4c4c;stroke-dasharray:7.59375,7.59375;stroke-dashoffset:0;stroke-width:2.25;"/>
   </g>
   <g id="line2d_7">
    <path clip-path="url(#ped11168168)" d="M 145.903798 74.238672 
L 285.459375 74.238672 
" style="fill:none;stroke:#4c4c4c;stroke-dasharray:15.1875,15.1875;stroke-dashoffset:0;stroke-width:2.25;"/>
   </g>
   <g id="line2d_8">
    <path clip-path="url(#ped11168168)" d="M 143.60565 66.646444 
L 285.459375 66.646444 
" style="fill:none;stroke:#4c4c4c;stroke-dasharray:7.59375,7.59375;stroke-dashoffset:0;stroke-width:2.25;"/>
   </g>
   <g id="line2d_9">
    <path clip-path="url(#ped11168168)" d="M 285.459375 222.386301 
L 354.947607 222.386301 
" style="fill:none;stroke:#4c4c4c;stroke-dasharray:7.59375,7.59375;stroke-dashoffset:0;stroke-width:2.25;"/>
   </g>
   <g id="line2d_10">
    <path clip-path="url(#ped11168168)" d="M 285.459375 75.774059 
L 427.531488 75.774059 
" style="fill:none;stroke:#4c4c4c;stroke-dasharray:15.1875,15.1875;stroke-dashoffset:0;stroke-width:2.25;"/>
   </g>
   <g id="line2d_11">
    <path clip-path="url(#ped11168168)" d="M 285.459375 74.515299 
L 427.531488 74.515299 
" style="fill:none;stroke:#4c4c4c;stroke-dasharray:7.59375,7.59375;stroke-dashoffset:0;stroke-width:2.25;"/>
   </g>
   <g id="patch_5">
    <path d="M 104.109375 279 
L 104.109375 7.2 
" style="fill:none;stroke:#ffffff;stroke-linecap:square;stroke-linejoin:miter;stroke-width:1.875;"/>
   </g>
   <g id="patch_6">
    <path d="M 466.809375 279 
L 466.809375 7.2 
" style="fill:none;stroke:#ffffff;stroke-linecap:square;stroke-linejoin:miter;stroke-width:1.875;"/>
   </g>
   <g id="patch_7">
    <path d="M 104.109375 279 
L 466.809375 279 
" style="fill:none;stroke:#ffffff;stroke-linecap:square;stroke-linejoin:miter;stroke-width:1.875;"/>
   </g>
   <g id="patch_8">
    <path d="M 104.109375 7.2 
L 466.809375 7.2 
" style="fill:none;stroke:#ffffff;stroke-linecap:square;stroke-linejoin:miter;stroke-width:1.875;"/>
   </g>
   <g id="legend_1">
    <g id="patch_9">
     <path d="M 115.659375 270.75 
L 211.369687 270.75 
Q 214.669688 270.75 214.669688 267.45 
L 214.669688 194.991562 
Q 214.669688 191.691562 211.369687 191.691562 
L 115.659375 191.691562 
Q 112.359375 191.691562 112.359375 194.991562 
L 112.359375 267.45 
Q 112.359375 270.75 115.659375 270.75 
z
" style="fill:#eaeaf2;opacity:0.8;stroke:#cccccc;stroke-linejoin:miter;stroke-width:1.5;"/>
    </g>
    <g id="text_7">
     <!-- Elitist -->
     <defs>
      <path d="M 9.8125 72.90625 
L 55.90625 72.90625 
L 55.90625 64.59375 
L 19.671875 64.59375 
L 19.671875 43.015625 
L 54.390625 43.015625 
L 54.390625 34.71875 
L 19.671875 34.71875 
L 19.671875 8.296875 
L 56.78125 8.296875 
L 56.78125 0 
L 9.8125 0 
z
" id="DejaVuSans-69"/>
      <path d="M 9.421875 75.984375 
L 18.40625 75.984375 
L 18.40625 0 
L 9.421875 0 
z
" id="DejaVuSans-108"/>
      <path d="M 44.28125 53.078125 
L 44.28125 44.578125 
Q 40.484375 46.53125 36.375 47.5 
Q 32.28125 48.484375 27.875 48.484375 
Q 21.1875 48.484375 17.84375 46.4375 
Q 14.5 44.390625 14.5 40.28125 
Q 14.5 37.15625 16.890625 35.375 
Q 19.28125 33.59375 26.515625 31.984375 
L 29.59375 31.296875 
Q 39.15625 29.25 43.1875 25.515625 
Q 47.21875 21.78125 47.21875 15.09375 
Q 47.21875 7.46875 41.1875 3.015625 
Q 35.15625 -1.421875 24.609375 -1.421875 
Q 20.21875 -1.421875 15.453125 -0.5625 
Q 10.6875 0.296875 5.421875 2 
L 5.421875 11.28125 
Q 10.40625 8.6875 15.234375 7.390625 
Q 20.0625 6.109375 24.8125 6.109375 
Q 31.15625 6.109375 34.5625 8.28125 
Q 37.984375 10.453125 37.984375 14.40625 
Q 37.984375 18.0625 35.515625 20.015625 
Q 33.0625 21.96875 24.703125 23.78125 
L 21.578125 24.515625 
Q 13.234375 26.265625 9.515625 29.90625 
Q 5.8125 33.546875 5.8125 39.890625 
Q 5.8125 47.609375 11.28125 51.796875 
Q 16.75 56 26.8125 56 
Q 31.78125 56 36.171875 55.265625 
Q 40.578125 54.546875 44.28125 53.078125 
z
" id="DejaVuSans-115"/>
     </defs>
     <g style="fill:#262626;" transform="translate(138.581719 211.96875)scale(0.18 -0.18)">
      <use xlink:href="#DejaVuSans-69"/>
      <use x="63.183594" xlink:href="#DejaVuSans-108"/>
      <use x="90.966797" xlink:href="#DejaVuSans-105"/>
      <use x="118.75" xlink:href="#DejaVuSans-116"/>
      <use x="157.958984" xlink:href="#DejaVuSans-105"/>
      <use x="185.742188" xlink:href="#DejaVuSans-115"/>
      <use x="237.841797" xlink:href="#DejaVuSans-116"/>
     </g>
    </g>
    <g id="patch_10">
     <path d="M 118.959375 236.499609 
L 151.959375 236.499609 
L 151.959375 224.949609 
L 118.959375 224.949609 
z
" style="fill:#5875a4;stroke:#4c4c4c;stroke-linejoin:miter;stroke-width:1.125;"/>
    </g>
    <g id="text_8">
     <!-- False -->
     <defs>
      <path d="M 9.8125 72.90625 
L 51.703125 72.90625 
L 51.703125 64.59375 
L 19.671875 64.59375 
L 19.671875 43.109375 
L 48.578125 43.109375 
L 48.578125 34.8125 
L 19.671875 34.8125 
L 19.671875 0 
L 9.8125 0 
z
" id="DejaVuSans-70"/>
      <path d="M 34.28125 27.484375 
Q 23.390625 27.484375 19.1875 25 
Q 14.984375 22.515625 14.984375 16.5 
Q 14.984375 11.71875 18.140625 8.90625 
Q 21.296875 6.109375 26.703125 6.109375 
Q 34.1875 6.109375 38.703125 11.40625 
Q 43.21875 16.703125 43.21875 25.484375 
L 43.21875 27.484375 
z
M 52.203125 31.203125 
L 52.203125 0 
L 43.21875 0 
L 43.21875 8.296875 
Q 40.140625 3.328125 35.546875 0.953125 
Q 30.953125 -1.421875 24.3125 -1.421875 
Q 15.921875 -1.421875 10.953125 3.296875 
Q 6 8.015625 6 15.921875 
Q 6 25.140625 12.171875 29.828125 
Q 18.359375 34.515625 30.609375 34.515625 
L 43.21875 34.515625 
L 43.21875 35.40625 
Q 43.21875 41.609375 39.140625 45 
Q 35.0625 48.390625 27.6875 48.390625 
Q 23 48.390625 18.546875 47.265625 
Q 14.109375 46.140625 10.015625 43.890625 
L 10.015625 52.203125 
Q 14.9375 54.109375 19.578125 55.046875 
Q 24.21875 56 28.609375 56 
Q 40.484375 56 46.34375 49.84375 
Q 52.203125 43.703125 52.203125 31.203125 
z
" id="DejaVuSans-97"/>
     </defs>
     <g style="fill:#262626;" transform="translate(165.159375 236.499609)scale(0.165 -0.165)">
      <use xlink:href="#DejaVuSans-70"/>
      <use x="57.378906" xlink:href="#DejaVuSans-97"/>
      <use x="118.658203" xlink:href="#DejaVuSans-108"/>
      <use x="146.441406" xlink:href="#DejaVuSans-115"/>
      <use x="198.541016" xlink:href="#DejaVuSans-101"/>
     </g>
    </g>
    <g id="patch_11">
     <path d="M 118.959375 260.718516 
L 151.959375 260.718516 
L 151.959375 249.168516 
L 118.959375 249.168516 
z
" style="fill:#cc8963;stroke:#4c4c4c;stroke-linejoin:miter;stroke-width:1.125;"/>
    </g>
    <g id="text_9">
     <!-- True -->
     <defs>
      <path d="M -0.296875 72.90625 
L 61.375 72.90625 
L 61.375 64.59375 
L 35.5 64.59375 
L 35.5 0 
L 25.59375 0 
L 25.59375 64.59375 
L -0.296875 64.59375 
z
" id="DejaVuSans-84"/>
      <path d="M 41.109375 46.296875 
Q 39.59375 47.171875 37.8125 47.578125 
Q 36.03125 48 33.890625 48 
Q 26.265625 48 22.1875 43.046875 
Q 18.109375 38.09375 18.109375 28.8125 
L 18.109375 0 
L 9.078125 0 
L 9.078125 54.6875 
L 18.109375 54.6875 
L 18.109375 46.1875 
Q 20.953125 51.171875 25.484375 53.578125 
Q 30.03125 56 36.53125 56 
Q 37.453125 56 38.578125 55.875 
Q 39.703125 55.765625 41.0625 55.515625 
z
" id="DejaVuSans-114"/>
      <path d="M 8.5 21.578125 
L 8.5 54.6875 
L 17.484375 54.6875 
L 17.484375 21.921875 
Q 17.484375 14.15625 20.5 10.265625 
Q 23.53125 6.390625 29.59375 6.390625 
Q 36.859375 6.390625 41.078125 11.03125 
Q 45.3125 15.671875 45.3125 23.6875 
L 45.3125 54.6875 
L 54.296875 54.6875 
L 54.296875 0 
L 45.3125 0 
L 45.3125 8.40625 
Q 42.046875 3.421875 37.71875 1 
Q 33.40625 -1.421875 27.6875 -1.421875 
Q 18.265625 -1.421875 13.375 4.4375 
Q 8.5 10.296875 8.5 21.578125 
z
M 31.109375 56 
z
" id="DejaVuSans-117"/>
     </defs>
     <g style="fill:#262626;" transform="translate(165.159375 260.718516)scale(0.165 -0.165)">
      <use xlink:href="#DejaVuSans-84"/>
      <use x="60.865234" xlink:href="#DejaVuSans-114"/>
      <use x="101.978516" xlink:href="#DejaVuSans-117"/>
      <use x="165.357422" xlink:href="#DejaVuSans-101"/>
     </g>
    </g>
   </g>
  </g>
 </g>
 <defs>
  <clipPath id="ped11168168">
   <rect height="271.8" width="362.7" x="104.109375" y="7.2"/>
  </clipPath>
 </defs>
</svg>
