<?xml version="1.0" encoding="utf-8" standalone="no"?>
<!DOCTYPE svg PUBLIC "-//W3C//DTD SVG 1.1//EN"
  "http://www.w3.org/Graphics/SVG/1.1/DTD/svg11.dtd">
<!-- Created with matplotlib (https://matplotlib.org/) -->
<svg height="291.877769pt" version="1.1" viewBox="0 0 1004.109375 291.877769" width="1004.109375pt" xmlns="http://www.w3.org/2000/svg" xmlns:xlink="http://www.w3.org/1999/xlink">
 <defs>
  <style type="text/css">
*{stroke-linecap:butt;stroke-linejoin:round;}
  </style>
 </defs>
 <g id="figure_1">
  <g id="patch_1">
   <path d="M 0 291.877769 
L 1004.109375 291.877769 
L 1004.109375 0 
L 0 0 
z
" style="fill:#ffffff;"/>
  </g>
  <g id="axes_1">
   <g id="patch_2">
    <path d="M 104.109375 284.677769 
L 509.927557 284.677769 
L 509.927557 12.877769 
L 104.109375 12.877769 
z
" style="fill:#eaeaf2;"/>
   </g>
   <g id="matplotlib.axis_1">
    <g id="xtick_1"/>
   </g>
   <g id="matplotlib.axis_2">
    <g id="ytick_1">
     <g id="line2d_1">
      <path clip-path="url(#p19ba4bffac)" d="M 104.109375 272.501405 
L 509.927557 272.501405 
" style="fill:none;stroke:#ffffff;stroke-linecap:round;stroke-width:1.5;"/>
     </g>
     <g id="text_1">
      <!-- 25000 -->
      <defs>
       <path d="M 19.1875 8.296875 
L 53.609375 8.296875 
L 53.609375 0 
L 7.328125 0 
L 7.328125 8.296875 
Q 12.9375 14.109375 22.625 23.890625 
Q 32.328125 33.6875 34.8125 36.53125 
Q 39.546875 41.84375 41.421875 45.53125 
Q 43.3125 49.21875 43.3125 52.78125 
Q 43.3125 58.59375 39.234375 62.25 
Q 35.15625 65.921875 28.609375 65.921875 
Q 23.96875 65.921875 18.8125 64.3125 
Q 13.671875 62.703125 7.8125 59.421875 
L 7.8125 69.390625 
Q 13.765625 71.78125 18.9375 73 
Q 24.125 74.21875 28.421875 74.21875 
Q 39.75 74.21875 46.484375 68.546875 
Q 53.21875 62.890625 53.21875 53.421875 
Q 53.21875 48.921875 51.53125 44.890625 
Q 49.859375 40.875 45.40625 35.40625 
Q 44.1875 33.984375 37.640625 27.21875 
Q 31.109375 20.453125 19.1875 8.296875 
z
" id="DejaVuSans-50"/>
       <path d="M 10.796875 72.90625 
L 49.515625 72.90625 
L 49.515625 64.59375 
L 19.828125 64.59375 
L 19.828125 46.734375 
Q 21.96875 47.46875 24.109375 47.828125 
Q 26.265625 48.1875 28.421875 48.1875 
Q 40.625 48.1875 47.75 41.5 
Q 54.890625 34.8125 54.890625 23.390625 
Q 54.890625 11.625 47.5625 5.09375 
Q 40.234375 -1.421875 26.90625 -1.421875 
Q 22.3125 -1.421875 17.546875 -0.640625 
Q 12.796875 0.140625 7.71875 1.703125 
L 7.71875 11.625 
Q 12.109375 9.234375 16.796875 8.0625 
Q 21.484375 6.890625 26.703125 6.890625 
Q 35.15625 6.890625 40.078125 11.328125 
Q 45.015625 15.765625 45.015625 23.390625 
Q 45.015625 31 40.078125 35.4375 
Q 35.15625 39.890625 26.703125 39.890625 
Q 22.75 39.890625 18.8125 39.015625 
Q 14.890625 38.140625 10.796875 36.28125 
z
" id="DejaVuSans-53"/>
       <path d="M 31.78125 66.40625 
Q 24.171875 66.40625 20.328125 58.90625 
Q 16.5 51.421875 16.5 36.375 
Q 16.5 21.390625 20.328125 13.890625 
Q 24.171875 6.390625 31.78125 6.390625 
Q 39.453125 6.390625 43.28125 13.890625 
Q 47.125 21.390625 47.125 36.375 
Q 47.125 51.421875 43.28125 58.90625 
Q 39.453125 66.40625 31.78125 66.40625 
z
M 31.78125 74.21875 
Q 44.046875 74.21875 50.515625 64.515625 
Q 56.984375 54.828125 56.984375 36.375 
Q 56.984375 17.96875 50.515625 8.265625 
Q 44.046875 -1.421875 31.78125 -1.421875 
Q 19.53125 -1.421875 13.0625 8.265625 
Q 6.59375 17.96875 6.59375 36.375 
Q 6.59375 54.828125 13.0625 64.515625 
Q 19.53125 74.21875 31.78125 74.21875 
z
" id="DejaVuSans-48"/>
      </defs>
      <g style="fill:#262626;" transform="translate(39.11875 278.770116)scale(0.165 -0.165)">
       <use xlink:href="#DejaVuSans-50"/>
       <use x="63.623047" xlink:href="#DejaVuSans-53"/>
       <use x="127.246094" xlink:href="#DejaVuSans-48"/>
       <use x="190.869141" xlink:href="#DejaVuSans-48"/>
       <use x="254.492188" xlink:href="#DejaVuSans-48"/>
      </g>
     </g>
    </g>
    <g id="ytick_2">
     <g id="line2d_2">
      <path clip-path="url(#p19ba4bffac)" d="M 104.109375 235.496734 
L 509.927557 235.496734 
" style="fill:none;stroke:#ffffff;stroke-linecap:round;stroke-width:1.5;"/>
     </g>
     <g id="text_2">
      <!-- 50000 -->
      <g style="fill:#262626;" transform="translate(39.11875 241.765445)scale(0.165 -0.165)">
       <use xlink:href="#DejaVuSans-53"/>
       <use x="63.623047" xlink:href="#DejaVuSans-48"/>
       <use x="127.246094" xlink:href="#DejaVuSans-48"/>
       <use x="190.869141" xlink:href="#DejaVuSans-48"/>
       <use x="254.492188" xlink:href="#DejaVuSans-48"/>
      </g>
     </g>
    </g>
    <g id="ytick_3">
     <g id="line2d_3">
      <path clip-path="url(#p19ba4bffac)" d="M 104.109375 198.492064 
L 509.927557 198.492064 
" style="fill:none;stroke:#ffffff;stroke-linecap:round;stroke-width:1.5;"/>
     </g>
     <g id="text_3">
      <!-- 75000 -->
      <defs>
       <path d="M 8.203125 72.90625 
L 55.078125 72.90625 
L 55.078125 68.703125 
L 28.609375 0 
L 18.3125 0 
L 43.21875 64.59375 
L 8.203125 64.59375 
z
" id="DejaVuSans-55"/>
      </defs>
      <g style="fill:#262626;" transform="translate(39.11875 204.760775)scale(0.165 -0.165)">
       <use xlink:href="#DejaVuSans-55"/>
       <use x="63.623047" xlink:href="#DejaVuSans-53"/>
       <use x="127.246094" xlink:href="#DejaVuSans-48"/>
       <use x="190.869141" xlink:href="#DejaVuSans-48"/>
       <use x="254.492188" xlink:href="#DejaVuSans-48"/>
      </g>
     </g>
    </g>
    <g id="ytick_4">
     <g id="line2d_4">
      <path clip-path="url(#p19ba4bffac)" d="M 104.109375 161.487393 
L 509.927557 161.487393 
" style="fill:none;stroke:#ffffff;stroke-linecap:round;stroke-width:1.5;"/>
     </g>
     <g id="text_4">
      <!-- 100000 -->
      <defs>
       <path d="M 12.40625 8.296875 
L 28.515625 8.296875 
L 28.515625 63.921875 
L 10.984375 60.40625 
L 10.984375 69.390625 
L 28.421875 72.90625 
L 38.28125 72.90625 
L 38.28125 8.296875 
L 54.390625 8.296875 
L 54.390625 0 
L 12.40625 0 
z
" id="DejaVuSans-49"/>
      </defs>
      <g style="fill:#262626;" transform="translate(28.620625 167.756104)scale(0.165 -0.165)">
       <use xlink:href="#DejaVuSans-49"/>
       <use x="63.623047" xlink:href="#DejaVuSans-48"/>
       <use x="127.246094" xlink:href="#DejaVuSans-48"/>
       <use x="190.869141" xlink:href="#DejaVuSans-48"/>
       <use x="254.492188" xlink:href="#DejaVuSans-48"/>
       <use x="318.115234" xlink:href="#DejaVuSans-48"/>
      </g>
     </g>
    </g>
    <g id="ytick_5">
     <g id="line2d_5">
      <path clip-path="url(#p19ba4bffac)" d="M 104.109375 124.482723 
L 509.927557 124.482723 
" style="fill:none;stroke:#ffffff;stroke-linecap:round;stroke-width:1.5;"/>
     </g>
     <g id="text_5">
      <!-- 125000 -->
      <g style="fill:#262626;" transform="translate(28.620625 130.751434)scale(0.165 -0.165)">
       <use xlink:href="#DejaVuSans-49"/>
       <use x="63.623047" xlink:href="#DejaVuSans-50"/>
       <use x="127.246094" xlink:href="#DejaVuSans-53"/>
       <use x="190.869141" xlink:href="#DejaVuSans-48"/>
       <use x="254.492188" xlink:href="#DejaVuSans-48"/>
       <use x="318.115234" xlink:href="#DejaVuSans-48"/>
      </g>
     </g>
    </g>
    <g id="ytick_6">
     <g id="line2d_6">
      <path clip-path="url(#p19ba4bffac)" d="M 104.109375 87.478052 
L 509.927557 87.478052 
" style="fill:none;stroke:#ffffff;stroke-linecap:round;stroke-width:1.5;"/>
     </g>
     <g id="text_6">
      <!-- 150000 -->
      <g style="fill:#262626;" transform="translate(28.620625 93.746763)scale(0.165 -0.165)">
       <use xlink:href="#DejaVuSans-49"/>
       <use x="63.623047" xlink:href="#DejaVuSans-53"/>
       <use x="127.246094" xlink:href="#DejaVuSans-48"/>
       <use x="190.869141" xlink:href="#DejaVuSans-48"/>
       <use x="254.492188" xlink:href="#DejaVuSans-48"/>
       <use x="318.115234" xlink:href="#DejaVuSans-48"/>
      </g>
     </g>
    </g>
    <g id="ytick_7">
     <g id="line2d_7">
      <path clip-path="url(#p19ba4bffac)" d="M 104.109375 50.473381 
L 509.927557 50.473381 
" style="fill:none;stroke:#ffffff;stroke-linecap:round;stroke-width:1.5;"/>
     </g>
     <g id="text_7">
      <!-- 175000 -->
      <g style="fill:#262626;" transform="translate(28.620625 56.742092)scale(0.165 -0.165)">
       <use xlink:href="#DejaVuSans-49"/>
       <use x="63.623047" xlink:href="#DejaVuSans-55"/>
       <use x="127.246094" xlink:href="#DejaVuSans-53"/>
       <use x="190.869141" xlink:href="#DejaVuSans-48"/>
       <use x="254.492188" xlink:href="#DejaVuSans-48"/>
       <use x="318.115234" xlink:href="#DejaVuSans-48"/>
      </g>
     </g>
    </g>
    <g id="ytick_8">
     <g id="line2d_8">
      <path clip-path="url(#p19ba4bffac)" d="M 104.109375 13.468711 
L 509.927557 13.468711 
" style="fill:none;stroke:#ffffff;stroke-linecap:round;stroke-width:1.5;"/>
     </g>
     <g id="text_8">
      <!-- 200000 -->
      <g style="fill:#262626;" transform="translate(28.620625 19.737422)scale(0.165 -0.165)">
       <use xlink:href="#DejaVuSans-50"/>
       <use x="63.623047" xlink:href="#DejaVuSans-48"/>
       <use x="127.246094" xlink:href="#DejaVuSans-48"/>
       <use x="190.869141" xlink:href="#DejaVuSans-48"/>
       <use x="254.492188" xlink:href="#DejaVuSans-48"/>
       <use x="318.115234" xlink:href="#DejaVuSans-48"/>
      </g>
     </g>
    </g>
    <g id="text_9">
     <!-- objective -->
     <defs>
      <path d="M 30.609375 48.390625 
Q 23.390625 48.390625 19.1875 42.75 
Q 14.984375 37.109375 14.984375 27.296875 
Q 14.984375 17.484375 19.15625 11.84375 
Q 23.34375 6.203125 30.609375 6.203125 
Q 37.796875 6.203125 41.984375 11.859375 
Q 46.1875 17.53125 46.1875 27.296875 
Q 46.1875 37.015625 41.984375 42.703125 
Q 37.796875 48.390625 30.609375 48.390625 
z
M 30.609375 56 
Q 42.328125 56 49.015625 48.375 
Q 55.71875 40.765625 55.71875 27.296875 
Q 55.71875 13.875 49.015625 6.21875 
Q 42.328125 -1.421875 30.609375 -1.421875 
Q 18.84375 -1.421875 12.171875 6.21875 
Q 5.515625 13.875 5.515625 27.296875 
Q 5.515625 40.765625 12.171875 48.375 
Q 18.84375 56 30.609375 56 
z
" id="DejaVuSans-111"/>
      <path d="M 48.6875 27.296875 
Q 48.6875 37.203125 44.609375 42.84375 
Q 40.53125 48.484375 33.40625 48.484375 
Q 26.265625 48.484375 22.1875 42.84375 
Q 18.109375 37.203125 18.109375 27.296875 
Q 18.109375 17.390625 22.1875 11.75 
Q 26.265625 6.109375 33.40625 6.109375 
Q 40.53125 6.109375 44.609375 11.75 
Q 48.6875 17.390625 48.6875 27.296875 
z
M 18.109375 46.390625 
Q 20.953125 51.265625 25.265625 53.625 
Q 29.59375 56 35.59375 56 
Q 45.5625 56 51.78125 48.09375 
Q 58.015625 40.1875 58.015625 27.296875 
Q 58.015625 14.40625 51.78125 6.484375 
Q 45.5625 -1.421875 35.59375 -1.421875 
Q 29.59375 -1.421875 25.265625 0.953125 
Q 20.953125 3.328125 18.109375 8.203125 
L 18.109375 0 
L 9.078125 0 
L 9.078125 75.984375 
L 18.109375 75.984375 
z
" id="DejaVuSans-98"/>
      <path d="M 9.421875 54.6875 
L 18.40625 54.6875 
L 18.40625 -0.984375 
Q 18.40625 -11.421875 14.421875 -16.109375 
Q 10.453125 -20.796875 1.609375 -20.796875 
L -1.8125 -20.796875 
L -1.8125 -13.1875 
L 0.59375 -13.1875 
Q 5.71875 -13.1875 7.5625 -10.8125 
Q 9.421875 -8.453125 9.421875 -0.984375 
z
M 9.421875 75.984375 
L 18.40625 75.984375 
L 18.40625 64.59375 
L 9.421875 64.59375 
z
" id="DejaVuSans-106"/>
      <path d="M 56.203125 29.59375 
L 56.203125 25.203125 
L 14.890625 25.203125 
Q 15.484375 15.921875 20.484375 11.0625 
Q 25.484375 6.203125 34.421875 6.203125 
Q 39.59375 6.203125 44.453125 7.46875 
Q 49.3125 8.734375 54.109375 11.28125 
L 54.109375 2.78125 
Q 49.265625 0.734375 44.1875 -0.34375 
Q 39.109375 -1.421875 33.890625 -1.421875 
Q 20.796875 -1.421875 13.15625 6.1875 
Q 5.515625 13.8125 5.515625 26.8125 
Q 5.515625 40.234375 12.765625 48.109375 
Q 20.015625 56 32.328125 56 
Q 43.359375 56 49.78125 48.890625 
Q 56.203125 41.796875 56.203125 29.59375 
z
M 47.21875 32.234375 
Q 47.125 39.59375 43.09375 43.984375 
Q 39.0625 48.390625 32.421875 48.390625 
Q 24.90625 48.390625 20.390625 44.140625 
Q 15.875 39.890625 15.1875 32.171875 
z
" id="DejaVuSans-101"/>
      <path d="M 48.78125 52.59375 
L 48.78125 44.1875 
Q 44.96875 46.296875 41.140625 47.34375 
Q 37.3125 48.390625 33.40625 48.390625 
Q 24.65625 48.390625 19.8125 42.84375 
Q 14.984375 37.3125 14.984375 27.296875 
Q 14.984375 17.28125 19.8125 11.734375 
Q 24.65625 6.203125 33.40625 6.203125 
Q 37.3125 6.203125 41.140625 7.25 
Q 44.96875 8.296875 48.78125 10.40625 
L 48.78125 2.09375 
Q 45.015625 0.34375 40.984375 -0.53125 
Q 36.96875 -1.421875 32.421875 -1.421875 
Q 20.0625 -1.421875 12.78125 6.34375 
Q 5.515625 14.109375 5.515625 27.296875 
Q 5.515625 40.671875 12.859375 48.328125 
Q 20.21875 56 33.015625 56 
Q 37.15625 56 41.109375 55.140625 
Q 45.0625 54.296875 48.78125 52.59375 
z
" id="DejaVuSans-99"/>
      <path d="M 18.3125 70.21875 
L 18.3125 54.6875 
L 36.8125 54.6875 
L 36.8125 47.703125 
L 18.3125 47.703125 
L 18.3125 18.015625 
Q 18.3125 11.328125 20.140625 9.421875 
Q 21.96875 7.515625 27.59375 7.515625 
L 36.8125 7.515625 
L 36.8125 0 
L 27.59375 0 
Q 17.1875 0 13.234375 3.875 
Q 9.28125 7.765625 9.28125 18.015625 
L 9.28125 47.703125 
L 2.6875 47.703125 
L 2.6875 54.6875 
L 9.28125 54.6875 
L 9.28125 70.21875 
z
" id="DejaVuSans-116"/>
      <path d="M 9.421875 54.6875 
L 18.40625 54.6875 
L 18.40625 0 
L 9.421875 0 
z
M 9.421875 75.984375 
L 18.40625 75.984375 
L 18.40625 64.59375 
L 9.421875 64.59375 
z
" id="DejaVuSans-105"/>
      <path d="M 2.984375 54.6875 
L 12.5 54.6875 
L 29.59375 8.796875 
L 46.6875 54.6875 
L 56.203125 54.6875 
L 35.6875 0 
L 23.484375 0 
z
" id="DejaVuSans-118"/>
     </defs>
     <g style="fill:#262626;" transform="translate(20.877188 189.878238)rotate(-90)scale(0.18 -0.18)">
      <use xlink:href="#DejaVuSans-111"/>
      <use x="61.181641" xlink:href="#DejaVuSans-98"/>
      <use x="124.658203" xlink:href="#DejaVuSans-106"/>
      <use x="152.441406" xlink:href="#DejaVuSans-101"/>
      <use x="213.964844" xlink:href="#DejaVuSans-99"/>
      <use x="268.945312" xlink:href="#DejaVuSans-116"/>
      <use x="308.154297" xlink:href="#DejaVuSans-105"/>
      <use x="335.9375" xlink:href="#DejaVuSans-118"/>
      <use x="395.117188" xlink:href="#DejaVuSans-101"/>
     </g>
    </g>
   </g>
   <g id="PolyCollection_1">
    <defs>
     <path d="M 307.018466 -69.580495 
L 306.979775 -69.580495 
L 306.958912 -71.465433 
L 306.931383 -73.350371 
L 306.897447 -75.235308 
L 306.858521 -77.120246 
L 306.817206 -79.005184 
L 306.776937 -80.890122 
L 306.741272 -82.77506 
L 306.712957 -84.659998 
L 306.693067 -86.544935 
L 306.680536 -88.429873 
L 306.672279 -90.314811 
L 306.663928 -92.199749 
L 306.650941 -94.084687 
L 306.629725 -95.969625 
L 306.598389 -97.854562 
L 306.556912 -99.7395 
L 306.506743 -101.624438 
L 306.450023 -103.509376 
L 306.388751 -105.394314 
L 306.324103 -107.279251 
L 306.256038 -109.164189 
L 306.183125 -111.049127 
L 306.102469 -112.934065 
L 306.009586 -114.819003 
L 305.898131 -116.703941 
L 305.759464 -118.588878 
L 305.582125 -120.473816 
L 305.351393 -122.358754 
L 305.049212 -124.243692 
L 304.65479 -126.12863 
L 304.146185 -128.013567 
L 303.50293 -129.898505 
L 302.709428 -131.783443 
L 301.758456 -133.668381 
L 300.653876 -135.553319 
L 299.411707 -137.438257 
L 298.05911 -139.323194 
L 296.631421 -141.208132 
L 295.168043 -143.09307 
L 293.708342 -144.978008 
L 292.28875 -146.862946 
L 290.941822 -148.747883 
L 289.69728 -150.632821 
L 288.584201 -152.517759 
L 287.632966 -154.402697 
L 286.875476 -156.287635 
L 286.342826 -158.172573 
L 286.0608 -160.05751 
L 286.044741 -161.942448 
L 286.295961 -163.827386 
L 286.801381 -165.712324 
L 287.536734 -167.597262 
L 288.471956 -169.4822 
L 289.576352 -171.367137 
L 290.821272 -173.252075 
L 292.179395 -175.137013 
L 293.621499 -177.021951 
L 295.112942 -178.906889 
L 296.612197 -180.791826 
L 298.072769 -182.676764 
L 299.448183 -184.561702 
L 300.698376 -186.44664 
L 301.79529 -188.331578 
L 302.725881 -190.216516 
L 303.491785 -192.101453 
L 304.105928 -193.986391 
L 304.587063 -195.871329 
L 304.953179 -197.756267 
L 305.214214 -199.641205 
L 305.363556 -201.526142 
L 305.366868 -203.41108 
L 305.146371 -205.296018 
L 304.559333 -207.180956 
L 303.371972 -209.065894 
L 301.234508 -210.950832 
L 297.66921 -212.835769 
L 292.08891 -214.720707 
L 283.864867 -216.605645 
L 272.455709 -218.490583 
L 257.590938 -220.375521 
L 239.475323 -222.260459 
L 218.953403 -224.145396 
L 197.560425 -226.030334 
L 177.400302 -227.915272 
L 160.836836 -229.80021 
L 150.049743 -231.685148 
L 146.567094 -233.570085 
L 150.91175 -235.455023 
L 162.474431 -237.339961 
L 179.655719 -239.224899 
L 200.23119 -241.109837 
L 221.824496 -242.994775 
L 242.349949 -244.879712 
L 260.314012 -246.76465 
L 274.926569 -248.649588 
L 286.038839 -250.534526 
L 293.969925 -252.419464 
L 299.29722 -254.304401 
L 302.671603 -256.189339 
L 307.018466 -256.189339 
L 307.018466 -256.189339 
L 307.018466 -254.304401 
L 307.018466 -252.419464 
L 307.018466 -250.534526 
L 307.018466 -248.649588 
L 307.018466 -246.76465 
L 307.018466 -244.879712 
L 307.018466 -242.994775 
L 307.018466 -241.109837 
L 307.018466 -239.224899 
L 307.018466 -237.339961 
L 307.018466 -235.455023 
L 307.018466 -233.570085 
L 307.018466 -231.685148 
L 307.018466 -229.80021 
L 307.018466 -227.915272 
L 307.018466 -226.030334 
L 307.018466 -224.145396 
L 307.018466 -222.260459 
L 307.018466 -220.375521 
L 307.018466 -218.490583 
L 307.018466 -216.605645 
L 307.018466 -214.720707 
L 307.018466 -212.835769 
L 307.018466 -210.950832 
L 307.018466 -209.065894 
L 307.018466 -207.180956 
L 307.018466 -205.296018 
L 307.018466 -203.41108 
L 307.018466 -201.526142 
L 307.018466 -199.641205 
L 307.018466 -197.756267 
L 307.018466 -195.871329 
L 307.018466 -193.986391 
L 307.018466 -192.101453 
L 307.018466 -190.216516 
L 307.018466 -188.331578 
L 307.018466 -186.44664 
L 307.018466 -184.561702 
L 307.018466 -182.676764 
L 307.018466 -180.791826 
L 307.018466 -178.906889 
L 307.018466 -177.021951 
L 307.018466 -175.137013 
L 307.018466 -173.252075 
L 307.018466 -171.367137 
L 307.018466 -169.4822 
L 307.018466 -167.597262 
L 307.018466 -165.712324 
L 307.018466 -163.827386 
L 307.018466 -161.942448 
L 307.018466 -160.05751 
L 307.018466 -158.172573 
L 307.018466 -156.287635 
L 307.018466 -154.402697 
L 307.018466 -152.517759 
L 307.018466 -150.632821 
L 307.018466 -148.747883 
L 307.018466 -146.862946 
L 307.018466 -144.978008 
L 307.018466 -143.09307 
L 307.018466 -141.208132 
L 307.018466 -139.323194 
L 307.018466 -137.438257 
L 307.018466 -135.553319 
L 307.018466 -133.668381 
L 307.018466 -131.783443 
L 307.018466 -129.898505 
L 307.018466 -128.013567 
L 307.018466 -126.12863 
L 307.018466 -124.243692 
L 307.018466 -122.358754 
L 307.018466 -120.473816 
L 307.018466 -118.588878 
L 307.018466 -116.703941 
L 307.018466 -114.819003 
L 307.018466 -112.934065 
L 307.018466 -111.049127 
L 307.018466 -109.164189 
L 307.018466 -107.279251 
L 307.018466 -105.394314 
L 307.018466 -103.509376 
L 307.018466 -101.624438 
L 307.018466 -99.7395 
L 307.018466 -97.854562 
L 307.018466 -95.969625 
L 307.018466 -94.084687 
L 307.018466 -92.199749 
L 307.018466 -90.314811 
L 307.018466 -88.429873 
L 307.018466 -86.544935 
L 307.018466 -84.659998 
L 307.018466 -82.77506 
L 307.018466 -80.890122 
L 307.018466 -79.005184 
L 307.018466 -77.120246 
L 307.018466 -75.235308 
L 307.018466 -73.350371 
L 307.018466 -71.465433 
L 307.018466 -69.580495 
z
" id="mb0e5bb3029" style="stroke:#4c4c4c;stroke-width:2.25;"/>
    </defs>
    <g clip-path="url(#p19ba4bffac)">
     <use style="fill:#5875a4;stroke:#4c4c4c;stroke-width:2.25;" x="0" xlink:href="#mb0e5bb3029" y="291.877769"/>
    </g>
   </g>
   <g id="PolyCollection_2">
    <defs>
     <path d="M 307.079112 -35.939878 
L 307.018466 -35.939878 
L 307.018466 -38.061938 
L 307.018466 -40.183998 
L 307.018466 -42.306058 
L 307.018466 -44.428118 
L 307.018466 -46.550178 
L 307.018466 -48.672238 
L 307.018466 -50.794298 
L 307.018466 -52.916358 
L 307.018466 -55.038418 
L 307.018466 -57.160479 
L 307.018466 -59.282539 
L 307.018466 -61.404599 
L 307.018466 -63.526659 
L 307.018466 -65.648719 
L 307.018466 -67.770779 
L 307.018466 -69.892839 
L 307.018466 -72.014899 
L 307.018466 -74.136959 
L 307.018466 -76.259019 
L 307.018466 -78.38108 
L 307.018466 -80.50314 
L 307.018466 -82.6252 
L 307.018466 -84.74726 
L 307.018466 -86.86932 
L 307.018466 -88.99138 
L 307.018466 -91.11344 
L 307.018466 -93.2355 
L 307.018466 -95.35756 
L 307.018466 -97.479621 
L 307.018466 -99.601681 
L 307.018466 -101.723741 
L 307.018466 -103.845801 
L 307.018466 -105.967861 
L 307.018466 -108.089921 
L 307.018466 -110.211981 
L 307.018466 -112.334041 
L 307.018466 -114.456101 
L 307.018466 -116.578161 
L 307.018466 -118.700222 
L 307.018466 -120.822282 
L 307.018466 -122.944342 
L 307.018466 -125.066402 
L 307.018466 -127.188462 
L 307.018466 -129.310522 
L 307.018466 -131.432582 
L 307.018466 -133.554642 
L 307.018466 -135.676702 
L 307.018466 -137.798763 
L 307.018466 -139.920823 
L 307.018466 -142.042883 
L 307.018466 -144.164943 
L 307.018466 -146.287003 
L 307.018466 -148.409063 
L 307.018466 -150.531123 
L 307.018466 -152.653183 
L 307.018466 -154.775243 
L 307.018466 -156.897303 
L 307.018466 -159.019364 
L 307.018466 -161.141424 
L 307.018466 -163.263484 
L 307.018466 -165.385544 
L 307.018466 -167.507604 
L 307.018466 -169.629664 
L 307.018466 -171.751724 
L 307.018466 -173.873784 
L 307.018466 -175.995844 
L 307.018466 -178.117904 
L 307.018466 -180.239965 
L 307.018466 -182.362025 
L 307.018466 -184.484085 
L 307.018466 -186.606145 
L 307.018466 -188.728205 
L 307.018466 -190.850265 
L 307.018466 -192.972325 
L 307.018466 -195.094385 
L 307.018466 -197.216445 
L 307.018466 -199.338506 
L 307.018466 -201.460566 
L 307.018466 -203.582626 
L 307.018466 -205.704686 
L 307.018466 -207.826746 
L 307.018466 -209.948806 
L 307.018466 -212.070866 
L 307.018466 -214.192926 
L 307.018466 -216.314986 
L 307.018466 -218.437046 
L 307.018466 -220.559107 
L 307.018466 -222.681167 
L 307.018466 -224.803227 
L 307.018466 -226.925287 
L 307.018466 -229.047347 
L 307.018466 -231.169407 
L 307.018466 -233.291467 
L 307.018466 -235.413527 
L 307.018466 -237.535587 
L 307.018466 -239.657647 
L 307.018466 -241.779708 
L 307.018466 -243.901768 
L 307.018466 -246.023828 
L 307.072023 -246.023828 
L 307.072023 -246.023828 
L 307.128587 -243.901768 
L 307.211458 -241.779708 
L 307.307055 -239.657647 
L 307.387827 -237.535587 
L 307.426986 -235.413527 
L 307.420262 -233.291467 
L 307.398101 -231.169407 
L 307.418388 -229.047347 
L 307.54666 -226.925287 
L 307.837819 -224.803227 
L 308.322697 -222.681167 
L 308.990579 -220.559107 
L 309.766329 -218.437046 
L 310.505288 -216.314986 
L 311.037184 -214.192926 
L 311.255858 -212.070866 
L 311.204535 -209.948806 
L 311.115021 -207.826746 
L 311.438874 -205.704686 
L 312.973049 -203.582626 
L 317.108724 -201.460566 
L 325.984116 -199.338506 
L 342.061699 -197.216445 
L 366.754197 -195.094385 
L 398.487428 -192.972325 
L 431.618422 -190.850265 
L 457.7411 -188.728205 
L 469.345739 -186.606145 
L 463.639067 -184.484085 
L 443.826197 -182.362025 
L 417.072435 -180.239965 
L 390.853449 -178.117904 
L 370.142328 -175.995844 
L 356.631516 -173.873784 
L 349.559038 -171.751724 
L 347.049401 -169.629664 
L 347.173817 -167.507604 
L 348.473944 -165.385544 
L 350.040937 -163.263484 
L 351.372797 -161.141424 
L 352.208283 -159.019364 
L 352.409209 -156.897303 
L 351.866813 -154.775243 
L 350.436907 -152.653183 
L 347.967913 -150.531123 
L 344.437158 -148.409063 
L 340.0936 -146.287003 
L 335.467894 -144.164943 
L 331.200651 -142.042883 
L 327.775012 -139.920823 
L 325.317544 -137.798763 
L 323.593837 -135.676702 
L 322.190775 -133.554642 
L 320.75073 -131.432582 
L 319.109939 -129.310522 
L 317.291741 -127.188462 
L 315.41475 -125.066402 
L 313.606866 -122.944342 
L 311.967309 -120.822282 
L 310.561244 -118.700222 
L 309.420962 -116.578161 
L 308.548355 -114.456101 
L 307.922093 -112.334041 
L 307.506054 -110.211981 
L 307.255024 -108.089921 
L 307.120184 -105.967861 
L 307.056786 -103.845801 
L 307.031019 -101.723741 
L 307.022105 -99.601681 
L 307.019818 -97.479621 
L 307.02076 -95.35756 
L 307.026245 -93.2355 
L 307.042645 -91.11344 
L 307.082747 -88.99138 
L 307.164174 -86.86932 
L 307.300232 -84.74726 
L 307.48405 -82.6252 
L 307.678091 -80.50314 
L 307.825464 -78.38108 
L 307.88311 -76.259019 
L 307.850647 -74.136959 
L 307.765781 -72.014899 
L 307.669863 -69.892839 
L 307.579162 -67.770779 
L 307.488626 -65.648719 
L 307.397191 -63.526659 
L 307.323839 -61.404599 
L 307.299521 -59.282539 
L 307.345332 -57.160479 
L 307.455053 -55.038418 
L 307.592476 -52.916358 
L 307.704572 -50.794298 
L 307.744641 -48.672238 
L 307.693833 -46.550178 
L 307.568681 -44.428118 
L 307.410042 -42.306058 
L 307.261117 -40.183998 
L 307.148929 -38.061938 
L 307.079112 -35.939878 
z
" id="mb6fefd175b" style="stroke:#4c4c4c;stroke-width:2.25;"/>
    </defs>
    <g clip-path="url(#p19ba4bffac)">
     <use style="fill:#cc8963;stroke:#4c4c4c;stroke-width:2.25;" x="0" xlink:href="#mb6fefd175b" y="291.877769"/>
    </g>
   </g>
   <g id="patch_3">
    <path clip-path="url(#p19ba4bffac)" d="M 307.018466 309.506075 
L 307.018466 309.506075 
L 307.018466 309.506075 
L 307.018466 309.506075 
z
" style="fill:#5875a4;stroke:#4c4c4c;stroke-linejoin:miter;stroke-width:1.125;"/>
   </g>
   <g id="patch_4">
    <path clip-path="url(#p19ba4bffac)" d="M 307.018466 309.506075 
L 307.018466 309.506075 
L 307.018466 309.506075 
L 307.018466 309.506075 
z
" style="fill:#cc8963;stroke:#4c4c4c;stroke-linejoin:miter;stroke-width:1.125;"/>
   </g>
   <g id="line2d_9">
    <path clip-path="url(#p19ba4bffac)" d="M 162.298653 61.86934 
L 307.018466 61.86934 
" style="fill:none;stroke:#4c4c4c;stroke-dasharray:7.59375,7.59375;stroke-dashoffset:0;stroke-width:2.25;"/>
   </g>
   <g id="line2d_10">
    <path clip-path="url(#p19ba4bffac)" d="M 148.171608 58.771309 
L 307.018466 58.771309 
" style="fill:none;stroke:#4c4c4c;stroke-dasharray:15.1875,15.1875;stroke-dashoffset:0;stroke-width:2.25;"/>
   </g>
   <g id="line2d_11">
    <path clip-path="url(#p19ba4bffac)" d="M 148.171608 57.493908 
L 307.018466 57.493908 
" style="fill:none;stroke:#4c4c4c;stroke-dasharray:7.59375,7.59375;stroke-dashoffset:0;stroke-width:2.25;"/>
   </g>
   <g id="line2d_12">
    <path clip-path="url(#p19ba4bffac)" d="M 307.018466 131.044021 
L 350.929253 131.044021 
" style="fill:none;stroke:#4c4c4c;stroke-dasharray:7.59375,7.59375;stroke-dashoffset:0;stroke-width:2.25;"/>
   </g>
   <g id="line2d_13">
    <path clip-path="url(#p19ba4bffac)" d="M 307.018466 108.779421 
L 442.45812 108.779421 
" style="fill:none;stroke:#4c4c4c;stroke-dasharray:15.1875,15.1875;stroke-dashoffset:0;stroke-width:2.25;"/>
   </g>
   <g id="line2d_14">
    <path clip-path="url(#p19ba4bffac)" d="M 307.018466 104.434702 
L 467.722466 104.434702 
" style="fill:none;stroke:#4c4c4c;stroke-dasharray:7.59375,7.59375;stroke-dashoffset:0;stroke-width:2.25;"/>
   </g>
   <g id="patch_5">
    <path d="M 104.109375 284.677769 
L 104.109375 12.877769 
" style="fill:none;stroke:#ffffff;stroke-linecap:square;stroke-linejoin:miter;stroke-width:1.875;"/>
   </g>
   <g id="patch_6">
    <path d="M 509.927557 284.677769 
L 509.927557 12.877769 
" style="fill:none;stroke:#ffffff;stroke-linecap:square;stroke-linejoin:miter;stroke-width:1.875;"/>
   </g>
   <g id="patch_7">
    <path d="M 104.109375 284.677769 
L 509.927557 284.677769 
" style="fill:none;stroke:#ffffff;stroke-linecap:square;stroke-linejoin:miter;stroke-width:1.875;"/>
   </g>
   <g id="patch_8">
    <path d="M 104.109375 12.877769 
L 509.927557 12.877769 
" style="fill:none;stroke:#ffffff;stroke-linecap:square;stroke-linejoin:miter;stroke-width:1.875;"/>
   </g>
   <g id="legend_1">
    <g id="patch_9">
     <path d="M 115.659375 276.427769 
L 211.369687 276.427769 
Q 214.669688 276.427769 214.669688 273.127769 
L 214.669688 200.669331 
Q 214.669688 197.369331 211.369687 197.369331 
L 115.659375 197.369331 
Q 112.359375 197.369331 112.359375 200.669331 
L 112.359375 273.127769 
Q 112.359375 276.427769 115.659375 276.427769 
z
" style="fill:#eaeaf2;opacity:0.8;stroke:#cccccc;stroke-linejoin:miter;stroke-width:1.5;"/>
    </g>
    <g id="text_10">
     <!-- Elitist -->
     <defs>
      <path d="M 9.8125 72.90625 
L 55.90625 72.90625 
L 55.90625 64.59375 
L 19.671875 64.59375 
L 19.671875 43.015625 
L 54.390625 43.015625 
L 54.390625 34.71875 
L 19.671875 34.71875 
L 19.671875 8.296875 
L 56.78125 8.296875 
L 56.78125 0 
L 9.8125 0 
z
" id="DejaVuSans-69"/>
      <path d="M 9.421875 75.984375 
L 18.40625 75.984375 
L 18.40625 0 
L 9.421875 0 
z
" id="DejaVuSans-108"/>
      <path d="M 44.28125 53.078125 
L 44.28125 44.578125 
Q 40.484375 46.53125 36.375 47.5 
Q 32.28125 48.484375 27.875 48.484375 
Q 21.1875 48.484375 17.84375 46.4375 
Q 14.5 44.390625 14.5 40.28125 
Q 14.5 37.15625 16.890625 35.375 
Q 19.28125 33.59375 26.515625 31.984375 
L 29.59375 31.296875 
Q 39.15625 29.25 43.1875 25.515625 
Q 47.21875 21.78125 47.21875 15.09375 
Q 47.21875 7.46875 41.1875 3.015625 
Q 35.15625 -1.421875 24.609375 -1.421875 
Q 20.21875 -1.421875 15.453125 -0.5625 
Q 10.6875 0.296875 5.421875 2 
L 5.421875 11.28125 
Q 10.40625 8.6875 15.234375 7.390625 
Q 20.0625 6.109375 24.8125 6.109375 
Q 31.15625 6.109375 34.5625 8.28125 
Q 37.984375 10.453125 37.984375 14.40625 
Q 37.984375 18.0625 35.515625 20.015625 
Q 33.0625 21.96875 24.703125 23.78125 
L 21.578125 24.515625 
Q 13.234375 26.265625 9.515625 29.90625 
Q 5.8125 33.546875 5.8125 39.890625 
Q 5.8125 47.609375 11.28125 51.796875 
Q 16.75 56 26.8125 56 
Q 31.78125 56 36.171875 55.265625 
Q 40.578125 54.546875 44.28125 53.078125 
z
" id="DejaVuSans-115"/>
     </defs>
     <g style="fill:#262626;" transform="translate(138.581719 217.646519)scale(0.18 -0.18)">
      <use xlink:href="#DejaVuSans-69"/>
      <use x="63.183594" xlink:href="#DejaVuSans-108"/>
      <use x="90.966797" xlink:href="#DejaVuSans-105"/>
      <use x="118.75" xlink:href="#DejaVuSans-116"/>
      <use x="157.958984" xlink:href="#DejaVuSans-105"/>
      <use x="185.742188" xlink:href="#DejaVuSans-115"/>
      <use x="237.841797" xlink:href="#DejaVuSans-116"/>
     </g>
    </g>
    <g id="patch_10">
     <path d="M 118.959375 242.177378 
L 151.959375 242.177378 
L 151.959375 230.627378 
L 118.959375 230.627378 
z
" style="fill:#5875a4;stroke:#4c4c4c;stroke-linejoin:miter;stroke-width:1.125;"/>
    </g>
    <g id="text_11">
     <!-- False -->
     <defs>
      <path d="M 9.8125 72.90625 
L 51.703125 72.90625 
L 51.703125 64.59375 
L 19.671875 64.59375 
L 19.671875 43.109375 
L 48.578125 43.109375 
L 48.578125 34.8125 
L 19.671875 34.8125 
L 19.671875 0 
L 9.8125 0 
z
" id="DejaVuSans-70"/>
      <path d="M 34.28125 27.484375 
Q 23.390625 27.484375 19.1875 25 
Q 14.984375 22.515625 14.984375 16.5 
Q 14.984375 11.71875 18.140625 8.90625 
Q 21.296875 6.109375 26.703125 6.109375 
Q 34.1875 6.109375 38.703125 11.40625 
Q 43.21875 16.703125 43.21875 25.484375 
L 43.21875 27.484375 
z
M 52.203125 31.203125 
L 52.203125 0 
L 43.21875 0 
L 43.21875 8.296875 
Q 40.140625 3.328125 35.546875 0.953125 
Q 30.953125 -1.421875 24.3125 -1.421875 
Q 15.921875 -1.421875 10.953125 3.296875 
Q 6 8.015625 6 15.921875 
Q 6 25.140625 12.171875 29.828125 
Q 18.359375 34.515625 30.609375 34.515625 
L 43.21875 34.515625 
L 43.21875 35.40625 
Q 43.21875 41.609375 39.140625 45 
Q 35.0625 48.390625 27.6875 48.390625 
Q 23 48.390625 18.546875 47.265625 
Q 14.109375 46.140625 10.015625 43.890625 
L 10.015625 52.203125 
Q 14.9375 54.109375 19.578125 55.046875 
Q 24.21875 56 28.609375 56 
Q 40.484375 56 46.34375 49.84375 
Q 52.203125 43.703125 52.203125 31.203125 
z
" id="DejaVuSans-97"/>
     </defs>
     <g style="fill:#262626;" transform="translate(165.159375 242.177378)scale(0.165 -0.165)">
      <use xlink:href="#DejaVuSans-70"/>
      <use x="57.378906" xlink:href="#DejaVuSans-97"/>
      <use x="118.658203" xlink:href="#DejaVuSans-108"/>
      <use x="146.441406" xlink:href="#DejaVuSans-115"/>
      <use x="198.541016" xlink:href="#DejaVuSans-101"/>
     </g>
    </g>
    <g id="patch_11">
     <path d="M 118.959375 266.396285 
L 151.959375 266.396285 
L 151.959375 254.846285 
L 118.959375 254.846285 
z
" style="fill:#cc8963;stroke:#4c4c4c;stroke-linejoin:miter;stroke-width:1.125;"/>
    </g>
    <g id="text_12">
     <!-- True -->
     <defs>
      <path d="M -0.296875 72.90625 
L 61.375 72.90625 
L 61.375 64.59375 
L 35.5 64.59375 
L 35.5 0 
L 25.59375 0 
L 25.59375 64.59375 
L -0.296875 64.59375 
z
" id="DejaVuSans-84"/>
      <path d="M 41.109375 46.296875 
Q 39.59375 47.171875 37.8125 47.578125 
Q 36.03125 48 33.890625 48 
Q 26.265625 48 22.1875 43.046875 
Q 18.109375 38.09375 18.109375 28.8125 
L 18.109375 0 
L 9.078125 0 
L 9.078125 54.6875 
L 18.109375 54.6875 
L 18.109375 46.1875 
Q 20.953125 51.171875 25.484375 53.578125 
Q 30.03125 56 36.53125 56 
Q 37.453125 56 38.578125 55.875 
Q 39.703125 55.765625 41.0625 55.515625 
z
" id="DejaVuSans-114"/>
      <path d="M 8.5 21.578125 
L 8.5 54.6875 
L 17.484375 54.6875 
L 17.484375 21.921875 
Q 17.484375 14.15625 20.5 10.265625 
Q 23.53125 6.390625 29.59375 6.390625 
Q 36.859375 6.390625 41.078125 11.03125 
Q 45.3125 15.671875 45.3125 23.6875 
L 45.3125 54.6875 
L 54.296875 54.6875 
L 54.296875 0 
L 45.3125 0 
L 45.3125 8.40625 
Q 42.046875 3.421875 37.71875 1 
Q 33.40625 -1.421875 27.6875 -1.421875 
Q 18.265625 -1.421875 13.375 4.4375 
Q 8.5 10.296875 8.5 21.578125 
z
M 31.109375 56 
z
" id="DejaVuSans-117"/>
     </defs>
     <g style="fill:#262626;" transform="translate(165.159375 266.396285)scale(0.165 -0.165)">
      <use xlink:href="#DejaVuSans-84"/>
      <use x="60.865234" xlink:href="#DejaVuSans-114"/>
      <use x="101.978516" xlink:href="#DejaVuSans-117"/>
      <use x="165.357422" xlink:href="#DejaVuSans-101"/>
     </g>
    </g>
   </g>
  </g>
  <g id="axes_2">
   <g id="patch_12">
    <path d="M 591.091193 284.677769 
L 996.909375 284.677769 
L 996.909375 12.877769 
L 591.091193 12.877769 
z
" style="fill:#eaeaf2;"/>
   </g>
   <g id="matplotlib.axis_3">
    <g id="xtick_2"/>
   </g>
   <g id="matplotlib.axis_4">
    <g id="ytick_9">
     <g id="line2d_15">
      <path clip-path="url(#p0b76578d45)" d="M 591.091193 272.501405 
L 996.909375 272.501405 
" style="fill:none;stroke:#ffffff;stroke-linecap:round;stroke-width:1.5;"/>
     </g>
    </g>
    <g id="ytick_10">
     <g id="line2d_16">
      <path clip-path="url(#p0b76578d45)" d="M 591.091193 235.496734 
L 996.909375 235.496734 
" style="fill:none;stroke:#ffffff;stroke-linecap:round;stroke-width:1.5;"/>
     </g>
    </g>
    <g id="ytick_11">
     <g id="line2d_17">
      <path clip-path="url(#p0b76578d45)" d="M 591.091193 198.492064 
L 996.909375 198.492064 
" style="fill:none;stroke:#ffffff;stroke-linecap:round;stroke-width:1.5;"/>
     </g>
    </g>
    <g id="ytick_12">
     <g id="line2d_18">
      <path clip-path="url(#p0b76578d45)" d="M 591.091193 161.487393 
L 996.909375 161.487393 
" style="fill:none;stroke:#ffffff;stroke-linecap:round;stroke-width:1.5;"/>
     </g>
    </g>
    <g id="ytick_13">
     <g id="line2d_19">
      <path clip-path="url(#p0b76578d45)" d="M 591.091193 124.482723 
L 996.909375 124.482723 
" style="fill:none;stroke:#ffffff;stroke-linecap:round;stroke-width:1.5;"/>
     </g>
    </g>
    <g id="ytick_14">
     <g id="line2d_20">
      <path clip-path="url(#p0b76578d45)" d="M 591.091193 87.478052 
L 996.909375 87.478052 
" style="fill:none;stroke:#ffffff;stroke-linecap:round;stroke-width:1.5;"/>
     </g>
    </g>
    <g id="ytick_15">
     <g id="line2d_21">
      <path clip-path="url(#p0b76578d45)" d="M 591.091193 50.473381 
L 996.909375 50.473381 
" style="fill:none;stroke:#ffffff;stroke-linecap:round;stroke-width:1.5;"/>
     </g>
    </g>
    <g id="ytick_16">
     <g id="line2d_22">
      <path clip-path="url(#p0b76578d45)" d="M 591.091193 13.468711 
L 996.909375 13.468711 
" style="fill:none;stroke:#ffffff;stroke-linecap:round;stroke-width:1.5;"/>
     </g>
    </g>
    <g id="text_13">
     <!-- objective -->
     <g style="fill:#262626;" transform="translate(583.347756 189.878238)rotate(-90)scale(0.18 -0.18)">
      <use xlink:href="#DejaVuSans-111"/>
      <use x="61.181641" xlink:href="#DejaVuSans-98"/>
      <use x="124.658203" xlink:href="#DejaVuSans-106"/>
      <use x="152.441406" xlink:href="#DejaVuSans-101"/>
      <use x="213.964844" xlink:href="#DejaVuSans-99"/>
      <use x="268.945312" xlink:href="#DejaVuSans-116"/>
      <use x="308.154297" xlink:href="#DejaVuSans-105"/>
      <use x="335.9375" xlink:href="#DejaVuSans-118"/>
      <use x="395.117188" xlink:href="#DejaVuSans-101"/>
     </g>
    </g>
   </g>
   <g id="PolyCollection_3">
    <defs>
     <path d="M 794.000284 -19.554545 
L 793.807616 -19.554545 
L 793.719429 -22.050413 
L 793.603869 -24.546281 
L 793.458306 -27.042149 
L 793.282172 -29.538017 
L 793.077574 -32.033884 
L 792.849558 -34.529752 
L 792.605858 -37.02562 
L 792.356061 -39.521488 
L 792.110278 -42.017355 
L 791.877548 -44.513223 
L 791.664325 -47.009091 
L 791.473463 -49.504959 
L 791.303972 -52.000826 
L 791.151696 -54.496694 
L 791.010804 -56.992562 
L 790.875726 -59.48843 
L 790.743068 -61.984298 
L 790.612969 -64.480165 
L 790.489505 -66.976033 
L 790.379973 -69.471901 
L 790.293114 -71.967769 
L 790.236645 -74.463636 
L 790.214561 -76.959504 
L 790.224725 -79.455372 
L 790.257178 -81.95124 
L 790.293411 -84.447107 
L 790.306611 -86.942975 
L 790.262756 -89.438843 
L 790.122277 -91.934711 
L 789.842061 -94.430579 
L 789.377604 -96.926446 
L 788.685296 -99.422314 
L 787.724881 -101.918182 
L 786.462194 -104.41405 
L 784.872125 -106.909917 
L 782.941594 -109.405785 
L 780.672084 -111.901653 
L 778.08111 -114.397521 
L 775.202057 -116.893388 
L 772.082039 -119.389256 
L 768.777881 -121.885124 
L 765.35085 -124.380992 
L 761.861169 -126.87686 
L 758.363451 -129.372727 
L 754.904009 -131.868595 
L 751.520331 -134.364463 
L 748.242326 -136.860331 
L 745.094241 -139.356198 
L 742.09586 -141.852066 
L 739.261836 -144.347934 
L 736.598763 -146.843802 
L 734.100704 -149.339669 
L 731.744961 -151.835537 
L 729.490574 -154.331405 
L 727.282008 -156.827273 
L 725.059515 -159.32314 
L 722.775995 -161.819008 
L 720.417981 -164.314876 
L 718.026341 -166.810744 
L 715.711062 -169.306612 
L 713.654543 -171.802479 
L 712.099521 -174.298347 
L 711.320894 -176.794215 
L 711.584585 -179.290083 
L 713.100195 -181.78595 
L 715.976482 -184.281818 
L 720.188814 -186.777686 
L 725.565494 -189.273554 
L 731.795857 -191.769421 
L 738.458369 -194.265289 
L 745.063017 -196.761157 
L 751.100194 -199.257025 
L 756.088532 -201.752893 
L 759.616337 -204.24876 
L 761.374411 -206.744628 
L 761.180757 -209.240496 
L 758.998861 -211.736364 
L 754.950441 -214.232231 
L 749.321322 -216.728099 
L 742.556459 -219.223967 
L 735.238838 -221.719835 
L 728.047982 -224.215702 
L 721.697622 -226.71157 
L 716.857787 -229.207438 
L 714.072374 -231.703306 
L 713.687076 -234.199174 
L 715.802592 -236.695041 
L 720.263817 -239.190909 
L 726.688243 -241.686777 
L 734.528051 -244.182645 
L 743.153086 -246.678512 
L 751.938057 -249.17438 
L 760.337834 -251.670248 
L 767.939133 -254.166116 
L 774.483427 -256.661983 
L 779.862724 -259.157851 
L 784.094888 -261.653719 
L 787.287695 -264.149587 
L 789.600614 -266.645455 
L 794.000284 -266.645455 
L 794.000284 -266.645455 
L 794.000284 -264.149587 
L 794.000284 -261.653719 
L 794.000284 -259.157851 
L 794.000284 -256.661983 
L 794.000284 -254.166116 
L 794.000284 -251.670248 
L 794.000284 -249.17438 
L 794.000284 -246.678512 
L 794.000284 -244.182645 
L 794.000284 -241.686777 
L 794.000284 -239.190909 
L 794.000284 -236.695041 
L 794.000284 -234.199174 
L 794.000284 -231.703306 
L 794.000284 -229.207438 
L 794.000284 -226.71157 
L 794.000284 -224.215702 
L 794.000284 -221.719835 
L 794.000284 -219.223967 
L 794.000284 -216.728099 
L 794.000284 -214.232231 
L 794.000284 -211.736364 
L 794.000284 -209.240496 
L 794.000284 -206.744628 
L 794.000284 -204.24876 
L 794.000284 -201.752893 
L 794.000284 -199.257025 
L 794.000284 -196.761157 
L 794.000284 -194.265289 
L 794.000284 -191.769421 
L 794.000284 -189.273554 
L 794.000284 -186.777686 
L 794.000284 -184.281818 
L 794.000284 -181.78595 
L 794.000284 -179.290083 
L 794.000284 -176.794215 
L 794.000284 -174.298347 
L 794.000284 -171.802479 
L 794.000284 -169.306612 
L 794.000284 -166.810744 
L 794.000284 -164.314876 
L 794.000284 -161.819008 
L 794.000284 -159.32314 
L 794.000284 -156.827273 
L 794.000284 -154.331405 
L 794.000284 -151.835537 
L 794.000284 -149.339669 
L 794.000284 -146.843802 
L 794.000284 -144.347934 
L 794.000284 -141.852066 
L 794.000284 -139.356198 
L 794.000284 -136.860331 
L 794.000284 -134.364463 
L 794.000284 -131.868595 
L 794.000284 -129.372727 
L 794.000284 -126.87686 
L 794.000284 -124.380992 
L 794.000284 -121.885124 
L 794.000284 -119.389256 
L 794.000284 -116.893388 
L 794.000284 -114.397521 
L 794.000284 -111.901653 
L 794.000284 -109.405785 
L 794.000284 -106.909917 
L 794.000284 -104.41405 
L 794.000284 -101.918182 
L 794.000284 -99.422314 
L 794.000284 -96.926446 
L 794.000284 -94.430579 
L 794.000284 -91.934711 
L 794.000284 -89.438843 
L 794.000284 -86.942975 
L 794.000284 -84.447107 
L 794.000284 -81.95124 
L 794.000284 -79.455372 
L 794.000284 -76.959504 
L 794.000284 -74.463636 
L 794.000284 -71.967769 
L 794.000284 -69.471901 
L 794.000284 -66.976033 
L 794.000284 -64.480165 
L 794.000284 -61.984298 
L 794.000284 -59.48843 
L 794.000284 -56.992562 
L 794.000284 -54.496694 
L 794.000284 -52.000826 
L 794.000284 -49.504959 
L 794.000284 -47.009091 
L 794.000284 -44.513223 
L 794.000284 -42.017355 
L 794.000284 -39.521488 
L 794.000284 -37.02562 
L 794.000284 -34.529752 
L 794.000284 -32.033884 
L 794.000284 -29.538017 
L 794.000284 -27.042149 
L 794.000284 -24.546281 
L 794.000284 -22.050413 
L 794.000284 -19.554545 
z
" id="m900f8213f3" style="stroke:#4c4c4c;stroke-width:2.25;"/>
    </defs>
    <g clip-path="url(#p0b76578d45)">
     <use style="fill:#5875a4;stroke:#4c4c4c;stroke-width:2.25;" x="0" xlink:href="#m900f8213f3" y="291.877769"/>
    </g>
   </g>
   <g id="PolyCollection_4">
    <defs>
     <path d="M 794.072808 -101.475264 
L 794.000284 -101.475264 
L 794.000284 -103.012334 
L 794.000284 -104.549404 
L 794.000284 -106.086474 
L 794.000284 -107.623544 
L 794.000284 -109.160614 
L 794.000284 -110.697684 
L 794.000284 -112.234754 
L 794.000284 -113.771824 
L 794.000284 -115.308894 
L 794.000284 -116.845964 
L 794.000284 -118.383034 
L 794.000284 -119.920104 
L 794.000284 -121.457174 
L 794.000284 -122.994244 
L 794.000284 -124.531314 
L 794.000284 -126.068384 
L 794.000284 -127.605454 
L 794.000284 -129.142524 
L 794.000284 -130.679594 
L 794.000284 -132.216664 
L 794.000284 -133.753734 
L 794.000284 -135.290804 
L 794.000284 -136.827874 
L 794.000284 -138.364944 
L 794.000284 -139.902014 
L 794.000284 -141.439084 
L 794.000284 -142.976154 
L 794.000284 -144.513224 
L 794.000284 -146.050294 
L 794.000284 -147.587364 
L 794.000284 -149.124434 
L 794.000284 -150.661504 
L 794.000284 -152.198574 
L 794.000284 -153.735644 
L 794.000284 -155.272714 
L 794.000284 -156.809784 
L 794.000284 -158.346854 
L 794.000284 -159.883924 
L 794.000284 -161.420994 
L 794.000284 -162.958064 
L 794.000284 -164.495134 
L 794.000284 -166.032204 
L 794.000284 -167.569274 
L 794.000284 -169.106344 
L 794.000284 -170.643414 
L 794.000284 -172.180484 
L 794.000284 -173.717554 
L 794.000284 -175.254624 
L 794.000284 -176.791694 
L 794.000284 -178.328764 
L 794.000284 -179.865834 
L 794.000284 -181.402904 
L 794.000284 -182.939974 
L 794.000284 -184.477044 
L 794.000284 -186.014114 
L 794.000284 -187.551184 
L 794.000284 -189.088254 
L 794.000284 -190.625324 
L 794.000284 -192.162395 
L 794.000284 -193.699465 
L 794.000284 -195.236535 
L 794.000284 -196.773605 
L 794.000284 -198.310675 
L 794.000284 -199.847745 
L 794.000284 -201.384815 
L 794.000284 -202.921885 
L 794.000284 -204.458955 
L 794.000284 -205.996025 
L 794.000284 -207.533095 
L 794.000284 -209.070165 
L 794.000284 -210.607235 
L 794.000284 -212.144305 
L 794.000284 -213.681375 
L 794.000284 -215.218445 
L 794.000284 -216.755515 
L 794.000284 -218.292585 
L 794.000284 -219.829655 
L 794.000284 -221.366725 
L 794.000284 -222.903795 
L 794.000284 -224.440865 
L 794.000284 -225.977935 
L 794.000284 -227.515005 
L 794.000284 -229.052075 
L 794.000284 -230.589145 
L 794.000284 -232.126215 
L 794.000284 -233.663285 
L 794.000284 -235.200355 
L 794.000284 -236.737425 
L 794.000284 -238.274495 
L 794.000284 -239.811565 
L 794.000284 -241.348635 
L 794.000284 -242.885705 
L 794.000284 -244.422775 
L 794.000284 -245.959845 
L 794.000284 -247.496915 
L 794.000284 -249.033985 
L 794.000284 -250.571055 
L 794.000284 -252.108125 
L 794.000284 -253.645195 
L 799.7661 -253.645195 
L 799.7661 -253.645195 
L 803.399408 -252.108125 
L 808.739903 -250.571055 
L 816.236696 -249.033985 
L 826.27268 -247.496915 
L 839.060711 -245.959845 
L 854.529905 -244.422775 
L 872.228189 -242.885705 
L 891.272978 -241.348635 
L 910.378702 -239.811565 
L 927.975988 -238.274495 
L 942.414577 -236.737425 
L 952.216635 -235.200355 
L 956.327557 -233.663285 
L 954.305535 -232.126215 
L 946.402814 -230.589145 
L 933.51796 -229.052075 
L 917.031657 -227.515005 
L 898.567427 -225.977935 
L 879.734459 -224.440865 
L 861.908146 -222.903795 
L 846.087489 -221.366725 
L 832.844189 -219.829655 
L 822.354547 -218.292585 
L 814.48908 -216.755515 
L 808.928817 -215.218445 
L 805.280594 -213.681375 
L 803.17256 -212.144305 
L 802.321194 -210.607235 
L 802.569059 -209.070165 
L 803.896646 -207.533095 
L 806.412282 -205.996025 
L 810.322684 -204.458955 
L 815.885321 -202.921885 
L 823.344056 -201.384815 
L 832.852449 -199.847745 
L 844.39409 -198.310675 
L 857.714776 -196.773605 
L 872.28455 -195.236535 
L 887.30614 -193.699465 
L 901.778977 -192.162395 
L 914.615506 -190.625324 
L 924.792249 -189.088254 
L 931.506448 -187.551184 
L 934.304619 -186.014114 
L 933.154007 -184.477044 
L 928.441061 -182.939974 
L 920.898597 -181.402904 
L 911.479953 -179.865834 
L 901.209148 -178.328764 
L 891.038295 -176.791694 
L 881.737552 -175.254624 
L 873.831773 -173.717554 
L 867.585606 -172.180484 
L 863.028796 -170.643414 
L 860.007776 -169.106344 
L 858.248499 -167.569274 
L 857.417831 -166.032204 
L 857.17485 -164.495134 
L 857.207737 -162.958064 
L 857.255541 -161.420994 
L 857.116716 -159.883924 
L 856.647829 -158.346854 
L 855.756437 -156.809784 
L 854.391933 -155.272714 
L 852.537253 -153.735644 
L 850.202958 -152.198574 
L 847.423773 -150.661504 
L 844.25648 -149.124434 
L 840.777542 -147.587364 
L 837.079072 -146.050294 
L 833.262575 -144.513224 
L 829.430925 -142.976154 
L 825.679856 -141.439084 
L 822.090564 -139.902014 
L 818.724754 -138.364944 
L 815.622785 -136.827874 
L 812.804765 -135.290804 
L 810.273819 -133.753734 
L 808.020437 -132.216664 
L 806.026889 -130.679594 
L 804.271029 -129.142524 
L 802.729161 -127.605454 
L 801.378 -126.068384 
L 800.195906 -124.531314 
L 799.163588 -122.994244 
L 798.264414 -121.457174 
L 797.484407 -119.920104 
L 796.811949 -118.383034 
L 796.237265 -116.845964 
L 795.751795 -115.308894 
L 795.34757 -113.771824 
L 795.016719 -112.234754 
L 794.75119 -110.697684 
L 794.542691 -109.160614 
L 794.382822 -107.623544 
L 794.263332 -106.086474 
L 794.176411 -104.549404 
L 794.114964 -103.012334 
L 794.072808 -101.475264 
z
" id="m64cec5924b" style="stroke:#4c4c4c;stroke-width:2.25;"/>
    </defs>
    <g clip-path="url(#p0b76578d45)">
     <use style="fill:#cc8963;stroke:#4c4c4c;stroke-width:2.25;" x="0" xlink:href="#m64cec5924b" y="291.877769"/>
    </g>
   </g>
   <g id="patch_13">
    <path clip-path="url(#p0b76578d45)" d="M 794.000284 309.506075 
L 794.000284 309.506075 
L 794.000284 309.506075 
L 794.000284 309.506075 
z
" style="fill:#5875a4;stroke:#4c4c4c;stroke-linejoin:miter;stroke-width:1.125;"/>
   </g>
   <g id="patch_14">
    <path clip-path="url(#p0b76578d45)" d="M 794.000284 309.506075 
L 794.000284 309.506075 
L 794.000284 309.506075 
L 794.000284 309.506075 
z
" style="fill:#cc8963;stroke:#4c4c4c;stroke-linejoin:miter;stroke-width:1.125;"/>
   </g>
   <g id="line2d_23">
    <path clip-path="url(#p0b76578d45)" d="M 727.949191 135.667754 
L 794.000284 135.667754 
" style="fill:none;stroke:#4c4c4c;stroke-dasharray:7.59375,7.59375;stroke-dashoffset:0;stroke-width:2.25;"/>
   </g>
   <g id="line2d_24">
    <path clip-path="url(#p0b76578d45)" d="M 716.75672 108.384951 
L 794.000284 108.384951 
" style="fill:none;stroke:#4c4c4c;stroke-dasharray:15.1875,15.1875;stroke-dashoffset:0;stroke-width:2.25;"/>
   </g>
   <g id="line2d_25">
    <path clip-path="url(#p0b76578d45)" d="M 714.871653 59.155047 
L 794.000284 59.155047 
" style="fill:none;stroke:#4c4c4c;stroke-dasharray:7.59375,7.59375;stroke-dashoffset:0;stroke-width:2.25;"/>
   </g>
   <g id="line2d_26">
    <path clip-path="url(#p0b76578d45)" d="M 794.000284 117.600594 
L 873.033458 117.600594 
" style="fill:none;stroke:#4c4c4c;stroke-dasharray:7.59375,7.59375;stroke-dashoffset:0;stroke-width:2.25;"/>
   </g>
   <g id="line2d_27">
    <path clip-path="url(#p0b76578d45)" d="M 794.000284 103.731984 
L 930.131387 103.731984 
" style="fill:none;stroke:#4c4c4c;stroke-dasharray:15.1875,15.1875;stroke-dashoffset:0;stroke-width:2.25;"/>
   </g>
   <g id="line2d_28">
    <path clip-path="url(#p0b76578d45)" d="M 794.000284 59.031822 
L 952.702483 59.031822 
" style="fill:none;stroke:#4c4c4c;stroke-dasharray:7.59375,7.59375;stroke-dashoffset:0;stroke-width:2.25;"/>
   </g>
   <g id="patch_15">
    <path d="M 591.091193 284.677769 
L 591.091193 12.877769 
" style="fill:none;stroke:#ffffff;stroke-linecap:square;stroke-linejoin:miter;stroke-width:1.875;"/>
   </g>
   <g id="patch_16">
    <path d="M 996.909375 284.677769 
L 996.909375 12.877769 
" style="fill:none;stroke:#ffffff;stroke-linecap:square;stroke-linejoin:miter;stroke-width:1.875;"/>
   </g>
   <g id="patch_17">
    <path d="M 591.091193 284.677769 
L 996.909375 284.677769 
" style="fill:none;stroke:#ffffff;stroke-linecap:square;stroke-linejoin:miter;stroke-width:1.875;"/>
   </g>
   <g id="patch_18">
    <path d="M 591.091193 12.877769 
L 996.909375 12.877769 
" style="fill:none;stroke:#ffffff;stroke-linecap:square;stroke-linejoin:miter;stroke-width:1.875;"/>
   </g>
   <g id="legend_2">
    <g id="patch_19">
     <path d="M 602.641193 276.427769 
L 757.029631 276.427769 
Q 760.329631 276.427769 760.329631 273.127769 
L 760.329631 200.669331 
Q 760.329631 197.369331 757.029631 197.369331 
L 602.641193 197.369331 
Q 599.341193 197.369331 599.341193 200.669331 
L 599.341193 273.127769 
Q 599.341193 276.427769 602.641193 276.427769 
z
" style="fill:#eaeaf2;opacity:0.8;stroke:#cccccc;stroke-linejoin:miter;stroke-width:1.5;"/>
    </g>
    <g id="text_14">
     <!-- Mutation -->
     <defs>
      <path d="M 9.8125 72.90625 
L 24.515625 72.90625 
L 43.109375 23.296875 
L 61.8125 72.90625 
L 76.515625 72.90625 
L 76.515625 0 
L 66.890625 0 
L 66.890625 64.015625 
L 48.09375 14.015625 
L 38.1875 14.015625 
L 19.390625 64.015625 
L 19.390625 0 
L 9.8125 0 
z
" id="DejaVuSans-77"/>
      <path d="M 54.890625 33.015625 
L 54.890625 0 
L 45.90625 0 
L 45.90625 32.71875 
Q 45.90625 40.484375 42.875 44.328125 
Q 39.84375 48.1875 33.796875 48.1875 
Q 26.515625 48.1875 22.3125 43.546875 
Q 18.109375 38.921875 18.109375 30.90625 
L 18.109375 0 
L 9.078125 0 
L 9.078125 54.6875 
L 18.109375 54.6875 
L 18.109375 46.1875 
Q 21.34375 51.125 25.703125 53.5625 
Q 30.078125 56 35.796875 56 
Q 45.21875 56 50.046875 50.171875 
Q 54.890625 44.34375 54.890625 33.015625 
z
" id="DejaVuSans-110"/>
     </defs>
     <g style="fill:#262626;" transform="translate(640.083537 217.646519)scale(0.18 -0.18)">
      <use xlink:href="#DejaVuSans-77"/>
      <use x="86.279297" xlink:href="#DejaVuSans-117"/>
      <use x="149.658203" xlink:href="#DejaVuSans-116"/>
      <use x="188.867188" xlink:href="#DejaVuSans-97"/>
      <use x="250.146484" xlink:href="#DejaVuSans-116"/>
      <use x="289.355469" xlink:href="#DejaVuSans-105"/>
      <use x="317.138672" xlink:href="#DejaVuSans-111"/>
      <use x="378.320312" xlink:href="#DejaVuSans-110"/>
     </g>
    </g>
    <g id="patch_20">
     <path d="M 605.941193 242.177378 
L 638.941193 242.177378 
L 638.941193 230.627378 
L 605.941193 230.627378 
z
" style="fill:#5875a4;stroke:#4c4c4c;stroke-linejoin:miter;stroke-width:1.125;"/>
    </g>
    <g id="text_15">
     <!-- Permutation -->
     <defs>
      <path d="M 19.671875 64.796875 
L 19.671875 37.40625 
L 32.078125 37.40625 
Q 38.96875 37.40625 42.71875 40.96875 
Q 46.484375 44.53125 46.484375 51.125 
Q 46.484375 57.671875 42.71875 61.234375 
Q 38.96875 64.796875 32.078125 64.796875 
z
M 9.8125 72.90625 
L 32.078125 72.90625 
Q 44.34375 72.90625 50.609375 67.359375 
Q 56.890625 61.8125 56.890625 51.125 
Q 56.890625 40.328125 50.609375 34.8125 
Q 44.34375 29.296875 32.078125 29.296875 
L 19.671875 29.296875 
L 19.671875 0 
L 9.8125 0 
z
" id="DejaVuSans-80"/>
      <path d="M 52 44.1875 
Q 55.375 50.25 60.0625 53.125 
Q 64.75 56 71.09375 56 
Q 79.640625 56 84.28125 50.015625 
Q 88.921875 44.046875 88.921875 33.015625 
L 88.921875 0 
L 79.890625 0 
L 79.890625 32.71875 
Q 79.890625 40.578125 77.09375 44.375 
Q 74.3125 48.1875 68.609375 48.1875 
Q 61.625 48.1875 57.5625 43.546875 
Q 53.515625 38.921875 53.515625 30.90625 
L 53.515625 0 
L 44.484375 0 
L 44.484375 32.71875 
Q 44.484375 40.625 41.703125 44.40625 
Q 38.921875 48.1875 33.109375 48.1875 
Q 26.21875 48.1875 22.15625 43.53125 
Q 18.109375 38.875 18.109375 30.90625 
L 18.109375 0 
L 9.078125 0 
L 9.078125 54.6875 
L 18.109375 54.6875 
L 18.109375 46.1875 
Q 21.1875 51.21875 25.484375 53.609375 
Q 29.78125 56 35.6875 56 
Q 41.65625 56 45.828125 52.96875 
Q 50 49.953125 52 44.1875 
z
" id="DejaVuSans-109"/>
     </defs>
     <g style="fill:#262626;" transform="translate(652.141193 242.177378)scale(0.165 -0.165)">
      <use xlink:href="#DejaVuSans-80"/>
      <use x="60.255859" xlink:href="#DejaVuSans-101"/>
      <use x="121.779297" xlink:href="#DejaVuSans-114"/>
      <use x="162.876953" xlink:href="#DejaVuSans-109"/>
      <use x="260.289062" xlink:href="#DejaVuSans-117"/>
      <use x="323.667969" xlink:href="#DejaVuSans-116"/>
      <use x="362.876953" xlink:href="#DejaVuSans-97"/>
      <use x="424.15625" xlink:href="#DejaVuSans-116"/>
      <use x="463.365234" xlink:href="#DejaVuSans-105"/>
      <use x="491.148438" xlink:href="#DejaVuSans-111"/>
      <use x="552.330078" xlink:href="#DejaVuSans-110"/>
     </g>
    </g>
    <g id="patch_21">
     <path d="M 605.941193 266.396285 
L 638.941193 266.396285 
L 638.941193 254.846285 
L 605.941193 254.846285 
z
" style="fill:#cc8963;stroke:#4c4c4c;stroke-linejoin:miter;stroke-width:1.125;"/>
    </g>
    <g id="text_16">
     <!-- Scramble -->
     <defs>
      <path d="M 53.515625 70.515625 
L 53.515625 60.890625 
Q 47.90625 63.578125 42.921875 64.890625 
Q 37.9375 66.21875 33.296875 66.21875 
Q 25.25 66.21875 20.875 63.09375 
Q 16.5 59.96875 16.5 54.203125 
Q 16.5 49.359375 19.40625 46.890625 
Q 22.3125 44.4375 30.421875 42.921875 
L 36.375 41.703125 
Q 47.40625 39.59375 52.65625 34.296875 
Q 57.90625 29 57.90625 20.125 
Q 57.90625 9.515625 50.796875 4.046875 
Q 43.703125 -1.421875 29.984375 -1.421875 
Q 24.8125 -1.421875 18.96875 -0.25 
Q 13.140625 0.921875 6.890625 3.21875 
L 6.890625 13.375 
Q 12.890625 10.015625 18.65625 8.296875 
Q 24.421875 6.59375 29.984375 6.59375 
Q 38.421875 6.59375 43.015625 9.90625 
Q 47.609375 13.234375 47.609375 19.390625 
Q 47.609375 24.75 44.3125 27.78125 
Q 41.015625 30.8125 33.5 32.328125 
L 27.484375 33.5 
Q 16.453125 35.6875 11.515625 40.375 
Q 6.59375 45.0625 6.59375 53.421875 
Q 6.59375 63.09375 13.40625 68.65625 
Q 20.21875 74.21875 32.171875 74.21875 
Q 37.3125 74.21875 42.625 73.28125 
Q 47.953125 72.359375 53.515625 70.515625 
z
" id="DejaVuSans-83"/>
     </defs>
     <g style="fill:#262626;" transform="translate(652.141193 266.396285)scale(0.165 -0.165)">
      <use xlink:href="#DejaVuSans-83"/>
      <use x="63.476562" xlink:href="#DejaVuSans-99"/>
      <use x="118.457031" xlink:href="#DejaVuSans-114"/>
      <use x="159.570312" xlink:href="#DejaVuSans-97"/>
      <use x="220.849609" xlink:href="#DejaVuSans-109"/>
      <use x="318.261719" xlink:href="#DejaVuSans-98"/>
      <use x="381.738281" xlink:href="#DejaVuSans-108"/>
      <use x="409.521484" xlink:href="#DejaVuSans-101"/>
     </g>
    </g>
   </g>
  </g>
 </g>
 <defs>
  <clipPath id="p19ba4bffac">
   <rect height="271.8" width="405.818182" x="104.109375" y="12.877769"/>
  </clipPath>
  <clipPath id="p0b76578d45">
   <rect height="271.8" width="405.818182" x="591.091193" y="12.877769"/>
  </clipPath>
 </defs>
</svg>
