<?xml version="1.0" encoding="utf-8" standalone="no"?>
<!DOCTYPE svg PUBLIC "-//W3C//DTD SVG 1.1//EN"
  "http://www.w3.org/Graphics/SVG/1.1/DTD/svg11.dtd">
<!-- Created with matplotlib (https://matplotlib.org/) -->
<svg height="286.2pt" version="1.1" viewBox="0 0 474.009375 286.2" width="474.009375pt" xmlns="http://www.w3.org/2000/svg" xmlns:xlink="http://www.w3.org/1999/xlink">
 <defs>
  <style type="text/css">
*{stroke-linecap:butt;stroke-linejoin:round;}
  </style>
 </defs>
 <g id="figure_1">
  <g id="patch_1">
   <path d="M 0 286.2 
L 474.009375 286.2 
L 474.009375 0 
L 0 0 
z
" style="fill:#ffffff;"/>
  </g>
  <g id="axes_1">
   <g id="patch_2">
    <path d="M 104.109375 279 
L 466.809375 279 
L 466.809375 7.2 
L 104.109375 7.2 
z
" style="fill:#eaeaf2;"/>
   </g>
   <g id="matplotlib.axis_1">
    <g id="xtick_1"/>
   </g>
   <g id="matplotlib.axis_2">
    <g id="ytick_1">
     <g id="line2d_1">
      <path clip-path="url(#pec1edc8e23)" d="M 104.109375 222.128558 
L 466.809375 222.128558 
" style="fill:none;stroke:#ffffff;stroke-linecap:round;stroke-width:1.5;"/>
     </g>
     <g id="text_1">
      <!-- 50000 -->
      <defs>
       <path d="M 10.796875 72.90625 
L 49.515625 72.90625 
L 49.515625 64.59375 
L 19.828125 64.59375 
L 19.828125 46.734375 
Q 21.96875 47.46875 24.109375 47.828125 
Q 26.265625 48.1875 28.421875 48.1875 
Q 40.625 48.1875 47.75 41.5 
Q 54.890625 34.8125 54.890625 23.390625 
Q 54.890625 11.625 47.5625 5.09375 
Q 40.234375 -1.421875 26.90625 -1.421875 
Q 22.3125 -1.421875 17.546875 -0.640625 
Q 12.796875 0.140625 7.71875 1.703125 
L 7.71875 11.625 
Q 12.109375 9.234375 16.796875 8.0625 
Q 21.484375 6.890625 26.703125 6.890625 
Q 35.15625 6.890625 40.078125 11.328125 
Q 45.015625 15.765625 45.015625 23.390625 
Q 45.015625 31 40.078125 35.4375 
Q 35.15625 39.890625 26.703125 39.890625 
Q 22.75 39.890625 18.8125 39.015625 
Q 14.890625 38.140625 10.796875 36.28125 
z
" id="DejaVuSans-53"/>
       <path d="M 31.78125 66.40625 
Q 24.171875 66.40625 20.328125 58.90625 
Q 16.5 51.421875 16.5 36.375 
Q 16.5 21.390625 20.328125 13.890625 
Q 24.171875 6.390625 31.78125 6.390625 
Q 39.453125 6.390625 43.28125 13.890625 
Q 47.125 21.390625 47.125 36.375 
Q 47.125 51.421875 43.28125 58.90625 
Q 39.453125 66.40625 31.78125 66.40625 
z
M 31.78125 74.21875 
Q 44.046875 74.21875 50.515625 64.515625 
Q 56.984375 54.828125 56.984375 36.375 
Q 56.984375 17.96875 50.515625 8.265625 
Q 44.046875 -1.421875 31.78125 -1.421875 
Q 19.53125 -1.421875 13.0625 8.265625 
Q 6.59375 17.96875 6.59375 36.375 
Q 6.59375 54.828125 13.0625 64.515625 
Q 19.53125 74.21875 31.78125 74.21875 
z
" id="DejaVuSans-48"/>
      </defs>
      <g style="fill:#262626;" transform="translate(39.11875 228.397269)scale(0.165 -0.165)">
       <use xlink:href="#DejaVuSans-53"/>
       <use x="63.623047" xlink:href="#DejaVuSans-48"/>
       <use x="127.246094" xlink:href="#DejaVuSans-48"/>
       <use x="190.869141" xlink:href="#DejaVuSans-48"/>
       <use x="254.492188" xlink:href="#DejaVuSans-48"/>
      </g>
     </g>
    </g>
    <g id="ytick_2">
     <g id="line2d_2">
      <path clip-path="url(#pec1edc8e23)" d="M 104.109375 158.2418 
L 466.809375 158.2418 
" style="fill:none;stroke:#ffffff;stroke-linecap:round;stroke-width:1.5;"/>
     </g>
     <g id="text_2">
      <!-- 100000 -->
      <defs>
       <path d="M 12.40625 8.296875 
L 28.515625 8.296875 
L 28.515625 63.921875 
L 10.984375 60.40625 
L 10.984375 69.390625 
L 28.421875 72.90625 
L 38.28125 72.90625 
L 38.28125 8.296875 
L 54.390625 8.296875 
L 54.390625 0 
L 12.40625 0 
z
" id="DejaVuSans-49"/>
      </defs>
      <g style="fill:#262626;" transform="translate(28.620625 164.510511)scale(0.165 -0.165)">
       <use xlink:href="#DejaVuSans-49"/>
       <use x="63.623047" xlink:href="#DejaVuSans-48"/>
       <use x="127.246094" xlink:href="#DejaVuSans-48"/>
       <use x="190.869141" xlink:href="#DejaVuSans-48"/>
       <use x="254.492188" xlink:href="#DejaVuSans-48"/>
       <use x="318.115234" xlink:href="#DejaVuSans-48"/>
      </g>
     </g>
    </g>
    <g id="ytick_3">
     <g id="line2d_3">
      <path clip-path="url(#pec1edc8e23)" d="M 104.109375 94.355043 
L 466.809375 94.355043 
" style="fill:none;stroke:#ffffff;stroke-linecap:round;stroke-width:1.5;"/>
     </g>
     <g id="text_3">
      <!-- 150000 -->
      <g style="fill:#262626;" transform="translate(28.620625 100.623754)scale(0.165 -0.165)">
       <use xlink:href="#DejaVuSans-49"/>
       <use x="63.623047" xlink:href="#DejaVuSans-53"/>
       <use x="127.246094" xlink:href="#DejaVuSans-48"/>
       <use x="190.869141" xlink:href="#DejaVuSans-48"/>
       <use x="254.492188" xlink:href="#DejaVuSans-48"/>
       <use x="318.115234" xlink:href="#DejaVuSans-48"/>
      </g>
     </g>
    </g>
    <g id="ytick_4">
     <g id="line2d_4">
      <path clip-path="url(#pec1edc8e23)" d="M 104.109375 30.468285 
L 466.809375 30.468285 
" style="fill:none;stroke:#ffffff;stroke-linecap:round;stroke-width:1.5;"/>
     </g>
     <g id="text_4">
      <!-- 200000 -->
      <defs>
       <path d="M 19.1875 8.296875 
L 53.609375 8.296875 
L 53.609375 0 
L 7.328125 0 
L 7.328125 8.296875 
Q 12.9375 14.109375 22.625 23.890625 
Q 32.328125 33.6875 34.8125 36.53125 
Q 39.546875 41.84375 41.421875 45.53125 
Q 43.3125 49.21875 43.3125 52.78125 
Q 43.3125 58.59375 39.234375 62.25 
Q 35.15625 65.921875 28.609375 65.921875 
Q 23.96875 65.921875 18.8125 64.3125 
Q 13.671875 62.703125 7.8125 59.421875 
L 7.8125 69.390625 
Q 13.765625 71.78125 18.9375 73 
Q 24.125 74.21875 28.421875 74.21875 
Q 39.75 74.21875 46.484375 68.546875 
Q 53.21875 62.890625 53.21875 53.421875 
Q 53.21875 48.921875 51.53125 44.890625 
Q 49.859375 40.875 45.40625 35.40625 
Q 44.1875 33.984375 37.640625 27.21875 
Q 31.109375 20.453125 19.1875 8.296875 
z
" id="DejaVuSans-50"/>
      </defs>
      <g style="fill:#262626;" transform="translate(28.620625 36.736996)scale(0.165 -0.165)">
       <use xlink:href="#DejaVuSans-50"/>
       <use x="63.623047" xlink:href="#DejaVuSans-48"/>
       <use x="127.246094" xlink:href="#DejaVuSans-48"/>
       <use x="190.869141" xlink:href="#DejaVuSans-48"/>
       <use x="254.492188" xlink:href="#DejaVuSans-48"/>
       <use x="318.115234" xlink:href="#DejaVuSans-48"/>
      </g>
     </g>
    </g>
    <g id="text_5">
     <!-- objective -->
     <defs>
      <path d="M 30.609375 48.390625 
Q 23.390625 48.390625 19.1875 42.75 
Q 14.984375 37.109375 14.984375 27.296875 
Q 14.984375 17.484375 19.15625 11.84375 
Q 23.34375 6.203125 30.609375 6.203125 
Q 37.796875 6.203125 41.984375 11.859375 
Q 46.1875 17.53125 46.1875 27.296875 
Q 46.1875 37.015625 41.984375 42.703125 
Q 37.796875 48.390625 30.609375 48.390625 
z
M 30.609375 56 
Q 42.328125 56 49.015625 48.375 
Q 55.71875 40.765625 55.71875 27.296875 
Q 55.71875 13.875 49.015625 6.21875 
Q 42.328125 -1.421875 30.609375 -1.421875 
Q 18.84375 -1.421875 12.171875 6.21875 
Q 5.515625 13.875 5.515625 27.296875 
Q 5.515625 40.765625 12.171875 48.375 
Q 18.84375 56 30.609375 56 
z
" id="DejaVuSans-111"/>
      <path d="M 48.6875 27.296875 
Q 48.6875 37.203125 44.609375 42.84375 
Q 40.53125 48.484375 33.40625 48.484375 
Q 26.265625 48.484375 22.1875 42.84375 
Q 18.109375 37.203125 18.109375 27.296875 
Q 18.109375 17.390625 22.1875 11.75 
Q 26.265625 6.109375 33.40625 6.109375 
Q 40.53125 6.109375 44.609375 11.75 
Q 48.6875 17.390625 48.6875 27.296875 
z
M 18.109375 46.390625 
Q 20.953125 51.265625 25.265625 53.625 
Q 29.59375 56 35.59375 56 
Q 45.5625 56 51.78125 48.09375 
Q 58.015625 40.1875 58.015625 27.296875 
Q 58.015625 14.40625 51.78125 6.484375 
Q 45.5625 -1.421875 35.59375 -1.421875 
Q 29.59375 -1.421875 25.265625 0.953125 
Q 20.953125 3.328125 18.109375 8.203125 
L 18.109375 0 
L 9.078125 0 
L 9.078125 75.984375 
L 18.109375 75.984375 
z
" id="DejaVuSans-98"/>
      <path d="M 9.421875 54.6875 
L 18.40625 54.6875 
L 18.40625 -0.984375 
Q 18.40625 -11.421875 14.421875 -16.109375 
Q 10.453125 -20.796875 1.609375 -20.796875 
L -1.8125 -20.796875 
L -1.8125 -13.1875 
L 0.59375 -13.1875 
Q 5.71875 -13.1875 7.5625 -10.8125 
Q 9.421875 -8.453125 9.421875 -0.984375 
z
M 9.421875 75.984375 
L 18.40625 75.984375 
L 18.40625 64.59375 
L 9.421875 64.59375 
z
" id="DejaVuSans-106"/>
      <path d="M 56.203125 29.59375 
L 56.203125 25.203125 
L 14.890625 25.203125 
Q 15.484375 15.921875 20.484375 11.0625 
Q 25.484375 6.203125 34.421875 6.203125 
Q 39.59375 6.203125 44.453125 7.46875 
Q 49.3125 8.734375 54.109375 11.28125 
L 54.109375 2.78125 
Q 49.265625 0.734375 44.1875 -0.34375 
Q 39.109375 -1.421875 33.890625 -1.421875 
Q 20.796875 -1.421875 13.15625 6.1875 
Q 5.515625 13.8125 5.515625 26.8125 
Q 5.515625 40.234375 12.765625 48.109375 
Q 20.015625 56 32.328125 56 
Q 43.359375 56 49.78125 48.890625 
Q 56.203125 41.796875 56.203125 29.59375 
z
M 47.21875 32.234375 
Q 47.125 39.59375 43.09375 43.984375 
Q 39.0625 48.390625 32.421875 48.390625 
Q 24.90625 48.390625 20.390625 44.140625 
Q 15.875 39.890625 15.1875 32.171875 
z
" id="DejaVuSans-101"/>
      <path d="M 48.78125 52.59375 
L 48.78125 44.1875 
Q 44.96875 46.296875 41.140625 47.34375 
Q 37.3125 48.390625 33.40625 48.390625 
Q 24.65625 48.390625 19.8125 42.84375 
Q 14.984375 37.3125 14.984375 27.296875 
Q 14.984375 17.28125 19.8125 11.734375 
Q 24.65625 6.203125 33.40625 6.203125 
Q 37.3125 6.203125 41.140625 7.25 
Q 44.96875 8.296875 48.78125 10.40625 
L 48.78125 2.09375 
Q 45.015625 0.34375 40.984375 -0.53125 
Q 36.96875 -1.421875 32.421875 -1.421875 
Q 20.0625 -1.421875 12.78125 6.34375 
Q 5.515625 14.109375 5.515625 27.296875 
Q 5.515625 40.671875 12.859375 48.328125 
Q 20.21875 56 33.015625 56 
Q 37.15625 56 41.109375 55.140625 
Q 45.0625 54.296875 48.78125 52.59375 
z
" id="DejaVuSans-99"/>
      <path d="M 18.3125 70.21875 
L 18.3125 54.6875 
L 36.8125 54.6875 
L 36.8125 47.703125 
L 18.3125 47.703125 
L 18.3125 18.015625 
Q 18.3125 11.328125 20.140625 9.421875 
Q 21.96875 7.515625 27.59375 7.515625 
L 36.8125 7.515625 
L 36.8125 0 
L 27.59375 0 
Q 17.1875 0 13.234375 3.875 
Q 9.28125 7.765625 9.28125 18.015625 
L 9.28125 47.703125 
L 2.6875 47.703125 
L 2.6875 54.6875 
L 9.28125 54.6875 
L 9.28125 70.21875 
z
" id="DejaVuSans-116"/>
      <path d="M 9.421875 54.6875 
L 18.40625 54.6875 
L 18.40625 0 
L 9.421875 0 
z
M 9.421875 75.984375 
L 18.40625 75.984375 
L 18.40625 64.59375 
L 9.421875 64.59375 
z
" id="DejaVuSans-105"/>
      <path d="M 2.984375 54.6875 
L 12.5 54.6875 
L 29.59375 8.796875 
L 46.6875 54.6875 
L 56.203125 54.6875 
L 35.6875 0 
L 23.484375 0 
z
" id="DejaVuSans-118"/>
     </defs>
     <g style="fill:#262626;" transform="translate(20.877187 184.200469)rotate(-90)scale(0.18 -0.18)">
      <use xlink:href="#DejaVuSans-111"/>
      <use x="61.181641" xlink:href="#DejaVuSans-98"/>
      <use x="124.658203" xlink:href="#DejaVuSans-106"/>
      <use x="152.441406" xlink:href="#DejaVuSans-101"/>
      <use x="213.964844" xlink:href="#DejaVuSans-99"/>
      <use x="268.945312" xlink:href="#DejaVuSans-116"/>
      <use x="308.154297" xlink:href="#DejaVuSans-105"/>
      <use x="335.9375" xlink:href="#DejaVuSans-118"/>
      <use x="395.117188" xlink:href="#DejaVuSans-101"/>
     </g>
    </g>
   </g>
   <g id="PolyCollection_1">
    <defs>
     <path d="M 285.459375 -19.554545 
L 284.388816 -19.554545 
L 283.91758 -22.050413 
L 283.289707 -24.546281 
L 282.475822 -27.042149 
L 281.45001 -29.538017 
L 280.193736 -32.033884 
L 278.700118 -34.529752 
L 276.978016 -37.02562 
L 275.055239 -39.521488 
L 272.980155 -42.017355 
L 270.821088 -44.513223 
L 268.663144 -47.009091 
L 266.602485 -49.504959 
L 264.738527 -52.000826 
L 263.164929 -54.496694 
L 261.960578 -56.992562 
L 261.181846 -59.48843 
L 260.857277 -61.984298 
L 260.985486 -64.480165 
L 261.536545 -66.976033 
L 262.456547 -69.471901 
L 263.67455 -71.967769 
L 265.110751 -74.463636 
L 266.684645 -76.959504 
L 268.322057 -79.455372 
L 269.960251 -81.95124 
L 271.55073 -84.447107 
L 273.05979 -86.942975 
L 274.467216 -89.438843 
L 275.763742 -91.934711 
L 276.947943 -94.430579 
L 278.023162 -96.926446 
L 278.994926 -99.422314 
L 279.869078 -101.918182 
L 280.650697 -104.41405 
L 281.343706 -106.909917 
L 281.950986 -109.405785 
L 282.474793 -111.901653 
L 282.917282 -114.397521 
L 283.280984 -116.893388 
L 283.56916 -119.389256 
L 283.785969 -121.885124 
L 283.936472 -124.380992 
L 284.02649 -126.87686 
L 284.062358 -129.372727 
L 284.050616 -131.868595 
L 283.997686 -134.364463 
L 283.909556 -136.860331 
L 283.791506 -139.356198 
L 283.647899 -141.852066 
L 283.48206 -144.347934 
L 283.296251 -146.843802 
L 283.091768 -149.339669 
L 282.869136 -151.835537 
L 282.628421 -154.331405 
L 282.369591 -156.827273 
L 282.092922 -159.32314 
L 281.799366 -161.819008 
L 281.490839 -164.314876 
L 281.170383 -166.810744 
L 280.842166 -169.306612 
L 280.511315 -171.802479 
L 280.183625 -174.298347 
L 279.86517 -176.794215 
L 279.561901 -179.290083 
L 279.279293 -181.78595 
L 279.022105 -184.281818 
L 278.794274 -186.777686 
L 278.598971 -189.273554 
L 278.438754 -191.769421 
L 278.315803 -194.265289 
L 278.232152 -196.761157 
L 278.189862 -199.257025 
L 278.191097 -201.752893 
L 278.238074 -204.24876 
L 278.332895 -206.744628 
L 278.477275 -209.240496 
L 278.67222 -211.736364 
L 278.917676 -214.232231 
L 279.212222 -216.728099 
L 279.552826 -219.223967 
L 279.934716 -221.719835 
L 280.351374 -224.215702 
L 280.794697 -226.71157 
L 281.255295 -229.207438 
L 281.722938 -231.703306 
L 282.1871 -234.199174 
L 282.637569 -236.695041 
L 283.065042 -239.190909 
L 283.461659 -241.686777 
L 283.82141 -244.182645 
L 284.140368 -246.678512 
L 284.416745 -249.17438 
L 284.650758 -251.670248 
L 284.844348 -254.166116 
L 285.000801 -256.661983 
L 285.124306 -259.157851 
L 285.219531 -261.653719 
L 285.291237 -264.149587 
L 285.343966 -266.645455 
L 285.459375 -266.645455 
L 285.459375 -266.645455 
L 285.459375 -264.149587 
L 285.459375 -261.653719 
L 285.459375 -259.157851 
L 285.459375 -256.661983 
L 285.459375 -254.166116 
L 285.459375 -251.670248 
L 285.459375 -249.17438 
L 285.459375 -246.678512 
L 285.459375 -244.182645 
L 285.459375 -241.686777 
L 285.459375 -239.190909 
L 285.459375 -236.695041 
L 285.459375 -234.199174 
L 285.459375 -231.703306 
L 285.459375 -229.207438 
L 285.459375 -226.71157 
L 285.459375 -224.215702 
L 285.459375 -221.719835 
L 285.459375 -219.223967 
L 285.459375 -216.728099 
L 285.459375 -214.232231 
L 285.459375 -211.736364 
L 285.459375 -209.240496 
L 285.459375 -206.744628 
L 285.459375 -204.24876 
L 285.459375 -201.752893 
L 285.459375 -199.257025 
L 285.459375 -196.761157 
L 285.459375 -194.265289 
L 285.459375 -191.769421 
L 285.459375 -189.273554 
L 285.459375 -186.777686 
L 285.459375 -184.281818 
L 285.459375 -181.78595 
L 285.459375 -179.290083 
L 285.459375 -176.794215 
L 285.459375 -174.298347 
L 285.459375 -171.802479 
L 285.459375 -169.306612 
L 285.459375 -166.810744 
L 285.459375 -164.314876 
L 285.459375 -161.819008 
L 285.459375 -159.32314 
L 285.459375 -156.827273 
L 285.459375 -154.331405 
L 285.459375 -151.835537 
L 285.459375 -149.339669 
L 285.459375 -146.843802 
L 285.459375 -144.347934 
L 285.459375 -141.852066 
L 285.459375 -139.356198 
L 285.459375 -136.860331 
L 285.459375 -134.364463 
L 285.459375 -131.868595 
L 285.459375 -129.372727 
L 285.459375 -126.87686 
L 285.459375 -124.380992 
L 285.459375 -121.885124 
L 285.459375 -119.389256 
L 285.459375 -116.893388 
L 285.459375 -114.397521 
L 285.459375 -111.901653 
L 285.459375 -109.405785 
L 285.459375 -106.909917 
L 285.459375 -104.41405 
L 285.459375 -101.918182 
L 285.459375 -99.422314 
L 285.459375 -96.926446 
L 285.459375 -94.430579 
L 285.459375 -91.934711 
L 285.459375 -89.438843 
L 285.459375 -86.942975 
L 285.459375 -84.447107 
L 285.459375 -81.95124 
L 285.459375 -79.455372 
L 285.459375 -76.959504 
L 285.459375 -74.463636 
L 285.459375 -71.967769 
L 285.459375 -69.471901 
L 285.459375 -66.976033 
L 285.459375 -64.480165 
L 285.459375 -61.984298 
L 285.459375 -59.48843 
L 285.459375 -56.992562 
L 285.459375 -54.496694 
L 285.459375 -52.000826 
L 285.459375 -49.504959 
L 285.459375 -47.009091 
L 285.459375 -44.513223 
L 285.459375 -42.017355 
L 285.459375 -39.521488 
L 285.459375 -37.02562 
L 285.459375 -34.529752 
L 285.459375 -32.033884 
L 285.459375 -29.538017 
L 285.459375 -27.042149 
L 285.459375 -24.546281 
L 285.459375 -22.050413 
L 285.459375 -19.554545 
z
" id="m36c4d86355" style="stroke:#4c4c4c;stroke-width:2.25;"/>
    </defs>
    <g clip-path="url(#pec1edc8e23)">
     <use style="fill:#5875a4;stroke:#4c4c4c;stroke-width:2.25;" x="0" xlink:href="#m36c4d86355" y="286.2"/>
    </g>
   </g>
   <g id="PolyCollection_2">
    <defs>
     <path d="M 285.511324 -110.155653 
L 285.459375 -110.155653 
L 285.459375 -111.310258 
L 285.459375 -112.464863 
L 285.459375 -113.619469 
L 285.459375 -114.774074 
L 285.459375 -115.928679 
L 285.459375 -117.083284 
L 285.459375 -118.237889 
L 285.459375 -119.392494 
L 285.459375 -120.5471 
L 285.459375 -121.701705 
L 285.459375 -122.85631 
L 285.459375 -124.010915 
L 285.459375 -125.16552 
L 285.459375 -126.320125 
L 285.459375 -127.474731 
L 285.459375 -128.629336 
L 285.459375 -129.783941 
L 285.459375 -130.938546 
L 285.459375 -132.093151 
L 285.459375 -133.247757 
L 285.459375 -134.402362 
L 285.459375 -135.556967 
L 285.459375 -136.711572 
L 285.459375 -137.866177 
L 285.459375 -139.020782 
L 285.459375 -140.175388 
L 285.459375 -141.329993 
L 285.459375 -142.484598 
L 285.459375 -143.639203 
L 285.459375 -144.793808 
L 285.459375 -145.948413 
L 285.459375 -147.103019 
L 285.459375 -148.257624 
L 285.459375 -149.412229 
L 285.459375 -150.566834 
L 285.459375 -151.721439 
L 285.459375 -152.876044 
L 285.459375 -154.03065 
L 285.459375 -155.185255 
L 285.459375 -156.33986 
L 285.459375 -157.494465 
L 285.459375 -158.64907 
L 285.459375 -159.803675 
L 285.459375 -160.958281 
L 285.459375 -162.112886 
L 285.459375 -163.267491 
L 285.459375 -164.422096 
L 285.459375 -165.576701 
L 285.459375 -166.731307 
L 285.459375 -167.885912 
L 285.459375 -169.040517 
L 285.459375 -170.195122 
L 285.459375 -171.349727 
L 285.459375 -172.504332 
L 285.459375 -173.658938 
L 285.459375 -174.813543 
L 285.459375 -175.968148 
L 285.459375 -177.122753 
L 285.459375 -178.277358 
L 285.459375 -179.431963 
L 285.459375 -180.586569 
L 285.459375 -181.741174 
L 285.459375 -182.895779 
L 285.459375 -184.050384 
L 285.459375 -185.204989 
L 285.459375 -186.359594 
L 285.459375 -187.5142 
L 285.459375 -188.668805 
L 285.459375 -189.82341 
L 285.459375 -190.978015 
L 285.459375 -192.13262 
L 285.459375 -193.287225 
L 285.459375 -194.441831 
L 285.459375 -195.596436 
L 285.459375 -196.751041 
L 285.459375 -197.905646 
L 285.459375 -199.060251 
L 285.459375 -200.214857 
L 285.459375 -201.369462 
L 285.459375 -202.524067 
L 285.459375 -203.678672 
L 285.459375 -204.833277 
L 285.459375 -205.987882 
L 285.459375 -207.142488 
L 285.459375 -208.297093 
L 285.459375 -209.451698 
L 285.459375 -210.606303 
L 285.459375 -211.760908 
L 285.459375 -212.915513 
L 285.459375 -214.070119 
L 285.459375 -215.224724 
L 285.459375 -216.379329 
L 285.459375 -217.533934 
L 285.459375 -218.688539 
L 285.459375 -219.843144 
L 285.459375 -220.99775 
L 285.459375 -222.152355 
L 285.459375 -223.30696 
L 285.459375 -224.461565 
L 285.506692 -224.461565 
L 285.506692 -224.461565 
L 285.561714 -223.30696 
L 285.642963 -222.152355 
L 285.732535 -220.99775 
L 285.796477 -219.843144 
L 285.804422 -218.688539 
L 285.752308 -217.533934 
L 285.665655 -216.379329 
L 285.579936 -215.224724 
L 285.518245 -214.070119 
L 285.485105 -212.915513 
L 285.475617 -211.760908 
L 285.48758 -210.606303 
L 285.52758 -209.451698 
L 285.608522 -208.297093 
L 285.739551 -207.142488 
L 285.91363 -205.987882 
L 286.101939 -204.833277 
L 286.261173 -203.678672 
L 286.351208 -202.524067 
L 286.355539 -201.369462 
L 286.294842 -200.214857 
L 286.220937 -199.060251 
L 286.185749 -197.905646 
L 286.204689 -196.751041 
L 286.248922 -195.596436 
L 286.276288 -194.441831 
L 286.268896 -193.287225 
L 286.239452 -192.13262 
L 286.206361 -190.978015 
L 286.169989 -189.82341 
L 286.113497 -188.668805 
L 286.022528 -187.5142 
L 285.903863 -186.359594 
L 285.788143 -185.204989 
L 285.714016 -184.050384 
L 285.703631 -182.895779 
L 285.746188 -181.741174 
L 285.802853 -180.586569 
L 285.83331 -179.431963 
L 285.82576 -178.277358 
L 285.803449 -177.122753 
L 285.798874 -175.968148 
L 285.820165 -174.813543 
L 285.844844 -173.658938 
L 285.847861 -172.504332 
L 285.833268 -171.349727 
L 285.834553 -170.195122 
L 285.882456 -169.040517 
L 285.97272 -167.885912 
L 286.064507 -166.731307 
L 286.110709 -165.576701 
L 286.096798 -164.422096 
L 286.06208 -163.267491 
L 286.088264 -162.112886 
L 286.256602 -160.958281 
L 286.596916 -159.803675 
L 287.069591 -158.64907 
L 287.606784 -157.494465 
L 288.185513 -156.33986 
L 288.865234 -155.185255 
L 289.751218 -154.03065 
L 290.912078 -152.876044 
L 292.309949 -151.721439 
L 293.788136 -150.566834 
L 295.138764 -149.412229 
L 296.225589 -148.257624 
L 297.061149 -147.103019 
L 297.738054 -145.948413 
L 298.268645 -144.793808 
L 298.540671 -143.639203 
L 298.503607 -142.484598 
L 298.419244 -141.329993 
L 298.914741 -140.175388 
L 300.818904 -139.020782 
L 305.000551 -137.866177 
L 312.330112 -136.711572 
L 323.622569 -135.556967 
L 339.365547 -134.402362 
L 359.240979 -133.247757 
L 381.668497 -132.093151 
L 403.666274 -130.938546 
L 421.264617 -129.783941 
L 430.539375 -128.629336 
L 428.997041 -127.474731 
L 416.656146 -126.320125 
L 396.140015 -125.16552 
L 371.657078 -124.010915 
L 347.472881 -122.85631 
L 326.698131 -121.701705 
L 310.823945 -120.5471 
L 299.917141 -119.392494 
L 293.146118 -118.237889 
L 289.334925 -117.083284 
L 287.371234 -115.928679 
L 286.417434 -114.774074 
L 285.953359 -113.619469 
L 285.71264 -112.464863 
L 285.581 -111.310258 
L 285.511324 -110.155653 
z
" id="mc10ff22029" style="stroke:#4c4c4c;stroke-width:2.25;"/>
    </defs>
    <g clip-path="url(#pec1edc8e23)">
     <use style="fill:#cc8963;stroke:#4c4c4c;stroke-width:2.25;" x="0" xlink:href="#mc10ff22029" y="286.2"/>
    </g>
   </g>
   <g id="patch_3">
    <path clip-path="url(#pec1edc8e23)" d="M 285.459375 286.015316 
L 285.459375 286.015316 
L 285.459375 286.015316 
L 285.459375 286.015316 
z
" style="fill:#5875a4;stroke:#4c4c4c;stroke-linejoin:miter;stroke-width:1.125;"/>
   </g>
   <g id="patch_4">
    <path clip-path="url(#pec1edc8e23)" d="M 285.459375 286.015316 
L 285.459375 286.015316 
L 285.459375 286.015316 
L 285.459375 286.015316 
z
" style="fill:#cc8963;stroke:#4c4c4c;stroke-linejoin:miter;stroke-width:1.125;"/>
   </g>
   <g id="line2d_5">
    <path clip-path="url(#pec1edc8e23)" d="M 261.424621 226.553355 
L 285.459375 226.553355 
" style="fill:none;stroke:#4c4c4c;stroke-dasharray:7.59375,7.59375;stroke-dashoffset:0;stroke-width:2.25;"/>
   </g>
   <g id="line2d_6">
    <path clip-path="url(#pec1edc8e23)" d="M 261.775773 218.085804 
L 285.459375 218.085804 
" style="fill:none;stroke:#4c4c4c;stroke-dasharray:15.1875,15.1875;stroke-dashoffset:0;stroke-width:2.25;"/>
   </g>
   <g id="line2d_7">
    <path clip-path="url(#pec1edc8e23)" d="M 280.236382 111.341254 
L 285.459375 111.341254 
" style="fill:none;stroke:#4c4c4c;stroke-dasharray:7.59375,7.59375;stroke-dashoffset:0;stroke-width:2.25;"/>
   </g>
   <g id="line2d_8">
    <path clip-path="url(#pec1edc8e23)" d="M 285.459375 159.622074 
L 415.344178 159.622074 
" style="fill:none;stroke:#4c4c4c;stroke-dasharray:7.59375,7.59375;stroke-dashoffset:0;stroke-width:2.25;"/>
   </g>
   <g id="line2d_9">
    <path clip-path="url(#pec1edc8e23)" d="M 285.459375 157.337164 
L 429.088575 157.337164 
" style="fill:none;stroke:#4c4c4c;stroke-dasharray:15.1875,15.1875;stroke-dashoffset:0;stroke-width:2.25;"/>
   </g>
   <g id="line2d_10">
    <path clip-path="url(#pec1edc8e23)" d="M 285.459375 154.299668 
L 380.706406 154.299668 
" style="fill:none;stroke:#4c4c4c;stroke-dasharray:7.59375,7.59375;stroke-dashoffset:0;stroke-width:2.25;"/>
   </g>
   <g id="patch_5">
    <path d="M 104.109375 279 
L 104.109375 7.2 
" style="fill:none;stroke:#ffffff;stroke-linecap:square;stroke-linejoin:miter;stroke-width:1.875;"/>
   </g>
   <g id="patch_6">
    <path d="M 466.809375 279 
L 466.809375 7.2 
" style="fill:none;stroke:#ffffff;stroke-linecap:square;stroke-linejoin:miter;stroke-width:1.875;"/>
   </g>
   <g id="patch_7">
    <path d="M 104.109375 279 
L 466.809375 279 
" style="fill:none;stroke:#ffffff;stroke-linecap:square;stroke-linejoin:miter;stroke-width:1.875;"/>
   </g>
   <g id="patch_8">
    <path d="M 104.109375 7.2 
L 466.809375 7.2 
" style="fill:none;stroke:#ffffff;stroke-linecap:square;stroke-linejoin:miter;stroke-width:1.875;"/>
   </g>
   <g id="legend_1">
    <g id="patch_9">
     <path d="M 115.659375 94.508438 
L 270.047813 94.508438 
Q 273.347813 94.508438 273.347813 91.208438 
L 273.347813 18.75 
Q 273.347813 15.45 270.047813 15.45 
L 115.659375 15.45 
Q 112.359375 15.45 112.359375 18.75 
L 112.359375 91.208438 
Q 112.359375 94.508438 115.659375 94.508438 
z
" style="fill:#eaeaf2;opacity:0.8;stroke:#cccccc;stroke-linejoin:miter;stroke-width:1.5;"/>
    </g>
    <g id="text_6">
     <!-- Mutation -->
     <defs>
      <path d="M 9.8125 72.90625 
L 24.515625 72.90625 
L 43.109375 23.296875 
L 61.8125 72.90625 
L 76.515625 72.90625 
L 76.515625 0 
L 66.890625 0 
L 66.890625 64.015625 
L 48.09375 14.015625 
L 38.1875 14.015625 
L 19.390625 64.015625 
L 19.390625 0 
L 9.8125 0 
z
" id="DejaVuSans-77"/>
      <path d="M 8.5 21.578125 
L 8.5 54.6875 
L 17.484375 54.6875 
L 17.484375 21.921875 
Q 17.484375 14.15625 20.5 10.265625 
Q 23.53125 6.390625 29.59375 6.390625 
Q 36.859375 6.390625 41.078125 11.03125 
Q 45.3125 15.671875 45.3125 23.6875 
L 45.3125 54.6875 
L 54.296875 54.6875 
L 54.296875 0 
L 45.3125 0 
L 45.3125 8.40625 
Q 42.046875 3.421875 37.71875 1 
Q 33.40625 -1.421875 27.6875 -1.421875 
Q 18.265625 -1.421875 13.375 4.4375 
Q 8.5 10.296875 8.5 21.578125 
z
M 31.109375 56 
z
" id="DejaVuSans-117"/>
      <path d="M 34.28125 27.484375 
Q 23.390625 27.484375 19.1875 25 
Q 14.984375 22.515625 14.984375 16.5 
Q 14.984375 11.71875 18.140625 8.90625 
Q 21.296875 6.109375 26.703125 6.109375 
Q 34.1875 6.109375 38.703125 11.40625 
Q 43.21875 16.703125 43.21875 25.484375 
L 43.21875 27.484375 
z
M 52.203125 31.203125 
L 52.203125 0 
L 43.21875 0 
L 43.21875 8.296875 
Q 40.140625 3.328125 35.546875 0.953125 
Q 30.953125 -1.421875 24.3125 -1.421875 
Q 15.921875 -1.421875 10.953125 3.296875 
Q 6 8.015625 6 15.921875 
Q 6 25.140625 12.171875 29.828125 
Q 18.359375 34.515625 30.609375 34.515625 
L 43.21875 34.515625 
L 43.21875 35.40625 
Q 43.21875 41.609375 39.140625 45 
Q 35.0625 48.390625 27.6875 48.390625 
Q 23 48.390625 18.546875 47.265625 
Q 14.109375 46.140625 10.015625 43.890625 
L 10.015625 52.203125 
Q 14.9375 54.109375 19.578125 55.046875 
Q 24.21875 56 28.609375 56 
Q 40.484375 56 46.34375 49.84375 
Q 52.203125 43.703125 52.203125 31.203125 
z
" id="DejaVuSans-97"/>
      <path d="M 54.890625 33.015625 
L 54.890625 0 
L 45.90625 0 
L 45.90625 32.71875 
Q 45.90625 40.484375 42.875 44.328125 
Q 39.84375 48.1875 33.796875 48.1875 
Q 26.515625 48.1875 22.3125 43.546875 
Q 18.109375 38.921875 18.109375 30.90625 
L 18.109375 0 
L 9.078125 0 
L 9.078125 54.6875 
L 18.109375 54.6875 
L 18.109375 46.1875 
Q 21.34375 51.125 25.703125 53.5625 
Q 30.078125 56 35.796875 56 
Q 45.21875 56 50.046875 50.171875 
Q 54.890625 44.34375 54.890625 33.015625 
z
" id="DejaVuSans-110"/>
     </defs>
     <g style="fill:#262626;" transform="translate(153.101719 35.727188)scale(0.18 -0.18)">
      <use xlink:href="#DejaVuSans-77"/>
      <use x="86.279297" xlink:href="#DejaVuSans-117"/>
      <use x="149.658203" xlink:href="#DejaVuSans-116"/>
      <use x="188.867188" xlink:href="#DejaVuSans-97"/>
      <use x="250.146484" xlink:href="#DejaVuSans-116"/>
      <use x="289.355469" xlink:href="#DejaVuSans-105"/>
      <use x="317.138672" xlink:href="#DejaVuSans-111"/>
      <use x="378.320312" xlink:href="#DejaVuSans-110"/>
     </g>
    </g>
    <g id="patch_10">
     <path d="M 118.959375 60.258047 
L 151.959375 60.258047 
L 151.959375 48.708047 
L 118.959375 48.708047 
z
" style="fill:#5875a4;stroke:#4c4c4c;stroke-linejoin:miter;stroke-width:1.125;"/>
    </g>
    <g id="text_7">
     <!-- Permutation -->
     <defs>
      <path d="M 19.671875 64.796875 
L 19.671875 37.40625 
L 32.078125 37.40625 
Q 38.96875 37.40625 42.71875 40.96875 
Q 46.484375 44.53125 46.484375 51.125 
Q 46.484375 57.671875 42.71875 61.234375 
Q 38.96875 64.796875 32.078125 64.796875 
z
M 9.8125 72.90625 
L 32.078125 72.90625 
Q 44.34375 72.90625 50.609375 67.359375 
Q 56.890625 61.8125 56.890625 51.125 
Q 56.890625 40.328125 50.609375 34.8125 
Q 44.34375 29.296875 32.078125 29.296875 
L 19.671875 29.296875 
L 19.671875 0 
L 9.8125 0 
z
" id="DejaVuSans-80"/>
      <path d="M 41.109375 46.296875 
Q 39.59375 47.171875 37.8125 47.578125 
Q 36.03125 48 33.890625 48 
Q 26.265625 48 22.1875 43.046875 
Q 18.109375 38.09375 18.109375 28.8125 
L 18.109375 0 
L 9.078125 0 
L 9.078125 54.6875 
L 18.109375 54.6875 
L 18.109375 46.1875 
Q 20.953125 51.171875 25.484375 53.578125 
Q 30.03125 56 36.53125 56 
Q 37.453125 56 38.578125 55.875 
Q 39.703125 55.765625 41.0625 55.515625 
z
" id="DejaVuSans-114"/>
      <path d="M 52 44.1875 
Q 55.375 50.25 60.0625 53.125 
Q 64.75 56 71.09375 56 
Q 79.640625 56 84.28125 50.015625 
Q 88.921875 44.046875 88.921875 33.015625 
L 88.921875 0 
L 79.890625 0 
L 79.890625 32.71875 
Q 79.890625 40.578125 77.09375 44.375 
Q 74.3125 48.1875 68.609375 48.1875 
Q 61.625 48.1875 57.5625 43.546875 
Q 53.515625 38.921875 53.515625 30.90625 
L 53.515625 0 
L 44.484375 0 
L 44.484375 32.71875 
Q 44.484375 40.625 41.703125 44.40625 
Q 38.921875 48.1875 33.109375 48.1875 
Q 26.21875 48.1875 22.15625 43.53125 
Q 18.109375 38.875 18.109375 30.90625 
L 18.109375 0 
L 9.078125 0 
L 9.078125 54.6875 
L 18.109375 54.6875 
L 18.109375 46.1875 
Q 21.1875 51.21875 25.484375 53.609375 
Q 29.78125 56 35.6875 56 
Q 41.65625 56 45.828125 52.96875 
Q 50 49.953125 52 44.1875 
z
" id="DejaVuSans-109"/>
     </defs>
     <g style="fill:#262626;" transform="translate(165.159375 60.258047)scale(0.165 -0.165)">
      <use xlink:href="#DejaVuSans-80"/>
      <use x="60.255859" xlink:href="#DejaVuSans-101"/>
      <use x="121.779297" xlink:href="#DejaVuSans-114"/>
      <use x="162.876953" xlink:href="#DejaVuSans-109"/>
      <use x="260.289062" xlink:href="#DejaVuSans-117"/>
      <use x="323.667969" xlink:href="#DejaVuSans-116"/>
      <use x="362.876953" xlink:href="#DejaVuSans-97"/>
      <use x="424.15625" xlink:href="#DejaVuSans-116"/>
      <use x="463.365234" xlink:href="#DejaVuSans-105"/>
      <use x="491.148438" xlink:href="#DejaVuSans-111"/>
      <use x="552.330078" xlink:href="#DejaVuSans-110"/>
     </g>
    </g>
    <g id="patch_11">
     <path d="M 118.959375 84.476953 
L 151.959375 84.476953 
L 151.959375 72.926953 
L 118.959375 72.926953 
z
" style="fill:#cc8963;stroke:#4c4c4c;stroke-linejoin:miter;stroke-width:1.125;"/>
    </g>
    <g id="text_8">
     <!-- Scramble -->
     <defs>
      <path d="M 53.515625 70.515625 
L 53.515625 60.890625 
Q 47.90625 63.578125 42.921875 64.890625 
Q 37.9375 66.21875 33.296875 66.21875 
Q 25.25 66.21875 20.875 63.09375 
Q 16.5 59.96875 16.5 54.203125 
Q 16.5 49.359375 19.40625 46.890625 
Q 22.3125 44.4375 30.421875 42.921875 
L 36.375 41.703125 
Q 47.40625 39.59375 52.65625 34.296875 
Q 57.90625 29 57.90625 20.125 
Q 57.90625 9.515625 50.796875 4.046875 
Q 43.703125 -1.421875 29.984375 -1.421875 
Q 24.8125 -1.421875 18.96875 -0.25 
Q 13.140625 0.921875 6.890625 3.21875 
L 6.890625 13.375 
Q 12.890625 10.015625 18.65625 8.296875 
Q 24.421875 6.59375 29.984375 6.59375 
Q 38.421875 6.59375 43.015625 9.90625 
Q 47.609375 13.234375 47.609375 19.390625 
Q 47.609375 24.75 44.3125 27.78125 
Q 41.015625 30.8125 33.5 32.328125 
L 27.484375 33.5 
Q 16.453125 35.6875 11.515625 40.375 
Q 6.59375 45.0625 6.59375 53.421875 
Q 6.59375 63.09375 13.40625 68.65625 
Q 20.21875 74.21875 32.171875 74.21875 
Q 37.3125 74.21875 42.625 73.28125 
Q 47.953125 72.359375 53.515625 70.515625 
z
" id="DejaVuSans-83"/>
      <path d="M 9.421875 75.984375 
L 18.40625 75.984375 
L 18.40625 0 
L 9.421875 0 
z
" id="DejaVuSans-108"/>
     </defs>
     <g style="fill:#262626;" transform="translate(165.159375 84.476953)scale(0.165 -0.165)">
      <use xlink:href="#DejaVuSans-83"/>
      <use x="63.476562" xlink:href="#DejaVuSans-99"/>
      <use x="118.457031" xlink:href="#DejaVuSans-114"/>
      <use x="159.570312" xlink:href="#DejaVuSans-97"/>
      <use x="220.849609" xlink:href="#DejaVuSans-109"/>
      <use x="318.261719" xlink:href="#DejaVuSans-98"/>
      <use x="381.738281" xlink:href="#DejaVuSans-108"/>
      <use x="409.521484" xlink:href="#DejaVuSans-101"/>
     </g>
    </g>
   </g>
  </g>
 </g>
 <defs>
  <clipPath id="pec1edc8e23">
   <rect height="271.8" width="362.7" x="104.109375" y="7.2"/>
  </clipPath>
 </defs>
</svg>
