<?xml version="1.0" encoding="utf-8" standalone="no"?>
<!DOCTYPE svg PUBLIC "-//W3C//DTD SVG 1.1//EN"
  "http://www.w3.org/Graphics/SVG/1.1/DTD/svg11.dtd">
<!-- Created with matplotlib (https://matplotlib.org/) -->
<svg height="338.344885pt" version="1.1" viewBox="0 0 1131.828125 338.344885" width="1131.828125pt" xmlns="http://www.w3.org/2000/svg" xmlns:xlink="http://www.w3.org/1999/xlink">
 <defs>
  <style type="text/css">
*{stroke-linecap:butt;stroke-linejoin:round;}
  </style>
 </defs>
 <g id="figure_1">
  <g id="patch_1">
   <path d="M 0 338.344885 
L 1131.828125 338.344885 
L 1131.828125 0 
L 0 0 
z
" style="fill:#ffffff;"/>
  </g>
  <g id="axes_1">
   <g id="patch_2">
    <path d="M 86.620125 268.826404 
L 1124.628125 268.826404 
L 1124.628125 9.954334 
L 86.620125 9.954334 
z
" style="fill:#eaeaf2;"/>
   </g>
   <g id="matplotlib.axis_1">
    <g id="xtick_1">
     <g id="line2d_1">
      <defs>
       <path d="M 0 0 
L 0 10 
" id="md2afb5164b" style="stroke:#808080;stroke-width:2;"/>
      </defs>
      <g>
       <use style="fill:#808080;stroke:#808080;stroke-width:2;" x="121.220392" xlink:href="#md2afb5164b" y="268.826404"/>
      </g>
     </g>
     <g id="text_1">
      <!-- py.ES default -->
      <defs>
       <path d="M 18.109375 8.203125 
L 18.109375 -20.796875 
L 9.078125 -20.796875 
L 9.078125 54.6875 
L 18.109375 54.6875 
L 18.109375 46.390625 
Q 20.953125 51.265625 25.265625 53.625 
Q 29.59375 56 35.59375 56 
Q 45.5625 56 51.78125 48.09375 
Q 58.015625 40.1875 58.015625 27.296875 
Q 58.015625 14.40625 51.78125 6.484375 
Q 45.5625 -1.421875 35.59375 -1.421875 
Q 29.59375 -1.421875 25.265625 0.953125 
Q 20.953125 3.328125 18.109375 8.203125 
z
M 48.6875 27.296875 
Q 48.6875 37.203125 44.609375 42.84375 
Q 40.53125 48.484375 33.40625 48.484375 
Q 26.265625 48.484375 22.1875 42.84375 
Q 18.109375 37.203125 18.109375 27.296875 
Q 18.109375 17.390625 22.1875 11.75 
Q 26.265625 6.109375 33.40625 6.109375 
Q 40.53125 6.109375 44.609375 11.75 
Q 48.6875 17.390625 48.6875 27.296875 
z
" id="DejaVuSans-112"/>
       <path d="M 32.171875 -5.078125 
Q 28.375 -14.84375 24.75 -17.8125 
Q 21.140625 -20.796875 15.09375 -20.796875 
L 7.90625 -20.796875 
L 7.90625 -13.28125 
L 13.1875 -13.28125 
Q 16.890625 -13.28125 18.9375 -11.515625 
Q 21 -9.765625 23.484375 -3.21875 
L 25.09375 0.875 
L 2.984375 54.6875 
L 12.5 54.6875 
L 29.59375 11.921875 
L 46.6875 54.6875 
L 56.203125 54.6875 
z
" id="DejaVuSans-121"/>
       <path d="M 10.6875 12.40625 
L 21 12.40625 
L 21 0 
L 10.6875 0 
z
" id="DejaVuSans-46"/>
       <path d="M 9.8125 72.90625 
L 55.90625 72.90625 
L 55.90625 64.59375 
L 19.671875 64.59375 
L 19.671875 43.015625 
L 54.390625 43.015625 
L 54.390625 34.71875 
L 19.671875 34.71875 
L 19.671875 8.296875 
L 56.78125 8.296875 
L 56.78125 0 
L 9.8125 0 
z
" id="DejaVuSans-69"/>
       <path d="M 53.515625 70.515625 
L 53.515625 60.890625 
Q 47.90625 63.578125 42.921875 64.890625 
Q 37.9375 66.21875 33.296875 66.21875 
Q 25.25 66.21875 20.875 63.09375 
Q 16.5 59.96875 16.5 54.203125 
Q 16.5 49.359375 19.40625 46.890625 
Q 22.3125 44.4375 30.421875 42.921875 
L 36.375 41.703125 
Q 47.40625 39.59375 52.65625 34.296875 
Q 57.90625 29 57.90625 20.125 
Q 57.90625 9.515625 50.796875 4.046875 
Q 43.703125 -1.421875 29.984375 -1.421875 
Q 24.8125 -1.421875 18.96875 -0.25 
Q 13.140625 0.921875 6.890625 3.21875 
L 6.890625 13.375 
Q 12.890625 10.015625 18.65625 8.296875 
Q 24.421875 6.59375 29.984375 6.59375 
Q 38.421875 6.59375 43.015625 9.90625 
Q 47.609375 13.234375 47.609375 19.390625 
Q 47.609375 24.75 44.3125 27.78125 
Q 41.015625 30.8125 33.5 32.328125 
L 27.484375 33.5 
Q 16.453125 35.6875 11.515625 40.375 
Q 6.59375 45.0625 6.59375 53.421875 
Q 6.59375 63.09375 13.40625 68.65625 
Q 20.21875 74.21875 32.171875 74.21875 
Q 37.3125 74.21875 42.625 73.28125 
Q 47.953125 72.359375 53.515625 70.515625 
z
" id="DejaVuSans-83"/>
       <path id="DejaVuSans-32"/>
       <path d="M 45.40625 46.390625 
L 45.40625 75.984375 
L 54.390625 75.984375 
L 54.390625 0 
L 45.40625 0 
L 45.40625 8.203125 
Q 42.578125 3.328125 38.25 0.953125 
Q 33.9375 -1.421875 27.875 -1.421875 
Q 17.96875 -1.421875 11.734375 6.484375 
Q 5.515625 14.40625 5.515625 27.296875 
Q 5.515625 40.1875 11.734375 48.09375 
Q 17.96875 56 27.875 56 
Q 33.9375 56 38.25 53.625 
Q 42.578125 51.265625 45.40625 46.390625 
z
M 14.796875 27.296875 
Q 14.796875 17.390625 18.875 11.75 
Q 22.953125 6.109375 30.078125 6.109375 
Q 37.203125 6.109375 41.296875 11.75 
Q 45.40625 17.390625 45.40625 27.296875 
Q 45.40625 37.203125 41.296875 42.84375 
Q 37.203125 48.484375 30.078125 48.484375 
Q 22.953125 48.484375 18.875 42.84375 
Q 14.796875 37.203125 14.796875 27.296875 
z
" id="DejaVuSans-100"/>
       <path d="M 56.203125 29.59375 
L 56.203125 25.203125 
L 14.890625 25.203125 
Q 15.484375 15.921875 20.484375 11.0625 
Q 25.484375 6.203125 34.421875 6.203125 
Q 39.59375 6.203125 44.453125 7.46875 
Q 49.3125 8.734375 54.109375 11.28125 
L 54.109375 2.78125 
Q 49.265625 0.734375 44.1875 -0.34375 
Q 39.109375 -1.421875 33.890625 -1.421875 
Q 20.796875 -1.421875 13.15625 6.1875 
Q 5.515625 13.8125 5.515625 26.8125 
Q 5.515625 40.234375 12.765625 48.109375 
Q 20.015625 56 32.328125 56 
Q 43.359375 56 49.78125 48.890625 
Q 56.203125 41.796875 56.203125 29.59375 
z
M 47.21875 32.234375 
Q 47.125 39.59375 43.09375 43.984375 
Q 39.0625 48.390625 32.421875 48.390625 
Q 24.90625 48.390625 20.390625 44.140625 
Q 15.875 39.890625 15.1875 32.171875 
z
" id="DejaVuSans-101"/>
       <path d="M 37.109375 75.984375 
L 37.109375 68.5 
L 28.515625 68.5 
Q 23.6875 68.5 21.796875 66.546875 
Q 19.921875 64.59375 19.921875 59.515625 
L 19.921875 54.6875 
L 34.71875 54.6875 
L 34.71875 47.703125 
L 19.921875 47.703125 
L 19.921875 0 
L 10.890625 0 
L 10.890625 47.703125 
L 2.296875 47.703125 
L 2.296875 54.6875 
L 10.890625 54.6875 
L 10.890625 58.5 
Q 10.890625 67.625 15.140625 71.796875 
Q 19.390625 75.984375 28.609375 75.984375 
z
" id="DejaVuSans-102"/>
       <path d="M 34.28125 27.484375 
Q 23.390625 27.484375 19.1875 25 
Q 14.984375 22.515625 14.984375 16.5 
Q 14.984375 11.71875 18.140625 8.90625 
Q 21.296875 6.109375 26.703125 6.109375 
Q 34.1875 6.109375 38.703125 11.40625 
Q 43.21875 16.703125 43.21875 25.484375 
L 43.21875 27.484375 
z
M 52.203125 31.203125 
L 52.203125 0 
L 43.21875 0 
L 43.21875 8.296875 
Q 40.140625 3.328125 35.546875 0.953125 
Q 30.953125 -1.421875 24.3125 -1.421875 
Q 15.921875 -1.421875 10.953125 3.296875 
Q 6 8.015625 6 15.921875 
Q 6 25.140625 12.171875 29.828125 
Q 18.359375 34.515625 30.609375 34.515625 
L 43.21875 34.515625 
L 43.21875 35.40625 
Q 43.21875 41.609375 39.140625 45 
Q 35.0625 48.390625 27.6875 48.390625 
Q 23 48.390625 18.546875 47.265625 
Q 14.109375 46.140625 10.015625 43.890625 
L 10.015625 52.203125 
Q 14.9375 54.109375 19.578125 55.046875 
Q 24.21875 56 28.609375 56 
Q 40.484375 56 46.34375 49.84375 
Q 52.203125 43.703125 52.203125 31.203125 
z
" id="DejaVuSans-97"/>
       <path d="M 8.5 21.578125 
L 8.5 54.6875 
L 17.484375 54.6875 
L 17.484375 21.921875 
Q 17.484375 14.15625 20.5 10.265625 
Q 23.53125 6.390625 29.59375 6.390625 
Q 36.859375 6.390625 41.078125 11.03125 
Q 45.3125 15.671875 45.3125 23.6875 
L 45.3125 54.6875 
L 54.296875 54.6875 
L 54.296875 0 
L 45.3125 0 
L 45.3125 8.40625 
Q 42.046875 3.421875 37.71875 1 
Q 33.40625 -1.421875 27.6875 -1.421875 
Q 18.265625 -1.421875 13.375 4.4375 
Q 8.5 10.296875 8.5 21.578125 
z
M 31.109375 56 
z
" id="DejaVuSans-117"/>
       <path d="M 9.421875 75.984375 
L 18.40625 75.984375 
L 18.40625 0 
L 9.421875 0 
z
" id="DejaVuSans-108"/>
       <path d="M 18.3125 70.21875 
L 18.3125 54.6875 
L 36.8125 54.6875 
L 36.8125 47.703125 
L 18.3125 47.703125 
L 18.3125 18.015625 
Q 18.3125 11.328125 20.140625 9.421875 
Q 21.96875 7.515625 27.59375 7.515625 
L 36.8125 7.515625 
L 36.8125 0 
L 27.59375 0 
Q 17.1875 0 13.234375 3.875 
Q 9.28125 7.765625 9.28125 18.015625 
L 9.28125 47.703125 
L 2.6875 47.703125 
L 2.6875 54.6875 
L 9.28125 54.6875 
L 9.28125 70.21875 
z
" id="DejaVuSans-116"/>
      </defs>
      <g style="fill:#262626;" transform="translate(30.476029 325.759063)rotate(-25)scale(0.1485 -0.1485)">
       <use xlink:href="#DejaVuSans-112"/>
       <use x="63.476562" xlink:href="#DejaVuSans-121"/>
       <use x="122.4375" xlink:href="#DejaVuSans-46"/>
       <use x="154.224609" xlink:href="#DejaVuSans-69"/>
       <use x="217.408203" xlink:href="#DejaVuSans-83"/>
       <use x="280.884766" xlink:href="#DejaVuSans-32"/>
       <use x="312.671875" xlink:href="#DejaVuSans-100"/>
       <use x="376.148438" xlink:href="#DejaVuSans-101"/>
       <use x="437.671875" xlink:href="#DejaVuSans-102"/>
       <use x="472.876953" xlink:href="#DejaVuSans-97"/>
       <use x="534.15625" xlink:href="#DejaVuSans-117"/>
       <use x="597.535156" xlink:href="#DejaVuSans-108"/>
       <use x="625.318359" xlink:href="#DejaVuSans-116"/>
      </g>
     </g>
    </g>
    <g id="xtick_2">
     <g id="line2d_2">
      <g>
       <use style="fill:#808080;stroke:#808080;stroke-width:2;" x="190.420925" xlink:href="#md2afb5164b" y="268.826404"/>
      </g>
     </g>
     <g id="text_2">
      <!-- py.SA default -->
      <defs>
       <path d="M 34.1875 63.1875 
L 20.796875 26.90625 
L 47.609375 26.90625 
z
M 28.609375 72.90625 
L 39.796875 72.90625 
L 67.578125 0 
L 57.328125 0 
L 50.6875 18.703125 
L 17.828125 18.703125 
L 11.1875 0 
L 0.78125 0 
z
" id="DejaVuSans-65"/>
      </defs>
      <g style="fill:#262626;" transform="translate(98.972085 326.087566)rotate(-25)scale(0.1485 -0.1485)">
       <use xlink:href="#DejaVuSans-112"/>
       <use x="63.476562" xlink:href="#DejaVuSans-121"/>
       <use x="122.4375" xlink:href="#DejaVuSans-46"/>
       <use x="154.224609" xlink:href="#DejaVuSans-83"/>
       <use x="217.716797" xlink:href="#DejaVuSans-65"/>
       <use x="286.125" xlink:href="#DejaVuSans-32"/>
       <use x="317.912109" xlink:href="#DejaVuSans-100"/>
       <use x="381.388672" xlink:href="#DejaVuSans-101"/>
       <use x="442.912109" xlink:href="#DejaVuSans-102"/>
       <use x="478.117188" xlink:href="#DejaVuSans-97"/>
       <use x="539.396484" xlink:href="#DejaVuSans-117"/>
       <use x="602.775391" xlink:href="#DejaVuSans-108"/>
       <use x="630.558594" xlink:href="#DejaVuSans-116"/>
      </g>
     </g>
    </g>
    <g id="xtick_3">
     <g id="line2d_3">
      <g>
       <use style="fill:#808080;stroke:#808080;stroke-width:2;" x="259.621458" xlink:href="#md2afb5164b" y="268.826404"/>
      </g>
     </g>
     <g id="text_3">
      <!-- j.ES default -->
      <defs>
       <path d="M 9.421875 54.6875 
L 18.40625 54.6875 
L 18.40625 -0.984375 
Q 18.40625 -11.421875 14.421875 -16.109375 
Q 10.453125 -20.796875 1.609375 -20.796875 
L -1.8125 -20.796875 
L -1.8125 -13.1875 
L 0.59375 -13.1875 
Q 5.71875 -13.1875 7.5625 -10.8125 
Q 9.421875 -8.453125 9.421875 -0.984375 
z
M 9.421875 75.984375 
L 18.40625 75.984375 
L 18.40625 64.59375 
L 9.421875 64.59375 
z
" id="DejaVuSans-106"/>
      </defs>
      <g style="fill:#262626;" transform="translate(181.618672 319.817568)rotate(-25)scale(0.1485 -0.1485)">
       <use xlink:href="#DejaVuSans-106"/>
       <use x="27.783203" xlink:href="#DejaVuSans-46"/>
       <use x="59.570312" xlink:href="#DejaVuSans-69"/>
       <use x="122.753906" xlink:href="#DejaVuSans-83"/>
       <use x="186.230469" xlink:href="#DejaVuSans-32"/>
       <use x="218.017578" xlink:href="#DejaVuSans-100"/>
       <use x="281.494141" xlink:href="#DejaVuSans-101"/>
       <use x="343.017578" xlink:href="#DejaVuSans-102"/>
       <use x="378.222656" xlink:href="#DejaVuSans-97"/>
       <use x="439.501953" xlink:href="#DejaVuSans-117"/>
       <use x="502.880859" xlink:href="#DejaVuSans-108"/>
       <use x="530.664062" xlink:href="#DejaVuSans-116"/>
      </g>
     </g>
    </g>
    <g id="xtick_4">
     <g id="line2d_4">
      <g>
       <use style="fill:#808080;stroke:#808080;stroke-width:2;" x="328.821992" xlink:href="#md2afb5164b" y="268.826404"/>
      </g>
     </g>
     <g id="text_4">
      <!-- py.ES tuned -->
      <defs>
       <path d="M 54.890625 33.015625 
L 54.890625 0 
L 45.90625 0 
L 45.90625 32.71875 
Q 45.90625 40.484375 42.875 44.328125 
Q 39.84375 48.1875 33.796875 48.1875 
Q 26.515625 48.1875 22.3125 43.546875 
Q 18.109375 38.921875 18.109375 30.90625 
L 18.109375 0 
L 9.078125 0 
L 9.078125 54.6875 
L 18.109375 54.6875 
L 18.109375 46.1875 
Q 21.34375 51.125 25.703125 53.5625 
Q 30.078125 56 35.796875 56 
Q 45.21875 56 50.046875 50.171875 
Q 54.890625 44.34375 54.890625 33.015625 
z
" id="DejaVuSans-110"/>
      </defs>
      <g style="fill:#262626;" transform="translate(246.272698 321.93764)rotate(-25)scale(0.1485 -0.1485)">
       <use xlink:href="#DejaVuSans-112"/>
       <use x="63.476562" xlink:href="#DejaVuSans-121"/>
       <use x="122.4375" xlink:href="#DejaVuSans-46"/>
       <use x="154.224609" xlink:href="#DejaVuSans-69"/>
       <use x="217.408203" xlink:href="#DejaVuSans-83"/>
       <use x="280.884766" xlink:href="#DejaVuSans-32"/>
       <use x="312.671875" xlink:href="#DejaVuSans-116"/>
       <use x="351.880859" xlink:href="#DejaVuSans-117"/>
       <use x="415.259766" xlink:href="#DejaVuSans-110"/>
       <use x="478.638672" xlink:href="#DejaVuSans-101"/>
       <use x="540.162109" xlink:href="#DejaVuSans-100"/>
      </g>
     </g>
    </g>
    <g id="xtick_5">
     <g id="line2d_5">
      <g>
       <use style="fill:#808080;stroke:#808080;stroke-width:2;" x="398.022525" xlink:href="#md2afb5164b" y="268.826404"/>
      </g>
     </g>
     <g id="text_5">
      <!-- py.SA tuned -->
      <g style="fill:#262626;" transform="translate(314.768754 322.266143)rotate(-25)scale(0.1485 -0.1485)">
       <use xlink:href="#DejaVuSans-112"/>
       <use x="63.476562" xlink:href="#DejaVuSans-121"/>
       <use x="122.4375" xlink:href="#DejaVuSans-46"/>
       <use x="154.224609" xlink:href="#DejaVuSans-83"/>
       <use x="217.716797" xlink:href="#DejaVuSans-65"/>
       <use x="286.125" xlink:href="#DejaVuSans-32"/>
       <use x="317.912109" xlink:href="#DejaVuSans-116"/>
       <use x="357.121094" xlink:href="#DejaVuSans-117"/>
       <use x="420.5" xlink:href="#DejaVuSans-110"/>
       <use x="483.878906" xlink:href="#DejaVuSans-101"/>
       <use x="545.402344" xlink:href="#DejaVuSans-100"/>
      </g>
     </g>
    </g>
    <g id="xtick_6">
     <g id="line2d_6">
      <g>
       <use style="fill:#808080;stroke:#808080;stroke-width:2;" x="467.223058" xlink:href="#md2afb5164b" y="268.826404"/>
      </g>
     </g>
     <g id="text_6">
      <!-- j.ES tuned -->
      <g style="fill:#262626;" transform="translate(397.415341 315.996145)rotate(-25)scale(0.1485 -0.1485)">
       <use xlink:href="#DejaVuSans-106"/>
       <use x="27.783203" xlink:href="#DejaVuSans-46"/>
       <use x="59.570312" xlink:href="#DejaVuSans-69"/>
       <use x="122.753906" xlink:href="#DejaVuSans-83"/>
       <use x="186.230469" xlink:href="#DejaVuSans-32"/>
       <use x="218.017578" xlink:href="#DejaVuSans-116"/>
       <use x="257.226562" xlink:href="#DejaVuSans-117"/>
       <use x="320.605469" xlink:href="#DejaVuSans-110"/>
       <use x="383.984375" xlink:href="#DejaVuSans-101"/>
       <use x="445.507812" xlink:href="#DejaVuSans-100"/>
      </g>
     </g>
    </g>
    <g id="xtick_7">
     <g id="line2d_7">
      <g>
       <use style="fill:#808080;stroke:#808080;stroke-width:2;" x="536.423592" xlink:href="#md2afb5164b" y="268.826404"/>
      </g>
     </g>
     <g id="text_7">
      <!-- py.ES random -->
      <defs>
       <path d="M 41.109375 46.296875 
Q 39.59375 47.171875 37.8125 47.578125 
Q 36.03125 48 33.890625 48 
Q 26.265625 48 22.1875 43.046875 
Q 18.109375 38.09375 18.109375 28.8125 
L 18.109375 0 
L 9.078125 0 
L 9.078125 54.6875 
L 18.109375 54.6875 
L 18.109375 46.1875 
Q 20.953125 51.171875 25.484375 53.578125 
Q 30.03125 56 36.53125 56 
Q 37.453125 56 38.578125 55.875 
Q 39.703125 55.765625 41.0625 55.515625 
z
" id="DejaVuSans-114"/>
       <path d="M 30.609375 48.390625 
Q 23.390625 48.390625 19.1875 42.75 
Q 14.984375 37.109375 14.984375 27.296875 
Q 14.984375 17.484375 19.15625 11.84375 
Q 23.34375 6.203125 30.609375 6.203125 
Q 37.796875 6.203125 41.984375 11.859375 
Q 46.1875 17.53125 46.1875 27.296875 
Q 46.1875 37.015625 41.984375 42.703125 
Q 37.796875 48.390625 30.609375 48.390625 
z
M 30.609375 56 
Q 42.328125 56 49.015625 48.375 
Q 55.71875 40.765625 55.71875 27.296875 
Q 55.71875 13.875 49.015625 6.21875 
Q 42.328125 -1.421875 30.609375 -1.421875 
Q 18.84375 -1.421875 12.171875 6.21875 
Q 5.515625 13.875 5.515625 27.296875 
Q 5.515625 40.765625 12.171875 48.375 
Q 18.84375 56 30.609375 56 
z
" id="DejaVuSans-111"/>
       <path d="M 52 44.1875 
Q 55.375 50.25 60.0625 53.125 
Q 64.75 56 71.09375 56 
Q 79.640625 56 84.28125 50.015625 
Q 88.921875 44.046875 88.921875 33.015625 
L 88.921875 0 
L 79.890625 0 
L 79.890625 32.71875 
Q 79.890625 40.578125 77.09375 44.375 
Q 74.3125 48.1875 68.609375 48.1875 
Q 61.625 48.1875 57.5625 43.546875 
Q 53.515625 38.921875 53.515625 30.90625 
L 53.515625 0 
L 44.484375 0 
L 44.484375 32.71875 
Q 44.484375 40.625 41.703125 44.40625 
Q 38.921875 48.1875 33.109375 48.1875 
Q 26.21875 48.1875 22.15625 43.53125 
Q 18.109375 38.875 18.109375 30.90625 
L 18.109375 0 
L 9.078125 0 
L 9.078125 54.6875 
L 18.109375 54.6875 
L 18.109375 46.1875 
Q 21.1875 51.21875 25.484375 53.609375 
Q 29.78125 56 35.6875 56 
Q 41.65625 56 45.828125 52.96875 
Q 50 49.953125 52 44.1875 
z
" id="DejaVuSans-109"/>
      </defs>
      <g style="fill:#262626;" transform="translate(440.836211 328.017399)rotate(-25)scale(0.1485 -0.1485)">
       <use xlink:href="#DejaVuSans-112"/>
       <use x="63.476562" xlink:href="#DejaVuSans-121"/>
       <use x="122.4375" xlink:href="#DejaVuSans-46"/>
       <use x="154.224609" xlink:href="#DejaVuSans-69"/>
       <use x="217.408203" xlink:href="#DejaVuSans-83"/>
       <use x="280.884766" xlink:href="#DejaVuSans-32"/>
       <use x="312.671875" xlink:href="#DejaVuSans-114"/>
       <use x="353.785156" xlink:href="#DejaVuSans-97"/>
       <use x="415.064453" xlink:href="#DejaVuSans-110"/>
       <use x="478.443359" xlink:href="#DejaVuSans-100"/>
       <use x="541.919922" xlink:href="#DejaVuSans-111"/>
       <use x="603.101562" xlink:href="#DejaVuSans-109"/>
      </g>
     </g>
    </g>
    <g id="xtick_8">
     <g id="line2d_8">
      <g>
       <use style="fill:#808080;stroke:#808080;stroke-width:2;" x="605.624125" xlink:href="#md2afb5164b" y="268.826404"/>
      </g>
     </g>
     <g id="text_8">
      <!-- py.SA random -->
      <g style="fill:#262626;" transform="translate(509.332267 328.345903)rotate(-25)scale(0.1485 -0.1485)">
       <use xlink:href="#DejaVuSans-112"/>
       <use x="63.476562" xlink:href="#DejaVuSans-121"/>
       <use x="122.4375" xlink:href="#DejaVuSans-46"/>
       <use x="154.224609" xlink:href="#DejaVuSans-83"/>
       <use x="217.716797" xlink:href="#DejaVuSans-65"/>
       <use x="286.125" xlink:href="#DejaVuSans-32"/>
       <use x="317.912109" xlink:href="#DejaVuSans-114"/>
       <use x="359.025391" xlink:href="#DejaVuSans-97"/>
       <use x="420.304688" xlink:href="#DejaVuSans-110"/>
       <use x="483.683594" xlink:href="#DejaVuSans-100"/>
       <use x="547.160156" xlink:href="#DejaVuSans-111"/>
       <use x="608.341797" xlink:href="#DejaVuSans-109"/>
      </g>
     </g>
    </g>
    <g id="xtick_9">
     <g id="line2d_9">
      <g>
       <use style="fill:#808080;stroke:#808080;stroke-width:2;" x="674.824658" xlink:href="#md2afb5164b" y="268.826404"/>
      </g>
     </g>
     <g id="text_9">
      <!-- j.ES random -->
      <g style="fill:#262626;" transform="translate(591.978853 322.075905)rotate(-25)scale(0.1485 -0.1485)">
       <use xlink:href="#DejaVuSans-106"/>
       <use x="27.783203" xlink:href="#DejaVuSans-46"/>
       <use x="59.570312" xlink:href="#DejaVuSans-69"/>
       <use x="122.753906" xlink:href="#DejaVuSans-83"/>
       <use x="186.230469" xlink:href="#DejaVuSans-32"/>
       <use x="218.017578" xlink:href="#DejaVuSans-114"/>
       <use x="259.130859" xlink:href="#DejaVuSans-97"/>
       <use x="320.410156" xlink:href="#DejaVuSans-110"/>
       <use x="383.789062" xlink:href="#DejaVuSans-100"/>
       <use x="447.265625" xlink:href="#DejaVuSans-111"/>
       <use x="508.447266" xlink:href="#DejaVuSans-109"/>
      </g>
     </g>
    </g>
    <g id="xtick_10">
     <g id="line2d_10">
      <g>
       <use style="fill:#808080;stroke:#808080;stroke-width:2;" x="744.025192" xlink:href="#md2afb5164b" y="268.826404"/>
      </g>
     </g>
     <g id="text_10">
      <!-- py.ES TPE -->
      <defs>
       <path d="M -0.296875 72.90625 
L 61.375 72.90625 
L 61.375 64.59375 
L 35.5 64.59375 
L 35.5 0 
L 25.59375 0 
L 25.59375 64.59375 
L -0.296875 64.59375 
z
" id="DejaVuSans-84"/>
       <path d="M 19.671875 64.796875 
L 19.671875 37.40625 
L 32.078125 37.40625 
Q 38.96875 37.40625 42.71875 40.96875 
Q 46.484375 44.53125 46.484375 51.125 
Q 46.484375 57.671875 42.71875 61.234375 
Q 38.96875 64.796875 32.078125 64.796875 
z
M 9.8125 72.90625 
L 32.078125 72.90625 
Q 44.34375 72.90625 50.609375 67.359375 
Q 56.890625 61.8125 56.890625 51.125 
Q 56.890625 40.328125 50.609375 34.8125 
Q 44.34375 29.296875 32.078125 29.296875 
L 19.671875 29.296875 
L 19.671875 0 
L 9.8125 0 
z
" id="DejaVuSans-80"/>
      </defs>
      <g style="fill:#262626;" transform="translate(675.796765 315.25971)rotate(-25)scale(0.1485 -0.1485)">
       <use xlink:href="#DejaVuSans-112"/>
       <use x="63.476562" xlink:href="#DejaVuSans-121"/>
       <use x="122.4375" xlink:href="#DejaVuSans-46"/>
       <use x="154.224609" xlink:href="#DejaVuSans-69"/>
       <use x="217.408203" xlink:href="#DejaVuSans-83"/>
       <use x="280.884766" xlink:href="#DejaVuSans-32"/>
       <use x="312.671875" xlink:href="#DejaVuSans-84"/>
       <use x="373.755859" xlink:href="#DejaVuSans-80"/>
       <use x="434.058594" xlink:href="#DejaVuSans-69"/>
      </g>
     </g>
    </g>
    <g id="xtick_11">
     <g id="line2d_11">
      <g>
       <use style="fill:#808080;stroke:#808080;stroke-width:2;" x="813.225725" xlink:href="#md2afb5164b" y="268.826404"/>
      </g>
     </g>
     <g id="text_11">
      <!-- py.SA TPE -->
      <g style="fill:#262626;" transform="translate(744.292821 315.588213)rotate(-25)scale(0.1485 -0.1485)">
       <use xlink:href="#DejaVuSans-112"/>
       <use x="63.476562" xlink:href="#DejaVuSans-121"/>
       <use x="122.4375" xlink:href="#DejaVuSans-46"/>
       <use x="154.224609" xlink:href="#DejaVuSans-83"/>
       <use x="217.716797" xlink:href="#DejaVuSans-65"/>
       <use x="286.125" xlink:href="#DejaVuSans-32"/>
       <use x="317.912109" xlink:href="#DejaVuSans-84"/>
       <use x="378.996094" xlink:href="#DejaVuSans-80"/>
       <use x="439.298828" xlink:href="#DejaVuSans-69"/>
      </g>
     </g>
    </g>
    <g id="xtick_12">
     <g id="line2d_12">
      <g>
       <use style="fill:#808080;stroke:#808080;stroke-width:2;" x="882.426258" xlink:href="#md2afb5164b" y="268.826404"/>
      </g>
     </g>
     <g id="text_12">
      <!-- j.ES TPE -->
      <g style="fill:#262626;" transform="translate(826.939407 309.318215)rotate(-25)scale(0.1485 -0.1485)">
       <use xlink:href="#DejaVuSans-106"/>
       <use x="27.783203" xlink:href="#DejaVuSans-46"/>
       <use x="59.570312" xlink:href="#DejaVuSans-69"/>
       <use x="122.753906" xlink:href="#DejaVuSans-83"/>
       <use x="186.230469" xlink:href="#DejaVuSans-32"/>
       <use x="218.017578" xlink:href="#DejaVuSans-84"/>
       <use x="279.101562" xlink:href="#DejaVuSans-80"/>
       <use x="339.404297" xlink:href="#DejaVuSans-69"/>
      </g>
     </g>
    </g>
    <g id="xtick_13">
     <g id="line2d_13">
      <g>
       <use style="fill:#808080;stroke:#808080;stroke-width:2;" x="951.626792" xlink:href="#md2afb5164b" y="268.826404"/>
      </g>
     </g>
     <g id="text_13">
      <!-- py.ES BRR -->
      <defs>
       <path d="M 19.671875 34.8125 
L 19.671875 8.109375 
L 35.5 8.109375 
Q 43.453125 8.109375 47.28125 11.40625 
Q 51.125 14.703125 51.125 21.484375 
Q 51.125 28.328125 47.28125 31.5625 
Q 43.453125 34.8125 35.5 34.8125 
z
M 19.671875 64.796875 
L 19.671875 42.828125 
L 34.28125 42.828125 
Q 41.5 42.828125 45.03125 45.53125 
Q 48.578125 48.25 48.578125 53.8125 
Q 48.578125 59.328125 45.03125 62.0625 
Q 41.5 64.796875 34.28125 64.796875 
z
M 9.8125 72.90625 
L 35.015625 72.90625 
Q 46.296875 72.90625 52.390625 68.21875 
Q 58.5 63.53125 58.5 54.890625 
Q 58.5 48.1875 55.375 44.234375 
Q 52.25 40.28125 46.1875 39.3125 
Q 53.46875 37.75 57.5 32.78125 
Q 61.53125 27.828125 61.53125 20.40625 
Q 61.53125 10.640625 54.890625 5.3125 
Q 48.25 0 35.984375 0 
L 9.8125 0 
z
" id="DejaVuSans-66"/>
       <path d="M 44.390625 34.1875 
Q 47.5625 33.109375 50.5625 29.59375 
Q 53.5625 26.078125 56.59375 19.921875 
L 66.609375 0 
L 56 0 
L 46.6875 18.703125 
Q 43.0625 26.03125 39.671875 28.421875 
Q 36.28125 30.8125 30.421875 30.8125 
L 19.671875 30.8125 
L 19.671875 0 
L 9.8125 0 
L 9.8125 72.90625 
L 32.078125 72.90625 
Q 44.578125 72.90625 50.734375 67.671875 
Q 56.890625 62.453125 56.890625 51.90625 
Q 56.890625 45.015625 53.6875 40.46875 
Q 50.484375 35.9375 44.390625 34.1875 
z
M 19.671875 64.796875 
L 19.671875 38.921875 
L 32.078125 38.921875 
Q 39.203125 38.921875 42.84375 42.21875 
Q 46.484375 45.515625 46.484375 51.90625 
Q 46.484375 58.296875 42.84375 61.546875 
Q 39.203125 64.796875 32.078125 64.796875 
z
" id="DejaVuSans-82"/>
      </defs>
      <g style="fill:#262626;" transform="translate(880.300768 316.704143)rotate(-25)scale(0.1485 -0.1485)">
       <use xlink:href="#DejaVuSans-112"/>
       <use x="63.476562" xlink:href="#DejaVuSans-121"/>
       <use x="122.4375" xlink:href="#DejaVuSans-46"/>
       <use x="154.224609" xlink:href="#DejaVuSans-69"/>
       <use x="217.408203" xlink:href="#DejaVuSans-83"/>
       <use x="280.884766" xlink:href="#DejaVuSans-32"/>
       <use x="312.671875" xlink:href="#DejaVuSans-66"/>
       <use x="381.275391" xlink:href="#DejaVuSans-82"/>
       <use x="450.757812" xlink:href="#DejaVuSans-82"/>
      </g>
     </g>
    </g>
    <g id="xtick_14">
     <g id="line2d_14">
      <g>
       <use style="fill:#808080;stroke:#808080;stroke-width:2;" x="1020.827325" xlink:href="#md2afb5164b" y="268.826404"/>
      </g>
     </g>
     <g id="text_14">
      <!-- py.SA BRR -->
      <g style="fill:#262626;" transform="translate(948.796824 317.032646)rotate(-25)scale(0.1485 -0.1485)">
       <use xlink:href="#DejaVuSans-112"/>
       <use x="63.476562" xlink:href="#DejaVuSans-121"/>
       <use x="122.4375" xlink:href="#DejaVuSans-46"/>
       <use x="154.224609" xlink:href="#DejaVuSans-83"/>
       <use x="217.716797" xlink:href="#DejaVuSans-65"/>
       <use x="286.125" xlink:href="#DejaVuSans-32"/>
       <use x="317.912109" xlink:href="#DejaVuSans-66"/>
       <use x="386.515625" xlink:href="#DejaVuSans-82"/>
       <use x="455.998047" xlink:href="#DejaVuSans-82"/>
      </g>
     </g>
    </g>
    <g id="xtick_15">
     <g id="line2d_15">
      <g>
       <use style="fill:#808080;stroke:#808080;stroke-width:2;" x="1090.027858" xlink:href="#md2afb5164b" y="268.826404"/>
      </g>
     </g>
     <g id="text_15">
      <!-- j.ES BRR -->
      <g style="fill:#262626;" transform="translate(1031.44341 310.762649)rotate(-25)scale(0.1485 -0.1485)">
       <use xlink:href="#DejaVuSans-106"/>
       <use x="27.783203" xlink:href="#DejaVuSans-46"/>
       <use x="59.570312" xlink:href="#DejaVuSans-69"/>
       <use x="122.753906" xlink:href="#DejaVuSans-83"/>
       <use x="186.230469" xlink:href="#DejaVuSans-32"/>
       <use x="218.017578" xlink:href="#DejaVuSans-66"/>
       <use x="286.621094" xlink:href="#DejaVuSans-82"/>
       <use x="356.103516" xlink:href="#DejaVuSans-82"/>
      </g>
     </g>
    </g>
   </g>
   <g id="matplotlib.axis_2">
    <g id="ytick_1">
     <g id="line2d_16">
      <path clip-path="url(#pca7a41f8dc)" d="M 86.620125 268.826404 
L 1124.628125 268.826404 
" style="fill:none;stroke:#ffffff;stroke-linecap:round;stroke-width:1.5;"/>
     </g>
     <g id="text_16">
      <!-- 20000 -->
      <defs>
       <path d="M 19.1875 8.296875 
L 53.609375 8.296875 
L 53.609375 0 
L 7.328125 0 
L 7.328125 8.296875 
Q 12.9375 14.109375 22.625 23.890625 
Q 32.328125 33.6875 34.8125 36.53125 
Q 39.546875 41.84375 41.421875 45.53125 
Q 43.3125 49.21875 43.3125 52.78125 
Q 43.3125 58.59375 39.234375 62.25 
Q 35.15625 65.921875 28.609375 65.921875 
Q 23.96875 65.921875 18.8125 64.3125 
Q 13.671875 62.703125 7.8125 59.421875 
L 7.8125 69.390625 
Q 13.765625 71.78125 18.9375 73 
Q 24.125 74.21875 28.421875 74.21875 
Q 39.75 74.21875 46.484375 68.546875 
Q 53.21875 62.890625 53.21875 53.421875 
Q 53.21875 48.921875 51.53125 44.890625 
Q 49.859375 40.875 45.40625 35.40625 
Q 44.1875 33.984375 37.640625 27.21875 
Q 31.109375 20.453125 19.1875 8.296875 
z
" id="DejaVuSans-50"/>
       <path d="M 31.78125 66.40625 
Q 24.171875 66.40625 20.328125 58.90625 
Q 16.5 51.421875 16.5 36.375 
Q 16.5 21.390625 20.328125 13.890625 
Q 24.171875 6.390625 31.78125 6.390625 
Q 39.453125 6.390625 43.28125 13.890625 
Q 47.125 21.390625 47.125 36.375 
Q 47.125 51.421875 43.28125 58.90625 
Q 39.453125 66.40625 31.78125 66.40625 
z
M 31.78125 74.21875 
Q 44.046875 74.21875 50.515625 64.515625 
Q 56.984375 54.828125 56.984375 36.375 
Q 56.984375 17.96875 50.515625 8.265625 
Q 44.046875 -1.421875 31.78125 -1.421875 
Q 19.53125 -1.421875 13.0625 8.265625 
Q 6.59375 17.96875 6.59375 36.375 
Q 6.59375 54.828125 13.0625 64.515625 
Q 19.53125 74.21875 31.78125 74.21875 
z
" id="DejaVuSans-48"/>
      </defs>
      <g style="fill:#262626;" transform="translate(26.878563 274.468244)scale(0.1485 -0.1485)">
       <use xlink:href="#DejaVuSans-50"/>
       <use x="63.623047" xlink:href="#DejaVuSans-48"/>
       <use x="127.246094" xlink:href="#DejaVuSans-48"/>
       <use x="190.869141" xlink:href="#DejaVuSans-48"/>
       <use x="254.492188" xlink:href="#DejaVuSans-48"/>
      </g>
     </g>
    </g>
    <g id="ytick_2">
     <g id="line2d_17">
      <path clip-path="url(#pca7a41f8dc)" d="M 86.620125 217.629491 
L 1124.628125 217.629491 
" style="fill:none;stroke:#ffffff;stroke-linecap:round;stroke-width:1.5;"/>
     </g>
     <g id="text_17">
      <!-- 25000 -->
      <defs>
       <path d="M 10.796875 72.90625 
L 49.515625 72.90625 
L 49.515625 64.59375 
L 19.828125 64.59375 
L 19.828125 46.734375 
Q 21.96875 47.46875 24.109375 47.828125 
Q 26.265625 48.1875 28.421875 48.1875 
Q 40.625 48.1875 47.75 41.5 
Q 54.890625 34.8125 54.890625 23.390625 
Q 54.890625 11.625 47.5625 5.09375 
Q 40.234375 -1.421875 26.90625 -1.421875 
Q 22.3125 -1.421875 17.546875 -0.640625 
Q 12.796875 0.140625 7.71875 1.703125 
L 7.71875 11.625 
Q 12.109375 9.234375 16.796875 8.0625 
Q 21.484375 6.890625 26.703125 6.890625 
Q 35.15625 6.890625 40.078125 11.328125 
Q 45.015625 15.765625 45.015625 23.390625 
Q 45.015625 31 40.078125 35.4375 
Q 35.15625 39.890625 26.703125 39.890625 
Q 22.75 39.890625 18.8125 39.015625 
Q 14.890625 38.140625 10.796875 36.28125 
z
" id="DejaVuSans-53"/>
      </defs>
      <g style="fill:#262626;" transform="translate(26.878563 223.271331)scale(0.1485 -0.1485)">
       <use xlink:href="#DejaVuSans-50"/>
       <use x="63.623047" xlink:href="#DejaVuSans-53"/>
       <use x="127.246094" xlink:href="#DejaVuSans-48"/>
       <use x="190.869141" xlink:href="#DejaVuSans-48"/>
       <use x="254.492188" xlink:href="#DejaVuSans-48"/>
      </g>
     </g>
    </g>
    <g id="ytick_3">
     <g id="line2d_18">
      <path clip-path="url(#pca7a41f8dc)" d="M 86.620125 166.432578 
L 1124.628125 166.432578 
" style="fill:none;stroke:#ffffff;stroke-linecap:round;stroke-width:1.5;"/>
     </g>
     <g id="text_18">
      <!-- 30000 -->
      <defs>
       <path d="M 40.578125 39.3125 
Q 47.65625 37.796875 51.625 33 
Q 55.609375 28.21875 55.609375 21.1875 
Q 55.609375 10.40625 48.1875 4.484375 
Q 40.765625 -1.421875 27.09375 -1.421875 
Q 22.515625 -1.421875 17.65625 -0.515625 
Q 12.796875 0.390625 7.625 2.203125 
L 7.625 11.71875 
Q 11.71875 9.328125 16.59375 8.109375 
Q 21.484375 6.890625 26.8125 6.890625 
Q 36.078125 6.890625 40.9375 10.546875 
Q 45.796875 14.203125 45.796875 21.1875 
Q 45.796875 27.640625 41.28125 31.265625 
Q 36.765625 34.90625 28.71875 34.90625 
L 20.21875 34.90625 
L 20.21875 43.015625 
L 29.109375 43.015625 
Q 36.375 43.015625 40.234375 45.921875 
Q 44.09375 48.828125 44.09375 54.296875 
Q 44.09375 59.90625 40.109375 62.90625 
Q 36.140625 65.921875 28.71875 65.921875 
Q 24.65625 65.921875 20.015625 65.03125 
Q 15.375 64.15625 9.8125 62.3125 
L 9.8125 71.09375 
Q 15.4375 72.65625 20.34375 73.4375 
Q 25.25 74.21875 29.59375 74.21875 
Q 40.828125 74.21875 47.359375 69.109375 
Q 53.90625 64.015625 53.90625 55.328125 
Q 53.90625 49.265625 50.4375 45.09375 
Q 46.96875 40.921875 40.578125 39.3125 
z
" id="DejaVuSans-51"/>
      </defs>
      <g style="fill:#262626;" transform="translate(26.878563 172.074418)scale(0.1485 -0.1485)">
       <use xlink:href="#DejaVuSans-51"/>
       <use x="63.623047" xlink:href="#DejaVuSans-48"/>
       <use x="127.246094" xlink:href="#DejaVuSans-48"/>
       <use x="190.869141" xlink:href="#DejaVuSans-48"/>
       <use x="254.492188" xlink:href="#DejaVuSans-48"/>
      </g>
     </g>
    </g>
    <g id="ytick_4">
     <g id="line2d_19">
      <path clip-path="url(#pca7a41f8dc)" d="M 86.620125 115.235665 
L 1124.628125 115.235665 
" style="fill:none;stroke:#ffffff;stroke-linecap:round;stroke-width:1.5;"/>
     </g>
     <g id="text_19">
      <!-- 35000 -->
      <g style="fill:#262626;" transform="translate(26.878563 120.877505)scale(0.1485 -0.1485)">
       <use xlink:href="#DejaVuSans-51"/>
       <use x="63.623047" xlink:href="#DejaVuSans-53"/>
       <use x="127.246094" xlink:href="#DejaVuSans-48"/>
       <use x="190.869141" xlink:href="#DejaVuSans-48"/>
       <use x="254.492188" xlink:href="#DejaVuSans-48"/>
      </g>
     </g>
    </g>
    <g id="ytick_5">
     <g id="line2d_20">
      <path clip-path="url(#pca7a41f8dc)" d="M 86.620125 64.038753 
L 1124.628125 64.038753 
" style="fill:none;stroke:#ffffff;stroke-linecap:round;stroke-width:1.5;"/>
     </g>
     <g id="text_20">
      <!-- 40000 -->
      <defs>
       <path d="M 37.796875 64.3125 
L 12.890625 25.390625 
L 37.796875 25.390625 
z
M 35.203125 72.90625 
L 47.609375 72.90625 
L 47.609375 25.390625 
L 58.015625 25.390625 
L 58.015625 17.1875 
L 47.609375 17.1875 
L 47.609375 0 
L 37.796875 0 
L 37.796875 17.1875 
L 4.890625 17.1875 
L 4.890625 26.703125 
z
" id="DejaVuSans-52"/>
      </defs>
      <g style="fill:#262626;" transform="translate(26.878563 69.680592)scale(0.1485 -0.1485)">
       <use xlink:href="#DejaVuSans-52"/>
       <use x="63.623047" xlink:href="#DejaVuSans-48"/>
       <use x="127.246094" xlink:href="#DejaVuSans-48"/>
       <use x="190.869141" xlink:href="#DejaVuSans-48"/>
       <use x="254.492188" xlink:href="#DejaVuSans-48"/>
      </g>
     </g>
    </g>
    <g id="ytick_6">
     <g id="line2d_21">
      <path clip-path="url(#pca7a41f8dc)" d="M 86.620125 12.84184 
L 1124.628125 12.84184 
" style="fill:none;stroke:#ffffff;stroke-linecap:round;stroke-width:1.5;"/>
     </g>
     <g id="text_21">
      <!-- 45000 -->
      <g style="fill:#262626;" transform="translate(26.878563 18.48368)scale(0.1485 -0.1485)">
       <use xlink:href="#DejaVuSans-52"/>
       <use x="63.623047" xlink:href="#DejaVuSans-53"/>
       <use x="127.246094" xlink:href="#DejaVuSans-48"/>
       <use x="190.869141" xlink:href="#DejaVuSans-48"/>
       <use x="254.492188" xlink:href="#DejaVuSans-48"/>
      </g>
     </g>
    </g>
    <g id="text_22">
     <!-- objective -->
     <defs>
      <path d="M 48.6875 27.296875 
Q 48.6875 37.203125 44.609375 42.84375 
Q 40.53125 48.484375 33.40625 48.484375 
Q 26.265625 48.484375 22.1875 42.84375 
Q 18.109375 37.203125 18.109375 27.296875 
Q 18.109375 17.390625 22.1875 11.75 
Q 26.265625 6.109375 33.40625 6.109375 
Q 40.53125 6.109375 44.609375 11.75 
Q 48.6875 17.390625 48.6875 27.296875 
z
M 18.109375 46.390625 
Q 20.953125 51.265625 25.265625 53.625 
Q 29.59375 56 35.59375 56 
Q 45.5625 56 51.78125 48.09375 
Q 58.015625 40.1875 58.015625 27.296875 
Q 58.015625 14.40625 51.78125 6.484375 
Q 45.5625 -1.421875 35.59375 -1.421875 
Q 29.59375 -1.421875 25.265625 0.953125 
Q 20.953125 3.328125 18.109375 8.203125 
L 18.109375 0 
L 9.078125 0 
L 9.078125 75.984375 
L 18.109375 75.984375 
z
" id="DejaVuSans-98"/>
      <path d="M 48.78125 52.59375 
L 48.78125 44.1875 
Q 44.96875 46.296875 41.140625 47.34375 
Q 37.3125 48.390625 33.40625 48.390625 
Q 24.65625 48.390625 19.8125 42.84375 
Q 14.984375 37.3125 14.984375 27.296875 
Q 14.984375 17.28125 19.8125 11.734375 
Q 24.65625 6.203125 33.40625 6.203125 
Q 37.3125 6.203125 41.140625 7.25 
Q 44.96875 8.296875 48.78125 10.40625 
L 48.78125 2.09375 
Q 45.015625 0.34375 40.984375 -0.53125 
Q 36.96875 -1.421875 32.421875 -1.421875 
Q 20.0625 -1.421875 12.78125 6.34375 
Q 5.515625 14.109375 5.515625 27.296875 
Q 5.515625 40.671875 12.859375 48.328125 
Q 20.21875 56 33.015625 56 
Q 37.15625 56 41.109375 55.140625 
Q 45.0625 54.296875 48.78125 52.59375 
z
" id="DejaVuSans-99"/>
      <path d="M 9.421875 54.6875 
L 18.40625 54.6875 
L 18.40625 0 
L 9.421875 0 
z
M 9.421875 75.984375 
L 18.40625 75.984375 
L 18.40625 64.59375 
L 9.421875 64.59375 
z
" id="DejaVuSans-105"/>
      <path d="M 2.984375 54.6875 
L 12.5 54.6875 
L 29.59375 8.796875 
L 46.6875 54.6875 
L 56.203125 54.6875 
L 35.6875 0 
L 23.484375 0 
z
" id="DejaVuSans-118"/>
     </defs>
     <g style="fill:#262626;" transform="translate(19.509469 176.380791)rotate(-90)scale(0.162 -0.162)">
      <use xlink:href="#DejaVuSans-111"/>
      <use x="61.181641" xlink:href="#DejaVuSans-98"/>
      <use x="124.658203" xlink:href="#DejaVuSans-106"/>
      <use x="152.441406" xlink:href="#DejaVuSans-101"/>
      <use x="213.964844" xlink:href="#DejaVuSans-99"/>
      <use x="268.945312" xlink:href="#DejaVuSans-116"/>
      <use x="308.154297" xlink:href="#DejaVuSans-105"/>
      <use x="335.9375" xlink:href="#DejaVuSans-118"/>
      <use x="395.117188" xlink:href="#DejaVuSans-101"/>
     </g>
    </g>
   </g>
   <g id="patch_3">
    <path clip-path="url(#pca7a41f8dc)" d="M 93.540178 -888.193107 
L 148.900605 -888.193107 
L 148.900605 -902.323455 
L 93.540178 -902.323455 
L 93.540178 -888.193107 
z
" style="fill:#5875a4;stroke:#4c4c4c;stroke-linejoin:miter;stroke-width:2.25;"/>
   </g>
   <g id="patch_4">
    <path clip-path="url(#pca7a41f8dc)" d="M 162.740712 86.862336 
L 218.101138 86.862336 
L 218.101138 61.847525 
L 162.740712 61.847525 
L 162.740712 86.862336 
z
" style="fill:#cc8963;stroke:#4c4c4c;stroke-linejoin:miter;stroke-width:2.25;"/>
   </g>
   <g id="patch_5">
    <path clip-path="url(#pca7a41f8dc)" d="M 231.941245 -885.141771 
L 287.301672 -885.141771 
L 287.301672 -913.750606 
L 231.941245 -913.750606 
L 231.941245 -885.141771 
z
" style="fill:#5f9e6e;stroke:#4c4c4c;stroke-linejoin:miter;stroke-width:2.25;"/>
   </g>
   <g id="patch_6">
    <path clip-path="url(#pca7a41f8dc)" d="M 301.141778 91.142398 
L 356.502205 91.142398 
L 356.502205 35.921408 
L 301.141778 35.921408 
L 301.141778 91.142398 
z
" style="fill:#5875a4;stroke:#4c4c4c;stroke-linejoin:miter;stroke-width:2.25;"/>
   </g>
   <g id="patch_7">
    <path clip-path="url(#pca7a41f8dc)" d="M 370.342312 57.168127 
L 425.702738 57.168127 
L 425.702738 24.750242 
L 370.342312 24.750242 
L 370.342312 57.168127 
z
" style="fill:#cc8963;stroke:#4c4c4c;stroke-linejoin:miter;stroke-width:2.25;"/>
   </g>
   <g id="patch_8">
    <path clip-path="url(#pca7a41f8dc)" d="M 439.542845 83.493579 
L 494.903272 83.493579 
L 494.903272 48.83327 
L 439.542845 48.83327 
L 439.542845 83.493579 
z
" style="fill:#5f9e6e;stroke:#4c4c4c;stroke-linejoin:miter;stroke-width:2.25;"/>
   </g>
   <g id="patch_9">
    <path clip-path="url(#pca7a41f8dc)" d="M 508.743378 129.75511 
L 564.103805 129.75511 
L 564.103805 101.002924 
L 508.743378 101.002924 
L 508.743378 129.75511 
z
" style="fill:#5875a4;stroke:#4c4c4c;stroke-linejoin:miter;stroke-width:2.25;"/>
   </g>
   <g id="patch_10">
    <path clip-path="url(#pca7a41f8dc)" d="M 577.943912 105.139634 
L 633.304338 105.139634 
L 633.304338 69.752328 
L 577.943912 69.752328 
L 577.943912 105.139634 
z
" style="fill:#cc8963;stroke:#4c4c4c;stroke-linejoin:miter;stroke-width:2.25;"/>
   </g>
   <g id="patch_11">
    <path clip-path="url(#pca7a41f8dc)" d="M 647.144445 207.53346 
L 702.504872 207.53346 
L 702.504872 157.196655 
L 647.144445 157.196655 
L 647.144445 207.53346 
z
" style="fill:#5f9e6e;stroke:#4c4c4c;stroke-linejoin:miter;stroke-width:2.25;"/>
   </g>
   <g id="patch_12">
    <path clip-path="url(#pca7a41f8dc)" d="M 716.344978 142.134523 
L 771.705405 142.134523 
L 771.705405 82.868977 
L 716.344978 82.868977 
L 716.344978 142.134523 
z
" style="fill:#5875a4;stroke:#4c4c4c;stroke-linejoin:miter;stroke-width:2.25;"/>
   </g>
   <g id="patch_13">
    <path clip-path="url(#pca7a41f8dc)" d="M 785.545512 105.682321 
L 840.905938 105.682321 
L 840.905938 70.458845 
L 785.545512 70.458845 
L 785.545512 105.682321 
z
" style="fill:#cc8963;stroke:#4c4c4c;stroke-linejoin:miter;stroke-width:2.25;"/>
   </g>
   <g id="patch_14">
    <path clip-path="url(#pca7a41f8dc)" d="M 854.746045 203.591297 
L 910.106472 203.591297 
L 910.106472 184.617722 
L 854.746045 184.617722 
L 854.746045 203.591297 
z
" style="fill:#5f9e6e;stroke:#4c4c4c;stroke-linejoin:miter;stroke-width:2.25;"/>
   </g>
   <g id="patch_15">
    <path clip-path="url(#pca7a41f8dc)" d="M 923.946578 140.86484 
L 979.307005 140.86484 
L 979.307005 103.542291 
L 923.946578 103.542291 
L 923.946578 140.86484 
z
" style="fill:#5875a4;stroke:#4c4c4c;stroke-linejoin:miter;stroke-width:2.25;"/>
   </g>
   <g id="patch_16">
    <path clip-path="url(#pca7a41f8dc)" d="M 993.147112 135.5506 
L 1048.507538 135.5506 
L 1048.507538 71.277996 
L 993.147112 71.277996 
L 993.147112 135.5506 
z
" style="fill:#cc8963;stroke:#4c4c4c;stroke-linejoin:miter;stroke-width:2.25;"/>
   </g>
   <g id="patch_17">
    <path clip-path="url(#pca7a41f8dc)" d="M 1062.347645 209.540379 
L 1117.708072 209.540379 
L 1117.708072 157.555033 
L 1062.347645 157.555033 
L 1062.347645 209.540379 
z
" style="fill:#5f9e6e;stroke:#4c4c4c;stroke-linejoin:miter;stroke-width:2.25;"/>
   </g>
   <g id="patch_18">
    <path clip-path="url(#pca7a41f8dc)" d="M 121.220392 473.614055 
L 121.220392 473.614055 
L 121.220392 473.614055 
L 121.220392 473.614055 
z
" style="fill:#5875a4;stroke:#4c4c4c;stroke-linejoin:miter;stroke-width:1.125;"/>
   </g>
   <g id="patch_19">
    <path clip-path="url(#pca7a41f8dc)" d="M 121.220392 473.614055 
L 121.220392 473.614055 
L 121.220392 473.614055 
L 121.220392 473.614055 
z
" style="fill:#cc8963;stroke:#4c4c4c;stroke-linejoin:miter;stroke-width:1.125;"/>
   </g>
   <g id="patch_20">
    <path clip-path="url(#pca7a41f8dc)" d="M 121.220392 473.614055 
L 121.220392 473.614055 
L 121.220392 473.614055 
L 121.220392 473.614055 
z
" style="fill:#5f9e6e;stroke:#4c4c4c;stroke-linejoin:miter;stroke-width:1.125;"/>
   </g>
   <g id="line2d_22">
    <path clip-path="url(#pca7a41f8dc)" style="fill:none;stroke:#4c4c4c;stroke-linecap:round;stroke-width:2.25;"/>
   </g>
   <g id="line2d_23">
    <path clip-path="url(#pca7a41f8dc)" style="fill:none;stroke:#4c4c4c;stroke-linecap:round;stroke-width:2.25;"/>
   </g>
   <g id="line2d_24">
    <path clip-path="url(#pca7a41f8dc)" style="fill:none;stroke:#4c4c4c;stroke-linecap:round;stroke-width:2.25;"/>
   </g>
   <g id="line2d_25">
    <path clip-path="url(#pca7a41f8dc)" style="fill:none;stroke:#4c4c4c;stroke-linecap:round;stroke-width:2.25;"/>
   </g>
   <g id="line2d_26"/>
   <g id="line2d_27">
    <path clip-path="url(#pca7a41f8dc)" d="M 190.420925 86.862336 
L 190.420925 101.22819 
" style="fill:none;stroke:#4c4c4c;stroke-linecap:round;stroke-width:2.25;"/>
   </g>
   <g id="line2d_28">
    <path clip-path="url(#pca7a41f8dc)" d="M 190.420925 61.847525 
L 190.420925 47.481671 
" style="fill:none;stroke:#4c4c4c;stroke-linecap:round;stroke-width:2.25;"/>
   </g>
   <g id="line2d_29">
    <path clip-path="url(#pca7a41f8dc)" d="M 176.580818 101.22819 
L 204.261032 101.22819 
" style="fill:none;stroke:#4c4c4c;stroke-linecap:round;stroke-width:2.25;"/>
   </g>
   <g id="line2d_30">
    <path clip-path="url(#pca7a41f8dc)" d="M 176.580818 47.481671 
L 204.261032 47.481671 
" style="fill:none;stroke:#4c4c4c;stroke-linecap:round;stroke-width:2.25;"/>
   </g>
   <g id="line2d_31">
    <defs>
     <path d="M -0 3.535534 
L 2.12132 0 
L -0 -3.535534 
L -2.12132 -0 
z
" id="m4826e0b1ce" style="stroke:#4c4c4c;stroke-linejoin:miter;"/>
    </defs>
    <g clip-path="url(#pca7a41f8dc)"/>
   </g>
   <g id="line2d_32">
    <path clip-path="url(#pca7a41f8dc)" style="fill:none;stroke:#4c4c4c;stroke-linecap:round;stroke-width:2.25;"/>
   </g>
   <g id="line2d_33">
    <path clip-path="url(#pca7a41f8dc)" style="fill:none;stroke:#4c4c4c;stroke-linecap:round;stroke-width:2.25;"/>
   </g>
   <g id="line2d_34">
    <path clip-path="url(#pca7a41f8dc)" style="fill:none;stroke:#4c4c4c;stroke-linecap:round;stroke-width:2.25;"/>
   </g>
   <g id="line2d_35">
    <path clip-path="url(#pca7a41f8dc)" style="fill:none;stroke:#4c4c4c;stroke-linecap:round;stroke-width:2.25;"/>
   </g>
   <g id="line2d_36"/>
   <g id="line2d_37">
    <path clip-path="url(#pca7a41f8dc)" d="M 328.821992 91.142398 
L 328.821992 127.43077 
" style="fill:none;stroke:#4c4c4c;stroke-linecap:round;stroke-width:2.25;"/>
   </g>
   <g id="line2d_38">
    <path clip-path="url(#pca7a41f8dc)" d="M 328.821992 35.921408 
L 328.821992 23.746782 
" style="fill:none;stroke:#4c4c4c;stroke-linecap:round;stroke-width:2.25;"/>
   </g>
   <g id="line2d_39">
    <path clip-path="url(#pca7a41f8dc)" d="M 314.981885 127.43077 
L 342.662098 127.43077 
" style="fill:none;stroke:#4c4c4c;stroke-linecap:round;stroke-width:2.25;"/>
   </g>
   <g id="line2d_40">
    <path clip-path="url(#pca7a41f8dc)" d="M 314.981885 23.746782 
L 342.662098 23.746782 
" style="fill:none;stroke:#4c4c4c;stroke-linecap:round;stroke-width:2.25;"/>
   </g>
   <g id="line2d_41"/>
   <g id="line2d_42">
    <path clip-path="url(#pca7a41f8dc)" d="M 398.022525 57.168127 
L 398.022525 82.305811 
" style="fill:none;stroke:#4c4c4c;stroke-linecap:round;stroke-width:2.25;"/>
   </g>
   <g id="line2d_43">
    <path clip-path="url(#pca7a41f8dc)" d="M 398.022525 24.750242 
L 398.022525 -1 
" style="fill:none;stroke:#4c4c4c;stroke-linecap:round;stroke-width:2.25;"/>
   </g>
   <g id="line2d_44">
    <path clip-path="url(#pca7a41f8dc)" d="M 384.182418 82.305811 
L 411.862632 82.305811 
" style="fill:none;stroke:#4c4c4c;stroke-linecap:round;stroke-width:2.25;"/>
   </g>
   <g id="line2d_45">
    <path clip-path="url(#pca7a41f8dc)" style="fill:none;stroke:#4c4c4c;stroke-linecap:round;stroke-width:2.25;"/>
   </g>
   <g id="line2d_46"/>
   <g id="line2d_47">
    <path clip-path="url(#pca7a41f8dc)" d="M 467.223058 83.493579 
L 467.223058 99.651325 
" style="fill:none;stroke:#4c4c4c;stroke-linecap:round;stroke-width:2.25;"/>
   </g>
   <g id="line2d_48">
    <path clip-path="url(#pca7a41f8dc)" d="M 467.223058 48.83327 
L 467.223058 35.911169 
" style="fill:none;stroke:#4c4c4c;stroke-linecap:round;stroke-width:2.25;"/>
   </g>
   <g id="line2d_49">
    <path clip-path="url(#pca7a41f8dc)" d="M 453.382952 99.651325 
L 481.063165 99.651325 
" style="fill:none;stroke:#4c4c4c;stroke-linecap:round;stroke-width:2.25;"/>
   </g>
   <g id="line2d_50">
    <path clip-path="url(#pca7a41f8dc)" d="M 453.382952 35.911169 
L 481.063165 35.911169 
" style="fill:none;stroke:#4c4c4c;stroke-linecap:round;stroke-width:2.25;"/>
   </g>
   <g id="line2d_51"/>
   <g id="line2d_52">
    <path clip-path="url(#pca7a41f8dc)" d="M 536.423592 129.75511 
L 536.423592 134.076129 
" style="fill:none;stroke:#4c4c4c;stroke-linecap:round;stroke-width:2.25;"/>
   </g>
   <g id="line2d_53">
    <path clip-path="url(#pca7a41f8dc)" d="M 536.423592 101.002924 
L 536.423592 83.626691 
" style="fill:none;stroke:#4c4c4c;stroke-linecap:round;stroke-width:2.25;"/>
   </g>
   <g id="line2d_54">
    <path clip-path="url(#pca7a41f8dc)" d="M 522.583485 134.076129 
L 550.263698 134.076129 
" style="fill:none;stroke:#4c4c4c;stroke-linecap:round;stroke-width:2.25;"/>
   </g>
   <g id="line2d_55">
    <path clip-path="url(#pca7a41f8dc)" d="M 522.583485 83.626691 
L 550.263698 83.626691 
" style="fill:none;stroke:#4c4c4c;stroke-linecap:round;stroke-width:2.25;"/>
   </g>
   <g id="line2d_56"/>
   <g id="line2d_57">
    <path clip-path="url(#pca7a41f8dc)" d="M 605.624125 105.139634 
L 605.624125 116.239125 
" style="fill:none;stroke:#4c4c4c;stroke-linecap:round;stroke-width:2.25;"/>
   </g>
   <g id="line2d_58">
    <path clip-path="url(#pca7a41f8dc)" d="M 605.624125 69.752328 
L 605.624125 33.412759 
" style="fill:none;stroke:#4c4c4c;stroke-linecap:round;stroke-width:2.25;"/>
   </g>
   <g id="line2d_59">
    <path clip-path="url(#pca7a41f8dc)" d="M 591.784018 116.239125 
L 619.464232 116.239125 
" style="fill:none;stroke:#4c4c4c;stroke-linecap:round;stroke-width:2.25;"/>
   </g>
   <g id="line2d_60">
    <path clip-path="url(#pca7a41f8dc)" d="M 591.784018 33.412759 
L 619.464232 33.412759 
" style="fill:none;stroke:#4c4c4c;stroke-linecap:round;stroke-width:2.25;"/>
   </g>
   <g id="line2d_61"/>
   <g id="line2d_62">
    <path clip-path="url(#pca7a41f8dc)" d="M 674.824658 207.53346 
L 674.824658 223.61953 
" style="fill:none;stroke:#4c4c4c;stroke-linecap:round;stroke-width:2.25;"/>
   </g>
   <g id="line2d_63">
    <path clip-path="url(#pca7a41f8dc)" d="M 674.824658 157.196655 
L 674.824658 82.725626 
" style="fill:none;stroke:#4c4c4c;stroke-linecap:round;stroke-width:2.25;"/>
   </g>
   <g id="line2d_64">
    <path clip-path="url(#pca7a41f8dc)" d="M 660.984552 223.61953 
L 688.664765 223.61953 
" style="fill:none;stroke:#4c4c4c;stroke-linecap:round;stroke-width:2.25;"/>
   </g>
   <g id="line2d_65">
    <path clip-path="url(#pca7a41f8dc)" d="M 660.984552 82.725626 
L 688.664765 82.725626 
" style="fill:none;stroke:#4c4c4c;stroke-linecap:round;stroke-width:2.25;"/>
   </g>
   <g id="line2d_66"/>
   <g id="line2d_67">
    <path clip-path="url(#pca7a41f8dc)" d="M 744.025192 142.134523 
L 744.025192 191.385953 
" style="fill:none;stroke:#4c4c4c;stroke-linecap:round;stroke-width:2.25;"/>
   </g>
   <g id="line2d_68">
    <path clip-path="url(#pca7a41f8dc)" d="M 744.025192 82.868977 
L 744.025192 29.378443 
" style="fill:none;stroke:#4c4c4c;stroke-linecap:round;stroke-width:2.25;"/>
   </g>
   <g id="line2d_69">
    <path clip-path="url(#pca7a41f8dc)" d="M 730.185085 191.385953 
L 757.865298 191.385953 
" style="fill:none;stroke:#4c4c4c;stroke-linecap:round;stroke-width:2.25;"/>
   </g>
   <g id="line2d_70">
    <path clip-path="url(#pca7a41f8dc)" d="M 730.185085 29.378443 
L 757.865298 29.378443 
" style="fill:none;stroke:#4c4c4c;stroke-linecap:round;stroke-width:2.25;"/>
   </g>
   <g id="line2d_71"/>
   <g id="line2d_72">
    <path clip-path="url(#pca7a41f8dc)" d="M 813.225725 105.682321 
L 813.225725 143.250616 
" style="fill:none;stroke:#4c4c4c;stroke-linecap:round;stroke-width:2.25;"/>
   </g>
   <g id="line2d_73">
    <path clip-path="url(#pca7a41f8dc)" d="M 813.225725 70.458845 
L 813.225725 42.669161 
" style="fill:none;stroke:#4c4c4c;stroke-linecap:round;stroke-width:2.25;"/>
   </g>
   <g id="line2d_74">
    <path clip-path="url(#pca7a41f8dc)" d="M 799.385618 143.250616 
L 827.065832 143.250616 
" style="fill:none;stroke:#4c4c4c;stroke-linecap:round;stroke-width:2.25;"/>
   </g>
   <g id="line2d_75">
    <path clip-path="url(#pca7a41f8dc)" d="M 799.385618 42.669161 
L 827.065832 42.669161 
" style="fill:none;stroke:#4c4c4c;stroke-linecap:round;stroke-width:2.25;"/>
   </g>
   <g id="line2d_76"/>
   <g id="line2d_77">
    <path clip-path="url(#pca7a41f8dc)" d="M 882.426258 203.591297 
L 882.426258 229.353584 
" style="fill:none;stroke:#4c4c4c;stroke-linecap:round;stroke-width:2.25;"/>
   </g>
   <g id="line2d_78">
    <path clip-path="url(#pca7a41f8dc)" d="M 882.426258 184.617722 
L 882.426258 161.108099 
" style="fill:none;stroke:#4c4c4c;stroke-linecap:round;stroke-width:2.25;"/>
   </g>
   <g id="line2d_79">
    <path clip-path="url(#pca7a41f8dc)" d="M 868.586152 229.353584 
L 896.266365 229.353584 
" style="fill:none;stroke:#4c4c4c;stroke-linecap:round;stroke-width:2.25;"/>
   </g>
   <g id="line2d_80">
    <path clip-path="url(#pca7a41f8dc)" d="M 868.586152 161.108099 
L 896.266365 161.108099 
" style="fill:none;stroke:#4c4c4c;stroke-linecap:round;stroke-width:2.25;"/>
   </g>
   <g id="line2d_81"/>
   <g id="line2d_82">
    <path clip-path="url(#pca7a41f8dc)" d="M 951.626792 140.86484 
L 951.626792 153.909813 
" style="fill:none;stroke:#4c4c4c;stroke-linecap:round;stroke-width:2.25;"/>
   </g>
   <g id="line2d_83">
    <path clip-path="url(#pca7a41f8dc)" d="M 951.626792 103.542291 
L 951.626792 66.844343 
" style="fill:none;stroke:#4c4c4c;stroke-linecap:round;stroke-width:2.25;"/>
   </g>
   <g id="line2d_84">
    <path clip-path="url(#pca7a41f8dc)" d="M 937.786685 153.909813 
L 965.466898 153.909813 
" style="fill:none;stroke:#4c4c4c;stroke-linecap:round;stroke-width:2.25;"/>
   </g>
   <g id="line2d_85">
    <path clip-path="url(#pca7a41f8dc)" d="M 937.786685 66.844343 
L 965.466898 66.844343 
" style="fill:none;stroke:#4c4c4c;stroke-linecap:round;stroke-width:2.25;"/>
   </g>
   <g id="line2d_86"/>
   <g id="line2d_87">
    <path clip-path="url(#pca7a41f8dc)" d="M 1020.827325 135.5506 
L 1020.827325 151.268053 
" style="fill:none;stroke:#4c4c4c;stroke-linecap:round;stroke-width:2.25;"/>
   </g>
   <g id="line2d_88">
    <path clip-path="url(#pca7a41f8dc)" d="M 1020.827325 71.277996 
L 1020.827325 58.970258 
" style="fill:none;stroke:#4c4c4c;stroke-linecap:round;stroke-width:2.25;"/>
   </g>
   <g id="line2d_89">
    <path clip-path="url(#pca7a41f8dc)" d="M 1006.987218 151.268053 
L 1034.667432 151.268053 
" style="fill:none;stroke:#4c4c4c;stroke-linecap:round;stroke-width:2.25;"/>
   </g>
   <g id="line2d_90">
    <path clip-path="url(#pca7a41f8dc)" d="M 1006.987218 58.970258 
L 1034.667432 58.970258 
" style="fill:none;stroke:#4c4c4c;stroke-linecap:round;stroke-width:2.25;"/>
   </g>
   <g id="line2d_91"/>
   <g id="line2d_92">
    <path clip-path="url(#pca7a41f8dc)" d="M 1090.027858 209.540379 
L 1090.027858 222.063144 
" style="fill:none;stroke:#4c4c4c;stroke-linecap:round;stroke-width:2.25;"/>
   </g>
   <g id="line2d_93">
    <path clip-path="url(#pca7a41f8dc)" d="M 1090.027858 157.555033 
L 1090.027858 130.942878 
" style="fill:none;stroke:#4c4c4c;stroke-linecap:round;stroke-width:2.25;"/>
   </g>
   <g id="line2d_94">
    <path clip-path="url(#pca7a41f8dc)" d="M 1076.187752 222.063144 
L 1103.867965 222.063144 
" style="fill:none;stroke:#4c4c4c;stroke-linecap:round;stroke-width:2.25;"/>
   </g>
   <g id="line2d_95">
    <path clip-path="url(#pca7a41f8dc)" d="M 1076.187752 130.942878 
L 1103.867965 130.942878 
" style="fill:none;stroke:#4c4c4c;stroke-linecap:round;stroke-width:2.25;"/>
   </g>
   <g id="line2d_96"/>
   <g id="line2d_97">
    <path clip-path="url(#pca7a41f8dc)" d="M 86.620125 255.699515 
L 1124.628125 255.699515 
" style="fill:none;stroke:#008000;stroke-dasharray:2.25,3.7125;stroke-dashoffset:0;stroke-width:2.25;"/>
   </g>
   <g id="line2d_98">
    <path clip-path="url(#pca7a41f8dc)" style="fill:none;stroke:#4c4c4c;stroke-linecap:round;stroke-width:2.25;"/>
   </g>
   <g id="line2d_99">
    <path clip-path="url(#pca7a41f8dc)" d="M 162.740712 80.124823 
L 218.101138 80.124823 
" style="fill:none;stroke:#4c4c4c;stroke-linecap:round;stroke-width:2.25;"/>
   </g>
   <g id="line2d_100">
    <path clip-path="url(#pca7a41f8dc)" style="fill:none;stroke:#4c4c4c;stroke-linecap:round;stroke-width:2.25;"/>
   </g>
   <g id="line2d_101">
    <path clip-path="url(#pca7a41f8dc)" d="M 301.141778 59.338876 
L 356.502205 59.338876 
" style="fill:none;stroke:#4c4c4c;stroke-linecap:round;stroke-width:2.25;"/>
   </g>
   <g id="line2d_102">
    <path clip-path="url(#pca7a41f8dc)" d="M 370.342312 40.918227 
L 425.702738 40.918227 
" style="fill:none;stroke:#4c4c4c;stroke-linecap:round;stroke-width:2.25;"/>
   </g>
   <g id="line2d_103">
    <path clip-path="url(#pca7a41f8dc)" d="M 439.542845 56.738073 
L 494.903272 56.738073 
" style="fill:none;stroke:#4c4c4c;stroke-linecap:round;stroke-width:2.25;"/>
   </g>
   <g id="line2d_104">
    <path clip-path="url(#pca7a41f8dc)" d="M 508.743378 116.372237 
L 564.103805 116.372237 
" style="fill:none;stroke:#4c4c4c;stroke-linecap:round;stroke-width:2.25;"/>
   </g>
   <g id="line2d_105">
    <path clip-path="url(#pca7a41f8dc)" d="M 577.943912 83.391186 
L 633.304338 83.391186 
" style="fill:none;stroke:#4c4c4c;stroke-linecap:round;stroke-width:2.25;"/>
   </g>
   <g id="line2d_106">
    <path clip-path="url(#pca7a41f8dc)" d="M 647.144445 191.334757 
L 702.504872 191.334757 
" style="fill:none;stroke:#4c4c4c;stroke-linecap:round;stroke-width:2.25;"/>
   </g>
   <g id="line2d_107">
    <path clip-path="url(#pca7a41f8dc)" d="M 716.344978 114.211727 
L 771.705405 114.211727 
" style="fill:none;stroke:#4c4c4c;stroke-linecap:round;stroke-width:2.25;"/>
   </g>
   <g id="line2d_108">
    <path clip-path="url(#pca7a41f8dc)" d="M 785.545512 102.334043 
L 840.905938 102.334043 
" style="fill:none;stroke:#4c4c4c;stroke-linecap:round;stroke-width:2.25;"/>
   </g>
   <g id="line2d_109">
    <path clip-path="url(#pca7a41f8dc)" d="M 854.746045 200.007514 
L 910.106472 200.007514 
" style="fill:none;stroke:#4c4c4c;stroke-linecap:round;stroke-width:2.25;"/>
   </g>
   <g id="line2d_110">
    <path clip-path="url(#pca7a41f8dc)" d="M 923.946578 119.525967 
L 979.307005 119.525967 
" style="fill:none;stroke:#4c4c4c;stroke-linecap:round;stroke-width:2.25;"/>
   </g>
   <g id="line2d_111">
    <path clip-path="url(#pca7a41f8dc)" d="M 993.147112 98.709302 
L 1048.507538 98.709302 
" style="fill:none;stroke:#4c4c4c;stroke-linecap:round;stroke-width:2.25;"/>
   </g>
   <g id="line2d_112">
    <path clip-path="url(#pca7a41f8dc)" d="M 1062.347645 167.978725 
L 1117.708072 167.978725 
" style="fill:none;stroke:#4c4c4c;stroke-linecap:round;stroke-width:2.25;"/>
   </g>
   <g id="patch_21">
    <path d="M 86.620125 268.826404 
L 86.620125 9.954334 
" style="fill:none;stroke:#ffffff;stroke-linecap:square;stroke-linejoin:miter;stroke-width:1.875;"/>
   </g>
   <g id="patch_22">
    <path d="M 1124.628125 268.826404 
L 1124.628125 9.954334 
" style="fill:none;stroke:#ffffff;stroke-linecap:square;stroke-linejoin:miter;stroke-width:1.875;"/>
   </g>
   <g id="patch_23">
    <path d="M 86.620125 268.826404 
L 1124.628125 268.826404 
" style="fill:none;stroke:#ffffff;stroke-linecap:square;stroke-linejoin:miter;stroke-width:1.875;"/>
   </g>
   <g id="patch_24">
    <path d="M 86.620125 9.954334 
L 1124.628125 9.954334 
" style="fill:none;stroke:#ffffff;stroke-linecap:square;stroke-linejoin:miter;stroke-width:1.875;"/>
   </g>
   <g id="legend_1">
    <g id="patch_25">
     <path d="M 97.015125 261.401404 
L 187.027008 261.401404 
Q 189.997008 261.401404 189.997008 258.431404 
L 189.997008 173.773579 
Q 189.997008 170.803579 187.027008 170.803579 
L 97.015125 170.803579 
Q 94.045125 170.803579 94.045125 173.773579 
L 94.045125 258.431404 
Q 94.045125 261.401404 97.015125 261.401404 
z
" style="fill:#eaeaf2;opacity:0.8;stroke:#cccccc;stroke-linejoin:miter;stroke-width:1.5;"/>
    </g>
    <g id="text_23">
     <!-- MH  -->
     <defs>
      <path d="M 9.8125 72.90625 
L 24.515625 72.90625 
L 43.109375 23.296875 
L 61.8125 72.90625 
L 76.515625 72.90625 
L 76.515625 0 
L 66.890625 0 
L 66.890625 64.015625 
L 48.09375 14.015625 
L 38.1875 14.015625 
L 19.390625 64.015625 
L 19.390625 0 
L 9.8125 0 
z
" id="DejaVuSans-77"/>
      <path d="M 9.8125 72.90625 
L 19.671875 72.90625 
L 19.671875 43.015625 
L 55.515625 43.015625 
L 55.515625 72.90625 
L 65.375 72.90625 
L 65.375 0 
L 55.515625 0 
L 55.515625 34.71875 
L 19.671875 34.71875 
L 19.671875 0 
L 9.8125 0 
z
" id="DejaVuSans-72"/>
     </defs>
     <g style="fill:#262626;" transform="translate(128.714728 187.206627)scale(0.1377 -0.1377)">
      <use xlink:href="#DejaVuSans-77"/>
      <use x="86.279297" xlink:href="#DejaVuSans-72"/>
      <use x="161.474609" xlink:href="#DejaVuSans-32"/>
     </g>
    </g>
    <g id="patch_26">
     <path d="M 99.985125 208.779037 
L 129.685125 208.779037 
L 129.685125 198.384037 
L 99.985125 198.384037 
z
" style="fill:#5875a4;stroke:#4c4c4c;stroke-linejoin:miter;stroke-width:1.125;"/>
    </g>
    <g id="text_24">
     <!-- py.ES -->
     <g style="fill:#262626;" transform="translate(141.565125 208.779037)scale(0.1485 -0.1485)">
      <use xlink:href="#DejaVuSans-112"/>
      <use x="63.476562" xlink:href="#DejaVuSans-121"/>
      <use x="122.4375" xlink:href="#DejaVuSans-46"/>
      <use x="154.224609" xlink:href="#DejaVuSans-69"/>
      <use x="217.408203" xlink:href="#DejaVuSans-83"/>
     </g>
    </g>
    <g id="patch_27">
     <path d="M 99.985125 230.576052 
L 129.685125 230.576052 
L 129.685125 220.181052 
L 99.985125 220.181052 
z
" style="fill:#cc8963;stroke:#4c4c4c;stroke-linejoin:miter;stroke-width:1.125;"/>
    </g>
    <g id="text_25">
     <!-- py.SA -->
     <g style="fill:#262626;" transform="translate(141.565125 230.576052)scale(0.1485 -0.1485)">
      <use xlink:href="#DejaVuSans-112"/>
      <use x="63.476562" xlink:href="#DejaVuSans-121"/>
      <use x="122.4375" xlink:href="#DejaVuSans-46"/>
      <use x="154.224609" xlink:href="#DejaVuSans-83"/>
      <use x="217.716797" xlink:href="#DejaVuSans-65"/>
     </g>
    </g>
    <g id="patch_28">
     <path d="M 99.985125 252.373068 
L 129.685125 252.373068 
L 129.685125 241.978068 
L 99.985125 241.978068 
z
" style="fill:#5f9e6e;stroke:#4c4c4c;stroke-linejoin:miter;stroke-width:1.125;"/>
    </g>
    <g id="text_26">
     <!-- j.ES -->
     <g style="fill:#262626;" transform="translate(141.565125 252.373068)scale(0.1485 -0.1485)">
      <use xlink:href="#DejaVuSans-106"/>
      <use x="27.783203" xlink:href="#DejaVuSans-46"/>
      <use x="59.570312" xlink:href="#DejaVuSans-69"/>
      <use x="122.753906" xlink:href="#DejaVuSans-83"/>
     </g>
    </g>
   </g>
  </g>
 </g>
 <defs>
  <clipPath id="pca7a41f8dc">
   <rect height="258.87207" width="1038.008" x="86.620125" y="9.954334"/>
  </clipPath>
 </defs>
</svg>
