<?xml version="1.0" encoding="utf-8" standalone="no"?>
<!DOCTYPE svg PUBLIC "-//W3C//DTD SVG 1.1//EN"
  "http://www.w3.org/Graphics/SVG/1.1/DTD/svg11.dtd">
<!-- Created with matplotlib (https://matplotlib.org/) -->
<svg height="386.057243pt" version="1.1" viewBox="0 0 1011.154441 386.057243" width="1011.154441pt" xmlns="http://www.w3.org/2000/svg" xmlns:xlink="http://www.w3.org/1999/xlink">
 <defs>
  <style type="text/css">
*{stroke-linecap:butt;stroke-linejoin:round;}
  </style>
 </defs>
 <g id="figure_1">
  <g id="patch_1">
   <path d="M 0 386.057243 
L 1011.154441 386.057243 
L 1011.154441 0 
L 0 0 
z
" style="fill:#ffffff;"/>
  </g>
  <g id="axes_1">
   <g id="patch_2">
    <path d="M 111.154441 293.28368 
L 1003.954441 293.28368 
L 1003.954441 21.48368 
L 111.154441 21.48368 
z
" style="fill:#eaeaf2;"/>
   </g>
   <g id="matplotlib.axis_1">
    <g id="xtick_1">
     <g id="line2d_1">
      <defs>
       <path d="M 0 0 
L 0 10 
" id="mcaafdddee6" style="stroke:#808080;stroke-width:2;"/>
      </defs>
      <g>
       <use style="fill:#808080;stroke:#808080;stroke-width:2;" x="151.736259" xlink:href="#mcaafdddee6" y="293.28368"/>
      </g>
     </g>
     <g id="text_1">
      <!-- py.ES default (4.1.1) -->
      <defs>
       <path d="M 18.109375 8.203125 
L 18.109375 -20.796875 
L 9.078125 -20.796875 
L 9.078125 54.6875 
L 18.109375 54.6875 
L 18.109375 46.390625 
Q 20.953125 51.265625 25.265625 53.625 
Q 29.59375 56 35.59375 56 
Q 45.5625 56 51.78125 48.09375 
Q 58.015625 40.1875 58.015625 27.296875 
Q 58.015625 14.40625 51.78125 6.484375 
Q 45.5625 -1.421875 35.59375 -1.421875 
Q 29.59375 -1.421875 25.265625 0.953125 
Q 20.953125 3.328125 18.109375 8.203125 
z
M 48.6875 27.296875 
Q 48.6875 37.203125 44.609375 42.84375 
Q 40.53125 48.484375 33.40625 48.484375 
Q 26.265625 48.484375 22.1875 42.84375 
Q 18.109375 37.203125 18.109375 27.296875 
Q 18.109375 17.390625 22.1875 11.75 
Q 26.265625 6.109375 33.40625 6.109375 
Q 40.53125 6.109375 44.609375 11.75 
Q 48.6875 17.390625 48.6875 27.296875 
z
" id="DejaVuSans-112"/>
       <path d="M 32.171875 -5.078125 
Q 28.375 -14.84375 24.75 -17.8125 
Q 21.140625 -20.796875 15.09375 -20.796875 
L 7.90625 -20.796875 
L 7.90625 -13.28125 
L 13.1875 -13.28125 
Q 16.890625 -13.28125 18.9375 -11.515625 
Q 21 -9.765625 23.484375 -3.21875 
L 25.09375 0.875 
L 2.984375 54.6875 
L 12.5 54.6875 
L 29.59375 11.921875 
L 46.6875 54.6875 
L 56.203125 54.6875 
z
" id="DejaVuSans-121"/>
       <path d="M 10.6875 12.40625 
L 21 12.40625 
L 21 0 
L 10.6875 0 
z
" id="DejaVuSans-46"/>
       <path d="M 9.8125 72.90625 
L 55.90625 72.90625 
L 55.90625 64.59375 
L 19.671875 64.59375 
L 19.671875 43.015625 
L 54.390625 43.015625 
L 54.390625 34.71875 
L 19.671875 34.71875 
L 19.671875 8.296875 
L 56.78125 8.296875 
L 56.78125 0 
L 9.8125 0 
z
" id="DejaVuSans-69"/>
       <path d="M 53.515625 70.515625 
L 53.515625 60.890625 
Q 47.90625 63.578125 42.921875 64.890625 
Q 37.9375 66.21875 33.296875 66.21875 
Q 25.25 66.21875 20.875 63.09375 
Q 16.5 59.96875 16.5 54.203125 
Q 16.5 49.359375 19.40625 46.890625 
Q 22.3125 44.4375 30.421875 42.921875 
L 36.375 41.703125 
Q 47.40625 39.59375 52.65625 34.296875 
Q 57.90625 29 57.90625 20.125 
Q 57.90625 9.515625 50.796875 4.046875 
Q 43.703125 -1.421875 29.984375 -1.421875 
Q 24.8125 -1.421875 18.96875 -0.25 
Q 13.140625 0.921875 6.890625 3.21875 
L 6.890625 13.375 
Q 12.890625 10.015625 18.65625 8.296875 
Q 24.421875 6.59375 29.984375 6.59375 
Q 38.421875 6.59375 43.015625 9.90625 
Q 47.609375 13.234375 47.609375 19.390625 
Q 47.609375 24.75 44.3125 27.78125 
Q 41.015625 30.8125 33.5 32.328125 
L 27.484375 33.5 
Q 16.453125 35.6875 11.515625 40.375 
Q 6.59375 45.0625 6.59375 53.421875 
Q 6.59375 63.09375 13.40625 68.65625 
Q 20.21875 74.21875 32.171875 74.21875 
Q 37.3125 74.21875 42.625 73.28125 
Q 47.953125 72.359375 53.515625 70.515625 
z
" id="DejaVuSans-83"/>
       <path id="DejaVuSans-32"/>
       <path d="M 45.40625 46.390625 
L 45.40625 75.984375 
L 54.390625 75.984375 
L 54.390625 0 
L 45.40625 0 
L 45.40625 8.203125 
Q 42.578125 3.328125 38.25 0.953125 
Q 33.9375 -1.421875 27.875 -1.421875 
Q 17.96875 -1.421875 11.734375 6.484375 
Q 5.515625 14.40625 5.515625 27.296875 
Q 5.515625 40.1875 11.734375 48.09375 
Q 17.96875 56 27.875 56 
Q 33.9375 56 38.25 53.625 
Q 42.578125 51.265625 45.40625 46.390625 
z
M 14.796875 27.296875 
Q 14.796875 17.390625 18.875 11.75 
Q 22.953125 6.109375 30.078125 6.109375 
Q 37.203125 6.109375 41.296875 11.75 
Q 45.40625 17.390625 45.40625 27.296875 
Q 45.40625 37.203125 41.296875 42.84375 
Q 37.203125 48.484375 30.078125 48.484375 
Q 22.953125 48.484375 18.875 42.84375 
Q 14.796875 37.203125 14.796875 27.296875 
z
" id="DejaVuSans-100"/>
       <path d="M 56.203125 29.59375 
L 56.203125 25.203125 
L 14.890625 25.203125 
Q 15.484375 15.921875 20.484375 11.0625 
Q 25.484375 6.203125 34.421875 6.203125 
Q 39.59375 6.203125 44.453125 7.46875 
Q 49.3125 8.734375 54.109375 11.28125 
L 54.109375 2.78125 
Q 49.265625 0.734375 44.1875 -0.34375 
Q 39.109375 -1.421875 33.890625 -1.421875 
Q 20.796875 -1.421875 13.15625 6.1875 
Q 5.515625 13.8125 5.515625 26.8125 
Q 5.515625 40.234375 12.765625 48.109375 
Q 20.015625 56 32.328125 56 
Q 43.359375 56 49.78125 48.890625 
Q 56.203125 41.796875 56.203125 29.59375 
z
M 47.21875 32.234375 
Q 47.125 39.59375 43.09375 43.984375 
Q 39.0625 48.390625 32.421875 48.390625 
Q 24.90625 48.390625 20.390625 44.140625 
Q 15.875 39.890625 15.1875 32.171875 
z
" id="DejaVuSans-101"/>
       <path d="M 37.109375 75.984375 
L 37.109375 68.5 
L 28.515625 68.5 
Q 23.6875 68.5 21.796875 66.546875 
Q 19.921875 64.59375 19.921875 59.515625 
L 19.921875 54.6875 
L 34.71875 54.6875 
L 34.71875 47.703125 
L 19.921875 47.703125 
L 19.921875 0 
L 10.890625 0 
L 10.890625 47.703125 
L 2.296875 47.703125 
L 2.296875 54.6875 
L 10.890625 54.6875 
L 10.890625 58.5 
Q 10.890625 67.625 15.140625 71.796875 
Q 19.390625 75.984375 28.609375 75.984375 
z
" id="DejaVuSans-102"/>
       <path d="M 34.28125 27.484375 
Q 23.390625 27.484375 19.1875 25 
Q 14.984375 22.515625 14.984375 16.5 
Q 14.984375 11.71875 18.140625 8.90625 
Q 21.296875 6.109375 26.703125 6.109375 
Q 34.1875 6.109375 38.703125 11.40625 
Q 43.21875 16.703125 43.21875 25.484375 
L 43.21875 27.484375 
z
M 52.203125 31.203125 
L 52.203125 0 
L 43.21875 0 
L 43.21875 8.296875 
Q 40.140625 3.328125 35.546875 0.953125 
Q 30.953125 -1.421875 24.3125 -1.421875 
Q 15.921875 -1.421875 10.953125 3.296875 
Q 6 8.015625 6 15.921875 
Q 6 25.140625 12.171875 29.828125 
Q 18.359375 34.515625 30.609375 34.515625 
L 43.21875 34.515625 
L 43.21875 35.40625 
Q 43.21875 41.609375 39.140625 45 
Q 35.0625 48.390625 27.6875 48.390625 
Q 23 48.390625 18.546875 47.265625 
Q 14.109375 46.140625 10.015625 43.890625 
L 10.015625 52.203125 
Q 14.9375 54.109375 19.578125 55.046875 
Q 24.21875 56 28.609375 56 
Q 40.484375 56 46.34375 49.84375 
Q 52.203125 43.703125 52.203125 31.203125 
z
" id="DejaVuSans-97"/>
       <path d="M 8.5 21.578125 
L 8.5 54.6875 
L 17.484375 54.6875 
L 17.484375 21.921875 
Q 17.484375 14.15625 20.5 10.265625 
Q 23.53125 6.390625 29.59375 6.390625 
Q 36.859375 6.390625 41.078125 11.03125 
Q 45.3125 15.671875 45.3125 23.6875 
L 45.3125 54.6875 
L 54.296875 54.6875 
L 54.296875 0 
L 45.3125 0 
L 45.3125 8.40625 
Q 42.046875 3.421875 37.71875 1 
Q 33.40625 -1.421875 27.6875 -1.421875 
Q 18.265625 -1.421875 13.375 4.4375 
Q 8.5 10.296875 8.5 21.578125 
z
M 31.109375 56 
z
" id="DejaVuSans-117"/>
       <path d="M 9.421875 75.984375 
L 18.40625 75.984375 
L 18.40625 0 
L 9.421875 0 
z
" id="DejaVuSans-108"/>
       <path d="M 18.3125 70.21875 
L 18.3125 54.6875 
L 36.8125 54.6875 
L 36.8125 47.703125 
L 18.3125 47.703125 
L 18.3125 18.015625 
Q 18.3125 11.328125 20.140625 9.421875 
Q 21.96875 7.515625 27.59375 7.515625 
L 36.8125 7.515625 
L 36.8125 0 
L 27.59375 0 
Q 17.1875 0 13.234375 3.875 
Q 9.28125 7.765625 9.28125 18.015625 
L 9.28125 47.703125 
L 2.6875 47.703125 
L 2.6875 54.6875 
L 9.28125 54.6875 
L 9.28125 70.21875 
z
" id="DejaVuSans-116"/>
       <path d="M 31 75.875 
Q 24.46875 64.65625 21.28125 53.65625 
Q 18.109375 42.671875 18.109375 31.390625 
Q 18.109375 20.125 21.3125 9.0625 
Q 24.515625 -2 31 -13.1875 
L 23.1875 -13.1875 
Q 15.875 -1.703125 12.234375 9.375 
Q 8.59375 20.453125 8.59375 31.390625 
Q 8.59375 42.28125 12.203125 53.3125 
Q 15.828125 64.359375 23.1875 75.875 
z
" id="DejaVuSans-40"/>
       <path d="M 37.796875 64.3125 
L 12.890625 25.390625 
L 37.796875 25.390625 
z
M 35.203125 72.90625 
L 47.609375 72.90625 
L 47.609375 25.390625 
L 58.015625 25.390625 
L 58.015625 17.1875 
L 47.609375 17.1875 
L 47.609375 0 
L 37.796875 0 
L 37.796875 17.1875 
L 4.890625 17.1875 
L 4.890625 26.703125 
z
" id="DejaVuSans-52"/>
       <path d="M 12.40625 8.296875 
L 28.515625 8.296875 
L 28.515625 63.921875 
L 10.984375 60.40625 
L 10.984375 69.390625 
L 28.421875 72.90625 
L 38.28125 72.90625 
L 38.28125 8.296875 
L 54.390625 8.296875 
L 54.390625 0 
L 12.40625 0 
z
" id="DejaVuSans-49"/>
       <path d="M 8.015625 75.875 
L 15.828125 75.875 
Q 23.140625 64.359375 26.78125 53.3125 
Q 30.421875 42.28125 30.421875 31.390625 
Q 30.421875 20.453125 26.78125 9.375 
Q 23.140625 -1.703125 15.828125 -13.1875 
L 8.015625 -13.1875 
Q 14.5 -2 17.703125 9.0625 
Q 20.90625 20.125 20.90625 31.390625 
Q 20.90625 42.671875 17.703125 53.65625 
Q 14.5 64.65625 8.015625 75.875 
z
" id="DejaVuSans-41"/>
      </defs>
      <g style="fill:#262626;" transform="translate(11.968689 373.076236)rotate(-25)scale(0.1485 -0.1485)">
       <use xlink:href="#DejaVuSans-112"/>
       <use x="63.476562" xlink:href="#DejaVuSans-121"/>
       <use x="122.4375" xlink:href="#DejaVuSans-46"/>
       <use x="154.224609" xlink:href="#DejaVuSans-69"/>
       <use x="217.408203" xlink:href="#DejaVuSans-83"/>
       <use x="280.884766" xlink:href="#DejaVuSans-32"/>
       <use x="312.671875" xlink:href="#DejaVuSans-100"/>
       <use x="376.148438" xlink:href="#DejaVuSans-101"/>
       <use x="437.671875" xlink:href="#DejaVuSans-102"/>
       <use x="472.876953" xlink:href="#DejaVuSans-97"/>
       <use x="534.15625" xlink:href="#DejaVuSans-117"/>
       <use x="597.535156" xlink:href="#DejaVuSans-108"/>
       <use x="625.318359" xlink:href="#DejaVuSans-116"/>
       <use x="664.527344" xlink:href="#DejaVuSans-32"/>
       <use x="696.314453" xlink:href="#DejaVuSans-40"/>
       <use x="735.328125" xlink:href="#DejaVuSans-52"/>
       <use x="798.951172" xlink:href="#DejaVuSans-46"/>
       <use x="830.738281" xlink:href="#DejaVuSans-49"/>
       <use x="894.361328" xlink:href="#DejaVuSans-46"/>
       <use x="926.148438" xlink:href="#DejaVuSans-49"/>
       <use x="989.771484" xlink:href="#DejaVuSans-41"/>
      </g>
     </g>
    </g>
    <g id="xtick_2">
     <g id="line2d_2">
      <g>
       <use style="fill:#808080;stroke:#808080;stroke-width:2;" x="232.899896" xlink:href="#mcaafdddee6" y="293.28368"/>
      </g>
     </g>
     <g id="text_2">
      <!-- py.SA default (4.2.1) -->
      <defs>
       <path d="M 34.1875 63.1875 
L 20.796875 26.90625 
L 47.609375 26.90625 
z
M 28.609375 72.90625 
L 39.796875 72.90625 
L 67.578125 0 
L 57.328125 0 
L 50.6875 18.703125 
L 17.828125 18.703125 
L 11.1875 0 
L 0.78125 0 
z
" id="DejaVuSans-65"/>
       <path d="M 19.1875 8.296875 
L 53.609375 8.296875 
L 53.609375 0 
L 7.328125 0 
L 7.328125 8.296875 
Q 12.9375 14.109375 22.625 23.890625 
Q 32.328125 33.6875 34.8125 36.53125 
Q 39.546875 41.84375 41.421875 45.53125 
Q 43.3125 49.21875 43.3125 52.78125 
Q 43.3125 58.59375 39.234375 62.25 
Q 35.15625 65.921875 28.609375 65.921875 
Q 23.96875 65.921875 18.8125 64.3125 
Q 13.671875 62.703125 7.8125 59.421875 
L 7.8125 69.390625 
Q 13.765625 71.78125 18.9375 73 
Q 24.125 74.21875 28.421875 74.21875 
Q 39.75 74.21875 46.484375 68.546875 
Q 53.21875 62.890625 53.21875 53.421875 
Q 53.21875 48.921875 51.53125 44.890625 
Q 49.859375 40.875 45.40625 35.40625 
Q 44.1875 33.984375 37.640625 27.21875 
Q 31.109375 20.453125 19.1875 8.296875 
z
" id="DejaVuSans-50"/>
      </defs>
      <g style="fill:#262626;" transform="translate(92.427848 373.404739)rotate(-25)scale(0.1485 -0.1485)">
       <use xlink:href="#DejaVuSans-112"/>
       <use x="63.476562" xlink:href="#DejaVuSans-121"/>
       <use x="122.4375" xlink:href="#DejaVuSans-46"/>
       <use x="154.224609" xlink:href="#DejaVuSans-83"/>
       <use x="217.716797" xlink:href="#DejaVuSans-65"/>
       <use x="286.125" xlink:href="#DejaVuSans-32"/>
       <use x="317.912109" xlink:href="#DejaVuSans-100"/>
       <use x="381.388672" xlink:href="#DejaVuSans-101"/>
       <use x="442.912109" xlink:href="#DejaVuSans-102"/>
       <use x="478.117188" xlink:href="#DejaVuSans-97"/>
       <use x="539.396484" xlink:href="#DejaVuSans-117"/>
       <use x="602.775391" xlink:href="#DejaVuSans-108"/>
       <use x="630.558594" xlink:href="#DejaVuSans-116"/>
       <use x="669.767578" xlink:href="#DejaVuSans-32"/>
       <use x="701.554688" xlink:href="#DejaVuSans-40"/>
       <use x="740.568359" xlink:href="#DejaVuSans-52"/>
       <use x="804.191406" xlink:href="#DejaVuSans-46"/>
       <use x="835.978516" xlink:href="#DejaVuSans-50"/>
       <use x="899.601562" xlink:href="#DejaVuSans-46"/>
       <use x="931.388672" xlink:href="#DejaVuSans-49"/>
       <use x="995.011719" xlink:href="#DejaVuSans-41"/>
      </g>
     </g>
    </g>
    <g id="xtick_3">
     <g id="line2d_3">
      <g>
       <use style="fill:#808080;stroke:#808080;stroke-width:2;" x="314.063532" xlink:href="#mcaafdddee6" y="293.28368"/>
      </g>
     </g>
     <g id="text_3">
      <!-- j.ES default (4.3.1) -->
      <defs>
       <path d="M 9.421875 54.6875 
L 18.40625 54.6875 
L 18.40625 -0.984375 
Q 18.40625 -11.421875 14.421875 -16.109375 
Q 10.453125 -20.796875 1.609375 -20.796875 
L -1.8125 -20.796875 
L -1.8125 -13.1875 
L 0.59375 -13.1875 
Q 5.71875 -13.1875 7.5625 -10.8125 
Q 9.421875 -8.453125 9.421875 -0.984375 
z
M 9.421875 75.984375 
L 18.40625 75.984375 
L 18.40625 64.59375 
L 9.421875 64.59375 
z
" id="DejaVuSans-106"/>
       <path d="M 40.578125 39.3125 
Q 47.65625 37.796875 51.625 33 
Q 55.609375 28.21875 55.609375 21.1875 
Q 55.609375 10.40625 48.1875 4.484375 
Q 40.765625 -1.421875 27.09375 -1.421875 
Q 22.515625 -1.421875 17.65625 -0.515625 
Q 12.796875 0.390625 7.625 2.203125 
L 7.625 11.71875 
Q 11.71875 9.328125 16.59375 8.109375 
Q 21.484375 6.890625 26.8125 6.890625 
Q 36.078125 6.890625 40.9375 10.546875 
Q 45.796875 14.203125 45.796875 21.1875 
Q 45.796875 27.640625 41.28125 31.265625 
Q 36.765625 34.90625 28.71875 34.90625 
L 20.21875 34.90625 
L 20.21875 43.015625 
L 29.109375 43.015625 
Q 36.375 43.015625 40.234375 45.921875 
Q 44.09375 48.828125 44.09375 54.296875 
Q 44.09375 59.90625 40.109375 62.90625 
Q 36.140625 65.921875 28.71875 65.921875 
Q 24.65625 65.921875 20.015625 65.03125 
Q 15.375 64.15625 9.8125 62.3125 
L 9.8125 71.09375 
Q 15.4375 72.65625 20.34375 73.4375 
Q 25.25 74.21875 29.59375 74.21875 
Q 40.828125 74.21875 47.359375 69.109375 
Q 53.90625 64.015625 53.90625 55.328125 
Q 53.90625 49.265625 50.4375 45.09375 
Q 46.96875 40.921875 40.578125 39.3125 
z
" id="DejaVuSans-51"/>
      </defs>
      <g style="fill:#262626;" transform="translate(187.037538 367.134742)rotate(-25)scale(0.1485 -0.1485)">
       <use xlink:href="#DejaVuSans-106"/>
       <use x="27.783203" xlink:href="#DejaVuSans-46"/>
       <use x="59.570312" xlink:href="#DejaVuSans-69"/>
       <use x="122.753906" xlink:href="#DejaVuSans-83"/>
       <use x="186.230469" xlink:href="#DejaVuSans-32"/>
       <use x="218.017578" xlink:href="#DejaVuSans-100"/>
       <use x="281.494141" xlink:href="#DejaVuSans-101"/>
       <use x="343.017578" xlink:href="#DejaVuSans-102"/>
       <use x="378.222656" xlink:href="#DejaVuSans-97"/>
       <use x="439.501953" xlink:href="#DejaVuSans-117"/>
       <use x="502.880859" xlink:href="#DejaVuSans-108"/>
       <use x="530.664062" xlink:href="#DejaVuSans-116"/>
       <use x="569.873047" xlink:href="#DejaVuSans-32"/>
       <use x="601.660156" xlink:href="#DejaVuSans-40"/>
       <use x="640.673828" xlink:href="#DejaVuSans-52"/>
       <use x="704.296875" xlink:href="#DejaVuSans-46"/>
       <use x="736.083984" xlink:href="#DejaVuSans-51"/>
       <use x="799.707031" xlink:href="#DejaVuSans-46"/>
       <use x="831.494141" xlink:href="#DejaVuSans-49"/>
       <use x="895.117188" xlink:href="#DejaVuSans-41"/>
      </g>
     </g>
    </g>
    <g id="xtick_4">
     <g id="line2d_4">
      <g>
       <use style="fill:#808080;stroke:#808080;stroke-width:2;" x="395.227168" xlink:href="#mcaafdddee6" y="293.28368"/>
      </g>
     </g>
     <g id="text_4">
      <!-- py.ES tuned (4.1.2) -->
      <defs>
       <path d="M 54.890625 33.015625 
L 54.890625 0 
L 45.90625 0 
L 45.90625 32.71875 
Q 45.90625 40.484375 42.875 44.328125 
Q 39.84375 48.1875 33.796875 48.1875 
Q 26.515625 48.1875 22.3125 43.546875 
Q 18.109375 38.921875 18.109375 30.90625 
L 18.109375 0 
L 9.078125 0 
L 9.078125 54.6875 
L 18.109375 54.6875 
L 18.109375 46.1875 
Q 21.34375 51.125 25.703125 53.5625 
Q 30.078125 56 35.796875 56 
Q 45.21875 56 50.046875 50.171875 
Q 54.890625 44.34375 54.890625 33.015625 
z
" id="DejaVuSans-110"/>
      </defs>
      <g style="fill:#262626;" transform="translate(263.654667 369.254813)rotate(-25)scale(0.1485 -0.1485)">
       <use xlink:href="#DejaVuSans-112"/>
       <use x="63.476562" xlink:href="#DejaVuSans-121"/>
       <use x="122.4375" xlink:href="#DejaVuSans-46"/>
       <use x="154.224609" xlink:href="#DejaVuSans-69"/>
       <use x="217.408203" xlink:href="#DejaVuSans-83"/>
       <use x="280.884766" xlink:href="#DejaVuSans-32"/>
       <use x="312.671875" xlink:href="#DejaVuSans-116"/>
       <use x="351.880859" xlink:href="#DejaVuSans-117"/>
       <use x="415.259766" xlink:href="#DejaVuSans-110"/>
       <use x="478.638672" xlink:href="#DejaVuSans-101"/>
       <use x="540.162109" xlink:href="#DejaVuSans-100"/>
       <use x="603.638672" xlink:href="#DejaVuSans-32"/>
       <use x="635.425781" xlink:href="#DejaVuSans-40"/>
       <use x="674.439453" xlink:href="#DejaVuSans-52"/>
       <use x="738.0625" xlink:href="#DejaVuSans-46"/>
       <use x="769.849609" xlink:href="#DejaVuSans-49"/>
       <use x="833.472656" xlink:href="#DejaVuSans-46"/>
       <use x="865.259766" xlink:href="#DejaVuSans-50"/>
       <use x="928.882812" xlink:href="#DejaVuSans-41"/>
      </g>
     </g>
    </g>
    <g id="xtick_5">
     <g id="line2d_5">
      <g>
       <use style="fill:#808080;stroke:#808080;stroke-width:2;" x="476.390805" xlink:href="#mcaafdddee6" y="293.28368"/>
      </g>
     </g>
     <g id="text_5">
      <!-- py.SA tuned (4.2.2) -->
      <g style="fill:#262626;" transform="translate(344.113826 369.583316)rotate(-25)scale(0.1485 -0.1485)">
       <use xlink:href="#DejaVuSans-112"/>
       <use x="63.476562" xlink:href="#DejaVuSans-121"/>
       <use x="122.4375" xlink:href="#DejaVuSans-46"/>
       <use x="154.224609" xlink:href="#DejaVuSans-83"/>
       <use x="217.716797" xlink:href="#DejaVuSans-65"/>
       <use x="286.125" xlink:href="#DejaVuSans-32"/>
       <use x="317.912109" xlink:href="#DejaVuSans-116"/>
       <use x="357.121094" xlink:href="#DejaVuSans-117"/>
       <use x="420.5" xlink:href="#DejaVuSans-110"/>
       <use x="483.878906" xlink:href="#DejaVuSans-101"/>
       <use x="545.402344" xlink:href="#DejaVuSans-100"/>
       <use x="608.878906" xlink:href="#DejaVuSans-32"/>
       <use x="640.666016" xlink:href="#DejaVuSans-40"/>
       <use x="679.679688" xlink:href="#DejaVuSans-52"/>
       <use x="743.302734" xlink:href="#DejaVuSans-46"/>
       <use x="775.089844" xlink:href="#DejaVuSans-50"/>
       <use x="838.712891" xlink:href="#DejaVuSans-46"/>
       <use x="870.5" xlink:href="#DejaVuSans-50"/>
       <use x="934.123047" xlink:href="#DejaVuSans-41"/>
      </g>
     </g>
    </g>
    <g id="xtick_6">
     <g id="line2d_6">
      <g>
       <use style="fill:#808080;stroke:#808080;stroke-width:2;" x="557.554441" xlink:href="#mcaafdddee6" y="293.28368"/>
      </g>
     </g>
     <g id="text_6">
      <!-- j.ES tuned (4.3.2) -->
      <g style="fill:#262626;" transform="translate(438.723515 363.313318)rotate(-25)scale(0.1485 -0.1485)">
       <use xlink:href="#DejaVuSans-106"/>
       <use x="27.783203" xlink:href="#DejaVuSans-46"/>
       <use x="59.570312" xlink:href="#DejaVuSans-69"/>
       <use x="122.753906" xlink:href="#DejaVuSans-83"/>
       <use x="186.230469" xlink:href="#DejaVuSans-32"/>
       <use x="218.017578" xlink:href="#DejaVuSans-116"/>
       <use x="257.226562" xlink:href="#DejaVuSans-117"/>
       <use x="320.605469" xlink:href="#DejaVuSans-110"/>
       <use x="383.984375" xlink:href="#DejaVuSans-101"/>
       <use x="445.507812" xlink:href="#DejaVuSans-100"/>
       <use x="508.984375" xlink:href="#DejaVuSans-32"/>
       <use x="540.771484" xlink:href="#DejaVuSans-40"/>
       <use x="579.785156" xlink:href="#DejaVuSans-52"/>
       <use x="643.408203" xlink:href="#DejaVuSans-46"/>
       <use x="675.195312" xlink:href="#DejaVuSans-51"/>
       <use x="738.818359" xlink:href="#DejaVuSans-46"/>
       <use x="770.605469" xlink:href="#DejaVuSans-50"/>
       <use x="834.228516" xlink:href="#DejaVuSans-41"/>
      </g>
     </g>
    </g>
    <g id="xtick_7">
     <g id="line2d_7">
      <g>
       <use style="fill:#808080;stroke:#808080;stroke-width:2;" x="638.718077" xlink:href="#mcaafdddee6" y="293.28368"/>
      </g>
     </g>
     <g id="text_7">
      <!-- random random (1.3) -->
      <defs>
       <path d="M 41.109375 46.296875 
Q 39.59375 47.171875 37.8125 47.578125 
Q 36.03125 48 33.890625 48 
Q 26.265625 48 22.1875 43.046875 
Q 18.109375 38.09375 18.109375 28.8125 
L 18.109375 0 
L 9.078125 0 
L 9.078125 54.6875 
L 18.109375 54.6875 
L 18.109375 46.1875 
Q 20.953125 51.171875 25.484375 53.578125 
Q 30.03125 56 36.53125 56 
Q 37.453125 56 38.578125 55.875 
Q 39.703125 55.765625 41.0625 55.515625 
z
" id="DejaVuSans-114"/>
       <path d="M 30.609375 48.390625 
Q 23.390625 48.390625 19.1875 42.75 
Q 14.984375 37.109375 14.984375 27.296875 
Q 14.984375 17.484375 19.15625 11.84375 
Q 23.34375 6.203125 30.609375 6.203125 
Q 37.796875 6.203125 41.984375 11.859375 
Q 46.1875 17.53125 46.1875 27.296875 
Q 46.1875 37.015625 41.984375 42.703125 
Q 37.796875 48.390625 30.609375 48.390625 
z
M 30.609375 56 
Q 42.328125 56 49.015625 48.375 
Q 55.71875 40.765625 55.71875 27.296875 
Q 55.71875 13.875 49.015625 6.21875 
Q 42.328125 -1.421875 30.609375 -1.421875 
Q 18.84375 -1.421875 12.171875 6.21875 
Q 5.515625 13.875 5.515625 27.296875 
Q 5.515625 40.765625 12.171875 48.375 
Q 18.84375 56 30.609375 56 
z
" id="DejaVuSans-111"/>
       <path d="M 52 44.1875 
Q 55.375 50.25 60.0625 53.125 
Q 64.75 56 71.09375 56 
Q 79.640625 56 84.28125 50.015625 
Q 88.921875 44.046875 88.921875 33.015625 
L 88.921875 0 
L 79.890625 0 
L 79.890625 32.71875 
Q 79.890625 40.578125 77.09375 44.375 
Q 74.3125 48.1875 68.609375 48.1875 
Q 61.625 48.1875 57.5625 43.546875 
Q 53.515625 38.921875 53.515625 30.90625 
L 53.515625 0 
L 44.484375 0 
L 44.484375 32.71875 
Q 44.484375 40.625 41.703125 44.40625 
Q 38.921875 48.1875 33.109375 48.1875 
Q 26.21875 48.1875 22.15625 43.53125 
Q 18.109375 38.875 18.109375 30.90625 
L 18.109375 0 
L 9.078125 0 
L 9.078125 54.6875 
L 18.109375 54.6875 
L 18.109375 46.1875 
Q 21.1875 51.21875 25.484375 53.609375 
Q 29.78125 56 35.6875 56 
Q 41.65625 56 45.828125 52.96875 
Q 50 49.953125 52 44.1875 
z
" id="DejaVuSans-109"/>
      </defs>
      <g style="fill:#262626;" transform="translate(492.555536 376.05826)rotate(-25)scale(0.1485 -0.1485)">
       <use xlink:href="#DejaVuSans-114"/>
       <use x="41.113281" xlink:href="#DejaVuSans-97"/>
       <use x="102.392578" xlink:href="#DejaVuSans-110"/>
       <use x="165.771484" xlink:href="#DejaVuSans-100"/>
       <use x="229.248047" xlink:href="#DejaVuSans-111"/>
       <use x="290.429688" xlink:href="#DejaVuSans-109"/>
       <use x="387.841797" xlink:href="#DejaVuSans-32"/>
       <use x="419.628906" xlink:href="#DejaVuSans-114"/>
       <use x="460.742188" xlink:href="#DejaVuSans-97"/>
       <use x="522.021484" xlink:href="#DejaVuSans-110"/>
       <use x="585.400391" xlink:href="#DejaVuSans-100"/>
       <use x="648.876953" xlink:href="#DejaVuSans-111"/>
       <use x="710.058594" xlink:href="#DejaVuSans-109"/>
       <use x="807.470703" xlink:href="#DejaVuSans-32"/>
       <use x="839.257812" xlink:href="#DejaVuSans-40"/>
       <use x="878.271484" xlink:href="#DejaVuSans-49"/>
       <use x="941.894531" xlink:href="#DejaVuSans-46"/>
       <use x="973.681641" xlink:href="#DejaVuSans-51"/>
       <use x="1037.304688" xlink:href="#DejaVuSans-41"/>
      </g>
     </g>
    </g>
    <g id="xtick_8">
     <g id="line2d_8">
      <g>
       <use style="fill:#808080;stroke:#808080;stroke-width:2;" x="719.881714" xlink:href="#mcaafdddee6" y="293.28368"/>
      </g>
     </g>
     <g id="text_8">
      <!-- FRAMAB TPE (2.4) -->
      <defs>
       <path d="M 9.8125 72.90625 
L 51.703125 72.90625 
L 51.703125 64.59375 
L 19.671875 64.59375 
L 19.671875 43.109375 
L 48.578125 43.109375 
L 48.578125 34.8125 
L 19.671875 34.8125 
L 19.671875 0 
L 9.8125 0 
z
" id="DejaVuSans-70"/>
       <path d="M 44.390625 34.1875 
Q 47.5625 33.109375 50.5625 29.59375 
Q 53.5625 26.078125 56.59375 19.921875 
L 66.609375 0 
L 56 0 
L 46.6875 18.703125 
Q 43.0625 26.03125 39.671875 28.421875 
Q 36.28125 30.8125 30.421875 30.8125 
L 19.671875 30.8125 
L 19.671875 0 
L 9.8125 0 
L 9.8125 72.90625 
L 32.078125 72.90625 
Q 44.578125 72.90625 50.734375 67.671875 
Q 56.890625 62.453125 56.890625 51.90625 
Q 56.890625 45.015625 53.6875 40.46875 
Q 50.484375 35.9375 44.390625 34.1875 
z
M 19.671875 64.796875 
L 19.671875 38.921875 
L 32.078125 38.921875 
Q 39.203125 38.921875 42.84375 42.21875 
Q 46.484375 45.515625 46.484375 51.90625 
Q 46.484375 58.296875 42.84375 61.546875 
Q 39.203125 64.796875 32.078125 64.796875 
z
" id="DejaVuSans-82"/>
       <path d="M 9.8125 72.90625 
L 24.515625 72.90625 
L 43.109375 23.296875 
L 61.8125 72.90625 
L 76.515625 72.90625 
L 76.515625 0 
L 66.890625 0 
L 66.890625 64.015625 
L 48.09375 14.015625 
L 38.1875 14.015625 
L 19.390625 64.015625 
L 19.390625 0 
L 9.8125 0 
z
" id="DejaVuSans-77"/>
       <path d="M 19.671875 34.8125 
L 19.671875 8.109375 
L 35.5 8.109375 
Q 43.453125 8.109375 47.28125 11.40625 
Q 51.125 14.703125 51.125 21.484375 
Q 51.125 28.328125 47.28125 31.5625 
Q 43.453125 34.8125 35.5 34.8125 
z
M 19.671875 64.796875 
L 19.671875 42.828125 
L 34.28125 42.828125 
Q 41.5 42.828125 45.03125 45.53125 
Q 48.578125 48.25 48.578125 53.8125 
Q 48.578125 59.328125 45.03125 62.0625 
Q 41.5 64.796875 34.28125 64.796875 
z
M 9.8125 72.90625 
L 35.015625 72.90625 
Q 46.296875 72.90625 52.390625 68.21875 
Q 58.5 63.53125 58.5 54.890625 
Q 58.5 48.1875 55.375 44.234375 
Q 52.25 40.28125 46.1875 39.3125 
Q 53.46875 37.75 57.5 32.78125 
Q 61.53125 27.828125 61.53125 20.40625 
Q 61.53125 10.640625 54.890625 5.3125 
Q 48.25 0 35.984375 0 
L 9.8125 0 
z
" id="DejaVuSans-66"/>
       <path d="M -0.296875 72.90625 
L 61.375 72.90625 
L 61.375 64.59375 
L 35.5 64.59375 
L 35.5 0 
L 25.59375 0 
L 25.59375 64.59375 
L -0.296875 64.59375 
z
" id="DejaVuSans-84"/>
       <path d="M 19.671875 64.796875 
L 19.671875 37.40625 
L 32.078125 37.40625 
Q 38.96875 37.40625 42.71875 40.96875 
Q 46.484375 44.53125 46.484375 51.125 
Q 46.484375 57.671875 42.71875 61.234375 
Q 38.96875 64.796875 32.078125 64.796875 
z
M 9.8125 72.90625 
L 32.078125 72.90625 
Q 44.34375 72.90625 50.609375 67.359375 
Q 56.890625 61.8125 56.890625 51.125 
Q 56.890625 40.328125 50.609375 34.8125 
Q 44.34375 29.296875 32.078125 29.296875 
L 19.671875 29.296875 
L 19.671875 0 
L 9.8125 0 
z
" id="DejaVuSans-80"/>
      </defs>
      <g style="fill:#262626;" transform="translate(596.933276 365.233346)rotate(-25)scale(0.1485 -0.1485)">
       <use xlink:href="#DejaVuSans-70"/>
       <use x="57.519531" xlink:href="#DejaVuSans-82"/>
       <use x="126.939453" xlink:href="#DejaVuSans-65"/>
       <use x="195.347656" xlink:href="#DejaVuSans-77"/>
       <use x="281.626953" xlink:href="#DejaVuSans-65"/>
       <use x="350.035156" xlink:href="#DejaVuSans-66"/>
       <use x="418.638672" xlink:href="#DejaVuSans-32"/>
       <use x="450.425781" xlink:href="#DejaVuSans-84"/>
       <use x="511.509766" xlink:href="#DejaVuSans-80"/>
       <use x="571.8125" xlink:href="#DejaVuSans-69"/>
       <use x="634.996094" xlink:href="#DejaVuSans-32"/>
       <use x="666.783203" xlink:href="#DejaVuSans-40"/>
       <use x="705.796875" xlink:href="#DejaVuSans-50"/>
       <use x="769.419922" xlink:href="#DejaVuSans-46"/>
       <use x="801.207031" xlink:href="#DejaVuSans-52"/>
       <use x="864.830078" xlink:href="#DejaVuSans-41"/>
      </g>
     </g>
    </g>
    <g id="xtick_9">
     <g id="line2d_9">
      <g>
       <use style="fill:#808080;stroke:#808080;stroke-width:2;" x="801.04535" xlink:href="#mcaafdddee6" y="293.28368"/>
      </g>
     </g>
     <g id="text_9">
      <!-- FRAMAB BRR (2.5) -->
      <defs>
       <path d="M 10.796875 72.90625 
L 49.515625 72.90625 
L 49.515625 64.59375 
L 19.828125 64.59375 
L 19.828125 46.734375 
Q 21.96875 47.46875 24.109375 47.828125 
Q 26.265625 48.1875 28.421875 48.1875 
Q 40.625 48.1875 47.75 41.5 
Q 54.890625 34.8125 54.890625 23.390625 
Q 54.890625 11.625 47.5625 5.09375 
Q 40.234375 -1.421875 26.90625 -1.421875 
Q 22.3125 -1.421875 17.546875 -0.640625 
Q 12.796875 0.140625 7.71875 1.703125 
L 7.71875 11.625 
Q 12.109375 9.234375 16.796875 8.0625 
Q 21.484375 6.890625 26.703125 6.890625 
Q 35.15625 6.890625 40.078125 11.328125 
Q 45.015625 15.765625 45.015625 23.390625 
Q 45.015625 31 40.078125 35.4375 
Q 35.15625 39.890625 26.703125 39.890625 
Q 22.75 39.890625 18.8125 39.015625 
Q 14.890625 38.140625 10.796875 36.28125 
z
" id="DejaVuSans-53"/>
      </defs>
      <g style="fill:#262626;" transform="translate(674.999315 366.677779)rotate(-25)scale(0.1485 -0.1485)">
       <use xlink:href="#DejaVuSans-70"/>
       <use x="57.519531" xlink:href="#DejaVuSans-82"/>
       <use x="126.939453" xlink:href="#DejaVuSans-65"/>
       <use x="195.347656" xlink:href="#DejaVuSans-77"/>
       <use x="281.626953" xlink:href="#DejaVuSans-65"/>
       <use x="350.035156" xlink:href="#DejaVuSans-66"/>
       <use x="418.638672" xlink:href="#DejaVuSans-32"/>
       <use x="450.425781" xlink:href="#DejaVuSans-66"/>
       <use x="519.029297" xlink:href="#DejaVuSans-82"/>
       <use x="588.511719" xlink:href="#DejaVuSans-82"/>
       <use x="657.994141" xlink:href="#DejaVuSans-32"/>
       <use x="689.78125" xlink:href="#DejaVuSans-40"/>
       <use x="728.794922" xlink:href="#DejaVuSans-50"/>
       <use x="792.417969" xlink:href="#DejaVuSans-46"/>
       <use x="824.205078" xlink:href="#DejaVuSans-53"/>
       <use x="887.828125" xlink:href="#DejaVuSans-41"/>
      </g>
     </g>
    </g>
    <g id="xtick_10">
     <g id="line2d_10">
      <g>
       <use style="fill:#808080;stroke:#808080;stroke-width:2;" x="882.208986" xlink:href="#mcaafdddee6" y="293.28368"/>
      </g>
     </g>
     <g id="text_10">
      <!-- BRR TPE (3.4) -->
      <g style="fill:#262626;" transform="translate(787.666756 351.987314)rotate(-25)scale(0.1485 -0.1485)">
       <use xlink:href="#DejaVuSans-66"/>
       <use x="68.603516" xlink:href="#DejaVuSans-82"/>
       <use x="138.085938" xlink:href="#DejaVuSans-82"/>
       <use x="207.568359" xlink:href="#DejaVuSans-32"/>
       <use x="239.355469" xlink:href="#DejaVuSans-84"/>
       <use x="300.439453" xlink:href="#DejaVuSans-80"/>
       <use x="360.742188" xlink:href="#DejaVuSans-69"/>
       <use x="423.925781" xlink:href="#DejaVuSans-32"/>
       <use x="455.712891" xlink:href="#DejaVuSans-40"/>
       <use x="494.726562" xlink:href="#DejaVuSans-51"/>
       <use x="558.349609" xlink:href="#DejaVuSans-46"/>
       <use x="590.136719" xlink:href="#DejaVuSans-52"/>
       <use x="653.759766" xlink:href="#DejaVuSans-41"/>
      </g>
     </g>
    </g>
    <g id="xtick_11">
     <g id="line2d_11">
      <g>
       <use style="fill:#808080;stroke:#808080;stroke-width:2;" x="963.372623" xlink:href="#mcaafdddee6" y="293.28368"/>
      </g>
     </g>
     <g id="text_11">
      <!-- BRR BRR (3.5) -->
      <g style="fill:#262626;" transform="translate(865.732795 353.431747)rotate(-25)scale(0.1485 -0.1485)">
       <use xlink:href="#DejaVuSans-66"/>
       <use x="68.603516" xlink:href="#DejaVuSans-82"/>
       <use x="138.085938" xlink:href="#DejaVuSans-82"/>
       <use x="207.568359" xlink:href="#DejaVuSans-32"/>
       <use x="239.355469" xlink:href="#DejaVuSans-66"/>
       <use x="307.958984" xlink:href="#DejaVuSans-82"/>
       <use x="377.441406" xlink:href="#DejaVuSans-82"/>
       <use x="446.923828" xlink:href="#DejaVuSans-32"/>
       <use x="478.710938" xlink:href="#DejaVuSans-40"/>
       <use x="517.724609" xlink:href="#DejaVuSans-51"/>
       <use x="581.347656" xlink:href="#DejaVuSans-46"/>
       <use x="613.134766" xlink:href="#DejaVuSans-53"/>
       <use x="676.757812" xlink:href="#DejaVuSans-41"/>
      </g>
     </g>
    </g>
   </g>
   <g id="matplotlib.axis_2">
    <g id="ytick_1">
     <g id="line2d_12">
      <path clip-path="url(#p048169ec82)" d="M 111.154441 274.751862 
L 1003.954441 274.751862 
" style="fill:none;stroke:#ffffff;stroke-linecap:round;stroke-width:1.5;"/>
     </g>
     <g id="text_12">
      <!-- 0.75 -->
      <defs>
       <path d="M 31.78125 66.40625 
Q 24.171875 66.40625 20.328125 58.90625 
Q 16.5 51.421875 16.5 36.375 
Q 16.5 21.390625 20.328125 13.890625 
Q 24.171875 6.390625 31.78125 6.390625 
Q 39.453125 6.390625 43.28125 13.890625 
Q 47.125 21.390625 47.125 36.375 
Q 47.125 51.421875 43.28125 58.90625 
Q 39.453125 66.40625 31.78125 66.40625 
z
M 31.78125 74.21875 
Q 44.046875 74.21875 50.515625 64.515625 
Q 56.984375 54.828125 56.984375 36.375 
Q 56.984375 17.96875 50.515625 8.265625 
Q 44.046875 -1.421875 31.78125 -1.421875 
Q 19.53125 -1.421875 13.0625 8.265625 
Q 6.59375 17.96875 6.59375 36.375 
Q 6.59375 54.828125 13.0625 64.515625 
Q 19.53125 74.21875 31.78125 74.21875 
z
" id="DejaVuSans-48"/>
       <path d="M 8.203125 72.90625 
L 55.078125 72.90625 
L 55.078125 68.703125 
L 28.609375 0 
L 18.3125 0 
L 43.21875 64.59375 
L 8.203125 64.59375 
z
" id="DejaVuSans-55"/>
      </defs>
      <g style="fill:#262626;" transform="translate(65.589988 280.393701)scale(0.1485 -0.1485)">
       <use xlink:href="#DejaVuSans-48"/>
       <use x="63.623047" xlink:href="#DejaVuSans-46"/>
       <use x="95.410156" xlink:href="#DejaVuSans-55"/>
       <use x="159.033203" xlink:href="#DejaVuSans-53"/>
      </g>
     </g>
    </g>
    <g id="ytick_2">
     <g id="line2d_13">
      <path clip-path="url(#p048169ec82)" d="M 111.154441 243.865498 
L 1003.954441 243.865498 
" style="fill:none;stroke:#ffffff;stroke-linecap:round;stroke-width:1.5;"/>
     </g>
     <g id="text_13">
      <!-- 1.00 -->
      <g style="fill:#262626;" transform="translate(65.589988 249.507338)scale(0.1485 -0.1485)">
       <use xlink:href="#DejaVuSans-49"/>
       <use x="63.623047" xlink:href="#DejaVuSans-46"/>
       <use x="95.410156" xlink:href="#DejaVuSans-48"/>
       <use x="159.033203" xlink:href="#DejaVuSans-48"/>
      </g>
     </g>
    </g>
    <g id="ytick_3">
     <g id="line2d_14">
      <path clip-path="url(#p048169ec82)" d="M 111.154441 212.979134 
L 1003.954441 212.979134 
" style="fill:none;stroke:#ffffff;stroke-linecap:round;stroke-width:1.5;"/>
     </g>
     <g id="text_14">
      <!-- 1.25 -->
      <g style="fill:#262626;" transform="translate(65.589988 218.620974)scale(0.1485 -0.1485)">
       <use xlink:href="#DejaVuSans-49"/>
       <use x="63.623047" xlink:href="#DejaVuSans-46"/>
       <use x="95.410156" xlink:href="#DejaVuSans-50"/>
       <use x="159.033203" xlink:href="#DejaVuSans-53"/>
      </g>
     </g>
    </g>
    <g id="ytick_4">
     <g id="line2d_15">
      <path clip-path="url(#p048169ec82)" d="M 111.154441 182.092771 
L 1003.954441 182.092771 
" style="fill:none;stroke:#ffffff;stroke-linecap:round;stroke-width:1.5;"/>
     </g>
     <g id="text_15">
      <!-- 1.50 -->
      <g style="fill:#262626;" transform="translate(65.589988 187.73461)scale(0.1485 -0.1485)">
       <use xlink:href="#DejaVuSans-49"/>
       <use x="63.623047" xlink:href="#DejaVuSans-46"/>
       <use x="95.410156" xlink:href="#DejaVuSans-53"/>
       <use x="159.033203" xlink:href="#DejaVuSans-48"/>
      </g>
     </g>
    </g>
    <g id="ytick_5">
     <g id="line2d_16">
      <path clip-path="url(#p048169ec82)" d="M 111.154441 151.206407 
L 1003.954441 151.206407 
" style="fill:none;stroke:#ffffff;stroke-linecap:round;stroke-width:1.5;"/>
     </g>
     <g id="text_16">
      <!-- 1.75 -->
      <g style="fill:#262626;" transform="translate(65.589988 156.848247)scale(0.1485 -0.1485)">
       <use xlink:href="#DejaVuSans-49"/>
       <use x="63.623047" xlink:href="#DejaVuSans-46"/>
       <use x="95.410156" xlink:href="#DejaVuSans-55"/>
       <use x="159.033203" xlink:href="#DejaVuSans-53"/>
      </g>
     </g>
    </g>
    <g id="ytick_6">
     <g id="line2d_17">
      <path clip-path="url(#p048169ec82)" d="M 111.154441 120.320043 
L 1003.954441 120.320043 
" style="fill:none;stroke:#ffffff;stroke-linecap:round;stroke-width:1.5;"/>
     </g>
     <g id="text_17">
      <!-- 2.00 -->
      <g style="fill:#262626;" transform="translate(65.589988 125.961883)scale(0.1485 -0.1485)">
       <use xlink:href="#DejaVuSans-50"/>
       <use x="63.623047" xlink:href="#DejaVuSans-46"/>
       <use x="95.410156" xlink:href="#DejaVuSans-48"/>
       <use x="159.033203" xlink:href="#DejaVuSans-48"/>
      </g>
     </g>
    </g>
    <g id="ytick_7">
     <g id="line2d_18">
      <path clip-path="url(#p048169ec82)" d="M 111.154441 89.43368 
L 1003.954441 89.43368 
" style="fill:none;stroke:#ffffff;stroke-linecap:round;stroke-width:1.5;"/>
     </g>
     <g id="text_18">
      <!-- 2.25 -->
      <g style="fill:#262626;" transform="translate(65.589988 95.07552)scale(0.1485 -0.1485)">
       <use xlink:href="#DejaVuSans-50"/>
       <use x="63.623047" xlink:href="#DejaVuSans-46"/>
       <use x="95.410156" xlink:href="#DejaVuSans-50"/>
       <use x="159.033203" xlink:href="#DejaVuSans-53"/>
      </g>
     </g>
    </g>
    <g id="ytick_8">
     <g id="line2d_19">
      <path clip-path="url(#p048169ec82)" d="M 111.154441 58.547316 
L 1003.954441 58.547316 
" style="fill:none;stroke:#ffffff;stroke-linecap:round;stroke-width:1.5;"/>
     </g>
     <g id="text_19">
      <!-- 2.50 -->
      <g style="fill:#262626;" transform="translate(65.589988 64.189156)scale(0.1485 -0.1485)">
       <use xlink:href="#DejaVuSans-50"/>
       <use x="63.623047" xlink:href="#DejaVuSans-46"/>
       <use x="95.410156" xlink:href="#DejaVuSans-53"/>
       <use x="159.033203" xlink:href="#DejaVuSans-48"/>
      </g>
     </g>
    </g>
    <g id="ytick_9">
     <g id="line2d_20">
      <path clip-path="url(#p048169ec82)" d="M 111.154441 27.660952 
L 1003.954441 27.660952 
" style="fill:none;stroke:#ffffff;stroke-linecap:round;stroke-width:1.5;"/>
     </g>
     <g id="text_20">
      <!-- 2.75 -->
      <g style="fill:#262626;" transform="translate(65.589988 33.302792)scale(0.1485 -0.1485)">
       <use xlink:href="#DejaVuSans-50"/>
       <use x="63.623047" xlink:href="#DejaVuSans-46"/>
       <use x="95.410156" xlink:href="#DejaVuSans-55"/>
       <use x="159.033203" xlink:href="#DejaVuSans-53"/>
      </g>
     </g>
    </g>
    <g id="text_21">
     <!-- Distance (km) -->
     <defs>
      <path d="M 19.671875 64.796875 
L 19.671875 8.109375 
L 31.59375 8.109375 
Q 46.6875 8.109375 53.6875 14.9375 
Q 60.6875 21.78125 60.6875 36.53125 
Q 60.6875 51.171875 53.6875 57.984375 
Q 46.6875 64.796875 31.59375 64.796875 
z
M 9.8125 72.90625 
L 30.078125 72.90625 
Q 51.265625 72.90625 61.171875 64.09375 
Q 71.09375 55.28125 71.09375 36.53125 
Q 71.09375 17.671875 61.125 8.828125 
Q 51.171875 0 30.078125 0 
L 9.8125 0 
z
" id="DejaVuSans-68"/>
      <path d="M 9.421875 54.6875 
L 18.40625 54.6875 
L 18.40625 0 
L 9.421875 0 
z
M 9.421875 75.984375 
L 18.40625 75.984375 
L 18.40625 64.59375 
L 9.421875 64.59375 
z
" id="DejaVuSans-105"/>
      <path d="M 44.28125 53.078125 
L 44.28125 44.578125 
Q 40.484375 46.53125 36.375 47.5 
Q 32.28125 48.484375 27.875 48.484375 
Q 21.1875 48.484375 17.84375 46.4375 
Q 14.5 44.390625 14.5 40.28125 
Q 14.5 37.15625 16.890625 35.375 
Q 19.28125 33.59375 26.515625 31.984375 
L 29.59375 31.296875 
Q 39.15625 29.25 43.1875 25.515625 
Q 47.21875 21.78125 47.21875 15.09375 
Q 47.21875 7.46875 41.1875 3.015625 
Q 35.15625 -1.421875 24.609375 -1.421875 
Q 20.21875 -1.421875 15.453125 -0.5625 
Q 10.6875 0.296875 5.421875 2 
L 5.421875 11.28125 
Q 10.40625 8.6875 15.234375 7.390625 
Q 20.0625 6.109375 24.8125 6.109375 
Q 31.15625 6.109375 34.5625 8.28125 
Q 37.984375 10.453125 37.984375 14.40625 
Q 37.984375 18.0625 35.515625 20.015625 
Q 33.0625 21.96875 24.703125 23.78125 
L 21.578125 24.515625 
Q 13.234375 26.265625 9.515625 29.90625 
Q 5.8125 33.546875 5.8125 39.890625 
Q 5.8125 47.609375 11.28125 51.796875 
Q 16.75 56 26.8125 56 
Q 31.78125 56 36.171875 55.265625 
Q 40.578125 54.546875 44.28125 53.078125 
z
" id="DejaVuSans-115"/>
      <path d="M 48.78125 52.59375 
L 48.78125 44.1875 
Q 44.96875 46.296875 41.140625 47.34375 
Q 37.3125 48.390625 33.40625 48.390625 
Q 24.65625 48.390625 19.8125 42.84375 
Q 14.984375 37.3125 14.984375 27.296875 
Q 14.984375 17.28125 19.8125 11.734375 
Q 24.65625 6.203125 33.40625 6.203125 
Q 37.3125 6.203125 41.140625 7.25 
Q 44.96875 8.296875 48.78125 10.40625 
L 48.78125 2.09375 
Q 45.015625 0.34375 40.984375 -0.53125 
Q 36.96875 -1.421875 32.421875 -1.421875 
Q 20.0625 -1.421875 12.78125 6.34375 
Q 5.515625 14.109375 5.515625 27.296875 
Q 5.515625 40.671875 12.859375 48.328125 
Q 20.21875 56 33.015625 56 
Q 37.15625 56 41.109375 55.140625 
Q 45.0625 54.296875 48.78125 52.59375 
z
" id="DejaVuSans-99"/>
      <path d="M 9.078125 75.984375 
L 18.109375 75.984375 
L 18.109375 31.109375 
L 44.921875 54.6875 
L 56.390625 54.6875 
L 27.390625 29.109375 
L 57.625 0 
L 45.90625 0 
L 18.109375 26.703125 
L 18.109375 0 
L 9.078125 0 
z
" id="DejaVuSans-107"/>
     </defs>
     <g style="fill:#262626;" transform="translate(58.220894 214.276055)rotate(-90)scale(0.162 -0.162)">
      <use xlink:href="#DejaVuSans-68"/>
      <use x="77.001953" xlink:href="#DejaVuSans-105"/>
      <use x="104.785156" xlink:href="#DejaVuSans-115"/>
      <use x="156.884766" xlink:href="#DejaVuSans-116"/>
      <use x="196.09375" xlink:href="#DejaVuSans-97"/>
      <use x="257.373047" xlink:href="#DejaVuSans-110"/>
      <use x="320.751953" xlink:href="#DejaVuSans-99"/>
      <use x="375.732422" xlink:href="#DejaVuSans-101"/>
      <use x="437.255859" xlink:href="#DejaVuSans-32"/>
      <use x="469.042969" xlink:href="#DejaVuSans-40"/>
      <use x="508.056641" xlink:href="#DejaVuSans-107"/>
      <use x="565.966797" xlink:href="#DejaVuSans-109"/>
      <use x="663.378906" xlink:href="#DejaVuSans-41"/>
     </g>
    </g>
    <g id="text_22">
     <!-- 1e9 -->
     <defs>
      <path d="M 10.984375 1.515625 
L 10.984375 10.5 
Q 14.703125 8.734375 18.5 7.8125 
Q 22.3125 6.890625 25.984375 6.890625 
Q 35.75 6.890625 40.890625 13.453125 
Q 46.046875 20.015625 46.78125 33.40625 
Q 43.953125 29.203125 39.59375 26.953125 
Q 35.25 24.703125 29.984375 24.703125 
Q 19.046875 24.703125 12.671875 31.3125 
Q 6.296875 37.9375 6.296875 49.421875 
Q 6.296875 60.640625 12.9375 67.421875 
Q 19.578125 74.21875 30.609375 74.21875 
Q 43.265625 74.21875 49.921875 64.515625 
Q 56.59375 54.828125 56.59375 36.375 
Q 56.59375 19.140625 48.40625 8.859375 
Q 40.234375 -1.421875 26.421875 -1.421875 
Q 22.703125 -1.421875 18.890625 -0.6875 
Q 15.09375 0.046875 10.984375 1.515625 
z
M 30.609375 32.421875 
Q 37.25 32.421875 41.125 36.953125 
Q 45.015625 41.5 45.015625 49.421875 
Q 45.015625 57.28125 41.125 61.84375 
Q 37.25 66.40625 30.609375 66.40625 
Q 23.96875 66.40625 20.09375 61.84375 
Q 16.21875 57.28125 16.21875 49.421875 
Q 16.21875 41.5 20.09375 36.953125 
Q 23.96875 32.421875 30.609375 32.421875 
z
" id="DejaVuSans-57"/>
     </defs>
     <g style="fill:#262626;" transform="translate(111.154441 18.48368)scale(0.1485 -0.1485)">
      <use xlink:href="#DejaVuSans-49"/>
      <use x="63.623047" xlink:href="#DejaVuSans-101"/>
      <use x="125.146484" xlink:href="#DejaVuSans-57"/>
     </g>
    </g>
   </g>
   <g id="patch_3">
    <path clip-path="url(#p048169ec82)" d="M 119.270805 29.41476 
L 184.201714 29.41476 
L 184.201714 28.769837 
L 119.270805 28.769837 
L 119.270805 29.41476 
z
" style="fill:#5875a4;stroke:#4c4c4c;stroke-linejoin:miter;stroke-width:2.25;"/>
   </g>
   <g id="patch_4">
    <path clip-path="url(#p048169ec82)" d="M 200.434441 197.746983 
L 265.36535 197.746983 
L 265.36535 195.916228 
L 200.434441 195.916228 
L 200.434441 197.746983 
z
" style="fill:#5875a4;stroke:#4c4c4c;stroke-linejoin:miter;stroke-width:2.25;"/>
   </g>
   <g id="patch_5">
    <path clip-path="url(#p048169ec82)" d="M 281.598077 40.797351 
L 346.528986 40.797351 
L 346.528986 39.444997 
L 281.598077 39.444997 
L 281.598077 40.797351 
z
" style="fill:#5875a4;stroke:#4c4c4c;stroke-linejoin:miter;stroke-width:2.25;"/>
   </g>
   <g id="patch_6">
    <path clip-path="url(#p048169ec82)" d="M 362.761714 67.210446 
L 427.692623 67.210446 
L 427.692623 66.079465 
L 362.761714 66.079465 
L 362.761714 67.210446 
z
" style="fill:#5875a4;stroke:#4c4c4c;stroke-linejoin:miter;stroke-width:2.25;"/>
   </g>
   <g id="patch_7">
    <path clip-path="url(#p048169ec82)" d="M 443.92535 223.008734 
L 508.856259 223.008734 
L 508.856259 222.221847 
L 443.92535 222.221847 
L 443.92535 223.008734 
z
" style="fill:#5875a4;stroke:#4c4c4c;stroke-linejoin:miter;stroke-width:2.25;"/>
   </g>
   <g id="patch_8">
    <path clip-path="url(#p048169ec82)" d="M 525.088986 272.993172 
L 590.019896 272.993172 
L 590.019896 270.32838 
L 525.088986 270.32838 
L 525.088986 272.993172 
z
" style="fill:#5875a4;stroke:#4c4c4c;stroke-linejoin:miter;stroke-width:2.25;"/>
   </g>
   <g id="patch_9">
    <path clip-path="url(#p048169ec82)" d="M 606.252623 149.871887 
L 671.183532 149.871887 
L 671.183532 137.897388 
L 606.252623 137.897388 
L 606.252623 149.871887 
z
" style="fill:#cc8963;stroke:#4c4c4c;stroke-linejoin:miter;stroke-width:2.25;"/>
   </g>
   <g id="patch_10">
    <path clip-path="url(#p048169ec82)" d="M 687.416259 235.674219 
L 752.347168 235.674219 
L 752.347168 203.476705 
L 687.416259 203.476705 
L 687.416259 235.674219 
z
" style="fill:#cc8963;stroke:#4c4c4c;stroke-linejoin:miter;stroke-width:2.25;"/>
   </g>
   <g id="patch_11">
    <path clip-path="url(#p048169ec82)" d="M 768.579896 188.64143 
L 833.510805 188.64143 
L 833.510805 182.376976 
L 768.579896 182.376976 
L 768.579896 188.64143 
z
" style="fill:#cc8963;stroke:#4c4c4c;stroke-linejoin:miter;stroke-width:2.25;"/>
   </g>
   <g id="patch_12">
    <path clip-path="url(#p048169ec82)" d="M 849.743532 212.272231 
L 914.674441 212.272231 
L 914.674441 143.0305 
L 849.743532 143.0305 
L 849.743532 212.272231 
z
" style="fill:#cc8963;stroke:#4c4c4c;stroke-linejoin:miter;stroke-width:2.25;"/>
   </g>
   <g id="patch_13">
    <path clip-path="url(#p048169ec82)" d="M 930.907168 161.745143 
L 995.838077 161.745143 
L 995.838077 149.539568 
L 930.907168 149.539568 
L 930.907168 161.745143 
z
" style="fill:#cc8963;stroke:#4c4c4c;stroke-linejoin:miter;stroke-width:2.25;"/>
   </g>
   <g id="patch_14">
    <path clip-path="url(#p048169ec82)" d="M 151.736259 367.410952 
L 151.736259 367.410952 
L 151.736259 367.410952 
L 151.736259 367.410952 
z
" style="fill:#5875a4;stroke:#4c4c4c;stroke-linejoin:miter;stroke-width:1.125;"/>
   </g>
   <g id="patch_15">
    <path clip-path="url(#p048169ec82)" d="M 151.736259 367.410952 
L 151.736259 367.410952 
L 151.736259 367.410952 
L 151.736259 367.410952 
z
" style="fill:#cc8963;stroke:#4c4c4c;stroke-linejoin:miter;stroke-width:1.125;"/>
   </g>
   <g id="line2d_21">
    <path clip-path="url(#p048169ec82)" d="M 151.736259 29.41476 
L 151.736259 30.122606 
" style="fill:none;stroke:#4c4c4c;stroke-linecap:round;stroke-width:2.25;"/>
   </g>
   <g id="line2d_22">
    <path clip-path="url(#p048169ec82)" d="M 151.736259 28.769837 
L 151.736259 28.355168 
" style="fill:none;stroke:#4c4c4c;stroke-linecap:round;stroke-width:2.25;"/>
   </g>
   <g id="line2d_23">
    <path clip-path="url(#p048169ec82)" d="M 135.503532 30.122606 
L 167.968986 30.122606 
" style="fill:none;stroke:#4c4c4c;stroke-linecap:round;stroke-width:2.25;"/>
   </g>
   <g id="line2d_24">
    <path clip-path="url(#p048169ec82)" d="M 135.503532 28.355168 
L 167.968986 28.355168 
" style="fill:none;stroke:#4c4c4c;stroke-linecap:round;stroke-width:2.25;"/>
   </g>
   <g id="line2d_25"/>
   <g id="line2d_26">
    <path clip-path="url(#p048169ec82)" d="M 232.899896 197.746983 
L 232.899896 199.326723 
" style="fill:none;stroke:#4c4c4c;stroke-linecap:round;stroke-width:2.25;"/>
   </g>
   <g id="line2d_27">
    <path clip-path="url(#p048169ec82)" d="M 232.899896 195.916228 
L 232.899896 194.362051 
" style="fill:none;stroke:#4c4c4c;stroke-linecap:round;stroke-width:2.25;"/>
   </g>
   <g id="line2d_28">
    <path clip-path="url(#p048169ec82)" d="M 216.667168 199.326723 
L 249.132623 199.326723 
" style="fill:none;stroke:#4c4c4c;stroke-linecap:round;stroke-width:2.25;"/>
   </g>
   <g id="line2d_29">
    <path clip-path="url(#p048169ec82)" d="M 216.667168 194.362051 
L 249.132623 194.362051 
" style="fill:none;stroke:#4c4c4c;stroke-linecap:round;stroke-width:2.25;"/>
   </g>
   <g id="line2d_30"/>
   <g id="line2d_31">
    <path clip-path="url(#p048169ec82)" d="M 314.063532 40.797351 
L 314.063532 42.018693 
" style="fill:none;stroke:#4c4c4c;stroke-linecap:round;stroke-width:2.25;"/>
   </g>
   <g id="line2d_32">
    <path clip-path="url(#p048169ec82)" d="M 314.063532 39.444997 
L 314.063532 38.908285 
" style="fill:none;stroke:#4c4c4c;stroke-linecap:round;stroke-width:2.25;"/>
   </g>
   <g id="line2d_33">
    <path clip-path="url(#p048169ec82)" d="M 297.830805 42.018693 
L 330.296259 42.018693 
" style="fill:none;stroke:#4c4c4c;stroke-linecap:round;stroke-width:2.25;"/>
   </g>
   <g id="line2d_34">
    <path clip-path="url(#p048169ec82)" d="M 297.830805 38.908285 
L 330.296259 38.908285 
" style="fill:none;stroke:#4c4c4c;stroke-linecap:round;stroke-width:2.25;"/>
   </g>
   <g id="line2d_35"/>
   <g id="line2d_36">
    <path clip-path="url(#p048169ec82)" d="M 395.227168 67.210446 
L 395.227168 68.247297 
" style="fill:none;stroke:#4c4c4c;stroke-linecap:round;stroke-width:2.25;"/>
   </g>
   <g id="line2d_37">
    <path clip-path="url(#p048169ec82)" d="M 395.227168 66.079465 
L 395.227168 65.72035 
" style="fill:none;stroke:#4c4c4c;stroke-linecap:round;stroke-width:2.25;"/>
   </g>
   <g id="line2d_38">
    <path clip-path="url(#p048169ec82)" d="M 378.994441 68.247297 
L 411.459896 68.247297 
" style="fill:none;stroke:#4c4c4c;stroke-linecap:round;stroke-width:2.25;"/>
   </g>
   <g id="line2d_39">
    <path clip-path="url(#p048169ec82)" d="M 378.994441 65.72035 
L 411.459896 65.72035 
" style="fill:none;stroke:#4c4c4c;stroke-linecap:round;stroke-width:2.25;"/>
   </g>
   <g id="line2d_40"/>
   <g id="line2d_41">
    <path clip-path="url(#p048169ec82)" d="M 476.390805 223.008734 
L 476.390805 223.779063 
" style="fill:none;stroke:#4c4c4c;stroke-linecap:round;stroke-width:2.25;"/>
   </g>
   <g id="line2d_42">
    <path clip-path="url(#p048169ec82)" d="M 476.390805 222.221847 
L 476.390805 221.846986 
" style="fill:none;stroke:#4c4c4c;stroke-linecap:round;stroke-width:2.25;"/>
   </g>
   <g id="line2d_43">
    <path clip-path="url(#p048169ec82)" d="M 460.158077 223.779063 
L 492.623532 223.779063 
" style="fill:none;stroke:#4c4c4c;stroke-linecap:round;stroke-width:2.25;"/>
   </g>
   <g id="line2d_44">
    <path clip-path="url(#p048169ec82)" d="M 460.158077 221.846986 
L 492.623532 221.846986 
" style="fill:none;stroke:#4c4c4c;stroke-linecap:round;stroke-width:2.25;"/>
   </g>
   <g id="line2d_45"/>
   <g id="line2d_46">
    <path clip-path="url(#p048169ec82)" d="M 557.554441 272.993172 
L 557.554441 273.329944 
" style="fill:none;stroke:#4c4c4c;stroke-linecap:round;stroke-width:2.25;"/>
   </g>
   <g id="line2d_47">
    <path clip-path="url(#p048169ec82)" d="M 557.554441 270.32838 
L 557.554441 270.111116 
" style="fill:none;stroke:#4c4c4c;stroke-linecap:round;stroke-width:2.25;"/>
   </g>
   <g id="line2d_48">
    <path clip-path="url(#p048169ec82)" d="M 541.321714 273.329944 
L 573.787168 273.329944 
" style="fill:none;stroke:#4c4c4c;stroke-linecap:round;stroke-width:2.25;"/>
   </g>
   <g id="line2d_49">
    <path clip-path="url(#p048169ec82)" d="M 541.321714 270.111116 
L 573.787168 270.111116 
" style="fill:none;stroke:#4c4c4c;stroke-linecap:round;stroke-width:2.25;"/>
   </g>
   <g id="line2d_50"/>
   <g id="line2d_51">
    <path clip-path="url(#p048169ec82)" d="M 638.718077 149.871887 
L 638.718077 158.884078 
" style="fill:none;stroke:#4c4c4c;stroke-linecap:round;stroke-width:2.25;"/>
   </g>
   <g id="line2d_52">
    <path clip-path="url(#p048169ec82)" d="M 638.718077 137.897388 
L 638.718077 125.104681 
" style="fill:none;stroke:#4c4c4c;stroke-linecap:round;stroke-width:2.25;"/>
   </g>
   <g id="line2d_53">
    <path clip-path="url(#p048169ec82)" d="M 622.48535 158.884078 
L 654.950805 158.884078 
" style="fill:none;stroke:#4c4c4c;stroke-linecap:round;stroke-width:2.25;"/>
   </g>
   <g id="line2d_54">
    <path clip-path="url(#p048169ec82)" d="M 622.48535 125.104681 
L 654.950805 125.104681 
" style="fill:none;stroke:#4c4c4c;stroke-linecap:round;stroke-width:2.25;"/>
   </g>
   <g id="line2d_55"/>
   <g id="line2d_56">
    <path clip-path="url(#p048169ec82)" d="M 719.881714 235.674219 
L 719.881714 254.704876 
" style="fill:none;stroke:#4c4c4c;stroke-linecap:round;stroke-width:2.25;"/>
   </g>
   <g id="line2d_57">
    <path clip-path="url(#p048169ec82)" d="M 719.881714 203.476705 
L 719.881714 181.788397 
" style="fill:none;stroke:#4c4c4c;stroke-linecap:round;stroke-width:2.25;"/>
   </g>
   <g id="line2d_58">
    <path clip-path="url(#p048169ec82)" d="M 703.648986 254.704876 
L 736.114441 254.704876 
" style="fill:none;stroke:#4c4c4c;stroke-linecap:round;stroke-width:2.25;"/>
   </g>
   <g id="line2d_59">
    <path clip-path="url(#p048169ec82)" d="M 703.648986 181.788397 
L 736.114441 181.788397 
" style="fill:none;stroke:#4c4c4c;stroke-linecap:round;stroke-width:2.25;"/>
   </g>
   <g id="line2d_60"/>
   <g id="line2d_61">
    <path clip-path="url(#p048169ec82)" d="M 801.04535 188.64143 
L 801.04535 196.701771 
" style="fill:none;stroke:#4c4c4c;stroke-linecap:round;stroke-width:2.25;"/>
   </g>
   <g id="line2d_62">
    <path clip-path="url(#p048169ec82)" d="M 801.04535 182.376976 
L 801.04535 179.834233 
" style="fill:none;stroke:#4c4c4c;stroke-linecap:round;stroke-width:2.25;"/>
   </g>
   <g id="line2d_63">
    <path clip-path="url(#p048169ec82)" d="M 784.812623 196.701771 
L 817.278077 196.701771 
" style="fill:none;stroke:#4c4c4c;stroke-linecap:round;stroke-width:2.25;"/>
   </g>
   <g id="line2d_64">
    <path clip-path="url(#p048169ec82)" d="M 784.812623 179.834233 
L 817.278077 179.834233 
" style="fill:none;stroke:#4c4c4c;stroke-linecap:round;stroke-width:2.25;"/>
   </g>
   <g id="line2d_65">
    <defs>
     <path d="M -0 3.535534 
L 2.12132 0 
L -0 -3.535534 
L -2.12132 -0 
z
" id="m4e01e91b15" style="stroke:#4c4c4c;stroke-linejoin:miter;"/>
    </defs>
    <g clip-path="url(#p048169ec82)">
     <use style="fill:#4c4c4c;stroke:#4c4c4c;stroke-linejoin:miter;" x="801.04535" xlink:href="#m4e01e91b15" y="200.106172"/>
    </g>
   </g>
   <g id="line2d_66">
    <path clip-path="url(#p048169ec82)" d="M 882.208986 212.272231 
L 882.208986 240.544558 
" style="fill:none;stroke:#4c4c4c;stroke-linecap:round;stroke-width:2.25;"/>
   </g>
   <g id="line2d_67">
    <path clip-path="url(#p048169ec82)" d="M 882.208986 143.0305 
L 882.208986 103.333315 
" style="fill:none;stroke:#4c4c4c;stroke-linecap:round;stroke-width:2.25;"/>
   </g>
   <g id="line2d_68">
    <path clip-path="url(#p048169ec82)" d="M 865.976259 240.544558 
L 898.441714 240.544558 
" style="fill:none;stroke:#4c4c4c;stroke-linecap:round;stroke-width:2.25;"/>
   </g>
   <g id="line2d_69">
    <path clip-path="url(#p048169ec82)" d="M 865.976259 103.333315 
L 898.441714 103.333315 
" style="fill:none;stroke:#4c4c4c;stroke-linecap:round;stroke-width:2.25;"/>
   </g>
   <g id="line2d_70"/>
   <g id="line2d_71">
    <path clip-path="url(#p048169ec82)" d="M 963.372623 161.745143 
L 963.372623 166.137205 
" style="fill:none;stroke:#4c4c4c;stroke-linecap:round;stroke-width:2.25;"/>
   </g>
   <g id="line2d_72">
    <path clip-path="url(#p048169ec82)" d="M 963.372623 149.539568 
L 963.372623 131.466926 
" style="fill:none;stroke:#4c4c4c;stroke-linecap:round;stroke-width:2.25;"/>
   </g>
   <g id="line2d_73">
    <path clip-path="url(#p048169ec82)" d="M 947.139896 166.137205 
L 979.60535 166.137205 
" style="fill:none;stroke:#4c4c4c;stroke-linecap:round;stroke-width:2.25;"/>
   </g>
   <g id="line2d_74">
    <path clip-path="url(#p048169ec82)" d="M 947.139896 131.466926 
L 979.60535 131.466926 
" style="fill:none;stroke:#4c4c4c;stroke-linecap:round;stroke-width:2.25;"/>
   </g>
   <g id="line2d_75"/>
   <g id="line2d_76">
    <path clip-path="url(#p048169ec82)" d="M 119.270805 29.233362 
L 184.201714 29.233362 
" style="fill:none;stroke:#4c4c4c;stroke-linecap:round;stroke-width:2.25;"/>
   </g>
   <g id="line2d_77">
    <path clip-path="url(#p048169ec82)" d="M 200.434441 196.644359 
L 265.36535 196.644359 
" style="fill:none;stroke:#4c4c4c;stroke-linecap:round;stroke-width:2.25;"/>
   </g>
   <g id="line2d_78">
    <path clip-path="url(#p048169ec82)" d="M 281.598077 40.173619 
L 346.528986 40.173619 
" style="fill:none;stroke:#4c4c4c;stroke-linecap:round;stroke-width:2.25;"/>
   </g>
   <g id="line2d_79">
    <path clip-path="url(#p048169ec82)" d="M 362.761714 66.673279 
L 427.692623 66.673279 
" style="fill:none;stroke:#4c4c4c;stroke-linecap:round;stroke-width:2.25;"/>
   </g>
   <g id="line2d_80">
    <path clip-path="url(#p048169ec82)" d="M 443.92535 222.456641 
L 508.856259 222.456641 
" style="fill:none;stroke:#4c4c4c;stroke-linecap:round;stroke-width:2.25;"/>
   </g>
   <g id="line2d_81">
    <path clip-path="url(#p048169ec82)" d="M 525.088986 271.204614 
L 590.019896 271.204614 
" style="fill:none;stroke:#4c4c4c;stroke-linecap:round;stroke-width:2.25;"/>
   </g>
   <g id="line2d_82">
    <path clip-path="url(#p048169ec82)" d="M 606.252623 144.308725 
L 671.183532 144.308725 
" style="fill:none;stroke:#4c4c4c;stroke-linecap:round;stroke-width:2.25;"/>
   </g>
   <g id="line2d_83">
    <path clip-path="url(#p048169ec82)" d="M 687.416259 212.6037 
L 752.347168 212.6037 
" style="fill:none;stroke:#4c4c4c;stroke-linecap:round;stroke-width:2.25;"/>
   </g>
   <g id="line2d_84">
    <path clip-path="url(#p048169ec82)" d="M 768.579896 183.212782 
L 833.510805 183.212782 
" style="fill:none;stroke:#4c4c4c;stroke-linecap:round;stroke-width:2.25;"/>
   </g>
   <g id="line2d_85">
    <path clip-path="url(#p048169ec82)" d="M 849.743532 176.110997 
L 914.674441 176.110997 
" style="fill:none;stroke:#4c4c4c;stroke-linecap:round;stroke-width:2.25;"/>
   </g>
   <g id="line2d_86">
    <path clip-path="url(#p048169ec82)" d="M 930.907168 153.092856 
L 995.838077 153.092856 
" style="fill:none;stroke:#4c4c4c;stroke-linecap:round;stroke-width:2.25;"/>
   </g>
   <g id="patch_16">
    <path d="M 111.154441 293.28368 
L 111.154441 21.48368 
" style="fill:none;stroke:#ffffff;stroke-linecap:square;stroke-linejoin:miter;stroke-width:1.875;"/>
   </g>
   <g id="patch_17">
    <path d="M 1003.954441 293.28368 
L 1003.954441 21.48368 
" style="fill:none;stroke:#ffffff;stroke-linecap:square;stroke-linejoin:miter;stroke-width:1.875;"/>
   </g>
   <g id="patch_18">
    <path d="M 111.154441 293.28368 
L 1003.954441 293.28368 
" style="fill:none;stroke:#ffffff;stroke-linecap:square;stroke-linejoin:miter;stroke-width:1.875;"/>
   </g>
   <g id="patch_19">
    <path d="M 111.154441 21.48368 
L 1003.954441 21.48368 
" style="fill:none;stroke:#ffffff;stroke-linecap:square;stroke-linejoin:miter;stroke-width:1.875;"/>
   </g>
   <g id="legend_1">
    <g id="patch_20">
     <path d="M 121.549441 285.85868 
L 216.085933 285.85868 
Q 219.055933 285.85868 219.055933 282.88868 
L 219.055933 240.779648 
Q 219.055933 237.809648 216.085933 237.809648 
L 121.549441 237.809648 
Q 118.579441 237.809648 118.579441 240.779648 
L 118.579441 282.88868 
Q 118.579441 285.85868 121.549441 285.85868 
z
" style="fill:#eaeaf2;opacity:0.8;stroke:#cccccc;stroke-linejoin:miter;stroke-width:1.5;"/>
    </g>
    <g id="patch_21">
     <path d="M 124.519441 255.033328 
L 154.219441 255.033328 
L 154.219441 244.638328 
L 124.519441 244.638328 
z
" style="fill:#5875a4;stroke:#4c4c4c;stroke-linejoin:miter;stroke-width:1.125;"/>
    </g>
    <g id="text_23">
     <!-- MH -->
     <defs>
      <path d="M 9.8125 72.90625 
L 19.671875 72.90625 
L 19.671875 43.015625 
L 55.515625 43.015625 
L 55.515625 72.90625 
L 65.375 72.90625 
L 65.375 0 
L 55.515625 0 
L 55.515625 34.71875 
L 19.671875 34.71875 
L 19.671875 0 
L 9.8125 0 
z
" id="DejaVuSans-72"/>
     </defs>
     <g style="fill:#262626;" transform="translate(166.099441 255.033328)scale(0.1485 -0.1485)">
      <use xlink:href="#DejaVuSans-77"/>
      <use x="86.279297" xlink:href="#DejaVuSans-72"/>
     </g>
    </g>
    <g id="patch_22">
     <path d="M 124.519441 276.830344 
L 154.219441 276.830344 
L 154.219441 266.435344 
L 124.519441 266.435344 
z
" style="fill:#cc8963;stroke:#4c4c4c;stroke-linejoin:miter;stroke-width:1.125;"/>
    </g>
    <g id="text_24">
     <!-- HH-PC -->
     <defs>
      <path d="M 4.890625 31.390625 
L 31.203125 31.390625 
L 31.203125 23.390625 
L 4.890625 23.390625 
z
" id="DejaVuSans-45"/>
      <path d="M 64.40625 67.28125 
L 64.40625 56.890625 
Q 59.421875 61.53125 53.78125 63.8125 
Q 48.140625 66.109375 41.796875 66.109375 
Q 29.296875 66.109375 22.65625 58.46875 
Q 16.015625 50.828125 16.015625 36.375 
Q 16.015625 21.96875 22.65625 14.328125 
Q 29.296875 6.6875 41.796875 6.6875 
Q 48.140625 6.6875 53.78125 8.984375 
Q 59.421875 11.28125 64.40625 15.921875 
L 64.40625 5.609375 
Q 59.234375 2.09375 53.4375 0.328125 
Q 47.65625 -1.421875 41.21875 -1.421875 
Q 24.65625 -1.421875 15.125 8.703125 
Q 5.609375 18.84375 5.609375 36.375 
Q 5.609375 53.953125 15.125 64.078125 
Q 24.65625 74.21875 41.21875 74.21875 
Q 47.75 74.21875 53.53125 72.484375 
Q 59.328125 70.75 64.40625 67.28125 
z
" id="DejaVuSans-67"/>
     </defs>
     <g style="fill:#262626;" transform="translate(166.099441 276.830344)scale(0.1485 -0.1485)">
      <use xlink:href="#DejaVuSans-72"/>
      <use x="75.195312" xlink:href="#DejaVuSans-72"/>
      <use x="150.390625" xlink:href="#DejaVuSans-45"/>
      <use x="186.474609" xlink:href="#DejaVuSans-80"/>
      <use x="246.777344" xlink:href="#DejaVuSans-67"/>
     </g>
    </g>
   </g>
  </g>
 </g>
 <defs>
  <clipPath id="p048169ec82">
   <rect height="271.8" width="892.8" x="111.154441" y="21.48368"/>
  </clipPath>
 </defs>
</svg>
