<?xml version="1.0" encoding="utf-8" standalone="no"?>
<!DOCTYPE svg PUBLIC "-//W3C//DTD SVG 1.1//EN"
  "http://www.w3.org/Graphics/SVG/1.1/DTD/svg11.dtd">
<!-- Created with matplotlib (https://matplotlib.org/) -->
<svg height="347.034258pt" version="1.1" viewBox="0 0 962.994703 347.034258" width="962.994703pt" xmlns="http://www.w3.org/2000/svg" xmlns:xlink="http://www.w3.org/1999/xlink">
 <defs>
  <style type="text/css">
*{stroke-linecap:butt;stroke-linejoin:round;}
  </style>
 </defs>
 <g id="figure_1">
  <g id="patch_1">
   <path d="M 0 347.034258 
L 962.994703 347.034258 
L 962.994703 0 
L 0 0 
z
" style="fill:#ffffff;"/>
  </g>
  <g id="axes_1">
   <g id="patch_2">
    <path d="M 62.994703 293.28368 
L 955.794703 293.28368 
L 955.794703 21.48368 
L 62.994703 21.48368 
z
" style="fill:#eaeaf2;"/>
   </g>
   <g id="matplotlib.axis_1">
    <g id="xtick_1">
     <g id="line2d_1">
      <path clip-path="url(#p555a93ee53)" d="M 103.576521 293.28368 
L 103.576521 21.48368 
" style="fill:none;stroke:#ffffff;stroke-linecap:round;stroke-width:1.5;"/>
     </g>
     <g id="text_1">
      <!-- 0 -->
      <defs>
       <path d="M 31.78125 66.40625 
Q 24.171875 66.40625 20.328125 58.90625 
Q 16.5 51.421875 16.5 36.375 
Q 16.5 21.390625 20.328125 13.890625 
Q 24.171875 6.390625 31.78125 6.390625 
Q 39.453125 6.390625 43.28125 13.890625 
Q 47.125 21.390625 47.125 36.375 
Q 47.125 51.421875 43.28125 58.90625 
Q 39.453125 66.40625 31.78125 66.40625 
z
M 31.78125 74.21875 
Q 44.046875 74.21875 50.515625 64.515625 
Q 56.984375 54.828125 56.984375 36.375 
Q 56.984375 17.96875 50.515625 8.265625 
Q 44.046875 -1.421875 31.78125 -1.421875 
Q 19.53125 -1.421875 13.0625 8.265625 
Q 6.59375 17.96875 6.59375 36.375 
Q 6.59375 54.828125 13.0625 64.515625 
Q 19.53125 74.21875 31.78125 74.21875 
z
" id="DejaVuSans-48"/>
      </defs>
      <g style="fill:#262626;" transform="translate(98.852365 317.067359)scale(0.1485 -0.1485)">
       <use xlink:href="#DejaVuSans-48"/>
      </g>
     </g>
    </g>
    <g id="xtick_2">
     <g id="line2d_2">
      <path clip-path="url(#p555a93ee53)" d="M 294.101489 293.28368 
L 294.101489 21.48368 
" style="fill:none;stroke:#ffffff;stroke-linecap:round;stroke-width:1.5;"/>
     </g>
     <g id="text_2">
      <!-- 50 -->
      <defs>
       <path d="M 10.796875 72.90625 
L 49.515625 72.90625 
L 49.515625 64.59375 
L 19.828125 64.59375 
L 19.828125 46.734375 
Q 21.96875 47.46875 24.109375 47.828125 
Q 26.265625 48.1875 28.421875 48.1875 
Q 40.625 48.1875 47.75 41.5 
Q 54.890625 34.8125 54.890625 23.390625 
Q 54.890625 11.625 47.5625 5.09375 
Q 40.234375 -1.421875 26.90625 -1.421875 
Q 22.3125 -1.421875 17.546875 -0.640625 
Q 12.796875 0.140625 7.71875 1.703125 
L 7.71875 11.625 
Q 12.109375 9.234375 16.796875 8.0625 
Q 21.484375 6.890625 26.703125 6.890625 
Q 35.15625 6.890625 40.078125 11.328125 
Q 45.015625 15.765625 45.015625 23.390625 
Q 45.015625 31 40.078125 35.4375 
Q 35.15625 39.890625 26.703125 39.890625 
Q 22.75 39.890625 18.8125 39.015625 
Q 14.890625 38.140625 10.796875 36.28125 
z
" id="DejaVuSans-53"/>
      </defs>
      <g style="fill:#262626;" transform="translate(284.653177 317.067359)scale(0.1485 -0.1485)">
       <use xlink:href="#DejaVuSans-53"/>
       <use x="63.623047" xlink:href="#DejaVuSans-48"/>
      </g>
     </g>
    </g>
    <g id="xtick_3">
     <g id="line2d_3">
      <path clip-path="url(#p555a93ee53)" d="M 484.626457 293.28368 
L 484.626457 21.48368 
" style="fill:none;stroke:#ffffff;stroke-linecap:round;stroke-width:1.5;"/>
     </g>
     <g id="text_3">
      <!-- 100 -->
      <defs>
       <path d="M 12.40625 8.296875 
L 28.515625 8.296875 
L 28.515625 63.921875 
L 10.984375 60.40625 
L 10.984375 69.390625 
L 28.421875 72.90625 
L 38.28125 72.90625 
L 38.28125 8.296875 
L 54.390625 8.296875 
L 54.390625 0 
L 12.40625 0 
z
" id="DejaVuSans-49"/>
      </defs>
      <g style="fill:#262626;" transform="translate(470.453989 317.067359)scale(0.1485 -0.1485)">
       <use xlink:href="#DejaVuSans-49"/>
       <use x="63.623047" xlink:href="#DejaVuSans-48"/>
       <use x="127.246094" xlink:href="#DejaVuSans-48"/>
      </g>
     </g>
    </g>
    <g id="xtick_4">
     <g id="line2d_4">
      <path clip-path="url(#p555a93ee53)" d="M 675.151425 293.28368 
L 675.151425 21.48368 
" style="fill:none;stroke:#ffffff;stroke-linecap:round;stroke-width:1.5;"/>
     </g>
     <g id="text_4">
      <!-- 150 -->
      <g style="fill:#262626;" transform="translate(660.978957 317.067359)scale(0.1485 -0.1485)">
       <use xlink:href="#DejaVuSans-49"/>
       <use x="63.623047" xlink:href="#DejaVuSans-53"/>
       <use x="127.246094" xlink:href="#DejaVuSans-48"/>
      </g>
     </g>
    </g>
    <g id="xtick_5">
     <g id="line2d_5">
      <path clip-path="url(#p555a93ee53)" d="M 865.676393 293.28368 
L 865.676393 21.48368 
" style="fill:none;stroke:#ffffff;stroke-linecap:round;stroke-width:1.5;"/>
     </g>
     <g id="text_5">
      <!-- 200 -->
      <defs>
       <path d="M 19.1875 8.296875 
L 53.609375 8.296875 
L 53.609375 0 
L 7.328125 0 
L 7.328125 8.296875 
Q 12.9375 14.109375 22.625 23.890625 
Q 32.328125 33.6875 34.8125 36.53125 
Q 39.546875 41.84375 41.421875 45.53125 
Q 43.3125 49.21875 43.3125 52.78125 
Q 43.3125 58.59375 39.234375 62.25 
Q 35.15625 65.921875 28.609375 65.921875 
Q 23.96875 65.921875 18.8125 64.3125 
Q 13.671875 62.703125 7.8125 59.421875 
L 7.8125 69.390625 
Q 13.765625 71.78125 18.9375 73 
Q 24.125 74.21875 28.421875 74.21875 
Q 39.75 74.21875 46.484375 68.546875 
Q 53.21875 62.890625 53.21875 53.421875 
Q 53.21875 48.921875 51.53125 44.890625 
Q 49.859375 40.875 45.40625 35.40625 
Q 44.1875 33.984375 37.640625 27.21875 
Q 31.109375 20.453125 19.1875 8.296875 
z
" id="DejaVuSans-50"/>
      </defs>
      <g style="fill:#262626;" transform="translate(851.503925 317.067359)scale(0.1485 -0.1485)">
       <use xlink:href="#DejaVuSans-50"/>
       <use x="63.623047" xlink:href="#DejaVuSans-48"/>
       <use x="127.246094" xlink:href="#DejaVuSans-48"/>
      </g>
     </g>
    </g>
    <g id="text_6">
     <!-- iteration -->
     <defs>
      <path d="M 9.421875 54.6875 
L 18.40625 54.6875 
L 18.40625 0 
L 9.421875 0 
z
M 9.421875 75.984375 
L 18.40625 75.984375 
L 18.40625 64.59375 
L 9.421875 64.59375 
z
" id="DejaVuSans-105"/>
      <path d="M 18.3125 70.21875 
L 18.3125 54.6875 
L 36.8125 54.6875 
L 36.8125 47.703125 
L 18.3125 47.703125 
L 18.3125 18.015625 
Q 18.3125 11.328125 20.140625 9.421875 
Q 21.96875 7.515625 27.59375 7.515625 
L 36.8125 7.515625 
L 36.8125 0 
L 27.59375 0 
Q 17.1875 0 13.234375 3.875 
Q 9.28125 7.765625 9.28125 18.015625 
L 9.28125 47.703125 
L 2.6875 47.703125 
L 2.6875 54.6875 
L 9.28125 54.6875 
L 9.28125 70.21875 
z
" id="DejaVuSans-116"/>
      <path d="M 56.203125 29.59375 
L 56.203125 25.203125 
L 14.890625 25.203125 
Q 15.484375 15.921875 20.484375 11.0625 
Q 25.484375 6.203125 34.421875 6.203125 
Q 39.59375 6.203125 44.453125 7.46875 
Q 49.3125 8.734375 54.109375 11.28125 
L 54.109375 2.78125 
Q 49.265625 0.734375 44.1875 -0.34375 
Q 39.109375 -1.421875 33.890625 -1.421875 
Q 20.796875 -1.421875 13.15625 6.1875 
Q 5.515625 13.8125 5.515625 26.8125 
Q 5.515625 40.234375 12.765625 48.109375 
Q 20.015625 56 32.328125 56 
Q 43.359375 56 49.78125 48.890625 
Q 56.203125 41.796875 56.203125 29.59375 
z
M 47.21875 32.234375 
Q 47.125 39.59375 43.09375 43.984375 
Q 39.0625 48.390625 32.421875 48.390625 
Q 24.90625 48.390625 20.390625 44.140625 
Q 15.875 39.890625 15.1875 32.171875 
z
" id="DejaVuSans-101"/>
      <path d="M 41.109375 46.296875 
Q 39.59375 47.171875 37.8125 47.578125 
Q 36.03125 48 33.890625 48 
Q 26.265625 48 22.1875 43.046875 
Q 18.109375 38.09375 18.109375 28.8125 
L 18.109375 0 
L 9.078125 0 
L 9.078125 54.6875 
L 18.109375 54.6875 
L 18.109375 46.1875 
Q 20.953125 51.171875 25.484375 53.578125 
Q 30.03125 56 36.53125 56 
Q 37.453125 56 38.578125 55.875 
Q 39.703125 55.765625 41.0625 55.515625 
z
" id="DejaVuSans-114"/>
      <path d="M 34.28125 27.484375 
Q 23.390625 27.484375 19.1875 25 
Q 14.984375 22.515625 14.984375 16.5 
Q 14.984375 11.71875 18.140625 8.90625 
Q 21.296875 6.109375 26.703125 6.109375 
Q 34.1875 6.109375 38.703125 11.40625 
Q 43.21875 16.703125 43.21875 25.484375 
L 43.21875 27.484375 
z
M 52.203125 31.203125 
L 52.203125 0 
L 43.21875 0 
L 43.21875 8.296875 
Q 40.140625 3.328125 35.546875 0.953125 
Q 30.953125 -1.421875 24.3125 -1.421875 
Q 15.921875 -1.421875 10.953125 3.296875 
Q 6 8.015625 6 15.921875 
Q 6 25.140625 12.171875 29.828125 
Q 18.359375 34.515625 30.609375 34.515625 
L 43.21875 34.515625 
L 43.21875 35.40625 
Q 43.21875 41.609375 39.140625 45 
Q 35.0625 48.390625 27.6875 48.390625 
Q 23 48.390625 18.546875 47.265625 
Q 14.109375 46.140625 10.015625 43.890625 
L 10.015625 52.203125 
Q 14.9375 54.109375 19.578125 55.046875 
Q 24.21875 56 28.609375 56 
Q 40.484375 56 46.34375 49.84375 
Q 52.203125 43.703125 52.203125 31.203125 
z
" id="DejaVuSans-97"/>
      <path d="M 30.609375 48.390625 
Q 23.390625 48.390625 19.1875 42.75 
Q 14.984375 37.109375 14.984375 27.296875 
Q 14.984375 17.484375 19.15625 11.84375 
Q 23.34375 6.203125 30.609375 6.203125 
Q 37.796875 6.203125 41.984375 11.859375 
Q 46.1875 17.53125 46.1875 27.296875 
Q 46.1875 37.015625 41.984375 42.703125 
Q 37.796875 48.390625 30.609375 48.390625 
z
M 30.609375 56 
Q 42.328125 56 49.015625 48.375 
Q 55.71875 40.765625 55.71875 27.296875 
Q 55.71875 13.875 49.015625 6.21875 
Q 42.328125 -1.421875 30.609375 -1.421875 
Q 18.84375 -1.421875 12.171875 6.21875 
Q 5.515625 13.875 5.515625 27.296875 
Q 5.515625 40.765625 12.171875 48.375 
Q 18.84375 56 30.609375 56 
z
" id="DejaVuSans-111"/>
      <path d="M 54.890625 33.015625 
L 54.890625 0 
L 45.90625 0 
L 45.90625 32.71875 
Q 45.90625 40.484375 42.875 44.328125 
Q 39.84375 48.1875 33.796875 48.1875 
Q 26.515625 48.1875 22.3125 43.546875 
Q 18.109375 38.921875 18.109375 30.90625 
L 18.109375 0 
L 9.078125 0 
L 9.078125 54.6875 
L 18.109375 54.6875 
L 18.109375 46.1875 
Q 21.34375 51.125 25.703125 53.5625 
Q 30.078125 56 35.796875 56 
Q 45.21875 56 50.046875 50.171875 
Q 54.890625 44.34375 54.890625 33.015625 
z
" id="DejaVuSans-110"/>
     </defs>
     <g style="fill:#262626;" transform="translate(475.176 336.465164)scale(0.162 -0.162)">
      <use xlink:href="#DejaVuSans-105"/>
      <use x="27.783203" xlink:href="#DejaVuSans-116"/>
      <use x="66.992188" xlink:href="#DejaVuSans-101"/>
      <use x="128.515625" xlink:href="#DejaVuSans-114"/>
      <use x="169.628906" xlink:href="#DejaVuSans-97"/>
      <use x="230.908203" xlink:href="#DejaVuSans-116"/>
      <use x="270.117188" xlink:href="#DejaVuSans-105"/>
      <use x="297.900391" xlink:href="#DejaVuSans-111"/>
      <use x="359.082031" xlink:href="#DejaVuSans-110"/>
     </g>
    </g>
   </g>
   <g id="matplotlib.axis_2">
    <g id="ytick_1">
     <g id="line2d_6">
      <path clip-path="url(#p555a93ee53)" d="M 62.994703 293.28368 
L 955.794703 293.28368 
" style="fill:none;stroke:#ffffff;stroke-linecap:round;stroke-width:1.5;"/>
     </g>
     <g id="text_7">
      <!-- 0.6 -->
      <defs>
       <path d="M 10.6875 12.40625 
L 21 12.40625 
L 21 0 
L 10.6875 0 
z
" id="DejaVuSans-46"/>
       <path d="M 33.015625 40.375 
Q 26.375 40.375 22.484375 35.828125 
Q 18.609375 31.296875 18.609375 23.390625 
Q 18.609375 15.53125 22.484375 10.953125 
Q 26.375 6.390625 33.015625 6.390625 
Q 39.65625 6.390625 43.53125 10.953125 
Q 47.40625 15.53125 47.40625 23.390625 
Q 47.40625 31.296875 43.53125 35.828125 
Q 39.65625 40.375 33.015625 40.375 
z
M 52.59375 71.296875 
L 52.59375 62.3125 
Q 48.875 64.0625 45.09375 64.984375 
Q 41.3125 65.921875 37.59375 65.921875 
Q 27.828125 65.921875 22.671875 59.328125 
Q 17.53125 52.734375 16.796875 39.40625 
Q 19.671875 43.65625 24.015625 45.921875 
Q 28.375 48.1875 33.59375 48.1875 
Q 44.578125 48.1875 50.953125 41.515625 
Q 57.328125 34.859375 57.328125 23.390625 
Q 57.328125 12.15625 50.6875 5.359375 
Q 44.046875 -1.421875 33.015625 -1.421875 
Q 20.359375 -1.421875 13.671875 8.265625 
Q 6.984375 17.96875 6.984375 36.375 
Q 6.984375 53.65625 15.1875 63.9375 
Q 23.390625 74.21875 37.203125 74.21875 
Q 40.921875 74.21875 44.703125 73.484375 
Q 48.484375 72.75 52.59375 71.296875 
z
" id="DejaVuSans-54"/>
      </defs>
      <g style="fill:#262626;" transform="translate(26.878563 298.92552)scale(0.1485 -0.1485)">
       <use xlink:href="#DejaVuSans-48"/>
       <use x="63.623047" xlink:href="#DejaVuSans-46"/>
       <use x="95.410156" xlink:href="#DejaVuSans-54"/>
      </g>
     </g>
    </g>
    <g id="ytick_2">
     <g id="line2d_7">
      <path clip-path="url(#p555a93ee53)" d="M 62.994703 254.455108 
L 955.794703 254.455108 
" style="fill:none;stroke:#ffffff;stroke-linecap:round;stroke-width:1.5;"/>
     </g>
     <g id="text_8">
      <!-- 0.8 -->
      <defs>
       <path d="M 31.78125 34.625 
Q 24.75 34.625 20.71875 30.859375 
Q 16.703125 27.09375 16.703125 20.515625 
Q 16.703125 13.921875 20.71875 10.15625 
Q 24.75 6.390625 31.78125 6.390625 
Q 38.8125 6.390625 42.859375 10.171875 
Q 46.921875 13.96875 46.921875 20.515625 
Q 46.921875 27.09375 42.890625 30.859375 
Q 38.875 34.625 31.78125 34.625 
z
M 21.921875 38.8125 
Q 15.578125 40.375 12.03125 44.71875 
Q 8.5 49.078125 8.5 55.328125 
Q 8.5 64.0625 14.71875 69.140625 
Q 20.953125 74.21875 31.78125 74.21875 
Q 42.671875 74.21875 48.875 69.140625 
Q 55.078125 64.0625 55.078125 55.328125 
Q 55.078125 49.078125 51.53125 44.71875 
Q 48 40.375 41.703125 38.8125 
Q 48.828125 37.15625 52.796875 32.3125 
Q 56.78125 27.484375 56.78125 20.515625 
Q 56.78125 9.90625 50.3125 4.234375 
Q 43.84375 -1.421875 31.78125 -1.421875 
Q 19.734375 -1.421875 13.25 4.234375 
Q 6.78125 9.90625 6.78125 20.515625 
Q 6.78125 27.484375 10.78125 32.3125 
Q 14.796875 37.15625 21.921875 38.8125 
z
M 18.3125 54.390625 
Q 18.3125 48.734375 21.84375 45.5625 
Q 25.390625 42.390625 31.78125 42.390625 
Q 38.140625 42.390625 41.71875 45.5625 
Q 45.3125 48.734375 45.3125 54.390625 
Q 45.3125 60.0625 41.71875 63.234375 
Q 38.140625 66.40625 31.78125 66.40625 
Q 25.390625 66.40625 21.84375 63.234375 
Q 18.3125 60.0625 18.3125 54.390625 
z
" id="DejaVuSans-56"/>
      </defs>
      <g style="fill:#262626;" transform="translate(26.878563 260.096948)scale(0.1485 -0.1485)">
       <use xlink:href="#DejaVuSans-48"/>
       <use x="63.623047" xlink:href="#DejaVuSans-46"/>
       <use x="95.410156" xlink:href="#DejaVuSans-56"/>
      </g>
     </g>
    </g>
    <g id="ytick_3">
     <g id="line2d_8">
      <path clip-path="url(#p555a93ee53)" d="M 62.994703 215.626537 
L 955.794703 215.626537 
" style="fill:none;stroke:#ffffff;stroke-linecap:round;stroke-width:1.5;"/>
     </g>
     <g id="text_9">
      <!-- 1.0 -->
      <g style="fill:#262626;" transform="translate(26.878563 221.268377)scale(0.1485 -0.1485)">
       <use xlink:href="#DejaVuSans-49"/>
       <use x="63.623047" xlink:href="#DejaVuSans-46"/>
       <use x="95.410156" xlink:href="#DejaVuSans-48"/>
      </g>
     </g>
    </g>
    <g id="ytick_4">
     <g id="line2d_9">
      <path clip-path="url(#p555a93ee53)" d="M 62.994703 176.797965 
L 955.794703 176.797965 
" style="fill:none;stroke:#ffffff;stroke-linecap:round;stroke-width:1.5;"/>
     </g>
     <g id="text_10">
      <!-- 1.2 -->
      <g style="fill:#262626;" transform="translate(26.878563 182.439805)scale(0.1485 -0.1485)">
       <use xlink:href="#DejaVuSans-49"/>
       <use x="63.623047" xlink:href="#DejaVuSans-46"/>
       <use x="95.410156" xlink:href="#DejaVuSans-50"/>
      </g>
     </g>
    </g>
    <g id="ytick_5">
     <g id="line2d_10">
      <path clip-path="url(#p555a93ee53)" d="M 62.994703 137.969394 
L 955.794703 137.969394 
" style="fill:none;stroke:#ffffff;stroke-linecap:round;stroke-width:1.5;"/>
     </g>
     <g id="text_11">
      <!-- 1.4 -->
      <defs>
       <path d="M 37.796875 64.3125 
L 12.890625 25.390625 
L 37.796875 25.390625 
z
M 35.203125 72.90625 
L 47.609375 72.90625 
L 47.609375 25.390625 
L 58.015625 25.390625 
L 58.015625 17.1875 
L 47.609375 17.1875 
L 47.609375 0 
L 37.796875 0 
L 37.796875 17.1875 
L 4.890625 17.1875 
L 4.890625 26.703125 
z
" id="DejaVuSans-52"/>
      </defs>
      <g style="fill:#262626;" transform="translate(26.878563 143.611234)scale(0.1485 -0.1485)">
       <use xlink:href="#DejaVuSans-49"/>
       <use x="63.623047" xlink:href="#DejaVuSans-46"/>
       <use x="95.410156" xlink:href="#DejaVuSans-52"/>
      </g>
     </g>
    </g>
    <g id="ytick_6">
     <g id="line2d_11">
      <path clip-path="url(#p555a93ee53)" d="M 62.994703 99.140823 
L 955.794703 99.140823 
" style="fill:none;stroke:#ffffff;stroke-linecap:round;stroke-width:1.5;"/>
     </g>
     <g id="text_12">
      <!-- 1.6 -->
      <g style="fill:#262626;" transform="translate(26.878563 104.782662)scale(0.1485 -0.1485)">
       <use xlink:href="#DejaVuSans-49"/>
       <use x="63.623047" xlink:href="#DejaVuSans-46"/>
       <use x="95.410156" xlink:href="#DejaVuSans-54"/>
      </g>
     </g>
    </g>
    <g id="ytick_7">
     <g id="line2d_12">
      <path clip-path="url(#p555a93ee53)" d="M 62.994703 60.312251 
L 955.794703 60.312251 
" style="fill:none;stroke:#ffffff;stroke-linecap:round;stroke-width:1.5;"/>
     </g>
     <g id="text_13">
      <!-- 1.8 -->
      <g style="fill:#262626;" transform="translate(26.878563 65.954091)scale(0.1485 -0.1485)">
       <use xlink:href="#DejaVuSans-49"/>
       <use x="63.623047" xlink:href="#DejaVuSans-46"/>
       <use x="95.410156" xlink:href="#DejaVuSans-56"/>
      </g>
     </g>
    </g>
    <g id="ytick_8">
     <g id="line2d_13">
      <path clip-path="url(#p555a93ee53)" d="M 62.994703 21.48368 
L 955.794703 21.48368 
" style="fill:none;stroke:#ffffff;stroke-linecap:round;stroke-width:1.5;"/>
     </g>
     <g id="text_14">
      <!-- 2.0 -->
      <g style="fill:#262626;" transform="translate(26.878563 27.12552)scale(0.1485 -0.1485)">
       <use xlink:href="#DejaVuSans-50"/>
       <use x="63.623047" xlink:href="#DejaVuSans-46"/>
       <use x="95.410156" xlink:href="#DejaVuSans-48"/>
      </g>
     </g>
    </g>
    <g id="text_15">
     <!-- objective -->
     <defs>
      <path d="M 48.6875 27.296875 
Q 48.6875 37.203125 44.609375 42.84375 
Q 40.53125 48.484375 33.40625 48.484375 
Q 26.265625 48.484375 22.1875 42.84375 
Q 18.109375 37.203125 18.109375 27.296875 
Q 18.109375 17.390625 22.1875 11.75 
Q 26.265625 6.109375 33.40625 6.109375 
Q 40.53125 6.109375 44.609375 11.75 
Q 48.6875 17.390625 48.6875 27.296875 
z
M 18.109375 46.390625 
Q 20.953125 51.265625 25.265625 53.625 
Q 29.59375 56 35.59375 56 
Q 45.5625 56 51.78125 48.09375 
Q 58.015625 40.1875 58.015625 27.296875 
Q 58.015625 14.40625 51.78125 6.484375 
Q 45.5625 -1.421875 35.59375 -1.421875 
Q 29.59375 -1.421875 25.265625 0.953125 
Q 20.953125 3.328125 18.109375 8.203125 
L 18.109375 0 
L 9.078125 0 
L 9.078125 75.984375 
L 18.109375 75.984375 
z
" id="DejaVuSans-98"/>
      <path d="M 9.421875 54.6875 
L 18.40625 54.6875 
L 18.40625 -0.984375 
Q 18.40625 -11.421875 14.421875 -16.109375 
Q 10.453125 -20.796875 1.609375 -20.796875 
L -1.8125 -20.796875 
L -1.8125 -13.1875 
L 0.59375 -13.1875 
Q 5.71875 -13.1875 7.5625 -10.8125 
Q 9.421875 -8.453125 9.421875 -0.984375 
z
M 9.421875 75.984375 
L 18.40625 75.984375 
L 18.40625 64.59375 
L 9.421875 64.59375 
z
" id="DejaVuSans-106"/>
      <path d="M 48.78125 52.59375 
L 48.78125 44.1875 
Q 44.96875 46.296875 41.140625 47.34375 
Q 37.3125 48.390625 33.40625 48.390625 
Q 24.65625 48.390625 19.8125 42.84375 
Q 14.984375 37.3125 14.984375 27.296875 
Q 14.984375 17.28125 19.8125 11.734375 
Q 24.65625 6.203125 33.40625 6.203125 
Q 37.3125 6.203125 41.140625 7.25 
Q 44.96875 8.296875 48.78125 10.40625 
L 48.78125 2.09375 
Q 45.015625 0.34375 40.984375 -0.53125 
Q 36.96875 -1.421875 32.421875 -1.421875 
Q 20.0625 -1.421875 12.78125 6.34375 
Q 5.515625 14.109375 5.515625 27.296875 
Q 5.515625 40.671875 12.859375 48.328125 
Q 20.21875 56 33.015625 56 
Q 37.15625 56 41.109375 55.140625 
Q 45.0625 54.296875 48.78125 52.59375 
z
" id="DejaVuSans-99"/>
      <path d="M 2.984375 54.6875 
L 12.5 54.6875 
L 29.59375 8.796875 
L 46.6875 54.6875 
L 56.203125 54.6875 
L 35.6875 0 
L 23.484375 0 
z
" id="DejaVuSans-118"/>
     </defs>
     <g style="fill:#262626;" transform="translate(19.509469 194.374102)rotate(-90)scale(0.162 -0.162)">
      <use xlink:href="#DejaVuSans-111"/>
      <use x="61.181641" xlink:href="#DejaVuSans-98"/>
      <use x="124.658203" xlink:href="#DejaVuSans-106"/>
      <use x="152.441406" xlink:href="#DejaVuSans-101"/>
      <use x="213.964844" xlink:href="#DejaVuSans-99"/>
      <use x="268.945312" xlink:href="#DejaVuSans-116"/>
      <use x="308.154297" xlink:href="#DejaVuSans-105"/>
      <use x="335.9375" xlink:href="#DejaVuSans-118"/>
      <use x="395.117188" xlink:href="#DejaVuSans-101"/>
     </g>
    </g>
    <g id="text_16">
     <!-- 1e9 -->
     <defs>
      <path d="M 10.984375 1.515625 
L 10.984375 10.5 
Q 14.703125 8.734375 18.5 7.8125 
Q 22.3125 6.890625 25.984375 6.890625 
Q 35.75 6.890625 40.890625 13.453125 
Q 46.046875 20.015625 46.78125 33.40625 
Q 43.953125 29.203125 39.59375 26.953125 
Q 35.25 24.703125 29.984375 24.703125 
Q 19.046875 24.703125 12.671875 31.3125 
Q 6.296875 37.9375 6.296875 49.421875 
Q 6.296875 60.640625 12.9375 67.421875 
Q 19.578125 74.21875 30.609375 74.21875 
Q 43.265625 74.21875 49.921875 64.515625 
Q 56.59375 54.828125 56.59375 36.375 
Q 56.59375 19.140625 48.40625 8.859375 
Q 40.234375 -1.421875 26.421875 -1.421875 
Q 22.703125 -1.421875 18.890625 -0.6875 
Q 15.09375 0.046875 10.984375 1.515625 
z
M 30.609375 32.421875 
Q 37.25 32.421875 41.125 36.953125 
Q 45.015625 41.5 45.015625 49.421875 
Q 45.015625 57.28125 41.125 61.84375 
Q 37.25 66.40625 30.609375 66.40625 
Q 23.96875 66.40625 20.09375 61.84375 
Q 16.21875 57.28125 16.21875 49.421875 
Q 16.21875 41.5 20.09375 36.953125 
Q 23.96875 32.421875 30.609375 32.421875 
z
" id="DejaVuSans-57"/>
     </defs>
     <g style="fill:#262626;" transform="translate(62.994703 18.48368)scale(0.1485 -0.1485)">
      <use xlink:href="#DejaVuSans-49"/>
      <use x="63.623047" xlink:href="#DejaVuSans-101"/>
      <use x="125.146484" xlink:href="#DejaVuSans-57"/>
     </g>
    </g>
   </g>
   <g id="PolyCollection_1">
    <defs>
     <path d="M 103.576521 -485.416552 
L 103.576521 -478.537136 
L 107.387021 -455.115747 
L 111.19752 -437.839239 
L 115.008019 -438.359018 
L 118.818519 -431.936538 
L 122.629018 -423.170305 
L 126.439517 -418.210297 
L 130.250017 -417.944804 
L 134.060516 -417.944804 
L 137.871016 -417.944804 
L 141.681515 -415.861199 
L 145.492014 -411.8494 
L 149.302514 -400.376327 
L 153.113013 -400.040733 
L 156.923512 -399.202959 
L 160.734012 -396.130961 
L 164.544511 -396.121016 
L 168.35501 -394.610408 
L 172.16551 -392.085031 
L 175.976009 -386.759682 
L 179.786509 -386.179191 
L 183.597008 -384.017532 
L 187.407507 -379.702903 
L 191.218007 -377.175807 
L 195.028506 -376.107306 
L 198.839005 -375.17321 
L 202.649505 -369.005254 
L 206.460004 -365.805363 
L 210.270503 -364.487376 
L 214.081003 -363.862876 
L 217.891502 -363.862876 
L 221.702001 -358.354033 
L 225.512501 -356.870089 
L 229.323 -356.602172 
L 233.1335 -354.481874 
L 236.943999 -352.365346 
L 240.754498 -351.851413 
L 244.564998 -347.342352 
L 248.375497 -345.162327 
L 252.185996 -341.019714 
L 255.996496 -336.802699 
L 259.806995 -336.784876 
L 263.617494 -335.925395 
L 267.427994 -333.585571 
L 271.238493 -333.34337 
L 275.048992 -330.328804 
L 278.859492 -329.820384 
L 282.669991 -328.756188 
L 286.480491 -328.751688 
L 290.29099 -327.971856 
L 294.101489 -325.56239 
L 297.911989 -323.735773 
L 301.722488 -323.30852 
L 305.532987 -318.981121 
L 309.343487 -317.77887 
L 313.153986 -315.297796 
L 316.964485 -311.368037 
L 320.774985 -311.368037 
L 324.585484 -311.368037 
L 328.395984 -301.110246 
L 332.206483 -301.292464 
L 336.016982 -300.251681 
L 339.827482 -300.129248 
L 343.637981 -299.827202 
L 347.44848 -299.678879 
L 351.25898 -299.247177 
L 355.069479 -299.247177 
L 358.879978 -298.530564 
L 362.690478 -297.390815 
L 366.500977 -297.390815 
L 370.311476 -297.390815 
L 374.121976 -297.305648 
L 377.932475 -271.092865 
L 381.742975 -273.24623 
L 385.553474 -274.363152 
L 389.363973 -274.363152 
L 393.174473 -274.363152 
L 396.984972 -273.8895 
L 400.795471 -269.979145 
L 404.605971 -269.982539 
L 408.41647 -269.994135 
L 412.226969 -269.945566 
L 416.037469 -270.204685 
L 419.847968 -270.204685 
L 423.658468 -270.198325 
L 427.468967 -268.620312 
L 431.279466 -267.810397 
L 435.089966 -267.28438 
L 438.900465 -267.624499 
L 442.710964 -252.349966 
L 446.521464 -250.121177 
L 450.331963 -250.121177 
L 454.142462 -250.121177 
L 457.952962 -247.596948 
L 461.763461 -243.408515 
L 465.57396 -243.408515 
L 469.38446 -243.408515 
L 473.194959 -243.44632 
L 477.005459 -243.882922 
L 480.815958 -243.870255 
L 484.626457 -243.880815 
L 488.436957 -241.98452 
L 492.247456 -242.167041 
L 496.057955 -242.217582 
L 499.868455 -242.604852 
L 503.678954 -242.623774 
L 507.489453 -242.948609 
L 511.299953 -242.886291 
L 515.110452 -241.935927 
L 518.920952 -238.073725 
L 522.731451 -234.482382 
L 526.54195 -234.482382 
L 530.35245 -234.517588 
L 534.162949 -234.215634 
L 537.973448 -232.826309 
L 541.783948 -232.513723 
L 545.594447 -232.095264 
L 549.404946 -233.092638 
L 553.215446 -232.884884 
L 557.025945 -232.599386 
L 560.836444 -231.608993 
L 564.646944 -231.608993 
L 568.457443 -231.820782 
L 572.267943 -231.820782 
L 576.078442 -231.820782 
L 579.888941 -231.807031 
L 583.699441 -231.807031 
L 587.50994 -231.807031 
L 591.320439 -231.783517 
L 595.130939 -228.697382 
L 598.941438 -227.065412 
L 602.751937 -226.828714 
L 606.562437 -226.82663 
L 610.372936 -226.71646 
L 614.183436 -226.646874 
L 617.993935 -226.621583 
L 621.804434 -226.573016 
L 625.614934 -226.847678 
L 629.425433 -226.637764 
L 633.235932 -225.342483 
L 637.046432 -226.070873 
L 640.856931 -223.416558 
L 644.66743 -223.190531 
L 648.47793 -221.795767 
L 652.288429 -221.545802 
L 656.098928 -221.19764 
L 659.909428 -218.18726 
L 663.719927 -217.940698 
L 667.530427 -217.940698 
L 667.530427 -260.465198 
L 667.530427 -260.465198 
L 663.719927 -260.465198 
L 659.909428 -251.689542 
L 656.098928 -245.149173 
L 652.288429 -243.408127 
L 648.47793 -244.566883 
L 644.66743 -243.656297 
L 640.856931 -243.857546 
L 637.046432 -244.144792 
L 633.235932 -246.031931 
L 629.425433 -245.919829 
L 625.614934 -246.103516 
L 621.804434 -246.779802 
L 617.993935 -246.800133 
L 614.183436 -246.850987 
L 610.372936 -246.930243 
L 606.562437 -246.971854 
L 602.751937 -246.972714 
L 598.941438 -247.2706 
L 595.130939 -249.91686 
L 591.320439 -251.817223 
L 587.50994 -251.86839 
L 583.699441 -251.86839 
L 579.888941 -251.86839 
L 576.078442 -251.900233 
L 572.267943 -251.900233 
L 568.457443 -251.900233 
L 564.646944 -253.357026 
L 560.836444 -253.357026 
L 557.025945 -253.928133 
L 553.215446 -254.041891 
L 549.404946 -254.074361 
L 545.594447 -256.231512 
L 541.783948 -256.450403 
L 537.973448 -256.490024 
L 534.162949 -257.428742 
L 530.35245 -257.8317 
L 526.54195 -257.908412 
L 522.731451 -257.908412 
L 518.920952 -258.961442 
L 515.110452 -261.471093 
L 511.299953 -263.920971 
L 507.489453 -263.929865 
L 503.678954 -264.761713 
L 499.868455 -265.351651 
L 496.057955 -266.444611 
L 492.247456 -266.980458 
L 488.436957 -267.44791 
L 484.626457 -268.290388 
L 480.815958 -268.319147 
L 477.005459 -268.334943 
L 473.194959 -269.430577 
L 469.38446 -269.937464 
L 465.57396 -269.937464 
L 461.763461 -269.937464 
L 457.952962 -271.802134 
L 454.142462 -273.051639 
L 450.331963 -273.051639 
L 446.521464 -273.051639 
L 442.710964 -275.358958 
L 438.900465 -280.400502 
L 435.089966 -281.18484 
L 431.279466 -281.14954 
L 427.468967 -281.908781 
L 423.658468 -282.844335 
L 419.847968 -282.845689 
L 416.037469 -282.845689 
L 412.226969 -283.720136 
L 408.41647 -283.841991 
L 404.605971 -283.868658 
L 400.795471 -283.876459 
L 396.984972 -285.78557 
L 393.174473 -286.534135 
L 389.363973 -286.534135 
L 385.553474 -286.534135 
L 381.742975 -289.17159 
L 377.932475 -298.501139 
L 374.121976 -313.305946 
L 370.311476 -313.321536 
L 366.500977 -313.321536 
L 362.690478 -313.321536 
L 358.879978 -312.884017 
L 355.069479 -312.680141 
L 351.25898 -312.680141 
L 347.44848 -313.128392 
L 343.637981 -313.538914 
L 339.827482 -314.125171 
L 336.016982 -314.081595 
L 332.206483 -315.901935 
L 328.395984 -317.109071 
L 324.585484 -327.834189 
L 320.774985 -327.834189 
L 316.964485 -327.834189 
L 313.153986 -327.047869 
L 309.343487 -327.426285 
L 305.532987 -332.94189 
L 301.722488 -334.326014 
L 297.911989 -336.296567 
L 294.101489 -337.308203 
L 290.29099 -339.471762 
L 286.480491 -340.144837 
L 282.669991 -340.848755 
L 278.859492 -344.074657 
L 275.048992 -345.458644 
L 271.238493 -345.442376 
L 267.427994 -345.828612 
L 263.617494 -346.551772 
L 259.806995 -347.290567 
L 255.996496 -348.27986 
L 252.185996 -352.512876 
L 248.375497 -354.57244 
L 244.564998 -358.476562 
L 240.754498 -358.016586 
L 236.943999 -359.586221 
L 233.1335 -366.668424 
L 229.323 -367.021784 
L 225.512501 -367.064812 
L 221.702001 -370.659257 
L 217.891502 -369.76354 
L 214.081003 -369.76354 
L 210.270503 -375.070124 
L 206.460004 -379.784607 
L 202.649505 -381.136116 
L 198.839005 -382.089147 
L 195.028506 -382.395369 
L 191.218007 -383.982218 
L 187.407507 -390.186245 
L 183.597008 -392.130677 
L 179.786509 -392.352271 
L 175.976009 -393.317803 
L 172.16551 -399.526612 
L 168.35501 -403.984697 
L 164.544511 -404.688224 
L 160.734012 -404.79947 
L 156.923512 -407.469133 
L 153.113013 -408.030939 
L 149.302514 -410.858049 
L 145.492014 -424.760259 
L 141.681515 -425.735148 
L 137.871016 -426.070564 
L 134.060516 -426.070564 
L 130.250017 -426.070564 
L 126.439517 -437.571862 
L 122.629018 -448.93016 
L 118.818519 -452.890258 
L 115.008019 -454.046904 
L 111.19752 -456.159952 
L 107.387021 -472.830813 
L 103.576521 -485.416552 
z
" id="m904f8983d7" style="stroke:#4c72b0;stroke-opacity:0.2;stroke-width:1.5;"/>
    </defs>
    <g clip-path="url(#p555a93ee53)">
     <use style="fill:#4c72b0;fill-opacity:0.2;stroke:#4c72b0;stroke-opacity:0.2;stroke-width:1.5;" x="0" xlink:href="#m904f8983d7" y="347.034258"/>
    </g>
   </g>
   <g id="PolyCollection_2">
    <defs>
     <path d="M 103.576521 -483.942723 
L 103.576521 -474.925471 
L 107.387021 -457.536228 
L 111.19752 -450.851308 
L 115.008019 -426.833796 
L 118.818519 -430.259942 
L 122.629018 -430.259942 
L 126.439517 -429.88714 
L 130.250017 -402.225602 
L 134.060516 -402.225602 
L 137.871016 -387.967417 
L 141.681515 -384.536285 
L 145.492014 -387.272856 
L 149.302514 -371.38329 
L 153.113013 -371.521456 
L 156.923512 -371.521456 
L 160.734012 -371.521456 
L 164.544511 -371.521456 
L 168.35501 -371.521456 
L 172.16551 -363.500139 
L 175.976009 -363.394393 
L 179.786509 -363.394393 
L 183.597008 -363.778373 
L 187.407507 -356.294584 
L 191.218007 -355.345759 
L 195.028506 -355.345759 
L 198.839005 -355.345759 
L 202.649505 -353.246578 
L 206.460004 -349.56307 
L 210.270503 -349.56307 
L 214.081003 -350.183502 
L 217.891502 -348.855508 
L 221.702001 -347.89881 
L 225.512501 -347.111083 
L 229.323 -347.111083 
L 233.1335 -347.111083 
L 236.943999 -347.111083 
L 240.754498 -347.111083 
L 244.564998 -347.111083 
L 248.375497 -347.111083 
L 252.185996 -347.111083 
L 255.996496 -347.111083 
L 259.806995 -347.112398 
L 263.617494 -347.110554 
L 267.427994 -347.110554 
L 271.238493 -347.110554 
L 275.048992 -347.110554 
L 278.859492 -347.110554 
L 282.669991 -347.110554 
L 286.480491 -347.110554 
L 290.29099 -347.110554 
L 294.101489 -347.110554 
L 297.911989 -347.110554 
L 301.722488 -347.110554 
L 305.532987 -347.110554 
L 309.343487 -347.110554 
L 313.153986 -347.110554 
L 316.964485 -347.110554 
L 320.774985 -347.110554 
L 324.585484 -347.110554 
L 328.395984 -347.110554 
L 332.206483 -347.110554 
L 336.016982 -347.110554 
L 339.827482 -347.110554 
L 343.637981 -347.110554 
L 347.44848 -347.110554 
L 351.25898 -347.110554 
L 355.069479 -347.110554 
L 358.879978 -347.110554 
L 362.690478 -347.110554 
L 366.500977 -347.110554 
L 370.311476 -347.110554 
L 374.121976 -347.110554 
L 377.932475 -347.110554 
L 381.742975 -347.110554 
L 385.553474 -346.736402 
L 389.363973 -346.736402 
L 393.174473 -348.27861 
L 396.984972 -351.884836 
L 400.795471 -351.884836 
L 404.605971 -348.622042 
L 404.605971 -369.135237 
L 404.605971 -369.135237 
L 400.795471 -366.420932 
L 396.984972 -366.420932 
L 393.174473 -364.499085 
L 389.363973 -363.094639 
L 385.553474 -363.094639 
L 381.742975 -363.278094 
L 377.932475 -363.278094 
L 374.121976 -363.278094 
L 370.311476 -363.278094 
L 366.500977 -363.278094 
L 362.690478 -363.278094 
L 358.879978 -363.278094 
L 355.069479 -363.278094 
L 351.25898 -363.278094 
L 347.44848 -363.278094 
L 343.637981 -363.278094 
L 339.827482 -363.278094 
L 336.016982 -363.278094 
L 332.206483 -363.278094 
L 328.395984 -363.278094 
L 324.585484 -363.278094 
L 320.774985 -363.278094 
L 316.964485 -363.278094 
L 313.153986 -363.278094 
L 309.343487 -363.278094 
L 305.532987 -363.278094 
L 301.722488 -363.278094 
L 297.911989 -363.278094 
L 294.101489 -363.278094 
L 290.29099 -363.278094 
L 286.480491 -363.278094 
L 282.669991 -363.278094 
L 278.859492 -363.278094 
L 275.048992 -363.278094 
L 271.238493 -363.278094 
L 267.427994 -363.278094 
L 263.617494 -363.278094 
L 259.806995 -363.286212 
L 255.996496 -363.299998 
L 252.185996 -363.299998 
L 248.375497 -363.299998 
L 244.564998 -363.299998 
L 240.754498 -363.299998 
L 236.943999 -363.299998 
L 233.1335 -363.299998 
L 229.323 -363.299998 
L 225.512501 -363.299998 
L 221.702001 -363.442921 
L 217.891502 -363.722611 
L 214.081003 -364.363069 
L 210.270503 -366.6354 
L 206.460004 -366.6354 
L 202.649505 -370.678651 
L 198.839005 -371.378273 
L 195.028506 -371.378273 
L 191.218007 -371.378273 
L 187.407507 -371.766686 
L 183.597008 -372.272562 
L 179.786509 -376.31633 
L 175.976009 -376.31633 
L 172.16551 -380.424892 
L 168.35501 -385.594635 
L 164.544511 -385.594635 
L 160.734012 -385.594635 
L 156.923512 -385.594635 
L 153.113013 -385.594635 
L 149.302514 -386.120951 
L 145.492014 -391.055118 
L 141.681515 -397.018494 
L 137.871016 -404.231075 
L 134.060516 -405.253219 
L 130.250017 -405.253219 
L 126.439517 -434.360762 
L 122.629018 -434.800822 
L 118.818519 -434.800822 
L 115.008019 -445.149655 
L 111.19752 -467.611973 
L 107.387021 -488.433905 
L 103.576521 -483.942723 
z
" id="m1179d6ae08" style="stroke:#dd8452;stroke-opacity:0.2;stroke-width:1.5;"/>
    </defs>
    <g clip-path="url(#p555a93ee53)">
     <use style="fill:#dd8452;fill-opacity:0.2;stroke:#dd8452;stroke-opacity:0.2;stroke-width:1.5;" x="0" xlink:href="#m1179d6ae08" y="347.034258"/>
    </g>
   </g>
   <g id="PolyCollection_3">
    <path clip-path="url(#p555a93ee53)" d="M 103.576521 -137.285325 
L 103.576521 -129.195047 
L 107.387021 -110.783039 
L 111.19752 -105.606118 
L 115.008019 -96.693051 
L 118.818519 -73.452042 
L 122.629018 -68.753845 
L 126.439517 -68.222926 
L 130.250017 -65.959985 
L 134.060516 -64.82914 
L 137.871016 -63.637268 
L 141.681515 -60.832126 
L 145.492014 -57.589544 
L 149.302514 -55.564409 
L 153.113013 -46.82099 
L 156.923512 -46.82099 
L 160.734012 -38.454346 
L 164.544511 -36.030436 
L 168.35501 -33.977235 
L 172.16551 -27.207318 
L 175.976009 -26.655624 
L 179.786509 -21.735477 
L 183.597008 -21.448862 
L 187.407507 -21.54714 
L 191.218007 -18.695329 
L 195.028506 -13.724594 
L 198.839005 -9.529922 
L 202.649505 -4.281841 
L 206.460004 -2.060524 
L 210.270503 -0.821171 
L 214.081003 0.035418 
L 217.891502 1.959498 
L 221.702001 3.941229 
L 225.512501 6.652645 
L 229.323 8.477524 
L 233.1335 8.706288 
L 236.943999 10.087263 
L 240.754498 12.222147 
L 244.564998 13.704812 
L 248.375497 15.180635 
L 252.185996 18.094057 
L 255.996496 18.093149 
L 259.806995 18.571364 
L 263.617494 20.771695 
L 267.427994 22.325932 
L 271.238493 24.770258 
L 275.048992 27.742617 
L 278.859492 28.701936 
L 282.669991 30.258649 
L 286.480491 31.247683 
L 290.29099 32.988997 
L 294.101489 36.215571 
L 297.911989 37.607518 
L 301.722488 38.960141 
L 305.532987 43.71246 
L 309.343487 44.618428 
L 313.153986 47.377684 
L 316.964485 49.127147 
L 320.774985 49.355868 
L 324.585484 51.646638 
L 328.395984 52.571056 
L 332.206483 55.300833 
L 336.016982 55.861066 
L 339.827482 58.408215 
L 343.637981 58.702167 
L 347.44848 62.098731 
L 351.25898 63.921797 
L 355.069479 65.445989 
L 358.879978 66.488543 
L 362.690478 66.142325 
L 366.500977 66.294504 
L 370.311476 68.889234 
L 374.121976 70.790197 
L 377.932475 71.313391 
L 381.742975 73.383238 
L 385.553474 76.459449 
L 389.363973 76.09857 
L 393.174473 79.725186 
L 396.984972 83.206653 
L 400.795471 82.562015 
L 404.605971 83.51647 
L 408.41647 84.214891 
L 412.226969 85.357572 
L 416.037469 86.432826 
L 419.847968 87.970733 
L 423.658468 91.65288 
L 427.468967 94.890898 
L 431.279466 96.86938 
L 435.089966 97.339052 
L 438.900465 99.662168 
L 442.710964 104.099322 
L 446.521464 105.359807 
L 450.331963 109.104578 
L 454.142462 109.714206 
L 457.952962 111.769951 
L 461.763461 113.406905 
L 465.57396 113.998956 
L 469.38446 118.613181 
L 473.194959 118.591004 
L 477.005459 124.449944 
L 480.815958 125.932504 
L 484.626457 126.036801 
L 488.436957 126.835721 
L 492.247456 128.513274 
L 496.057955 131.78061 
L 499.868455 133.270638 
L 503.678954 134.213706 
L 507.489453 145.298198 
L 511.299953 145.265076 
L 515.110452 146.673321 
L 518.920952 147.345767 
L 522.731451 147.973257 
L 526.54195 150.743666 
L 530.35245 150.84849 
L 534.162949 153.702203 
L 537.973448 154.416958 
L 541.783948 154.622708 
L 545.594447 155.818925 
L 549.404946 157.511572 
L 553.215446 157.523903 
L 557.025945 158.595992 
L 560.836444 160.853083 
L 564.646944 161.580791 
L 568.457443 162.764944 
L 572.267943 163.438803 
L 576.078442 163.489254 
L 579.888941 164.99376 
L 583.699441 166.329263 
L 587.50994 166.941493 
L 591.320439 166.881578 
L 595.130939 168.311612 
L 598.941438 171.804768 
L 602.751937 172.625863 
L 606.562437 174.240595 
L 610.372936 174.540029 
L 614.183436 174.860661 
L 617.993935 174.972696 
L 621.804434 176.868896 
L 625.614934 179.539079 
L 629.425433 180.105153 
L 633.235932 180.489638 
L 637.046432 180.485691 
L 640.856931 180.398364 
L 644.66743 182.891126 
L 648.47793 184.66451 
L 652.288429 185.689553 
L 656.098928 185.771968 
L 659.909428 186.298296 
L 663.719927 192.711114 
L 667.530427 193.698286 
L 671.340926 193.635397 
L 675.151425 194.666717 
L 678.961925 195.974499 
L 682.772424 196.439791 
L 686.582923 196.433466 
L 690.393423 196.402325 
L 694.203922 196.572368 
L 698.014421 196.940608 
L 701.824921 199.971591 
L 705.63542 200.647548 
L 709.44592 201.231584 
L 713.256419 201.275902 
L 717.066918 203.487695 
L 720.877418 204.048378 
L 724.687917 205.791365 
L 728.498416 206.810301 
L 732.308916 207.393993 
L 736.119415 207.835025 
L 739.929914 210.03454 
L 743.740414 210.115976 
L 747.550913 210.541322 
L 751.361412 210.977198 
L 755.171912 211.65192 
L 758.982411 212.038692 
L 762.792911 212.871591 
L 766.60341 213.298297 
L 770.413909 213.829265 
L 774.224409 213.910342 
L 778.034908 219.792436 
L 781.845407 220.509289 
L 785.655907 219.160999 
L 789.466406 219.660439 
L 793.276905 219.991516 
L 797.087405 220.228394 
L 800.897904 220.420306 
L 804.708404 223.830486 
L 808.518903 224.285894 
L 812.329402 224.519444 
L 816.139902 225.988874 
L 819.950401 210.864643 
L 823.7609 150.365425 
L 827.5714 151.806454 
L 831.381899 151.806454 
L 835.192398 151.806454 
L 839.002898 153.154486 
L 842.813397 153.154486 
L 842.813397 146.353017 
L 842.813397 146.353017 
L 839.002898 146.353017 
L 835.192398 143.854401 
L 831.381899 143.854401 
L 827.5714 143.854401 
L 823.7609 140.897679 
L 819.950401 122.393037 
L 816.139902 131.532294 
L 812.329402 138.099284 
L 808.518903 137.412092 
L 804.708404 137.338343 
L 800.897904 136.881206 
L 797.087405 136.842081 
L 793.276905 135.794176 
L 789.466406 135.194621 
L 785.655907 133.665957 
L 781.845407 139.214887 
L 778.034908 139.288119 
L 774.224409 128.893006 
L 770.413909 128.363464 
L 766.60341 127.723949 
L 762.792911 126.83094 
L 758.982411 126.052727 
L 755.171912 125.952253 
L 751.361412 125.474428 
L 747.550913 124.848258 
L 743.740414 124.544961 
L 739.929914 123.544418 
L 736.119415 123.002815 
L 732.308916 122.227601 
L 728.498416 121.833603 
L 724.687917 121.62768 
L 720.877418 121.088229 
L 717.066918 119.695604 
L 713.256419 118.966299 
L 709.44592 118.887806 
L 705.63542 118.402319 
L 701.824921 117.690458 
L 698.014421 120.865181 
L 694.203922 119.703846 
L 690.393423 118.687811 
L 686.582923 118.529053 
L 682.772424 117.773704 
L 678.961925 117.725194 
L 675.151425 116.682001 
L 671.340926 115.778652 
L 667.530427 114.471329 
L 663.719927 114.464587 
L 659.909428 109.963912 
L 656.098928 109.482914 
L 652.288429 109.311144 
L 648.47793 108.432267 
L 644.66743 105.976114 
L 640.856931 106.021295 
L 637.046432 105.40183 
L 633.235932 104.916736 
L 629.425433 104.371281 
L 625.614934 103.773116 
L 621.804434 102.863733 
L 617.993935 102.620959 
L 614.183436 101.898608 
L 610.372936 101.465051 
L 606.562437 101.158818 
L 602.751937 100.332468 
L 598.941438 99.325861 
L 595.130939 99.099849 
L 591.320439 98.541781 
L 587.50994 97.879226 
L 583.699441 97.347191 
L 579.888941 93.859844 
L 576.078442 93.877985 
L 572.267943 93.65822 
L 568.457443 93.352542 
L 564.646944 93.010072 
L 560.836444 92.690619 
L 557.025945 89.988707 
L 553.215446 89.360543 
L 549.404946 89.248984 
L 545.594447 88.389086 
L 541.783948 87.779783 
L 537.973448 87.094676 
L 534.162949 85.677353 
L 530.35245 85.357402 
L 526.54195 84.98226 
L 522.731451 83.537241 
L 518.920952 83.158732 
L 515.110452 82.340007 
L 511.299953 81.28142 
L 507.489453 80.568761 
L 503.678954 80.294265 
L 499.868455 79.777927 
L 496.057955 79.518439 
L 492.247456 80.204792 
L 488.436957 79.21005 
L 484.626457 78.734307 
L 480.815958 76.478513 
L 477.005459 74.307157 
L 473.194959 75.339108 
L 469.38446 75.213177 
L 465.57396 73.95449 
L 461.763461 73.578724 
L 457.952962 72.245304 
L 454.142462 71.807902 
L 450.331963 71.320952 
L 446.521464 71.376258 
L 442.710964 68.009718 
L 438.900465 68.102687 
L 435.089966 67.356492 
L 431.279466 66.621112 
L 427.468967 66.379046 
L 423.658468 63.086838 
L 419.847968 62.838873 
L 416.037469 61.213053 
L 412.226969 60.816611 
L 408.41647 57.248151 
L 404.605971 56.872536 
L 400.795471 55.024172 
L 396.984972 47.941246 
L 393.174473 47.947961 
L 389.363973 47.097674 
L 385.553474 45.183638 
L 381.742975 44.599682 
L 377.932475 42.843205 
L 374.121976 42.090578 
L 370.311476 41.968964 
L 366.500977 41.047405 
L 362.690478 40.16323 
L 358.879978 28.545288 
L 355.069479 28.192572 
L 351.25898 26.795751 
L 347.44848 25.416101 
L 343.637981 24.273601 
L 339.827482 23.051918 
L 336.016982 21.346463 
L 332.206483 20.912097 
L 328.395984 19.078077 
L 324.585484 18.327871 
L 320.774985 16.887328 
L 316.964485 15.744127 
L 313.153986 14.732829 
L 309.343487 11.66838 
L 305.532987 10.698382 
L 301.722488 8.972698 
L 297.911989 6.345951 
L 294.101489 5.607235 
L 290.29099 4.399342 
L 286.480491 0.621952 
L 282.669991 -0.915272 
L 278.859492 -1.489603 
L 275.048992 -4.013134 
L 271.238493 -5.178924 
L 267.427994 -5.975444 
L 263.617494 -10.470073 
L 259.806995 -11.091853 
L 255.996496 -12.50685 
L 252.185996 -13.786438 
L 248.375497 -14.854503 
L 244.564998 -15.494958 
L 240.754498 -15.541374 
L 236.943999 -14.992336 
L 233.1335 -17.232847 
L 229.323 -19.077726 
L 225.512501 -23.150312 
L 221.702001 -23.94531 
L 217.891502 -25.535945 
L 214.081003 -27.055366 
L 210.270503 -28.261376 
L 206.460004 -32.856529 
L 202.649505 -36.756278 
L 198.839005 -36.942159 
L 195.028506 -37.479803 
L 191.218007 -39.509733 
L 187.407507 -41.420781 
L 183.597008 -45.251312 
L 179.786509 -59.189659 
L 175.976009 -61.701573 
L 172.16551 -62.208695 
L 168.35501 -65.536788 
L 164.544511 -69.863228 
L 160.734012 -74.69916 
L 156.923512 -80.308396 
L 153.113013 -80.308396 
L 149.302514 -85.602383 
L 145.492014 -88.168154 
L 141.681515 -89.635727 
L 137.871016 -90.084818 
L 134.060516 -90.308498 
L 130.250017 -94.610344 
L 126.439517 -108.247444 
L 122.629018 -112.188527 
L 118.818519 -117.203442 
L 115.008019 -120.315213 
L 111.19752 -124.539011 
L 107.387021 -132.755098 
L 103.576521 -137.285325 
z
" style="fill:#55a868;fill-opacity:0.2;stroke:#55a868;stroke-opacity:0.2;stroke-width:1.5;"/>
   </g>
   <g id="PolyCollection_4">
    <defs>
     <path d="M 103.576521 -483.343469 
L 103.576521 -477.366094 
L 107.387021 -427.034928 
L 111.19752 -420.819791 
L 115.008019 -419.534633 
L 118.818519 -412.824346 
L 122.629018 -405.947268 
L 126.439517 -405.947268 
L 130.250017 -404.41677 
L 134.060516 -403.542151 
L 137.871016 -398.119917 
L 141.681515 -365.100578 
L 145.492014 -357.860635 
L 149.302514 -335.697438 
L 153.113013 -331.778235 
L 156.923512 -319.587207 
L 160.734012 -302.503277 
L 164.544511 -303.055263 
L 168.35501 -298.005661 
L 172.16551 -297.199933 
L 175.976009 -293.704587 
L 179.786509 -293.49323 
L 183.597008 -293.396741 
L 187.407507 -292.483231 
L 191.218007 -290.358575 
L 195.028506 -289.143305 
L 198.839005 -288.22414 
L 202.649505 -288.230932 
L 206.460004 -288.230932 
L 210.270503 -287.539363 
L 214.081003 -287.43846 
L 217.891502 -284.325604 
L 221.702001 -282.428388 
L 225.512501 -282.480695 
L 229.323 -282.444167 
L 233.1335 -281.396028 
L 236.943999 -281.155879 
L 240.754498 -278.707267 
L 244.564998 -278.446564 
L 248.375497 -272.746445 
L 252.185996 -272.746445 
L 255.996496 -271.499242 
L 259.806995 -271.377313 
L 263.617494 -271.718907 
L 267.427994 -271.382727 
L 271.238493 -268.793228 
L 275.048992 -267.358207 
L 278.859492 -267.363025 
L 282.669991 -266.798827 
L 286.480491 -266.069865 
L 290.29099 -266.061051 
L 294.101489 -266.299921 
L 297.911989 -264.640562 
L 301.722488 -264.440247 
L 305.532987 -264.368027 
L 309.343487 -264.356145 
L 313.153986 -261.450296 
L 316.964485 -261.5887 
L 320.774985 -260.784193 
L 324.585484 -260.622335 
L 328.395984 -260.195993 
L 332.206483 -257.97995 
L 336.016982 -257.569617 
L 339.827482 -257.51238 
L 343.637981 -254.129837 
L 347.44848 -254.408869 
L 351.25898 -249.781319 
L 355.069479 -248.518025 
L 358.879978 -248.019499 
L 362.690478 -247.842581 
L 366.500977 -245.972426 
L 370.311476 -242.705026 
L 374.121976 -240.677111 
L 377.932475 -239.720232 
L 381.742975 -239.28053 
L 385.553474 -238.737632 
L 389.363973 -238.194536 
L 393.174473 -238.100916 
L 396.984972 -238.086792 
L 400.795471 -236.18569 
L 404.605971 -241.69776 
L 408.41647 -241.718927 
L 412.226969 -241.270831 
L 416.037469 -241.108057 
L 419.847968 -240.552585 
L 423.658468 -240.252933 
L 427.468967 -239.508877 
L 431.279466 -238.179348 
L 435.089966 -238.094318 
L 438.900465 -237.792209 
L 442.710964 -237.001154 
L 446.521464 -236.584805 
L 450.331963 -235.632501 
L 454.142462 -235.271408 
L 457.952962 -235.185109 
L 461.763461 -235.209759 
L 465.57396 -234.401082 
L 469.38446 -233.205322 
L 473.194959 -232.243945 
L 477.005459 -231.140198 
L 480.815958 -225.942178 
L 484.626457 -225.527238 
L 488.436957 -225.446969 
L 492.247456 -222.436775 
L 496.057955 -222.188807 
L 499.868455 -222.147499 
L 503.678954 -222.130728 
L 507.489453 -221.580303 
L 511.299953 -221.546078 
L 515.110452 -231.774684 
L 518.920952 -230.065531 
L 522.731451 -229.140536 
L 526.54195 -228.374304 
L 530.35245 -228.280176 
L 534.162949 -236.639734 
L 537.973448 -235.84229 
L 541.783948 -235.101556 
L 545.594447 -234.588743 
L 549.404946 -233.814879 
L 553.215446 -235.983064 
L 557.025945 -235.983064 
L 560.836444 -235.983064 
L 564.646944 -234.410359 
L 568.457443 -233.894197 
L 572.267943 -231.429682 
L 576.078442 -231.41524 
L 579.888941 -231.54163 
L 583.699441 -231.54163 
L 587.50994 -231.501951 
L 591.320439 -230.568143 
L 595.130939 -229.12823 
L 598.941438 -229.034968 
L 602.751937 -229.001627 
L 606.562437 -229.460069 
L 610.372936 -229.460069 
L 614.183436 -229.356668 
L 617.993935 -226.860996 
L 621.804434 -227.729661 
L 625.614934 -227.843776 
L 629.425433 -227.105607 
L 633.235932 -227.47347 
L 637.046432 -227.430412 
L 640.856931 -227.058419 
L 644.66743 -226.740475 
L 648.47793 -226.166297 
L 652.288429 -224.551133 
L 656.098928 -224.551133 
L 659.909428 -224.349131 
L 663.719927 -224.094108 
L 667.530427 -224.094108 
L 671.340926 -223.391289 
L 675.151425 -221.452626 
L 678.961925 -221.259771 
L 682.772424 -221.477433 
L 686.582923 -221.477433 
L 690.393423 -221.477433 
L 694.203922 -221.477433 
L 698.014421 -218.98431 
L 701.824921 -218.98431 
L 705.63542 -218.98431 
L 709.44592 -218.48524 
L 713.256419 -218.48524 
L 717.066918 -218.138785 
L 720.877418 -217.270842 
L 720.877418 -220.161727 
L 720.877418 -220.161727 
L 717.066918 -220.012812 
L 713.256419 -219.953369 
L 709.44592 -219.953369 
L 705.63542 -219.867743 
L 701.824921 -219.867743 
L 698.014421 -219.867743 
L 694.203922 -222.939979 
L 690.393423 -222.939979 
L 686.582923 -222.939979 
L 682.772424 -222.939979 
L 678.961925 -224.208609 
L 675.151425 -226.956628 
L 671.340926 -226.996935 
L 667.530427 -226.934649 
L 663.719927 -226.934649 
L 659.909428 -226.945855 
L 656.098928 -230.331972 
L 652.288429 -230.331972 
L 648.47793 -230.223529 
L 644.66743 -230.193164 
L 640.856931 -230.829224 
L 637.046432 -230.827452 
L 633.235932 -231.488686 
L 629.425433 -233.89564 
L 625.614934 -234.001714 
L 621.804434 -234.456001 
L 617.993935 -233.85796 
L 614.183436 -234.589169 
L 610.372936 -234.695758 
L 606.562437 -234.695758 
L 602.751937 -236.511264 
L 598.941438 -236.520368 
L 595.130939 -236.762044 
L 591.320439 -237.751298 
L 587.50994 -238.740274 
L 583.699441 -239.281187 
L 579.888941 -239.281187 
L 576.078442 -240.329434 
L 572.267943 -240.364566 
L 568.457443 -241.614263 
L 564.646944 -243.402612 
L 560.836444 -242.855787 
L 557.025945 -242.855787 
L 553.215446 -242.855787 
L 549.404946 -243.239438 
L 545.594447 -243.155871 
L 541.783948 -244.37649 
L 537.973448 -245.838097 
L 534.162949 -245.789131 
L 530.35245 -247.696534 
L 526.54195 -248.599676 
L 522.731451 -249.109273 
L 518.920952 -250.241869 
L 515.110452 -252.521567 
L 511.299953 -254.267151 
L 507.489453 -254.382108 
L 503.678954 -254.313361 
L 499.868455 -254.457252 
L 496.057955 -255.477846 
L 492.247456 -255.800557 
L 488.436957 -255.829281 
L 484.626457 -256.354202 
L 480.815958 -257.910576 
L 477.005459 -255.76465 
L 473.194959 -258.094442 
L 469.38446 -259.458305 
L 465.57396 -259.557718 
L 461.763461 -260.57009 
L 457.952962 -261.338387 
L 454.142462 -261.307154 
L 450.331963 -263.187651 
L 446.521464 -266.154197 
L 442.710964 -266.809366 
L 438.900465 -266.765033 
L 435.089966 -267.483854 
L 431.279466 -268.214382 
L 427.468967 -268.553834 
L 423.658468 -273.669227 
L 419.847968 -273.559213 
L 416.037469 -273.358434 
L 412.226969 -273.793765 
L 408.41647 -277.505897 
L 404.605971 -277.974668 
L 400.795471 -280.49369 
L 396.984972 -282.742804 
L 393.174473 -282.791073 
L 389.363973 -282.8203 
L 385.553474 -282.858871 
L 381.742975 -284.403529 
L 377.932475 -286.747856 
L 374.121976 -286.854514 
L 370.311476 -290.773943 
L 366.500977 -291.968508 
L 362.690478 -293.549005 
L 358.879978 -294.795908 
L 355.069479 -295.653916 
L 351.25898 -295.285963 
L 347.44848 -295.070435 
L 343.637981 -299.061778 
L 339.827482 -302.802674 
L 336.016982 -302.862364 
L 332.206483 -303.200714 
L 328.395984 -304.237207 
L 324.585484 -305.190268 
L 320.774985 -305.638412 
L 316.964485 -309.470164 
L 313.153986 -310.231812 
L 309.343487 -312.289055 
L 305.532987 -312.372377 
L 301.722488 -312.525125 
L 297.911989 -314.79059 
L 294.101489 -316.95808 
L 290.29099 -318.931313 
L 286.480491 -319.148604 
L 282.669991 -318.988712 
L 278.859492 -319.089193 
L 275.048992 -321.329786 
L 271.238493 -324.446111 
L 267.427994 -325.919978 
L 263.617494 -326.472113 
L 259.806995 -332.996547 
L 255.996496 -333.510162 
L 252.185996 -333.223633 
L 248.375497 -333.223633 
L 244.564998 -333.889564 
L 240.754498 -334.039423 
L 236.943999 -340.86831 
L 233.1335 -342.586918 
L 229.323 -342.471721 
L 225.512501 -342.638265 
L 221.702001 -343.640105 
L 217.891502 -345.490225 
L 214.081003 -347.153892 
L 210.270503 -348.96527 
L 206.460004 -351.869754 
L 202.649505 -351.869754 
L 198.839005 -352.366389 
L 195.028506 -355.279861 
L 191.218007 -358.036978 
L 187.407507 -362.047689 
L 183.597008 -364.653823 
L 179.786509 -365.278851 
L 175.976009 -374.166336 
L 172.16551 -382.962457 
L 168.35501 -388.038101 
L 164.544511 -394.165826 
L 160.734012 -404.298678 
L 156.923512 -421.986595 
L 153.113013 -421.08822 
L 149.302514 -426.330805 
L 145.492014 -435.986791 
L 141.681515 -437.046224 
L 137.871016 -441.712961 
L 134.060516 -442.552911 
L 130.250017 -447.336338 
L 126.439517 -451.2044 
L 122.629018 -451.2044 
L 118.818519 -457.973038 
L 115.008019 -469.956194 
L 111.19752 -481.432846 
L 107.387021 -490.520816 
L 103.576521 -483.343469 
z
" id="m930a92de53" style="stroke:#c44e52;stroke-opacity:0.2;stroke-width:1.5;"/>
    </defs>
    <g clip-path="url(#p555a93ee53)">
     <use style="fill:#c44e52;fill-opacity:0.2;stroke:#c44e52;stroke-opacity:0.2;stroke-width:1.5;" x="0" xlink:href="#m930a92de53" y="347.034258"/>
    </g>
   </g>
   <g id="PolyCollection_5">
    <path clip-path="url(#p555a93ee53)" d="M 103.576521 -136.989665 
L 103.576521 -128.795313 
L 107.387021 -77.110834 
L 111.19752 -76.019493 
L 115.008019 -71.166908 
L 118.818519 -66.926371 
L 122.629018 -62.491316 
L 126.439517 -57.090293 
L 130.250017 -50.441522 
L 134.060516 -49.449513 
L 137.871016 -47.090051 
L 141.681515 -42.091018 
L 145.492014 -38.752672 
L 149.302514 -38.372526 
L 153.113013 -36.027316 
L 156.923512 -28.54433 
L 160.734012 -28.46004 
L 164.544511 -28.484178 
L 168.35501 -26.545321 
L 172.16551 -23.734459 
L 175.976009 -21.423579 
L 179.786509 -20.507271 
L 183.597008 -18.926415 
L 187.407507 -15.984544 
L 191.218007 -13.406246 
L 195.028506 -13.432806 
L 198.839005 -12.614882 
L 202.649505 -12.614882 
L 206.460004 -11.831062 
L 210.270503 -9.177228 
L 214.081003 -6.722276 
L 217.891502 -3.19984 
L 221.702001 -2.019737 
L 225.512501 3.082572 
L 229.323 3.082572 
L 233.1335 5.112808 
L 236.943999 18.155809 
L 240.754498 19.098863 
L 244.564998 22.282049 
L 248.375497 30.62025 
L 252.185996 33.164711 
L 255.996496 34.415224 
L 259.806995 37.370714 
L 263.617494 37.479583 
L 267.427994 38.508382 
L 271.238493 42.251855 
L 275.048992 45.699585 
L 278.859492 46.222254 
L 282.669991 48.023338 
L 286.480491 49.503735 
L 290.29099 50.942378 
L 294.101489 51.93714 
L 297.911989 60.862527 
L 301.722488 62.69617 
L 305.532987 63.127199 
L 309.343487 63.726628 
L 313.153986 65.574735 
L 316.964485 66.520912 
L 320.774985 70.16829 
L 324.585484 85.871036 
L 328.395984 86.279063 
L 332.206483 88.52545 
L 336.016982 95.963564 
L 339.827482 97.32841 
L 343.637981 101.188607 
L 347.44848 103.138836 
L 351.25898 107.125286 
L 355.069479 107.125286 
L 358.879978 108.345448 
L 362.690478 110.004277 
L 366.500977 110.069148 
L 370.311476 111.734272 
L 374.121976 125.862102 
L 377.932475 130.323498 
L 381.742975 139.839173 
L 385.553474 140.452288 
L 389.363973 140.76557 
L 393.174473 158.893453 
L 396.984972 159.277746 
L 400.795471 159.281947 
L 404.605971 162.777482 
L 408.41647 169.527602 
L 412.226969 170.454092 
L 416.037469 170.433977 
L 419.847968 171.147778 
L 423.658468 172.878068 
L 427.468967 173.21955 
L 431.279466 173.92795 
L 435.089966 174.60482 
L 438.900465 172.912817 
L 442.710964 173.288353 
L 446.521464 173.997345 
L 450.331963 173.97919 
L 454.142462 174.266851 
L 457.952962 176.641302 
L 461.763461 182.623238 
L 465.57396 183.022875 
L 469.38446 186.517208 
L 473.194959 190.317026 
L 477.005459 190.317026 
L 480.815958 190.937494 
L 484.626457 190.573291 
L 488.436957 191.40516 
L 492.247456 192.746816 
L 496.057955 199.387464 
L 499.868455 199.198525 
L 503.678954 214.158199 
L 507.489453 213.920587 
L 511.299953 213.920587 
L 515.110452 217.356578 
L 518.920952 217.356578 
L 522.731451 217.356578 
L 526.54195 215.809562 
L 530.35245 215.809562 
L 534.162949 216.41607 
L 537.973448 215.842354 
L 541.783948 220.354939 
L 545.594447 219.866793 
L 549.404946 219.866793 
L 553.215446 219.866793 
L 557.025945 219.866793 
L 557.025945 155.277547 
L 557.025945 155.277547 
L 553.215446 155.277547 
L 549.404946 155.277547 
L 545.594447 155.277547 
L 541.783948 152.432424 
L 537.973448 153.206661 
L 534.162949 149.862798 
L 530.35245 149.966859 
L 526.54195 149.966859 
L 522.731451 140.950191 
L 518.920952 140.950191 
L 515.110452 140.950191 
L 511.299953 140.771121 
L 507.489453 140.771121 
L 503.678954 139.386217 
L 499.868455 121.378855 
L 496.057955 119.852509 
L 492.247456 122.808445 
L 488.436957 122.007659 
L 484.626457 122.24178 
L 480.815958 119.508404 
L 477.005459 118.932579 
L 473.194959 118.932579 
L 469.38446 115.770448 
L 465.57396 113.91754 
L 461.763461 114.033104 
L 457.952962 90.037116 
L 454.142462 87.718657 
L 450.331963 87.801763 
L 446.521464 87.722524 
L 442.710964 85.042766 
L 438.900465 84.896418 
L 435.089966 75.115208 
L 431.279466 71.314997 
L 427.468967 70.97552 
L 423.658468 70.116184 
L 419.847968 69.447246 
L 416.037469 67.48397 
L 412.226969 67.400109 
L 408.41647 65.257837 
L 404.605971 69.244567 
L 400.795471 68.225081 
L 396.984972 68.219719 
L 393.174473 66.322101 
L 389.363973 71.044245 
L 385.553474 67.396326 
L 381.742975 66.920728 
L 377.932475 57.435087 
L 374.121976 39.266811 
L 370.311476 39.132122 
L 366.500977 38.674261 
L 362.690478 37.478783 
L 358.879978 33.894455 
L 355.069479 33.461952 
L 351.25898 33.461952 
L 347.44848 32.230901 
L 343.637981 31.222207 
L 339.827482 30.175006 
L 336.016982 29.710869 
L 332.206483 27.049993 
L 328.395984 26.436433 
L 324.585484 26.35037 
L 320.774985 22.16409 
L 316.964485 20.359391 
L 313.153986 19.246282 
L 309.343487 18.689373 
L 305.532987 16.009726 
L 301.722488 15.753213 
L 297.911989 8.78067 
L 294.101489 2.418773 
L 290.29099 0.309585 
L 286.480491 -0.637138 
L 282.669991 -1.114123 
L 278.859492 -4.540469 
L 275.048992 -6.077391 
L 271.238493 -8.914384 
L 267.427994 -11.636803 
L 263.617494 -12.480128 
L 259.806995 -14.000285 
L 255.996496 -15.403376 
L 252.185996 -20.599216 
L 248.375497 -20.249392 
L 244.564998 -25.546234 
L 240.754498 -26.016256 
L 236.943999 -28.25385 
L 233.1335 -33.463339 
L 229.323 -34.848379 
L 225.512501 -34.848379 
L 221.702001 -39.563176 
L 217.891502 -40.100498 
L 214.081003 -43.148913 
L 210.270503 -45.79202 
L 206.460004 -48.786481 
L 202.649505 -49.668871 
L 198.839005 -49.668871 
L 195.028506 -50.118313 
L 191.218007 -52.592602 
L 187.407507 -62.434309 
L 183.597008 -71.142216 
L 179.786509 -72.280414 
L 175.976009 -74.80705 
L 172.16551 -77.169817 
L 168.35501 -80.53698 
L 164.544511 -81.66893 
L 160.734012 -82.443929 
L 156.923512 -84.529181 
L 153.113013 -82.984183 
L 149.302514 -93.787977 
L 145.492014 -94.402041 
L 141.681515 -101.054169 
L 137.871016 -109.670529 
L 134.060516 -112.69163 
L 130.250017 -112.928422 
L 126.439517 -114.437013 
L 122.629018 -115.498467 
L 118.818519 -121.147608 
L 115.008019 -127.951285 
L 111.19752 -135.308331 
L 107.387021 -138.498403 
L 103.576521 -136.989665 
z
" style="fill:#8172b3;fill-opacity:0.2;stroke:#8172b3;stroke-opacity:0.2;stroke-width:1.5;"/>
   </g>
   <g id="PolyCollection_6">
    <defs>
     <path d="M 103.576521 -481.495744 
L 103.576521 -475.822323 
L 107.387021 -454.491674 
L 111.19752 -442.791389 
L 115.008019 -438.472425 
L 118.818519 -434.424491 
L 122.629018 -426.43199 
L 126.439517 -412.639002 
L 130.250017 -410.188432 
L 134.060516 -406.33661 
L 137.871016 -404.685995 
L 141.681515 -395.931713 
L 145.492014 -392.643711 
L 149.302514 -391.235669 
L 153.113013 -382.662016 
L 156.923512 -384.162719 
L 160.734012 -379.830846 
L 164.544511 -376.534135 
L 168.35501 -375.176152 
L 172.16551 -361.634755 
L 175.976009 -361.850192 
L 179.786509 -357.890819 
L 183.597008 -357.412515 
L 187.407507 -357.86735 
L 191.218007 -352.527408 
L 195.028506 -349.741172 
L 198.839005 -348.980939 
L 202.649505 -344.785738 
L 206.460004 -342.032626 
L 210.270503 -337.228766 
L 214.081003 -337.663621 
L 217.891502 -332.868963 
L 221.702001 -328.098534 
L 225.512501 -327.768928 
L 229.323 -327.816493 
L 233.1335 -326.173207 
L 236.943999 -323.010039 
L 240.754498 -323.010039 
L 244.564998 -321.322566 
L 248.375497 -319.245082 
L 252.185996 -318.729976 
L 255.996496 -318.041659 
L 259.806995 -312.161782 
L 263.617494 -310.779041 
L 267.427994 -310.779041 
L 271.238493 -311.612707 
L 275.048992 -308.600025 
L 278.859492 -305.916347 
L 282.669991 -300.603604 
L 286.480491 -299.808459 
L 290.29099 -298.7279 
L 294.101489 -298.7279 
L 297.911989 -295.457681 
L 301.722488 -293.545082 
L 305.532987 -293.274304 
L 309.343487 -293.205832 
L 313.153986 -281.655486 
L 316.964485 -281.143392 
L 320.774985 -279.398175 
L 324.585484 -278.207737 
L 328.395984 -278.207737 
L 332.206483 -277.45731 
L 336.016982 -277.164576 
L 339.827482 -274.725442 
L 343.637981 -273.655529 
L 347.44848 -270.05766 
L 351.25898 -268.419024 
L 355.069479 -272.25051 
L 358.879978 -271.984472 
L 362.690478 -271.669941 
L 366.500977 -271.183792 
L 370.311476 -270.76678 
L 374.121976 -265.772284 
L 377.932475 -266.112747 
L 381.742975 -263.598415 
L 385.553474 -263.433909 
L 389.363973 -261.965673 
L 393.174473 -271.592911 
L 396.984972 -270.464222 
L 400.795471 -270.464222 
L 404.605971 -268.247797 
L 408.41647 -255.379912 
L 412.226969 -255.379912 
L 416.037469 -271.976166 
L 416.037469 -274.406333 
L 416.037469 -274.406333 
L 412.226969 -282.278313 
L 408.41647 -282.278313 
L 404.605971 -279.086527 
L 400.795471 -284.423099 
L 396.984972 -284.423099 
L 393.174473 -283.004977 
L 389.363973 -287.540089 
L 385.553474 -288.761148 
L 381.742975 -288.972219 
L 377.932475 -290.352311 
L 374.121976 -293.600817 
L 370.311476 -301.263244 
L 366.500977 -299.803913 
L 362.690478 -300.6069 
L 358.879978 -301.484287 
L 355.069479 -301.38328 
L 351.25898 -303.061311 
L 347.44848 -306.168761 
L 343.637981 -307.67622 
L 339.827482 -309.94886 
L 336.016982 -311.686814 
L 332.206483 -312.874053 
L 328.395984 -313.34582 
L 324.585484 -313.34582 
L 320.774985 -315.102953 
L 316.964485 -321.526294 
L 313.153986 -322.605581 
L 309.343487 -326.452868 
L 305.532987 -330.215147 
L 301.722488 -330.752601 
L 297.911989 -330.436703 
L 294.101489 -334.22311 
L 290.29099 -334.22311 
L 286.480491 -335.927056 
L 282.669991 -339.36343 
L 278.859492 -338.07241 
L 275.048992 -338.578161 
L 271.238493 -339.286543 
L 267.427994 -343.132524 
L 263.617494 -343.132524 
L 259.806995 -345.182114 
L 255.996496 -345.864872 
L 252.185996 -353.301551 
L 248.375497 -353.516667 
L 244.564998 -355.173915 
L 240.754498 -357.769264 
L 236.943999 -357.769264 
L 233.1335 -362.252391 
L 229.323 -364.954578 
L 225.512501 -365.325462 
L 221.702001 -368.259676 
L 217.891502 -371.971165 
L 214.081003 -375.210942 
L 210.270503 -377.19917 
L 206.460004 -381.207388 
L 202.649505 -381.912173 
L 198.839005 -391.560352 
L 195.028506 -394.641225 
L 191.218007 -394.463565 
L 187.407507 -395.380474 
L 183.597008 -401.178403 
L 179.786509 -401.263306 
L 175.976009 -403.875731 
L 172.16551 -405.887952 
L 168.35501 -412.597047 
L 164.544511 -422.882882 
L 160.734012 -429.735995 
L 156.923512 -435.694457 
L 153.113013 -441.952709 
L 149.302514 -446.515853 
L 145.492014 -446.928721 
L 141.681515 -452.009584 
L 137.871016 -460.345888 
L 134.060516 -460.330323 
L 130.250017 -462.278321 
L 126.439517 -464.567442 
L 122.629018 -467.015815 
L 118.818519 -465.527433 
L 115.008019 -466.599238 
L 111.19752 -474.183354 
L 107.387021 -476.040776 
L 103.576521 -481.495744 
z
" id="mf78ffb07a5" style="stroke:#937860;stroke-opacity:0.2;stroke-width:1.5;"/>
    </defs>
    <g clip-path="url(#p555a93ee53)">
     <use style="fill:#937860;fill-opacity:0.2;stroke:#937860;stroke-opacity:0.2;stroke-width:1.5;" x="0" xlink:href="#mf78ffb07a5" y="347.034258"/>
    </g>
   </g>
   <g id="line2d_14">
    <path clip-path="url(#p555a93ee53)" d="M 250.627972 -1 
L 252.185996 0.267963 
L 255.996496 4.492978 
L 259.806995 4.996536 
L 263.617494 5.795674 
L 267.427994 7.327166 
L 271.238493 7.641385 
L 275.048992 9.140534 
L 278.859492 10.086737 
L 282.669991 12.231786 
L 286.480491 12.585996 
L 290.29099 13.312449 
L 294.101489 15.598961 
L 297.911989 17.018088 
L 301.722488 18.21699 
L 305.532987 21.072753 
L 309.343487 24.43168 
L 313.153986 25.861425 
L 316.964485 27.433145 
L 324.585484 27.433145 
L 328.395984 37.924599 
L 332.206483 38.437058 
L 336.016982 39.86762 
L 339.827482 39.907048 
L 343.637981 40.3512 
L 347.44848 40.630623 
L 351.25898 41.070599 
L 355.069479 41.070599 
L 362.690478 41.678083 
L 374.121976 41.728461 
L 377.932475 62.237256 
L 381.742975 65.825348 
L 385.553474 66.585615 
L 393.174473 66.585615 
L 396.984972 67.196723 
L 400.795471 70.106456 
L 412.226969 70.201407 
L 416.037469 70.509071 
L 423.658468 70.512928 
L 427.468967 71.769712 
L 431.279466 72.554289 
L 438.900465 73.021757 
L 442.710964 83.179796 
L 446.521464 85.44785 
L 454.142462 85.44785 
L 457.952962 87.334716 
L 461.763461 90.361268 
L 469.38446 90.361268 
L 477.005459 90.925325 
L 484.626457 90.948656 
L 488.436957 92.318043 
L 496.057955 92.703161 
L 503.678954 93.341514 
L 507.489453 93.595021 
L 511.299953 93.630627 
L 515.110452 95.330748 
L 518.920952 98.516675 
L 522.731451 100.838861 
L 530.35245 100.859614 
L 534.162949 101.21207 
L 537.973448 102.376092 
L 541.783948 102.552195 
L 545.594447 102.87087 
L 549.404946 103.450758 
L 557.025945 103.770498 
L 560.836444 104.551248 
L 564.646944 104.551248 
L 568.457443 105.173751 
L 591.320439 105.233888 
L 595.130939 107.727137 
L 598.941438 109.866252 
L 602.751937 110.133544 
L 610.372936 110.210906 
L 625.614934 110.558661 
L 629.425433 110.755461 
L 637.046432 111.926425 
L 640.856931 113.397206 
L 648.47793 113.852933 
L 652.288429 114.557293 
L 656.098928 113.860851 
L 659.909428 112.095857 
L 663.719927 107.83131 
L 667.530427 107.83131 
L 671.340926 92.834117 
L 675.151425 95.212559 
L 678.961925 95.505738 
L 682.772424 95.505738 
L 686.582923 99.914914 
L 686.582923 99.914914 
" style="fill:none;stroke:#4c72b0;stroke-linecap:round;stroke-width:2.25;"/>
   </g>
   <g id="line2d_15">
    <path clip-path="url(#p555a93ee53)" style="fill:none;stroke:#dd8452;stroke-linecap:round;stroke-width:2.25;"/>
   </g>
   <g id="line2d_16">
    <path clip-path="url(#p555a93ee53)" d="M 244.042037 -1 
L 244.564998 -0.895073 
L 248.375497 0.163066 
L 252.185996 2.15381 
L 255.996496 2.793149 
L 259.806995 3.739755 
L 263.617494 5.150811 
L 267.427994 8.175244 
L 271.238493 9.795667 
L 275.048992 11.864741 
L 278.859492 13.606167 
L 282.669991 14.671688 
L 286.480491 15.934817 
L 290.29099 18.694169 
L 294.101489 20.911403 
L 297.911989 21.976735 
L 301.722488 23.96642 
L 305.532987 27.205421 
L 309.343487 28.143404 
L 313.153986 31.055257 
L 316.964485 32.435637 
L 320.774985 33.121598 
L 324.585484 34.987254 
L 328.395984 35.824567 
L 332.206483 38.106465 
L 336.016982 38.603765 
L 339.827482 40.730067 
L 343.637981 41.487884 
L 347.44848 43.757416 
L 351.25898 45.358774 
L 355.069479 46.819281 
L 358.879978 47.516915 
L 362.690478 53.152778 
L 366.500977 53.670955 
L 370.311476 55.429099 
L 374.121976 56.440388 
L 377.932475 57.078298 
L 385.553474 60.821543 
L 389.363973 61.598122 
L 393.174473 63.836573 
L 396.984972 65.57395 
L 400.795471 68.793094 
L 404.605971 70.194503 
L 408.41647 70.731521 
L 412.226969 73.087092 
L 416.037469 73.822939 
L 419.847968 75.404803 
L 423.658468 77.369859 
L 427.468967 80.634972 
L 431.279466 81.745246 
L 435.089966 82.347772 
L 438.900465 83.882427 
L 442.710964 86.05452 
L 446.521464 88.368033 
L 450.331963 90.212765 
L 454.142462 90.761054 
L 457.952962 92.007628 
L 461.763461 93.492815 
L 465.57396 93.976723 
L 469.38446 96.913179 
L 473.194959 96.965056 
L 477.005459 99.37855 
L 480.815958 101.205509 
L 484.626457 102.385554 
L 488.436957 103.022886 
L 496.057955 105.649524 
L 499.868455 106.524283 
L 503.678954 107.253986 
L 507.489453 112.93348 
L 511.299953 113.273248 
L 515.110452 114.506664 
L 518.920952 115.25225 
L 522.731451 115.755249 
L 526.54195 117.862963 
L 530.35245 118.102946 
L 534.162949 119.689778 
L 537.973448 120.755817 
L 541.783948 121.201245 
L 545.594447 122.104006 
L 549.404946 123.380278 
L 553.215446 123.442223 
L 557.025945 124.29235 
L 560.836444 126.771851 
L 564.646944 127.295432 
L 568.457443 128.058743 
L 572.267943 128.548511 
L 576.078442 128.683619 
L 579.888941 129.426802 
L 583.699441 131.838227 
L 587.50994 132.410359 
L 591.320439 132.71168 
L 595.130939 133.705731 
L 598.941438 135.565315 
L 602.751937 136.479165 
L 606.562437 137.699706 
L 614.183436 138.379635 
L 617.993935 138.796827 
L 621.804434 139.866315 
L 625.614934 141.656097 
L 629.425433 142.238217 
L 633.235932 142.703187 
L 640.856931 143.209829 
L 644.66743 144.43362 
L 648.47793 146.548389 
L 652.288429 147.500348 
L 656.098928 147.627441 
L 659.909428 148.131104 
L 663.719927 153.587851 
L 667.530427 154.084808 
L 671.340926 154.707025 
L 675.151425 155.674359 
L 678.961925 156.849846 
L 682.772424 157.106748 
L 686.582923 157.48126 
L 690.393423 157.545068 
L 694.203922 158.138107 
L 698.014421 158.902894 
L 701.824921 158.831025 
L 705.63542 159.524933 
L 709.44592 160.059695 
L 713.256419 160.1211 
L 717.066918 161.59165 
L 720.877418 162.568303 
L 724.687917 163.709523 
L 728.498416 164.321952 
L 732.308916 164.810797 
L 736.119415 165.41892 
L 739.929914 166.789479 
L 743.740414 167.330469 
L 747.550913 167.69479 
L 755.171912 168.802086 
L 758.982411 169.04571 
L 762.792911 169.851266 
L 770.413909 171.096364 
L 774.224409 171.401674 
L 778.034908 179.540278 
L 781.845407 179.862088 
L 785.655907 176.413478 
L 789.466406 177.42753 
L 793.276905 177.892846 
L 797.087405 178.535238 
L 800.897904 178.650756 
L 804.708404 180.584414 
L 808.518903 180.848993 
L 812.329402 181.309364 
L 816.139902 178.760584 
L 819.950401 166.62884 
L 823.7609 145.631552 
L 827.5714 147.830427 
L 835.192398 147.830427 
L 839.002898 149.753752 
L 842.813397 149.753752 
L 846.623896 147.372029 
L 850.434396 147.522025 
L 858.055395 147.522025 
L 861.865894 149.489567 
L 869.486893 149.489567 
L 873.297392 149.604355 
L 877.107891 149.604355 
L 880.918391 149.818255 
L 884.72889 151.818614 
L 892.349889 151.818614 
L 896.160388 152.180027 
L 903.781387 152.180027 
L 907.591886 153.442116 
L 911.402386 153.957765 
L 915.212885 153.957765 
L 915.212885 153.957765 
" style="fill:none;stroke:#55a868;stroke-linecap:round;stroke-width:2.25;"/>
   </g>
   <g id="line2d_17">
    <path clip-path="url(#p555a93ee53)" d="M 164.937439 -1 
L 168.35501 4.012377 
L 172.16551 6.953063 
L 175.976009 13.098797 
L 179.786509 17.648218 
L 183.597008 18.008976 
L 187.407507 19.768798 
L 191.218007 22.836481 
L 198.839005 26.738993 
L 202.649505 26.983914 
L 206.460004 26.983914 
L 210.270503 28.781941 
L 214.081003 29.738082 
L 217.891502 32.126343 
L 221.702001 34.000011 
L 225.512501 34.474778 
L 229.323 34.576313 
L 233.1335 35.042784 
L 236.943999 36.022163 
L 240.754498 40.660913 
L 244.564998 40.866194 
L 248.375497 44.049219 
L 252.185996 44.049219 
L 255.996496 44.529556 
L 259.806995 44.847328 
L 263.617494 47.938748 
L 267.427994 48.382905 
L 271.238493 50.414588 
L 275.048992 52.690261 
L 278.859492 53.808149 
L 286.480491 54.425023 
L 290.29099 54.538076 
L 294.101489 55.405257 
L 297.911989 57.318682 
L 301.722488 58.551571 
L 309.343487 58.711657 
L 313.153986 61.193204 
L 316.964485 61.504826 
L 320.774985 63.822955 
L 324.585484 64.127956 
L 328.395984 64.817658 
L 332.206483 66.443926 
L 336.016982 66.818268 
L 339.827482 66.876731 
L 343.637981 70.438451 
L 347.44848 72.294606 
L 351.25898 74.500617 
L 355.069479 74.948287 
L 362.690478 76.338465 
L 366.500977 78.063791 
L 370.311476 80.294773 
L 374.121976 83.268445 
L 377.932475 83.800214 
L 381.742975 85.192229 
L 385.553474 86.236006 
L 389.363973 86.526839 
L 396.984972 86.61946 
L 400.795471 88.694568 
L 404.605971 87.198044 
L 408.41647 87.421846 
L 412.226969 89.50196 
L 416.037469 89.801012 
L 423.658468 90.073178 
L 427.468967 93.002903 
L 431.279466 93.837393 
L 442.710964 95.128998 
L 446.521464 95.664757 
L 450.331963 97.624182 
L 454.142462 98.744977 
L 457.952962 98.77251 
L 461.763461 99.144333 
L 465.57396 100.054858 
L 469.38446 100.702445 
L 473.194959 101.865064 
L 477.005459 103.581834 
L 480.815958 105.107881 
L 484.626457 106.093538 
L 488.436957 106.396133 
L 492.247456 107.915592 
L 496.057955 108.200931 
L 499.868455 108.731882 
L 503.678954 108.812214 
L 507.489453 109.053052 
L 511.299953 109.127643 
L 515.110452 104.886132 
L 518.920952 106.880558 
L 522.731451 107.909353 
L 526.54195 108.547268 
L 530.35245 109.045903 
L 534.162949 105.819825 
L 537.973448 106.194064 
L 541.783948 107.295235 
L 545.594447 108.161951 
L 549.404946 108.507099 
L 553.215446 107.614832 
L 560.836444 107.614832 
L 564.646944 108.127772 
L 568.457443 109.280028 
L 572.267943 111.137134 
L 576.078442 111.161921 
L 579.888941 111.622849 
L 583.699441 111.622849 
L 587.50994 111.913145 
L 591.320439 112.874537 
L 595.130939 114.089121 
L 598.941438 114.25659 
L 602.751937 114.277813 
L 606.562437 114.956344 
L 614.183436 115.061339 
L 617.993935 116.67478 
L 621.804434 115.941427 
L 625.614934 116.111513 
L 629.425433 116.533634 
L 633.235932 117.55318 
L 637.046432 117.905326 
L 640.856931 118.090437 
L 644.66743 118.567439 
L 648.47793 118.839345 
L 652.288429 119.592705 
L 656.098928 119.592705 
L 659.909428 121.386765 
L 663.719927 121.519879 
L 667.530427 121.519879 
L 671.340926 121.840146 
L 675.151425 122.829631 
L 678.961925 124.300068 
L 682.772424 124.825552 
L 694.203922 124.825552 
L 698.014421 127.608232 
L 705.63542 127.608232 
L 709.44592 127.814953 
L 713.256419 127.814953 
L 717.066918 127.95846 
L 720.877418 128.317973 
L 724.687917 131.037566 
L 732.308916 131.109343 
L 739.929914 131.110592 
L 743.740414 131.584825 
L 747.550913 132.683985 
L 751.361412 134.167167 
L 766.60341 134.167167 
L 770.413909 135.741498 
L 781.845407 135.741498 
L 785.655907 136.451078 
L 789.466406 136.451078 
L 793.276905 138.298635 
L 804.708404 138.298635 
L 808.518903 138.934084 
L 816.139902 138.943071 
L 819.950401 140.569555 
L 827.5714 140.569555 
L 831.381899 141.172732 
L 842.813397 141.172732 
L 846.623896 142.981608 
L 854.244895 142.981608 
L 858.055395 143.824075 
L 865.676393 143.824075 
L 869.486893 144.940853 
L 877.107891 144.940853 
L 880.918391 145.87007 
L 888.539389 145.87007 
L 892.349889 146.290684 
L 896.160388 146.861881 
L 899.970888 146.861881 
L 899.970888 146.861881 
" style="fill:none;stroke:#c44e52;stroke-linecap:round;stroke-width:2.25;"/>
   </g>
   <g id="line2d_18">
    <path clip-path="url(#p555a93ee53)" d="M 244.918291 -1 
L 248.375497 5.185429 
L 252.185996 6.282747 
L 255.996496 9.505924 
L 259.806995 11.685214 
L 263.617494 12.499728 
L 267.427994 13.43579 
L 271.238493 16.668735 
L 275.048992 19.811097 
L 278.859492 20.840893 
L 282.669991 23.454607 
L 286.480491 24.433298 
L 290.29099 25.625981 
L 294.101489 27.177956 
L 297.911989 34.821599 
L 301.722488 39.224692 
L 305.532987 39.568463 
L 309.343487 41.208001 
L 313.153986 42.410508 
L 316.964485 43.440152 
L 320.774985 46.16619 
L 324.585484 56.110703 
L 328.395984 56.357748 
L 332.206483 57.787722 
L 336.016982 62.837217 
L 339.827482 63.751708 
L 343.637981 66.205407 
L 347.44848 67.684869 
L 351.25898 70.293619 
L 355.069479 70.293619 
L 358.879978 71.119952 
L 362.690478 73.74153 
L 366.500977 74.371705 
L 370.311476 75.433197 
L 374.121976 82.564456 
L 377.932475 93.879293 
L 381.742975 103.37995 
L 385.553474 103.924307 
L 389.363973 105.904907 
L 393.174473 112.607777 
L 396.984972 113.748733 
L 400.795471 113.753514 
L 404.605971 116.011025 
L 408.41647 117.392719 
L 412.226969 118.9271 
L 416.037469 118.958974 
L 419.847968 120.297512 
L 423.658468 121.497126 
L 427.468967 122.097535 
L 431.279466 122.621474 
L 435.089966 124.860014 
L 438.900465 128.904617 
L 442.710964 129.16556 
L 446.521464 130.859934 
L 450.331963 130.890477 
L 454.142462 130.992754 
L 457.952962 133.339209 
L 461.763461 148.328171 
L 465.57396 148.470207 
L 469.38446 151.143828 
L 473.194959 154.624802 
L 477.005459 154.624802 
L 480.815958 155.222949 
L 484.626457 156.407536 
L 488.436957 156.706409 
L 492.247456 157.77763 
L 496.057955 159.619986 
L 499.868455 160.28869 
L 503.678954 176.772208 
L 507.489453 177.345854 
L 511.299953 177.345854 
L 515.110452 179.153384 
L 518.920952 179.153384 
L 522.731451 179.153384 
L 526.54195 182.88821 
L 530.35245 182.88821 
L 534.162949 183.139434 
L 537.973448 184.524507 
L 541.783948 186.393681 
L 545.594447 187.57217 
L 549.404946 187.57217 
L 553.215446 187.57217 
L 557.025945 187.57217 
L 560.836444 164.736423 
L 564.646944 168.947124 
L 568.457443 168.947124 
L 572.267943 168.947124 
" style="fill:none;stroke:#8172b3;stroke-linecap:round;stroke-width:2.25;"/>
   </g>
   <g id="line2d_19">
    <path clip-path="url(#p555a93ee53)" d="M 222.04022 -1 
L 225.512501 0.487063 
L 229.323 0.648723 
L 233.1335 2.821459 
L 236.943999 6.644606 
L 240.754498 6.644606 
L 244.564998 8.786017 
L 248.375497 10.653383 
L 252.185996 11.018494 
L 255.996496 15.080993 
L 259.806995 18.36231 
L 263.617494 20.078475 
L 267.427994 20.078475 
L 271.238493 21.584633 
L 275.048992 23.445165 
L 278.859492 25.039879 
L 282.669991 27.050741 
L 286.480491 29.166501 
L 290.29099 30.558753 
L 294.101489 30.558753 
L 297.911989 34.087066 
L 301.722488 34.885416 
L 305.532987 35.289532 
L 309.343487 37.204908 
L 313.153986 44.903725 
L 316.964485 45.699415 
L 320.774985 49.783694 
L 324.585484 51.257479 
L 328.395984 51.257479 
L 332.206483 51.868576 
L 336.016982 52.608563 
L 339.827482 54.697107 
L 343.637981 56.368384 
L 347.44848 58.921047 
L 351.25898 61.29409 
L 355.069479 60.217363 
L 358.879978 60.299878 
L 362.690478 60.895837 
L 366.500977 61.540405 
L 370.311476 61.019246 
L 374.121976 67.347707 
L 377.932475 68.801729 
L 381.742975 70.748941 
L 385.553474 70.936729 
L 389.363973 72.281377 
L 393.174473 69.735314 
L 396.984972 69.590597 
L 400.795471 69.590597 
L 404.605971 73.367096 
L 408.41647 78.205146 
L 412.226969 78.205146 
L 416.037469 73.843008 
L 419.847968 72.983815 
L 423.658468 72.983815 
" style="fill:none;stroke:#937860;stroke-linecap:round;stroke-width:2.25;"/>
   </g>
   <g id="line2d_20"/>
   <g id="line2d_21"/>
   <g id="line2d_22"/>
   <g id="line2d_23"/>
   <g id="line2d_24"/>
   <g id="line2d_25"/>
   <g id="line2d_26"/>
   <g id="patch_3">
    <path d="M 62.994703 293.28368 
L 62.994703 21.48368 
" style="fill:none;stroke:#ffffff;stroke-linecap:square;stroke-linejoin:miter;stroke-width:1.875;"/>
   </g>
   <g id="patch_4">
    <path d="M 955.794703 293.28368 
L 955.794703 21.48368 
" style="fill:none;stroke:#ffffff;stroke-linecap:square;stroke-linejoin:miter;stroke-width:1.875;"/>
   </g>
   <g id="patch_5">
    <path d="M 62.994703 293.28368 
L 955.794703 293.28368 
" style="fill:none;stroke:#ffffff;stroke-linecap:square;stroke-linejoin:miter;stroke-width:1.875;"/>
   </g>
   <g id="patch_6">
    <path d="M 62.994703 21.48368 
L 955.794703 21.48368 
" style="fill:none;stroke:#ffffff;stroke-linecap:square;stroke-linejoin:miter;stroke-width:1.875;"/>
   </g>
   <g id="legend_1">
    <g id="patch_7">
     <path d="M 73.389703 285.85868 
L 234.663023 285.85868 
Q 237.633023 285.85868 237.633023 282.88868 
L 237.633023 131.79457 
Q 237.633023 128.82457 234.663023 128.82457 
L 73.389703 128.82457 
Q 70.419703 128.82457 70.419703 131.79457 
L 70.419703 282.88868 
Q 70.419703 285.85868 73.389703 285.85868 
z
" style="fill:#eaeaf2;opacity:0.8;stroke:#cccccc;stroke-linejoin:miter;stroke-width:1.5;"/>
    </g>
    <g id="line2d_27">
     <path d="M 76.359703 140.85075 
L 106.059703 140.85075 
" style="fill:none;"/>
    </g>
    <g id="line2d_28"/>
    <g id="text_17">
     <!-- parameters -->
     <defs>
      <path d="M 18.109375 8.203125 
L 18.109375 -20.796875 
L 9.078125 -20.796875 
L 9.078125 54.6875 
L 18.109375 54.6875 
L 18.109375 46.390625 
Q 20.953125 51.265625 25.265625 53.625 
Q 29.59375 56 35.59375 56 
Q 45.5625 56 51.78125 48.09375 
Q 58.015625 40.1875 58.015625 27.296875 
Q 58.015625 14.40625 51.78125 6.484375 
Q 45.5625 -1.421875 35.59375 -1.421875 
Q 29.59375 -1.421875 25.265625 0.953125 
Q 20.953125 3.328125 18.109375 8.203125 
z
M 48.6875 27.296875 
Q 48.6875 37.203125 44.609375 42.84375 
Q 40.53125 48.484375 33.40625 48.484375 
Q 26.265625 48.484375 22.1875 42.84375 
Q 18.109375 37.203125 18.109375 27.296875 
Q 18.109375 17.390625 22.1875 11.75 
Q 26.265625 6.109375 33.40625 6.109375 
Q 40.53125 6.109375 44.609375 11.75 
Q 48.6875 17.390625 48.6875 27.296875 
z
" id="DejaVuSans-112"/>
      <path d="M 52 44.1875 
Q 55.375 50.25 60.0625 53.125 
Q 64.75 56 71.09375 56 
Q 79.640625 56 84.28125 50.015625 
Q 88.921875 44.046875 88.921875 33.015625 
L 88.921875 0 
L 79.890625 0 
L 79.890625 32.71875 
Q 79.890625 40.578125 77.09375 44.375 
Q 74.3125 48.1875 68.609375 48.1875 
Q 61.625 48.1875 57.5625 43.546875 
Q 53.515625 38.921875 53.515625 30.90625 
L 53.515625 0 
L 44.484375 0 
L 44.484375 32.71875 
Q 44.484375 40.625 41.703125 44.40625 
Q 38.921875 48.1875 33.109375 48.1875 
Q 26.21875 48.1875 22.15625 43.53125 
Q 18.109375 38.875 18.109375 30.90625 
L 18.109375 0 
L 9.078125 0 
L 9.078125 54.6875 
L 18.109375 54.6875 
L 18.109375 46.1875 
Q 21.1875 51.21875 25.484375 53.609375 
Q 29.78125 56 35.6875 56 
Q 41.65625 56 45.828125 52.96875 
Q 50 49.953125 52 44.1875 
z
" id="DejaVuSans-109"/>
      <path d="M 44.28125 53.078125 
L 44.28125 44.578125 
Q 40.484375 46.53125 36.375 47.5 
Q 32.28125 48.484375 27.875 48.484375 
Q 21.1875 48.484375 17.84375 46.4375 
Q 14.5 44.390625 14.5 40.28125 
Q 14.5 37.15625 16.890625 35.375 
Q 19.28125 33.59375 26.515625 31.984375 
L 29.59375 31.296875 
Q 39.15625 29.25 43.1875 25.515625 
Q 47.21875 21.78125 47.21875 15.09375 
Q 47.21875 7.46875 41.1875 3.015625 
Q 35.15625 -1.421875 24.609375 -1.421875 
Q 20.21875 -1.421875 15.453125 -0.5625 
Q 10.6875 0.296875 5.421875 2 
L 5.421875 11.28125 
Q 10.40625 8.6875 15.234375 7.390625 
Q 20.0625 6.109375 24.8125 6.109375 
Q 31.15625 6.109375 34.5625 8.28125 
Q 37.984375 10.453125 37.984375 14.40625 
Q 37.984375 18.0625 35.515625 20.015625 
Q 33.0625 21.96875 24.703125 23.78125 
L 21.578125 24.515625 
Q 13.234375 26.265625 9.515625 29.90625 
Q 5.8125 33.546875 5.8125 39.890625 
Q 5.8125 47.609375 11.28125 51.796875 
Q 16.75 56 26.8125 56 
Q 31.78125 56 36.171875 55.265625 
Q 40.578125 54.546875 44.28125 53.078125 
z
" id="DejaVuSans-115"/>
     </defs>
     <g style="fill:#262626;" transform="translate(117.939703 146.04825)scale(0.1485 -0.1485)">
      <use xlink:href="#DejaVuSans-112"/>
      <use x="63.476562" xlink:href="#DejaVuSans-97"/>
      <use x="124.755859" xlink:href="#DejaVuSans-114"/>
      <use x="165.869141" xlink:href="#DejaVuSans-97"/>
      <use x="227.148438" xlink:href="#DejaVuSans-109"/>
      <use x="324.560547" xlink:href="#DejaVuSans-101"/>
      <use x="386.083984" xlink:href="#DejaVuSans-116"/>
      <use x="425.292969" xlink:href="#DejaVuSans-101"/>
      <use x="486.816406" xlink:href="#DejaVuSans-114"/>
      <use x="527.929688" xlink:href="#DejaVuSans-115"/>
     </g>
    </g>
    <g id="line2d_29">
     <path d="M 76.359703 162.647766 
L 106.059703 162.647766 
" style="fill:none;stroke:#4c72b0;stroke-linecap:round;stroke-width:2.25;"/>
    </g>
    <g id="line2d_30"/>
    <g id="text_18">
     <!-- TPE-S -->
     <defs>
      <path d="M -0.296875 72.90625 
L 61.375 72.90625 
L 61.375 64.59375 
L 35.5 64.59375 
L 35.5 0 
L 25.59375 0 
L 25.59375 64.59375 
L -0.296875 64.59375 
z
" id="DejaVuSans-84"/>
      <path d="M 19.671875 64.796875 
L 19.671875 37.40625 
L 32.078125 37.40625 
Q 38.96875 37.40625 42.71875 40.96875 
Q 46.484375 44.53125 46.484375 51.125 
Q 46.484375 57.671875 42.71875 61.234375 
Q 38.96875 64.796875 32.078125 64.796875 
z
M 9.8125 72.90625 
L 32.078125 72.90625 
Q 44.34375 72.90625 50.609375 67.359375 
Q 56.890625 61.8125 56.890625 51.125 
Q 56.890625 40.328125 50.609375 34.8125 
Q 44.34375 29.296875 32.078125 29.296875 
L 19.671875 29.296875 
L 19.671875 0 
L 9.8125 0 
z
" id="DejaVuSans-80"/>
      <path d="M 9.8125 72.90625 
L 55.90625 72.90625 
L 55.90625 64.59375 
L 19.671875 64.59375 
L 19.671875 43.015625 
L 54.390625 43.015625 
L 54.390625 34.71875 
L 19.671875 34.71875 
L 19.671875 8.296875 
L 56.78125 8.296875 
L 56.78125 0 
L 9.8125 0 
z
" id="DejaVuSans-69"/>
      <path d="M 4.890625 31.390625 
L 31.203125 31.390625 
L 31.203125 23.390625 
L 4.890625 23.390625 
z
" id="DejaVuSans-45"/>
      <path d="M 53.515625 70.515625 
L 53.515625 60.890625 
Q 47.90625 63.578125 42.921875 64.890625 
Q 37.9375 66.21875 33.296875 66.21875 
Q 25.25 66.21875 20.875 63.09375 
Q 16.5 59.96875 16.5 54.203125 
Q 16.5 49.359375 19.40625 46.890625 
Q 22.3125 44.4375 30.421875 42.921875 
L 36.375 41.703125 
Q 47.40625 39.59375 52.65625 34.296875 
Q 57.90625 29 57.90625 20.125 
Q 57.90625 9.515625 50.796875 4.046875 
Q 43.703125 -1.421875 29.984375 -1.421875 
Q 24.8125 -1.421875 18.96875 -0.25 
Q 13.140625 0.921875 6.890625 3.21875 
L 6.890625 13.375 
Q 12.890625 10.015625 18.65625 8.296875 
Q 24.421875 6.59375 29.984375 6.59375 
Q 38.421875 6.59375 43.015625 9.90625 
Q 47.609375 13.234375 47.609375 19.390625 
Q 47.609375 24.75 44.3125 27.78125 
Q 41.015625 30.8125 33.5 32.328125 
L 27.484375 33.5 
Q 16.453125 35.6875 11.515625 40.375 
Q 6.59375 45.0625 6.59375 53.421875 
Q 6.59375 63.09375 13.40625 68.65625 
Q 20.21875 74.21875 32.171875 74.21875 
Q 37.3125 74.21875 42.625 73.28125 
Q 47.953125 72.359375 53.515625 70.515625 
z
" id="DejaVuSans-83"/>
     </defs>
     <g style="fill:#262626;" transform="translate(117.939703 167.845266)scale(0.1485 -0.1485)">
      <use xlink:href="#DejaVuSans-84"/>
      <use x="61.083984" xlink:href="#DejaVuSans-80"/>
      <use x="121.386719" xlink:href="#DejaVuSans-69"/>
      <use x="184.570312" xlink:href="#DejaVuSans-45"/>
      <use x="220.654297" xlink:href="#DejaVuSans-83"/>
     </g>
    </g>
    <g id="line2d_31">
     <path d="M 76.359703 184.444781 
L 106.059703 184.444781 
" style="fill:none;stroke:#dd8452;stroke-linecap:round;stroke-width:2.25;"/>
    </g>
    <g id="line2d_32"/>
    <g id="text_19">
     <!-- BRR-S -->
     <defs>
      <path d="M 19.671875 34.8125 
L 19.671875 8.109375 
L 35.5 8.109375 
Q 43.453125 8.109375 47.28125 11.40625 
Q 51.125 14.703125 51.125 21.484375 
Q 51.125 28.328125 47.28125 31.5625 
Q 43.453125 34.8125 35.5 34.8125 
z
M 19.671875 64.796875 
L 19.671875 42.828125 
L 34.28125 42.828125 
Q 41.5 42.828125 45.03125 45.53125 
Q 48.578125 48.25 48.578125 53.8125 
Q 48.578125 59.328125 45.03125 62.0625 
Q 41.5 64.796875 34.28125 64.796875 
z
M 9.8125 72.90625 
L 35.015625 72.90625 
Q 46.296875 72.90625 52.390625 68.21875 
Q 58.5 63.53125 58.5 54.890625 
Q 58.5 48.1875 55.375 44.234375 
Q 52.25 40.28125 46.1875 39.3125 
Q 53.46875 37.75 57.5 32.78125 
Q 61.53125 27.828125 61.53125 20.40625 
Q 61.53125 10.640625 54.890625 5.3125 
Q 48.25 0 35.984375 0 
L 9.8125 0 
z
" id="DejaVuSans-66"/>
      <path d="M 44.390625 34.1875 
Q 47.5625 33.109375 50.5625 29.59375 
Q 53.5625 26.078125 56.59375 19.921875 
L 66.609375 0 
L 56 0 
L 46.6875 18.703125 
Q 43.0625 26.03125 39.671875 28.421875 
Q 36.28125 30.8125 30.421875 30.8125 
L 19.671875 30.8125 
L 19.671875 0 
L 9.8125 0 
L 9.8125 72.90625 
L 32.078125 72.90625 
Q 44.578125 72.90625 50.734375 67.671875 
Q 56.890625 62.453125 56.890625 51.90625 
Q 56.890625 45.015625 53.6875 40.46875 
Q 50.484375 35.9375 44.390625 34.1875 
z
M 19.671875 64.796875 
L 19.671875 38.921875 
L 32.078125 38.921875 
Q 39.203125 38.921875 42.84375 42.21875 
Q 46.484375 45.515625 46.484375 51.90625 
Q 46.484375 58.296875 42.84375 61.546875 
Q 39.203125 64.796875 32.078125 64.796875 
z
" id="DejaVuSans-82"/>
     </defs>
     <g style="fill:#262626;" transform="translate(117.939703 189.642281)scale(0.1485 -0.1485)">
      <use xlink:href="#DejaVuSans-66"/>
      <use x="68.603516" xlink:href="#DejaVuSans-82"/>
      <use x="138.085938" xlink:href="#DejaVuSans-82"/>
      <use x="203.568359" xlink:href="#DejaVuSans-45"/>
      <use x="239.652344" xlink:href="#DejaVuSans-83"/>
     </g>
    </g>
    <g id="line2d_33">
     <path d="M 76.359703 206.241797 
L 106.059703 206.241797 
" style="fill:none;stroke:#55a868;stroke-linecap:round;stroke-width:2.25;"/>
    </g>
    <g id="line2d_34"/>
    <g id="text_20">
     <!-- FRAMAB-H-TPE -->
     <defs>
      <path d="M 9.8125 72.90625 
L 51.703125 72.90625 
L 51.703125 64.59375 
L 19.671875 64.59375 
L 19.671875 43.109375 
L 48.578125 43.109375 
L 48.578125 34.8125 
L 19.671875 34.8125 
L 19.671875 0 
L 9.8125 0 
z
" id="DejaVuSans-70"/>
      <path d="M 34.1875 63.1875 
L 20.796875 26.90625 
L 47.609375 26.90625 
z
M 28.609375 72.90625 
L 39.796875 72.90625 
L 67.578125 0 
L 57.328125 0 
L 50.6875 18.703125 
L 17.828125 18.703125 
L 11.1875 0 
L 0.78125 0 
z
" id="DejaVuSans-65"/>
      <path d="M 9.8125 72.90625 
L 24.515625 72.90625 
L 43.109375 23.296875 
L 61.8125 72.90625 
L 76.515625 72.90625 
L 76.515625 0 
L 66.890625 0 
L 66.890625 64.015625 
L 48.09375 14.015625 
L 38.1875 14.015625 
L 19.390625 64.015625 
L 19.390625 0 
L 9.8125 0 
z
" id="DejaVuSans-77"/>
      <path d="M 9.8125 72.90625 
L 19.671875 72.90625 
L 19.671875 43.015625 
L 55.515625 43.015625 
L 55.515625 72.90625 
L 65.375 72.90625 
L 65.375 0 
L 55.515625 0 
L 55.515625 34.71875 
L 19.671875 34.71875 
L 19.671875 0 
L 9.8125 0 
z
" id="DejaVuSans-72"/>
     </defs>
     <g style="fill:#262626;" transform="translate(117.939703 211.439297)scale(0.1485 -0.1485)">
      <use xlink:href="#DejaVuSans-70"/>
      <use x="57.519531" xlink:href="#DejaVuSans-82"/>
      <use x="123.001953" xlink:href="#DejaVuSans-65"/>
      <use x="191.410156" xlink:href="#DejaVuSans-77"/>
      <use x="277.689453" xlink:href="#DejaVuSans-65"/>
      <use x="346.097656" xlink:href="#DejaVuSans-66"/>
      <use x="414.701172" xlink:href="#DejaVuSans-45"/>
      <use x="450.785156" xlink:href="#DejaVuSans-72"/>
      <use x="525.980469" xlink:href="#DejaVuSans-45"/>
      <use x="552.939453" xlink:href="#DejaVuSans-84"/>
      <use x="614.023438" xlink:href="#DejaVuSans-80"/>
      <use x="674.326172" xlink:href="#DejaVuSans-69"/>
     </g>
    </g>
    <g id="line2d_35">
     <path d="M 76.359703 228.038813 
L 106.059703 228.038813 
" style="fill:none;stroke:#c44e52;stroke-linecap:round;stroke-width:2.25;"/>
    </g>
    <g id="line2d_36"/>
    <g id="text_21">
     <!-- FRAMAB-H-BRR -->
     <g style="fill:#262626;" transform="translate(117.939703 233.236313)scale(0.1485 -0.1485)">
      <use xlink:href="#DejaVuSans-70"/>
      <use x="57.519531" xlink:href="#DejaVuSans-82"/>
      <use x="123.001953" xlink:href="#DejaVuSans-65"/>
      <use x="191.410156" xlink:href="#DejaVuSans-77"/>
      <use x="277.689453" xlink:href="#DejaVuSans-65"/>
      <use x="346.097656" xlink:href="#DejaVuSans-66"/>
      <use x="414.701172" xlink:href="#DejaVuSans-45"/>
      <use x="450.785156" xlink:href="#DejaVuSans-72"/>
      <use x="525.980469" xlink:href="#DejaVuSans-45"/>
      <use x="558.439453" xlink:href="#DejaVuSans-66"/>
      <use x="627.042969" xlink:href="#DejaVuSans-82"/>
      <use x="696.525391" xlink:href="#DejaVuSans-82"/>
     </g>
    </g>
    <g id="line2d_37">
     <path d="M 76.359703 249.835828 
L 106.059703 249.835828 
" style="fill:none;stroke:#8172b3;stroke-linecap:round;stroke-width:2.25;"/>
    </g>
    <g id="line2d_38"/>
    <g id="text_22">
     <!-- BRR-H-TPE -->
     <g style="fill:#262626;" transform="translate(117.939703 255.033328)scale(0.1485 -0.1485)">
      <use xlink:href="#DejaVuSans-66"/>
      <use x="68.603516" xlink:href="#DejaVuSans-82"/>
      <use x="138.085938" xlink:href="#DejaVuSans-82"/>
      <use x="203.568359" xlink:href="#DejaVuSans-45"/>
      <use x="239.652344" xlink:href="#DejaVuSans-72"/>
      <use x="314.847656" xlink:href="#DejaVuSans-45"/>
      <use x="341.806641" xlink:href="#DejaVuSans-84"/>
      <use x="402.890625" xlink:href="#DejaVuSans-80"/>
      <use x="463.193359" xlink:href="#DejaVuSans-69"/>
     </g>
    </g>
    <g id="line2d_39">
     <path d="M 76.359703 271.632844 
L 106.059703 271.632844 
" style="fill:none;stroke:#937860;stroke-linecap:round;stroke-width:2.25;"/>
    </g>
    <g id="line2d_40"/>
    <g id="text_23">
     <!-- BRR-H-BRR -->
     <g style="fill:#262626;" transform="translate(117.939703 276.830344)scale(0.1485 -0.1485)">
      <use xlink:href="#DejaVuSans-66"/>
      <use x="68.603516" xlink:href="#DejaVuSans-82"/>
      <use x="138.085938" xlink:href="#DejaVuSans-82"/>
      <use x="203.568359" xlink:href="#DejaVuSans-45"/>
      <use x="239.652344" xlink:href="#DejaVuSans-72"/>
      <use x="314.847656" xlink:href="#DejaVuSans-45"/>
      <use x="347.306641" xlink:href="#DejaVuSans-66"/>
      <use x="415.910156" xlink:href="#DejaVuSans-82"/>
      <use x="485.392578" xlink:href="#DejaVuSans-82"/>
     </g>
    </g>
   </g>
  </g>
 </g>
 <defs>
  <clipPath id="p555a93ee53">
   <rect height="271.8" width="892.8" x="62.994703" y="21.48368"/>
  </clipPath>
 </defs>
</svg>
